<svg width="220" height="35" viewBox="0 0 220 35" fill="none" xmlns="http://www.w3.org/2000/svg">
<path d="M15.1458 33.109C14.8101 33.3456 14.4187 33.4582 14.0302 33.4547C13.4889 33.4851 12.9404 33.2896 12.5405 32.8748L12.4625 32.7887L4.74017 23.749L6.19752 22.5041L13.9172 31.5406C13.9188 31.5408 13.921 31.5412 13.923 31.5411L13.9851 31.5371L14.0468 31.5379L22.9175 23.9598C25.148 22.0543 25.4725 18.7462 23.702 16.4477L23.5246 16.2286C21.6983 14.0908 18.5816 13.7033 16.3036 15.2348L15.0464 16.0797L13.9335 15.0515C12.0215 13.2848 9.07871 13.1372 6.99348 14.7554L6.7943 14.9179C4.53483 16.8482 4.2677 20.2447 6.19752 22.5041L4.74017 23.749C2.12258 20.6846 2.48505 16.0783 5.54933 13.4605C8.39053 11.0334 12.5559 11.1689 15.2343 13.6436C18.3107 11.5755 22.5159 12.097 24.9819 14.9836C27.6366 18.0912 27.27 22.7624 24.1625 25.4171L15.2861 33.0001L15.1458 33.109Z" fill="#2C2320"/>
<path d="M32.5885 32.9086C32.2372 33.3533 31.7106 33.5752 31.1846 33.5596C30.7944 33.5688 30.3985 33.4479 30.0684 33.187L21.6138 26.5073L22.8021 25.0034L31.1688 31.6137L37.6132 23.457C39.1971 21.4522 38.9157 18.5708 37.0149 16.906L36.8265 16.7487C34.9096 15.2342 32.189 15.4249 30.5005 17.1075L29.4267 18.1778L28.1385 17.3798C26.2158 16.1892 23.6811 16.5561 22.1771 18.2855L22.0343 18.4569C20.4388 20.4765 20.7826 23.4078 22.8021 25.0034L21.6138 26.5073C18.7636 24.2554 18.2785 20.1189 20.5304 17.2686C22.6235 14.6194 26.3441 14.014 29.1473 15.7499C31.5151 13.3901 35.3266 13.1209 38.0147 15.2447C40.9148 17.5362 41.4085 21.7451 39.1171 24.6453L32.5885 32.9086Z" fill="#CFA417"/>
<path d="M19.7688 5.77093C19.7688 3.64275 18.0436 1.91693 15.9155 1.91673C13.7872 1.91673 12.0613 3.64263 12.0613 5.77093C12.0615 7.89907 13.7873 9.6243 15.9155 9.6243V11.541L15.6178 11.5336C12.6674 11.3839 10.3017 9.01817 10.152 6.06773L10.1445 5.77093C10.1445 2.58393 12.7285 0 15.9155 0L16.2123 0.00746134C19.2612 0.162117 21.6856 2.6836 21.6856 5.77093L21.6781 6.06773C21.5234 9.1165 19.0026 11.5408 15.9155 11.541V9.6243C18.0435 9.6241 19.7686 7.89895 19.7688 5.77093Z" fill="#2C2320"/>
<path d="M31.5364 8.75097C31.5363 6.92741 30.058 5.44894 28.2344 5.44894C26.4109 5.44902 24.9324 6.92746 24.9323 8.75097C24.9323 10.5746 26.4108 12.0529 28.2344 12.053V13.9697C25.3521 13.9696 23.0156 11.6332 23.0156 8.75097C23.0157 5.86877 25.3522 3.5323 28.2344 3.53223C31.1166 3.53223 33.453 5.86873 33.4531 8.75097C33.4531 11.6333 31.1167 13.9697 28.2344 13.9697V12.053C30.058 12.053 31.5364 10.5746 31.5364 8.75097Z" fill="#CFA417"/>
<rect x="22.5312" y="24.2788" width="1.91528" height="2.45033" transform="rotate(49.4479 22.5312 24.2788)" fill="#2C2320"/>
<path d="M212.304 28.595L212.235 27.3102L214.562 26.824C214.585 26.7314 214.596 26.5694 214.596 26.3379C214.62 26.1064 214.643 25.7359 214.666 25.2266C214.689 24.7173 214.701 24.0112 214.701 23.1084V20.8164C214.701 19.8673 214.677 18.9991 214.631 18.212C214.585 17.4249 214.527 16.8114 214.457 16.3715L212.131 15.8854V14.7394L217.062 13.4545L217.583 13.9407C217.513 14.6584 217.455 15.3645 217.409 16.059C217.386 16.7535 217.374 17.5638 217.374 18.4898V22.8653C217.374 23.9302 217.386 24.8099 217.409 25.5044C217.455 26.199 217.502 26.6388 217.548 26.824L219.875 27.3102L219.805 28.595H212.304ZM216.055 9.53052C215.476 9.53052 214.967 9.33374 214.527 8.94018C214.11 8.54662 213.902 8.06046 213.902 7.48169C213.902 6.90293 214.11 6.41676 214.527 6.0232C214.967 5.62964 215.476 5.43286 216.055 5.43286C216.657 5.43286 217.155 5.62964 217.548 6.0232C217.942 6.41676 218.138 6.90293 218.138 7.48169C218.138 8.06046 217.942 8.54662 217.548 8.94018C217.155 9.33374 216.657 9.53052 216.055 9.53052Z" fill="#2C2320"/>
<path d="M201.713 28.873C200.787 28.873 199.965 28.6878 199.247 28.3174C198.529 27.947 197.962 27.4724 197.545 26.8936C197.152 26.3149 196.955 25.713 196.955 25.0879C196.955 24.3008 197.21 23.6525 197.719 23.1432C198.228 22.6339 199.062 22.1941 200.219 21.8237L205.498 20.0526V18.2816C205.498 17.7028 205.324 17.182 204.977 16.7189C204.63 16.2328 204.166 15.8508 203.588 15.573C203.009 15.2952 202.361 15.1563 201.643 15.1563C201.064 15.1563 200.671 15.2836 200.462 15.5383C200.254 15.7698 200.127 16.2444 200.08 16.962L200.011 18.4205C199.178 18.6057 198.471 18.5826 197.893 18.3511C197.314 18.0964 197.025 17.6913 197.025 17.1357C197.025 16.7421 197.187 16.3485 197.511 15.955C197.858 15.5614 198.309 15.191 198.865 14.8437C199.421 14.4733 200.023 14.1608 200.671 13.9061C201.319 13.6515 201.956 13.4779 202.581 13.3853C204.294 13.3853 205.66 13.8367 206.678 14.7396C207.72 15.6424 208.253 16.8231 208.276 18.2816L208.206 24.1156C208.206 24.5554 208.218 24.9837 208.241 25.4004C208.287 25.8171 208.345 26.1297 208.415 26.338L210.637 26.7547V27.8312L208.936 28.4563C208.611 28.5721 208.31 28.6647 208.033 28.7341C207.755 28.8267 207.523 28.873 207.338 28.873C206.62 28.873 206.157 28.4679 205.949 27.6576L205.567 26.3033H206.088C205.324 27.1599 204.583 27.8081 203.866 28.2479C203.171 28.6647 202.453 28.873 201.713 28.873ZM202.65 26.8242C203.183 26.8242 203.68 26.7084 204.143 26.4769C204.606 26.2223 205.058 25.8403 205.498 25.331V21.6847L201.608 22.7265C201.053 22.8654 200.648 23.0854 200.393 23.3863C200.161 23.6873 200.046 24.0693 200.046 24.5323C200.046 25.111 200.3 25.6435 200.81 26.1297C201.342 26.5927 201.956 26.8242 202.65 26.8242Z" fill="#2C2320"/>
<path d="M176.884 28.5952L176.814 27.3451L178.967 26.8242C178.99 26.6621 179.002 26.4422 179.002 26.1644C179.025 25.8866 179.048 25.5046 179.071 25.0184C179.095 24.5323 179.106 23.8956 179.106 23.1085L179.141 20.4346C179.141 19.6706 179.106 18.9182 179.037 18.1774C178.99 17.4135 178.933 16.8115 178.863 16.3717L176.641 15.8855V14.7396L181.294 13.4547L181.884 14.0103L181.711 15.8508L181.815 15.8855C182.625 15.0058 183.424 14.3692 184.211 13.9756C184.998 13.582 185.855 13.3853 186.781 13.3853C187.637 13.3853 188.436 13.6052 189.177 14.045C189.941 14.4618 190.554 15.11 191.017 15.9897C191.503 16.8694 191.746 17.9922 191.746 19.3581V23.2127C191.746 24.0461 191.758 24.7985 191.781 25.4699C191.827 26.1412 191.885 26.5927 191.955 26.8242L194.108 27.3451L194.004 28.5952H187.024L186.954 27.3451L188.968 26.8242C188.991 26.639 189.015 26.4075 189.038 26.1297C189.061 25.8519 189.073 25.5046 189.073 25.0879C189.096 24.648 189.107 24.104 189.107 23.4558V19.7054C189.107 18.6636 188.922 17.8417 188.552 17.2398C188.204 16.6148 187.765 16.1749 187.232 15.9202C186.7 15.6424 186.156 15.5035 185.6 15.5035C184.836 15.5035 184.118 15.7003 183.447 16.0939C182.799 16.4643 182.243 16.9852 181.78 17.6565V22.8654C181.78 23.9304 181.792 24.7985 181.815 25.4699C181.861 26.1181 181.907 26.5695 181.954 26.8242L184.107 27.3451L184.003 28.5952H176.884Z" fill="#2C2320"/>
<path d="M166.154 28.873C165.228 28.873 164.406 28.6878 163.688 28.3174C162.971 27.947 162.404 27.4724 161.987 26.8936C161.593 26.3149 161.396 25.713 161.396 25.0879C161.396 24.3008 161.651 23.6525 162.16 23.1432C162.67 22.6339 163.503 22.1941 164.661 21.8237L169.939 20.0526V18.2816C169.939 17.7028 169.765 17.182 169.418 16.7189C169.071 16.2328 168.608 15.8508 168.029 15.573C167.45 15.2952 166.802 15.1563 166.084 15.1563C165.506 15.1563 165.112 15.2836 164.904 15.5383C164.695 15.7698 164.568 16.2444 164.522 16.962L164.452 18.4205C163.619 18.6057 162.913 18.5826 162.334 18.3511C161.755 18.0964 161.466 17.6913 161.466 17.1357C161.466 16.7421 161.628 16.3485 161.952 15.955C162.299 15.5614 162.751 15.191 163.306 14.8437C163.862 14.4733 164.464 14.1608 165.112 13.9061C165.76 13.6515 166.397 13.4779 167.022 13.3853C168.735 13.3853 170.101 13.8367 171.12 14.7396C172.162 15.6424 172.694 16.8231 172.717 18.2816L172.648 24.1156C172.648 24.5554 172.659 24.9837 172.682 25.4004C172.729 25.8171 172.787 26.1297 172.856 26.338L175.078 26.7547V27.8312L173.377 28.4563C173.053 28.5721 172.752 28.6647 172.474 28.7341C172.196 28.8267 171.965 28.873 171.78 28.873C171.062 28.873 170.599 28.4679 170.39 27.6576L170.009 26.3033H170.529C169.765 27.1599 169.025 27.8081 168.307 28.2479C167.612 28.6647 166.895 28.873 166.154 28.873ZM167.092 26.8242C167.624 26.8242 168.122 26.7084 168.585 26.4769C169.048 26.2223 169.499 25.8403 169.939 25.331V21.6847L166.05 22.7265C165.494 22.8654 165.089 23.0854 164.834 23.3863C164.603 23.6873 164.487 24.0693 164.487 24.5323C164.487 25.111 164.742 25.6435 165.251 26.1297C165.784 26.5927 166.397 26.8242 167.092 26.8242Z" fill="#2C2320"/>
<path d="M153.721 23.6292V15.8506C153.721 14.4848 153.709 13.3967 153.686 12.5864C153.663 11.753 153.64 11.1395 153.617 10.7459C153.594 10.3292 153.57 10.0861 153.547 10.0167L151.186 9.53052L151.29 8.21094H157.888L157.992 9.53052L155.839 10.0167C155.839 10.0861 155.816 10.3292 155.77 10.7459C155.747 11.1395 155.723 11.753 155.7 12.5864C155.677 13.3967 155.666 14.4848 155.666 15.8506V24.1154C155.666 24.8331 155.666 25.5855 155.666 26.3726C155.666 27.1366 155.677 27.9237 155.7 28.734H154.138L141.358 11.5446H142.122V20.8512C142.122 22.2402 142.134 23.363 142.157 24.2196C142.18 25.053 142.203 25.6665 142.227 26.0601C142.273 26.4536 142.308 26.6967 142.331 26.7893L144.692 27.2755L144.588 28.595H137.921L137.816 27.2755L139.935 26.7893C139.958 26.6967 139.981 26.4536 140.004 26.0601C140.05 25.6665 140.085 25.053 140.108 24.2196C140.131 23.363 140.143 22.2402 140.143 20.8512V14.913C140.143 13.8713 140.131 13.0147 140.108 12.3433C140.085 11.672 140.062 11.1511 140.039 10.7807C140.016 10.4102 139.981 10.1556 139.935 10.0167L137.816 9.53052L137.921 8.21094H142.678L154.346 23.6292H153.721Z" fill="#2C2320"/>
<path d="M121.15 28.595L121.081 27.3102L123.407 26.824C123.431 26.7314 123.442 26.5694 123.442 26.3379C123.465 26.1064 123.488 25.7359 123.512 25.2266C123.535 24.7173 123.546 24.0112 123.546 23.1084V20.8164C123.546 19.8673 123.523 18.9991 123.477 18.212C123.431 17.4249 123.373 16.8114 123.303 16.3715L120.977 15.8854V14.7394L125.908 13.4545L126.429 13.9407C126.359 14.6584 126.301 15.3645 126.255 16.059C126.232 16.7535 126.22 17.5638 126.22 18.4898V22.8653C126.22 23.9302 126.232 24.8099 126.255 25.5044C126.301 26.199 126.348 26.6388 126.394 26.824L128.72 27.3102L128.651 28.595H121.15ZM124.901 9.53052C124.322 9.53052 123.813 9.33374 123.373 8.94018C122.956 8.54662 122.748 8.06046 122.748 7.48169C122.748 6.90293 122.956 6.41676 123.373 6.0232C123.813 5.62964 124.322 5.43286 124.901 5.43286C125.503 5.43286 126 5.62964 126.394 6.0232C126.787 6.41676 126.984 6.90293 126.984 7.48169C126.984 8.06046 126.787 8.54662 126.394 8.94018C126 9.33374 125.503 9.53052 124.901 9.53052Z" fill="#2C2320"/>
<path d="M110.558 28.873C109.632 28.873 108.81 28.6878 108.093 28.3174C107.375 27.947 106.808 27.4724 106.391 26.8936C105.998 26.3149 105.801 25.713 105.801 25.0879C105.801 24.3008 106.055 23.6525 106.565 23.1432C107.074 22.6339 107.907 22.1941 109.065 21.8237L114.343 20.0526V18.2816C114.343 17.7028 114.17 17.182 113.822 16.7189C113.475 16.2328 113.012 15.8508 112.433 15.573C111.855 15.2952 111.206 15.1563 110.489 15.1563C109.91 15.1563 109.516 15.2836 109.308 15.5383C109.1 15.7698 108.972 16.2444 108.926 16.962L108.857 18.4205C108.023 18.6057 107.317 18.5826 106.738 18.3511C106.16 18.0964 105.87 17.6913 105.87 17.1357C105.87 16.7421 106.032 16.3485 106.356 15.955C106.704 15.5614 107.155 15.191 107.711 14.8437C108.266 14.4733 108.868 14.1608 109.516 13.9061C110.165 13.6515 110.801 13.4779 111.426 13.3853C113.14 13.3853 114.505 13.8367 115.524 14.7396C116.566 15.6424 117.098 16.8231 117.121 18.2816L117.052 24.1156C117.052 24.5554 117.064 24.9837 117.087 25.4004C117.133 25.8171 117.191 26.1297 117.26 26.338L119.483 26.7547V27.8312L117.781 28.4563C117.457 28.5721 117.156 28.6647 116.878 28.7341C116.601 28.8267 116.369 28.873 116.184 28.873C115.466 28.873 115.003 28.4679 114.795 27.6576L114.413 26.3033H114.934C114.17 27.1599 113.429 27.8081 112.711 28.2479C112.017 28.6647 111.299 28.873 110.558 28.873ZM111.496 26.8242C112.028 26.8242 112.526 26.7084 112.989 26.4769C113.452 26.2223 113.903 25.8403 114.343 25.331V21.6847L110.454 22.7265C109.898 22.8654 109.493 23.0854 109.239 23.3863C109.007 23.6873 108.891 24.0693 108.891 24.5323C108.891 25.111 109.146 25.6435 109.655 26.1297C110.188 26.5927 110.801 26.8242 111.496 26.8242Z" fill="#2C2320"/>
<path d="M85.7275 28.5952L85.658 27.3451L87.811 26.8242C87.8342 26.6621 87.8457 26.4422 87.8457 26.1644C87.8689 25.8866 87.892 25.5046 87.9152 25.0184C87.9383 24.5323 87.9499 23.8956 87.9499 23.1085L87.9846 20.4346C87.9846 19.6706 87.9499 18.9182 87.8805 18.1774C87.8342 17.4135 87.7763 16.8115 87.7068 16.3717L85.4844 15.8855V14.7396L90.1376 13.4547L90.728 14.0103L90.5544 15.8508L90.6585 15.8855C91.4688 15.0058 92.2675 14.3692 93.0546 13.9756C93.8417 13.582 94.6983 13.3853 95.6243 13.3853C96.4809 13.3853 97.2796 13.6052 98.0204 14.045C98.7844 14.4618 99.3979 15.11 99.8609 15.9897C100.347 16.8694 100.59 17.9922 100.59 19.3581V23.2127C100.59 24.0461 100.602 24.7985 100.625 25.4699C100.671 26.1412 100.729 26.5927 100.799 26.8242L102.952 27.3451L102.847 28.5952H95.8674L95.798 27.3451L97.8121 26.8242C97.8352 26.639 97.8584 26.4075 97.8815 26.1297C97.9047 25.8519 97.9162 25.5046 97.9162 25.0879C97.9394 24.648 97.951 24.104 97.951 23.4558V19.7054C97.951 18.6636 97.7658 17.8417 97.3954 17.2398C97.0481 16.6148 96.6082 16.1749 96.0758 15.9202C95.5433 15.6424 94.9993 15.5035 94.4437 15.5035C93.6797 15.5035 92.962 15.7003 92.2907 16.0939C91.6424 16.4643 91.0868 16.9852 90.6238 17.6565V22.8654C90.6238 23.9304 90.6354 24.7985 90.6585 25.4699C90.7048 26.1181 90.7511 26.5695 90.7974 26.8242L92.9504 27.3451L92.8463 28.5952H85.7275Z" fill="#2C2320"/>
<path d="M74.9977 28.873C74.0717 28.873 73.2498 28.6878 72.5321 28.3174C71.8145 27.947 71.2473 27.4724 70.8306 26.8936C70.437 26.3149 70.2402 25.713 70.2402 25.0879C70.2402 24.3008 70.4949 23.6525 71.0042 23.1432C71.5135 22.6339 72.3469 22.1941 73.5045 21.8237L78.7828 20.0526V18.2816C78.7828 17.7028 78.6092 17.182 78.2619 16.7189C77.9147 16.2328 77.4517 15.8508 76.8729 15.573C76.2941 15.2952 75.6459 15.1563 74.9282 15.1563C74.3495 15.1563 73.9559 15.2836 73.7476 15.5383C73.5392 15.7698 73.4119 16.2444 73.3656 16.962L73.2961 18.4205C72.4627 18.6057 71.7566 18.5826 71.1778 18.3511C70.5991 18.0964 70.3097 17.6913 70.3097 17.1357C70.3097 16.7421 70.4717 16.3485 70.7958 15.955C71.1431 15.5614 71.5945 15.191 72.1502 14.8437C72.7058 14.4733 73.3077 14.1608 73.9559 13.9061C74.6041 13.6515 75.2408 13.4779 75.8658 13.3853C77.579 13.3853 78.9449 13.8367 79.9635 14.7396C81.0053 15.6424 81.5377 16.8231 81.5609 18.2816L81.4914 24.1156C81.4914 24.5554 81.503 24.9837 81.5262 25.4004C81.5725 25.8171 81.6303 26.1297 81.6998 26.338L83.9222 26.7547V27.8312L82.2207 28.4563C81.8966 28.5721 81.5956 28.6647 81.3178 28.7341C81.04 28.8267 80.8085 28.873 80.6233 28.873C79.9056 28.873 79.4426 28.4679 79.2342 27.6576L78.8523 26.3033H79.3732C78.6092 27.1599 77.8684 27.8081 77.1507 28.2479C76.4562 28.6647 75.7385 28.873 74.9977 28.873ZM75.9353 26.8242C76.4677 26.8242 76.9655 26.7084 77.4285 26.4769C77.8915 26.2223 78.3429 25.8403 78.7828 25.331V21.6847L74.8935 22.7265C74.3379 22.8654 73.9328 23.0854 73.6781 23.3863C73.4466 23.6873 73.3308 24.0693 73.3308 24.5323C73.3308 25.111 73.5855 25.6435 74.0948 26.1297C74.6273 26.5927 75.2408 26.8242 75.9353 26.8242Z" fill="#2C2320"/>
<path d="M62.5666 23.6292V15.8506C62.5666 14.4848 62.555 13.3967 62.5319 12.5864C62.5087 11.753 62.4856 11.1395 62.4624 10.7459C62.4393 10.3292 62.4161 10.0861 62.393 10.0167L60.0316 9.53052L60.1358 8.21094H66.7337L66.8379 9.53052L64.6849 10.0167C64.6849 10.0861 64.6617 10.3292 64.6154 10.7459C64.5923 11.1395 64.5691 11.753 64.546 12.5864C64.5228 13.3967 64.5112 14.4848 64.5112 15.8506V24.1154C64.5112 24.8331 64.5112 25.5855 64.5112 26.3726C64.5112 27.1366 64.5228 27.9237 64.546 28.734H62.9833L50.2042 11.5446H50.9681V20.8512C50.9681 22.2402 50.9797 23.363 51.0028 24.2196C51.026 25.053 51.0491 25.6665 51.0723 26.0601C51.1186 26.4536 51.1533 26.6967 51.1765 26.7893L53.5378 27.2755L53.4337 28.595H46.7663L46.6621 27.2755L48.7804 26.7893C48.8035 26.6967 48.8267 26.4536 48.8498 26.0601C48.8961 25.6665 48.9309 25.053 48.954 24.2196C48.9772 23.363 48.9887 22.2402 48.9887 20.8512V14.913C48.9887 13.8713 48.9772 13.0147 48.954 12.3433C48.9309 11.672 48.9077 11.1511 48.8846 10.7807C48.8614 10.4102 48.8267 10.1556 48.7804 10.0167L46.6621 9.53052L46.7663 8.21094H51.5237L63.1916 23.6292H62.5666Z" fill="#2C2320"/>
</svg>
