<svg width="190" height="41" viewBox="0 0 190 41" fill="none" xmlns="http://www.w3.org/2000/svg">
<rect width="50.9654" height="40.411" fill="#2C2320"/>
<path d="M17.8398 39.0011C17.4443 39.2798 16.9833 39.4124 16.5257 39.4083C15.888 39.4441 15.2419 39.2138 14.7708 38.7253L14.679 38.6238L5.5824 27.9755L7.29909 26.5089L16.3925 37.1536C16.3944 37.1538 16.397 37.1543 16.3994 37.1542L16.4725 37.1495L16.5452 37.1504L26.9946 28.2237C29.622 25.9791 30.0042 22.0823 27.9186 19.3748L27.7096 19.1167C25.5584 16.5985 21.887 16.1421 19.2036 17.946L17.7227 18.9414L16.4118 17.7301C14.1595 15.649 10.693 15.4752 8.2367 17.3813L8.00208 17.5727C5.34051 19.8465 5.02585 23.8475 7.29909 26.5089L5.5824 27.9755C2.49899 24.3657 2.92596 18.9397 6.53556 15.856C9.88237 12.9969 14.789 13.1566 17.9441 16.0717C21.5679 13.6356 26.5215 14.2498 29.4263 17.6502C32.5534 21.3107 32.1216 26.8132 28.4611 29.9404L18.005 38.8728L17.8398 39.0011Z" fill="white"/>
<path d="M38.3888 38.765C37.9749 39.2888 37.3546 39.5502 36.735 39.5319C36.2754 39.5427 35.8091 39.4002 35.4202 39.093L25.4611 31.2246L26.8607 29.453L36.7164 37.2397L44.3076 27.6315C46.1734 25.2699 45.8419 21.8757 43.6028 19.9146L43.3809 19.7293C41.1229 17.9454 37.9181 18.1699 35.9292 20.152L34.6643 21.4127L33.1468 20.4727C30.8819 19.0702 27.8962 19.5024 26.1246 21.5396L25.9564 21.7415C24.0769 24.1206 24.4818 27.5735 26.8607 29.453L25.4611 31.2246C22.1035 28.5719 21.5322 23.6993 24.1848 20.3418C26.6503 17.2211 31.0331 16.508 34.3351 18.5528C37.1243 15.773 41.6141 15.456 44.7806 17.9577C48.1967 20.657 48.7783 25.6148 46.0792 29.0312L38.3888 38.765Z" fill="#E5BD37"/>
<path d="M23.2862 6.79791C23.2862 4.291 21.254 2.25806 18.7471 2.25783C16.2401 2.25783 14.2071 4.29086 14.2071 6.79791C14.2073 9.30477 16.2402 11.337 18.7471 11.337V13.5948L18.3965 13.5861C14.9211 13.4097 12.1343 10.623 11.958 7.14752L11.9492 6.79791C11.9492 3.04377 14.993 0 18.7471 0L19.0967 0.00878914C22.6882 0.190967 25.5441 3.16116 25.5441 6.79791L25.5353 7.14752C25.3531 10.7389 22.3837 13.5946 18.7471 13.5948V11.337C21.2538 11.3368 23.286 9.30462 23.2862 6.79791Z" fill="white"/>
<path d="M37.1484 10.3081C37.1483 8.16003 35.4069 6.41846 33.2588 6.41846C31.1108 6.41855 29.3692 8.16008 29.3691 10.3081C29.3691 12.4562 31.1107 14.1977 33.2588 14.1978V16.4556C29.8636 16.4555 27.1113 13.7033 27.1113 10.3081C27.1114 6.913 29.8637 4.16073 33.2588 4.16064C36.654 4.16064 39.4062 6.91294 39.4062 10.3081C39.4062 13.7033 36.654 16.4556 33.2588 16.4556V14.1978C35.4069 14.1978 37.1484 12.4563 37.1484 10.3081Z" fill="#E5BD37"/>
<rect x="26.541" y="28.5994" width="2.25612" height="2.88639" transform="rotate(49.4479 26.541 28.5994)" fill="white"/>
<path d="M184.065 21.7578L184.011 20.7564L185.824 20.3775C185.842 20.3054 185.851 20.1791 185.851 19.9986C185.869 19.8182 185.887 19.5295 185.905 19.1325C185.923 18.7356 185.932 18.1853 185.932 17.4816V15.6953C185.932 14.9555 185.914 14.2789 185.878 13.6654C185.842 13.052 185.797 12.5738 185.743 12.231L183.93 11.8521V10.959L187.773 9.95755L188.179 10.3365C188.125 10.8958 188.08 11.4461 188.044 11.9874C188.026 12.5287 188.016 13.1602 188.016 13.882V17.2921C188.016 18.1221 188.026 18.8078 188.044 19.3491C188.08 19.8904 188.116 20.2332 188.152 20.3775L189.965 20.7564L189.911 21.7578H184.065ZM186.988 6.89922C186.537 6.89922 186.14 6.74585 185.797 6.43912C185.472 6.13238 185.31 5.75348 185.31 5.30239C185.31 4.85131 185.472 4.4724 185.797 4.16567C186.14 3.85893 186.537 3.70557 186.988 3.70557C187.457 3.70557 187.845 3.85893 188.152 4.16567C188.459 4.4724 188.612 4.85131 188.612 5.30239C188.612 5.75348 188.459 6.13238 188.152 6.43912C187.845 6.74585 187.457 6.89922 186.988 6.89922Z" fill="white"/>
<path d="M175.809 21.9745C175.088 21.9745 174.447 21.8302 173.888 21.5415C173.329 21.2528 172.886 20.8829 172.562 20.4318C172.255 19.9807 172.102 19.5116 172.102 19.0244C172.102 18.411 172.3 17.9057 172.697 17.5088C173.094 17.1118 173.744 16.769 174.646 16.4803L178.76 15.1V13.7197C178.76 13.2686 178.624 12.8627 178.354 12.5018C178.083 12.1229 177.722 11.8252 177.271 11.6087C176.82 11.3921 176.315 11.2839 175.755 11.2839C175.304 11.2839 174.998 11.3831 174.835 11.5816C174.673 11.762 174.573 12.1319 174.537 12.6912L174.483 13.828C173.834 13.9723 173.283 13.9543 172.832 13.7738C172.381 13.5754 172.156 13.2596 172.156 12.8266C172.156 12.5198 172.282 12.2131 172.535 11.9064C172.805 11.5996 173.157 11.3109 173.59 11.0403C174.023 10.7516 174.492 10.508 174.998 10.3095C175.503 10.1111 175.999 9.97574 176.486 9.90356C177.821 9.90356 178.886 10.2554 179.68 10.9591C180.492 11.6628 180.907 12.583 180.925 13.7197L180.871 18.2666C180.871 18.6094 180.88 18.9432 180.898 19.268C180.934 19.5928 180.979 19.8364 181.033 19.9988L182.765 20.3235V21.1626L181.439 21.6497C181.186 21.7399 180.952 21.8121 180.735 21.8662C180.519 21.9384 180.338 21.9745 180.194 21.9745C179.635 21.9745 179.274 21.6587 179.111 21.0272L178.814 19.9717H179.22C178.624 20.6393 178.047 21.1445 177.487 21.4873C176.946 21.8121 176.387 21.9745 175.809 21.9745ZM176.54 20.3777C176.955 20.3777 177.343 20.2875 177.704 20.107C178.065 19.9085 178.417 19.6108 178.76 19.2139V16.3721L175.728 17.184C175.295 17.2923 174.979 17.4637 174.781 17.6982C174.601 17.9328 174.51 18.2305 174.51 18.5914C174.51 19.0425 174.709 19.4575 175.106 19.8364C175.521 20.1972 175.999 20.3777 176.54 20.3777Z" fill="white"/>
<path d="M156.459 21.758L156.405 20.7836L158.083 20.3777C158.101 20.2514 158.11 20.08 158.11 19.8634C158.128 19.6469 158.146 19.3492 158.164 18.9703C158.182 18.5914 158.191 18.0952 158.191 17.4817L158.218 15.3977C158.218 14.8023 158.191 14.2159 158.137 13.6385C158.101 13.0431 158.056 12.574 158.002 12.2311L156.27 11.8522V10.9591L159.896 9.95769L160.356 10.3907L160.221 11.8252L160.302 11.8522C160.934 11.1666 161.556 10.6704 162.17 10.3637C162.783 10.0569 163.451 9.90356 164.172 9.90356C164.84 9.90356 165.463 10.075 166.04 10.4178C166.635 10.7426 167.114 11.2478 167.474 11.9334C167.853 12.6191 168.043 13.4942 168.043 14.5587V17.5629C168.043 18.2125 168.052 18.7989 168.07 19.3221C168.106 19.8454 168.151 20.1972 168.205 20.3777L169.883 20.7836L169.802 21.758H164.362L164.308 20.7836L165.878 20.3777C165.896 20.2333 165.914 20.0529 165.932 19.8364C165.95 19.6199 165.959 19.3492 165.959 19.0244C165.977 18.6816 165.986 18.2576 165.986 17.7524V14.8294C165.986 14.0174 165.841 13.3769 165.553 12.9078C165.282 12.4206 164.939 12.0778 164.524 11.8793C164.109 11.6628 163.685 11.5545 163.252 11.5545C162.657 11.5545 162.098 11.7079 161.574 12.0146C161.069 12.3033 160.636 12.7093 160.275 13.2325V17.2923C160.275 18.1223 160.284 18.7989 160.302 19.3221C160.338 19.8274 160.374 20.1792 160.41 20.3777L162.088 20.7836L162.007 21.758H156.459Z" fill="white"/>
<path d="M148.095 21.9745C147.373 21.9745 146.732 21.8302 146.173 21.5415C145.614 21.2528 145.172 20.8829 144.847 20.4318C144.54 19.9807 144.387 19.5116 144.387 19.0244C144.387 18.411 144.585 17.9057 144.982 17.5088C145.379 17.1118 146.029 16.769 146.931 16.4803L151.045 15.1V13.7197C151.045 13.2686 150.909 12.8627 150.639 12.5018C150.368 12.1229 150.007 11.8252 149.556 11.6087C149.105 11.3921 148.6 11.2839 148.04 11.2839C147.589 11.2839 147.283 11.3831 147.12 11.5816C146.958 11.762 146.859 12.1319 146.823 12.6912L146.768 13.828C146.119 13.9723 145.569 13.9543 145.117 13.7738C144.666 13.5754 144.441 13.2596 144.441 12.8266C144.441 12.5198 144.567 12.2131 144.82 11.9064C145.09 11.5996 145.442 11.3109 145.875 11.0403C146.308 10.7516 146.777 10.508 147.283 10.3095C147.788 10.1111 148.284 9.97574 148.771 9.90356C150.106 9.90356 151.171 10.2554 151.965 10.9591C152.777 11.6628 153.192 12.583 153.21 13.7197L153.156 18.2666C153.156 18.6094 153.165 18.9432 153.183 19.268C153.219 19.5928 153.264 19.8364 153.318 19.9988L155.05 20.3235V21.1626L153.724 21.6497C153.471 21.7399 153.237 21.8121 153.02 21.8662C152.804 21.9384 152.623 21.9745 152.479 21.9745C151.92 21.9745 151.559 21.6587 151.397 21.0272L151.099 19.9717H151.505C150.909 20.6393 150.332 21.1445 149.773 21.4873C149.231 21.8121 148.672 21.9745 148.095 21.9745ZM148.825 20.3777C149.24 20.3777 149.628 20.2875 149.989 20.107C150.35 19.9085 150.702 19.6108 151.045 19.2139V16.3721L148.013 17.184C147.58 17.2923 147.265 17.4637 147.066 17.6982C146.886 17.9328 146.795 18.2305 146.795 18.5914C146.795 19.0425 146.994 19.4575 147.391 19.8364C147.806 20.1972 148.284 20.3777 148.825 20.3777Z" fill="white"/>
<path d="M138.405 17.8877V11.8251C138.405 10.7606 138.396 9.91254 138.378 9.28102C138.36 8.63147 138.342 8.15332 138.324 7.84659C138.306 7.52181 138.288 7.33235 138.27 7.27822L136.43 6.89932L136.511 5.87085H141.653L141.734 6.89932L140.056 7.27822C140.056 7.33235 140.038 7.52181 140.002 7.84659C139.984 8.15332 139.966 8.63147 139.948 9.28102C139.93 9.91254 139.921 10.7606 139.921 11.8251V18.2666C139.921 18.8259 139.921 19.4123 139.921 20.0258C139.921 20.6212 139.93 21.2347 139.948 21.8662H138.73L128.77 8.46908H129.366V15.7225C129.366 16.8051 129.375 17.6802 129.393 18.3478C129.411 18.9973 129.429 19.4755 129.447 19.7822C129.483 20.0889 129.51 20.2784 129.528 20.3506L131.369 20.7295L131.287 21.7579H126.091L126.01 20.7295L127.661 20.3506C127.679 20.2784 127.697 20.0889 127.715 19.7822C127.751 19.4755 127.778 18.9973 127.796 18.3478C127.814 17.6802 127.823 16.8051 127.823 15.7225V11.0944C127.823 10.2824 127.814 9.61482 127.796 9.09157C127.778 8.56832 127.76 8.16234 127.742 7.87365C127.724 7.58496 127.697 7.38648 127.661 7.27822L126.01 6.89932L126.091 5.87085H129.799L138.893 17.8877H138.405Z" fill="white"/>
<path d="M113.02 21.7578L112.966 20.7564L114.779 20.3775C114.797 20.3054 114.806 20.1791 114.806 19.9986C114.824 19.8182 114.842 19.5295 114.86 19.1325C114.879 18.7356 114.888 18.1853 114.888 17.4816V15.6953C114.888 14.9555 114.87 14.2789 114.833 13.6654C114.797 13.052 114.752 12.5738 114.698 12.231L112.885 11.8521V10.959L116.728 9.95755L117.134 10.3365C117.08 10.8958 117.035 11.4461 116.999 11.9874C116.981 12.5287 116.972 13.1602 116.972 13.882V17.2921C116.972 18.1221 116.981 18.8078 116.999 19.3491C117.035 19.8904 117.071 20.2332 117.107 20.3775L118.92 20.7564L118.866 21.7578H113.02ZM115.943 6.89922C115.492 6.89922 115.095 6.74585 114.752 6.43912C114.427 6.13238 114.265 5.75348 114.265 5.30239C114.265 4.85131 114.427 4.4724 114.752 4.16567C115.095 3.85893 115.492 3.70557 115.943 3.70557C116.412 3.70557 116.8 3.85893 117.107 4.16567C117.414 4.4724 117.567 4.85131 117.567 5.30239C117.567 5.75348 117.414 6.13238 117.107 6.43912C116.8 6.74585 116.412 6.89922 115.943 6.89922Z" fill="white"/>
<path d="M104.765 21.9745C104.043 21.9745 103.402 21.8302 102.843 21.5415C102.284 21.2528 101.842 20.8829 101.517 20.4318C101.21 19.9807 101.057 19.5116 101.057 19.0244C101.057 18.411 101.255 17.9057 101.652 17.5088C102.049 17.1118 102.699 16.769 103.601 16.4803L107.715 15.1V13.7197C107.715 13.2686 107.579 12.8627 107.309 12.5018C107.038 12.1229 106.677 11.8252 106.226 11.6087C105.775 11.3921 105.27 11.2839 104.71 11.2839C104.259 11.2839 103.953 11.3831 103.79 11.5816C103.628 11.762 103.529 12.1319 103.492 12.6912L103.438 13.828C102.789 13.9723 102.238 13.9543 101.787 13.7738C101.336 13.5754 101.111 13.2596 101.111 12.8266C101.111 12.5198 101.237 12.2131 101.49 11.9064C101.76 11.5996 102.112 11.3109 102.545 11.0403C102.978 10.7516 103.447 10.508 103.953 10.3095C104.458 10.1111 104.954 9.97574 105.441 9.90356C106.776 9.90356 107.841 10.2554 108.635 10.9591C109.447 11.6628 109.862 12.583 109.88 13.7197L109.826 18.2666C109.826 18.6094 109.835 18.9432 109.853 19.268C109.889 19.5928 109.934 19.8364 109.988 19.9988L111.72 20.3235V21.1626L110.394 21.6497C110.141 21.7399 109.907 21.8121 109.69 21.8662C109.474 21.9384 109.293 21.9745 109.149 21.9745C108.59 21.9745 108.229 21.6587 108.066 21.0272L107.769 19.9717H108.175C107.579 20.6393 107.002 21.1445 106.443 21.4873C105.901 21.8121 105.342 21.9745 104.765 21.9745ZM105.495 20.3777C105.91 20.3777 106.298 20.2875 106.659 20.107C107.02 19.9085 107.372 19.6108 107.715 19.2139V16.3721L104.683 17.184C104.25 17.2923 103.935 17.4637 103.736 17.6982C103.556 17.9328 103.465 18.2305 103.465 18.5914C103.465 19.0425 103.664 19.4575 104.061 19.8364C104.476 20.1972 104.954 20.3777 105.495 20.3777Z" fill="white"/>
<path d="M85.4121 21.758L85.358 20.7836L87.036 20.3777C87.054 20.2514 87.0631 20.08 87.0631 19.8634C87.0811 19.6469 87.0992 19.3492 87.1172 18.9703C87.1352 18.5914 87.1443 18.0952 87.1443 17.4817L87.1713 15.3977C87.1713 14.8023 87.1443 14.2159 87.0901 13.6385C87.054 13.0431 87.0089 12.574 86.9548 12.2311L85.2227 11.8522V10.9591L88.8493 9.95769L89.3095 10.3907L89.1741 11.8252L89.2553 11.8522C89.8868 11.1666 90.5093 10.6704 91.1228 10.3637C91.7363 10.0569 92.4039 9.90356 93.1256 9.90356C93.7932 9.90356 94.4157 10.075 94.9931 10.4178C95.5885 10.7426 96.0666 11.2478 96.4275 11.9334C96.8064 12.6191 96.9959 13.4942 96.9959 14.5587V17.5629C96.9959 18.2125 97.0049 18.7989 97.0229 19.3221C97.059 19.8454 97.1041 20.1972 97.1583 20.3777L98.8363 20.7836L98.7551 21.758H93.3151L93.2609 20.7836L94.8307 20.3777C94.8487 20.2333 94.8668 20.0529 94.8848 19.8364C94.9029 19.6199 94.9119 19.3492 94.9119 19.0244C94.9299 18.6816 94.9389 18.2576 94.9389 17.7524V14.8294C94.9389 14.0174 94.7946 13.3769 94.5059 12.9078C94.2353 12.4206 93.8924 12.0778 93.4774 11.8793C93.0624 11.6628 92.6384 11.5545 92.2054 11.5545C91.61 11.5545 91.0506 11.7079 90.5274 12.0146C90.0222 12.3033 89.5891 12.7093 89.2283 13.2325V17.2923C89.2283 18.1223 89.2373 18.7989 89.2553 19.3221C89.2914 19.8274 89.3275 20.1792 89.3636 20.3777L91.0416 20.7836L90.9604 21.758H85.4121Z" fill="white"/>
<path d="M77.0497 21.9745C76.328 21.9745 75.6874 21.8302 75.1281 21.5415C74.5687 21.2528 74.1267 20.8829 73.8019 20.4318C73.4952 19.9807 73.3418 19.5116 73.3418 19.0244C73.3418 18.411 73.5403 17.9057 73.9372 17.5088C74.3342 17.1118 74.9837 16.769 75.8859 16.4803L79.9998 15.1V13.7197C79.9998 13.2686 79.8644 12.8627 79.5938 12.5018C79.3231 12.1229 78.9623 11.8252 78.5112 11.6087C78.0601 11.3921 77.5549 11.2839 76.9956 11.2839C76.5445 11.2839 76.2377 11.3831 76.0753 11.5816C75.913 11.762 75.8137 12.1319 75.7776 12.6912L75.7235 13.828C75.074 13.9723 74.5236 13.9543 74.0725 13.7738C73.6215 13.5754 73.3959 13.2596 73.3959 12.8266C73.3959 12.5198 73.5222 12.2131 73.7748 11.9064C74.0455 11.5996 74.3973 11.3109 74.8304 11.0403C75.2634 10.7516 75.7325 10.508 76.2377 10.3095C76.743 10.1111 77.2391 9.97574 77.7263 9.90356C79.0615 9.90356 80.1261 10.2554 80.92 10.9591C81.7319 11.6628 82.1469 12.583 82.1649 13.7197L82.1108 18.2666C82.1108 18.6094 82.1198 18.9432 82.1379 19.268C82.174 19.5928 82.2191 19.8364 82.2732 19.9988L84.0054 20.3235V21.1626L82.6792 21.6497C82.4266 21.7399 82.192 21.8121 81.9755 21.8662C81.759 21.9384 81.5785 21.9745 81.4342 21.9745C80.8749 21.9745 80.514 21.6587 80.3516 21.0272L80.0539 19.9717H80.4599C79.8644 20.6393 79.287 21.1445 78.7277 21.4873C78.1864 21.8121 77.6271 21.9745 77.0497 21.9745ZM77.7804 20.3777C78.1954 20.3777 78.5834 20.2875 78.9442 20.107C79.3051 19.9085 79.6569 19.6108 79.9998 19.2139V16.3721L76.9685 17.184C76.5355 17.2923 76.2197 17.4637 76.0212 17.6982C75.8408 17.9328 75.7506 18.2305 75.7506 18.5914C75.7506 19.0425 75.949 19.4575 76.346 19.8364C76.761 20.1972 77.2391 20.3777 77.7804 20.3777Z" fill="white"/>
<path d="M67.3606 17.8877V11.8251C67.3606 10.7606 67.3515 9.91254 67.3335 9.28102C67.3155 8.63147 67.2974 8.15332 67.2794 7.84659C67.2613 7.52181 67.2433 7.33235 67.2252 7.27822L65.3848 6.89932L65.466 5.87085H70.6083L70.6895 6.89932L69.0115 7.27822C69.0115 7.33235 68.9935 7.52181 68.9574 7.84659C68.9393 8.15332 68.9213 8.63147 68.9033 9.28102C68.8852 9.91254 68.8762 10.7606 68.8762 11.8251V18.2666C68.8762 18.8259 68.8762 19.4123 68.8762 20.0258C68.8762 20.6212 68.8852 21.2347 68.9033 21.8662H67.6853L57.7255 8.46908H58.3209V15.7225C58.3209 16.8051 58.3299 17.6802 58.348 18.3478C58.366 18.9973 58.384 19.4755 58.4021 19.7822C58.4382 20.0889 58.4652 20.2784 58.4833 20.3506L60.3237 20.7295L60.2425 21.7579H55.046L54.9648 20.7295L56.6158 20.3506C56.6338 20.2784 56.6519 20.0889 56.6699 19.7822C56.706 19.4755 56.7331 18.9973 56.7511 18.3478C56.7692 17.6802 56.7782 16.8051 56.7782 15.7225V11.0944C56.7782 10.2824 56.7692 9.61482 56.7511 9.09157C56.7331 8.56832 56.715 8.16234 56.697 7.87365C56.679 7.58496 56.6519 7.38648 56.6158 7.27822L54.9648 6.89932L55.046 5.87085H58.7539L67.8477 17.8877H67.3606Z" fill="white"/>
<path d="M149.288 36.4201C149.138 36.4201 149.025 36.3759 148.95 36.2876C148.875 36.1992 148.838 36.0868 148.838 35.9502C148.838 35.8538 148.871 35.6731 148.938 35.4081C149.013 35.143 149.1 34.8418 149.2 34.5045C149.301 34.1671 149.397 33.8257 149.488 33.4804C149.588 33.135 149.672 32.8257 149.739 32.5526C149.814 32.2796 149.851 32.0868 149.851 31.9743C149.851 31.8057 149.764 31.7213 149.588 31.7213C149.405 31.7213 149.196 31.8177 148.963 32.0105C148.729 32.2032 148.491 32.4643 148.249 32.7936C148.007 33.1229 147.774 33.4884 147.548 33.89C147.323 34.2916 147.123 34.7053 146.948 35.131C146.772 35.5486 146.643 35.9462 146.56 36.3237H145.758C145.9 35.8659 146.038 35.4 146.172 34.9261C146.305 34.4522 146.422 34.0024 146.522 33.5767C146.622 33.151 146.701 32.7695 146.76 32.4322C146.818 32.0948 146.847 31.8378 146.847 31.6611C146.655 31.7575 146.476 31.882 146.309 32.0346C146.142 32.1791 145.975 32.3679 145.809 32.6008L145.533 32.2273C145.742 31.9864 145.946 31.7816 146.147 31.6129C146.355 31.4362 146.551 31.3036 146.735 31.2153C146.918 31.1269 147.081 31.0828 147.223 31.0828C147.373 31.0828 147.477 31.1269 147.536 31.2153C147.594 31.2956 147.623 31.4081 147.623 31.5526C147.623 31.6892 147.607 31.8779 147.573 32.1189C147.54 32.3599 147.473 32.6771 147.373 33.0707C147.281 33.4643 147.148 33.9703 146.973 34.5888H146.847C146.998 34.1872 147.181 33.7816 147.398 33.3719C147.623 32.9623 147.87 32.5848 148.137 32.2394C148.412 31.894 148.7 31.6169 149 31.4081C149.301 31.1912 149.605 31.0828 149.914 31.0828C150.156 31.0828 150.339 31.147 150.465 31.2755C150.59 31.404 150.652 31.5808 150.652 31.8057C150.652 31.9342 150.619 32.135 150.552 32.4081C150.485 32.6731 150.402 32.9783 150.302 33.3237C150.21 33.6611 150.114 33.9984 150.014 34.3358C149.914 34.6731 149.83 34.9783 149.764 35.2514C149.697 35.5165 149.664 35.7093 149.664 35.8298C149.847 35.7334 150.022 35.6129 150.189 35.4683C150.356 35.3237 150.523 35.151 150.69 34.9502L150.965 35.2755C150.757 35.5165 150.552 35.7213 150.352 35.89C150.152 36.0587 149.96 36.1912 149.776 36.2876C149.593 36.3759 149.43 36.4201 149.288 36.4201Z" fill="white"/>
<path d="M140.577 36.4201C140.31 36.4201 140.101 36.3117 139.951 36.0948C139.809 35.8699 139.738 35.5808 139.738 35.2273C139.738 34.6571 139.834 34.1229 140.026 33.6249C140.218 33.1269 140.473 32.6892 140.79 32.3117C141.107 31.9261 141.453 31.6249 141.829 31.4081C142.212 31.1912 142.584 31.0828 142.942 31.0828C143.159 31.0828 143.347 31.135 143.506 31.2394C143.664 31.3358 143.827 31.4723 143.994 31.649L143.794 32.0346C143.652 31.89 143.485 31.7856 143.293 31.7213C143.101 31.649 142.905 31.6129 142.705 31.6129C142.438 31.6129 142.179 31.7093 141.929 31.902C141.678 32.0868 141.457 32.3398 141.265 32.6611C141.073 32.9743 140.919 33.3398 140.802 33.7575C140.694 34.1671 140.639 34.5968 140.639 35.0466C140.639 35.2715 140.66 35.4442 140.702 35.5647C140.752 35.6852 140.836 35.7454 140.952 35.7454C141.094 35.7454 141.274 35.645 141.491 35.4442C141.716 35.2434 141.958 34.9663 142.217 34.6129C142.484 34.2595 142.742 33.8498 142.993 33.384C143.243 32.9181 143.46 32.4121 143.643 31.8659L143.756 31.6008L144.232 31.1791H144.632C144.482 31.637 144.34 32.1028 144.207 32.5767C144.073 33.0426 143.956 33.4924 143.856 33.9261C143.764 34.3518 143.689 34.7293 143.631 35.0587C143.572 35.388 143.543 35.645 143.543 35.8298C143.735 35.7334 143.915 35.6129 144.081 35.4683C144.248 35.3237 144.415 35.151 144.582 34.9502L144.857 35.2755C144.649 35.5165 144.44 35.7213 144.232 35.89C144.031 36.0587 143.839 36.1912 143.656 36.2876C143.481 36.3759 143.318 36.4201 143.168 36.4201C143.026 36.4201 142.922 36.38 142.855 36.2996C142.788 36.2113 142.755 36.0948 142.755 35.9502C142.755 35.8057 142.771 35.6129 142.805 35.3719C142.846 35.1229 142.913 34.8016 143.005 34.4081C143.105 34.0065 143.243 33.5045 143.418 32.902H143.556C143.297 33.6008 142.988 34.2153 142.63 34.7454C142.279 35.2675 141.92 35.6771 141.553 35.9743C141.194 36.2715 140.869 36.4201 140.577 36.4201Z" fill="white"/>
<path d="M135.62 35.7453L135.52 35.6971C135.636 35.6088 135.749 35.5485 135.858 35.5164C135.966 35.4763 136.07 35.4562 136.17 35.4562C136.271 35.4562 136.412 35.4722 136.596 35.5044C136.788 35.5365 136.988 35.5767 137.197 35.6248C137.414 35.665 137.606 35.7012 137.773 35.7333C137.939 35.7654 138.052 35.7815 138.11 35.7815C138.186 35.7815 138.248 35.7694 138.298 35.7453C138.357 35.7132 138.386 35.661 138.386 35.5887C138.386 35.5244 138.357 35.4321 138.298 35.3116C138.24 35.1831 138.152 35.0425 138.035 34.8899C138.11 34.8257 138.19 34.7815 138.273 34.7574C138.357 34.7252 138.432 34.7092 138.498 34.7092C138.59 34.7092 138.69 34.7453 138.799 34.8176C138.907 34.8899 138.962 35.0224 138.962 35.2152C138.962 35.3598 138.924 35.5044 138.849 35.6489C138.774 35.7935 138.674 35.922 138.549 36.0345C138.432 36.1469 138.307 36.2393 138.173 36.3116C138.048 36.3839 137.931 36.42 137.823 36.42C137.689 36.42 137.514 36.3999 137.297 36.3598C137.08 36.3277 136.855 36.2875 136.621 36.2393C136.387 36.1911 136.17 36.151 135.97 36.1188C135.77 36.0787 135.632 36.0586 135.557 36.0586C135.424 36.0586 135.298 36.0867 135.182 36.1429C135.065 36.1991 134.948 36.2915 134.831 36.42L134.568 36.2032L138.311 31.7815L138.448 31.8297C138.382 31.8859 138.286 31.9301 138.161 31.9622C138.044 31.9863 137.902 31.9983 137.735 31.9983C137.643 31.9983 137.51 31.9863 137.334 31.9622C137.168 31.9301 136.992 31.8979 136.809 31.8658C136.634 31.8257 136.471 31.7935 136.321 31.7694C136.17 31.7453 136.062 31.7333 135.995 31.7333C135.912 31.7333 135.845 31.7614 135.795 31.8176C135.753 31.8658 135.732 31.918 135.732 31.9742C135.732 32.0385 135.753 32.1228 135.795 32.2273C135.845 32.3236 135.937 32.4722 136.07 32.673C135.995 32.7373 135.916 32.7855 135.833 32.8176C135.757 32.8417 135.682 32.8538 135.607 32.8538C135.524 32.8538 135.428 32.8176 135.319 32.7453C135.211 32.665 135.157 32.5325 135.157 32.3477C135.157 32.2032 135.194 32.0586 135.269 31.914C135.344 31.7694 135.44 31.6369 135.557 31.5164C135.674 31.3879 135.799 31.2875 135.933 31.2152C136.066 31.1349 136.187 31.0947 136.296 31.0947C136.421 31.0947 136.583 31.1108 136.784 31.1429C136.984 31.175 137.193 31.2112 137.41 31.2514C137.635 31.2835 137.839 31.3156 138.023 31.3477C138.215 31.3799 138.361 31.3959 138.461 31.3959C138.594 31.3959 138.707 31.3759 138.799 31.3357C138.891 31.2875 138.991 31.2072 139.099 31.0947L139.362 31.3236L135.62 35.7453Z" fill="white"/>
<path d="M130.05 36.4201C129.783 36.4201 129.574 36.3117 129.424 36.0948C129.282 35.8699 129.211 35.5808 129.211 35.2273C129.211 34.6571 129.307 34.1229 129.499 33.6249C129.691 33.1269 129.945 32.6892 130.262 32.3117C130.579 31.9261 130.926 31.6249 131.301 31.4081C131.685 31.1912 132.056 31.0828 132.415 31.0828C132.632 31.0828 132.82 31.135 132.978 31.2394C133.137 31.3358 133.3 31.4723 133.466 31.649L133.266 32.0346C133.124 31.89 132.957 31.7856 132.766 31.7213C132.574 31.649 132.378 31.6129 132.177 31.6129C131.91 31.6129 131.652 31.7093 131.401 31.902C131.151 32.0868 130.93 32.3398 130.738 32.6611C130.546 32.9743 130.392 33.3398 130.275 33.7575C130.166 34.1671 130.112 34.5968 130.112 35.0466C130.112 35.2715 130.133 35.4442 130.175 35.5647C130.225 35.6852 130.308 35.7454 130.425 35.7454C130.567 35.7454 130.746 35.645 130.963 35.4442C131.189 35.2434 131.43 34.9663 131.689 34.6129C131.956 34.2595 132.215 33.8498 132.465 33.384C132.716 32.9181 132.932 32.4121 133.116 31.8659L133.229 31.6008L133.704 31.1791H134.105C133.955 31.637 133.813 32.1028 133.679 32.5767C133.546 33.0426 133.429 33.4924 133.329 33.9261C133.237 34.3518 133.162 34.7293 133.104 35.0587C133.045 35.388 133.016 35.645 133.016 35.8298C133.208 35.7334 133.387 35.6129 133.554 35.4683C133.721 35.3237 133.888 35.151 134.055 34.9502L134.33 35.2755C134.121 35.5165 133.913 35.7213 133.704 35.89C133.504 36.0587 133.312 36.1912 133.129 36.2876C132.953 36.3759 132.791 36.4201 132.64 36.4201C132.499 36.4201 132.394 36.38 132.327 36.2996C132.261 36.2113 132.227 36.0948 132.227 35.9502C132.227 35.8057 132.244 35.6129 132.277 35.3719C132.319 35.1229 132.386 34.8016 132.478 34.4081C132.578 34.0065 132.716 33.5045 132.891 32.902H133.028C132.77 33.6008 132.461 34.2153 132.102 34.7454C131.752 35.2675 131.393 35.6771 131.026 35.9743C130.667 36.2715 130.342 36.4201 130.05 36.4201Z" fill="white"/>
<path d="M128.637 31.902C128.453 31.902 128.274 31.9944 128.098 32.1791C127.923 32.3639 127.752 32.6049 127.585 32.902C127.427 33.1912 127.268 33.5045 127.11 33.8418C126.884 34.3077 126.692 34.7735 126.534 35.2394C126.375 35.6972 126.267 36.0587 126.208 36.3237H125.382C125.524 35.8659 125.658 35.4 125.783 34.9261C125.916 34.4522 126.033 34.0024 126.133 33.5767C126.233 33.151 126.313 32.7695 126.371 32.4322C126.43 32.0948 126.459 31.8378 126.459 31.6611C126.267 31.7575 126.087 31.882 125.921 32.0346C125.754 32.1791 125.587 32.3679 125.42 32.6008L125.145 32.2273C125.353 31.9864 125.558 31.7816 125.758 31.6129C125.966 31.4362 126.158 31.3036 126.334 31.2153C126.517 31.1269 126.68 31.0828 126.822 31.0828C126.947 31.0828 127.039 31.1229 127.097 31.2032C127.164 31.2836 127.197 31.4 127.197 31.5526C127.197 31.6892 127.176 31.894 127.135 32.1671C127.101 32.4402 127.018 32.8217 126.884 33.3117C126.759 33.8016 126.559 34.4402 126.284 35.2273H126.221C126.521 34.4241 126.788 33.7575 127.022 33.2273C127.264 32.6892 127.481 32.2635 127.673 31.9502C127.873 31.637 128.069 31.4161 128.261 31.2876C128.453 31.151 128.657 31.0828 128.874 31.0828C129.041 31.0828 129.171 31.1269 129.262 31.2153C129.363 31.2956 129.413 31.4081 129.413 31.5526C129.413 31.641 129.396 31.7334 129.363 31.8298C129.329 31.9261 129.271 32.0225 129.187 32.1189C129.104 32.0386 129.012 31.9824 128.912 31.9502C128.812 31.9181 128.72 31.902 128.637 31.902Z" fill="white"/>
<path d="M120.75 35.0467C120.75 35.2956 120.804 35.4884 120.913 35.625C121.03 35.7615 121.197 35.8298 121.414 35.8298C121.781 35.8298 122.123 35.6852 122.44 35.3961C122.757 35.0989 123.016 34.6973 123.216 34.1912C123.424 33.6852 123.529 33.1069 123.529 32.4563C123.529 32.2314 123.5 32.0547 123.441 31.9262C123.383 31.7977 123.308 31.7334 123.216 31.7334C123.107 31.7334 122.953 31.8057 122.753 31.9503C122.552 32.0868 122.336 32.2756 122.102 32.5165C121.877 32.7575 121.66 33.0266 121.451 33.3238C121.251 33.6129 121.084 33.9101 120.95 34.2153C120.817 34.5125 120.75 34.7896 120.75 35.0467ZM120.037 34.1069L121.313 28.9021L120.412 28.7816L120.475 28.4683L122.114 27.9744L122.29 28.131C122.24 28.3398 122.185 28.5487 122.127 28.7575C122.077 28.9663 122.027 29.1631 121.977 29.3479C121.935 29.5246 121.893 29.6852 121.852 29.8298L121.439 31.4563C121.313 31.9543 121.184 32.4282 121.051 32.878C120.925 33.3278 120.758 33.8459 120.55 34.4322H120.462C120.746 33.7093 121.08 33.0989 121.464 32.6009C121.847 32.1029 122.227 31.7254 122.603 31.4683C122.986 31.2113 123.312 31.0828 123.579 31.0828C123.846 31.0828 124.054 31.1952 124.205 31.4201C124.355 31.637 124.43 31.9222 124.43 32.2756C124.43 32.8298 124.326 33.3559 124.117 33.8539C123.908 34.3519 123.641 34.7936 123.316 35.1792C122.999 35.5647 122.661 35.8699 122.302 36.0948C121.943 36.3117 121.605 36.4201 121.288 36.4201C120.888 36.4201 120.575 36.3278 120.35 36.143C120.124 35.9503 119.987 35.6812 119.937 35.3358C119.887 34.9824 119.92 34.5728 120.037 34.1069Z" fill="white"/>
<path d="M114.68 36.4201C114.413 36.4201 114.205 36.3117 114.055 36.0948C113.913 35.8699 113.842 35.5808 113.842 35.2273C113.842 34.6571 113.938 34.1229 114.13 33.6249C114.322 33.1269 114.576 32.6892 114.893 32.3117C115.21 31.9261 115.557 31.6249 115.932 31.4081C116.316 31.1912 116.687 31.0828 117.046 31.0828C117.263 31.0828 117.451 31.135 117.609 31.2394C117.768 31.3358 117.93 31.4723 118.097 31.649L117.897 32.0346C117.755 31.89 117.588 31.7856 117.396 31.7213C117.205 31.649 117.008 31.6129 116.808 31.6129C116.541 31.6129 116.282 31.7093 116.032 31.902C115.782 32.0868 115.561 32.3398 115.369 32.6611C115.177 32.9743 115.023 33.3398 114.906 33.7575C114.797 34.1671 114.743 34.5968 114.743 35.0466C114.743 35.2715 114.764 35.4442 114.806 35.5647C114.856 35.6852 114.939 35.7454 115.056 35.7454C115.198 35.7454 115.377 35.645 115.594 35.4442C115.819 35.2434 116.061 34.9663 116.32 34.6129C116.587 34.2595 116.846 33.8498 117.096 33.384C117.346 32.9181 117.563 32.4121 117.747 31.8659L117.86 31.6008L118.335 31.1791H118.736C118.585 31.637 118.444 32.1028 118.31 32.5767C118.177 33.0426 118.06 33.4924 117.96 33.9261C117.868 34.3518 117.793 34.7293 117.734 35.0587C117.676 35.388 117.647 35.645 117.647 35.8298C117.839 35.7334 118.018 35.6129 118.185 35.4683C118.352 35.3237 118.519 35.151 118.686 34.9502L118.961 35.2755C118.752 35.5165 118.544 35.7213 118.335 35.89C118.135 36.0587 117.943 36.1912 117.759 36.2876C117.584 36.3759 117.421 36.4201 117.271 36.4201C117.129 36.4201 117.025 36.38 116.958 36.2996C116.892 36.2113 116.858 36.0948 116.858 35.9502C116.858 35.8057 116.875 35.6129 116.908 35.3719C116.95 35.1229 117.017 34.8016 117.109 34.4081C117.209 34.0065 117.346 33.5045 117.522 32.902H117.659C117.401 33.6008 117.092 34.2153 116.733 34.7454C116.383 35.2675 116.024 35.6771 115.657 35.9743C115.298 36.2715 114.972 36.4201 114.68 36.4201Z" fill="white"/>
<path d="M108.446 36.4201C107.979 36.4201 107.579 36.2595 107.245 35.9382C106.911 35.6089 106.744 35.1631 106.744 34.6008C106.744 34.1751 106.819 33.7534 106.969 33.3358C107.12 32.9181 107.324 32.5406 107.583 32.2032C107.85 31.8579 108.163 31.5848 108.521 31.384C108.889 31.1832 109.285 31.0828 109.711 31.0828C110.103 31.0828 110.395 31.1751 110.587 31.3599C110.779 31.5366 110.875 31.7374 110.875 31.9623C110.875 32.1952 110.799 32.4161 110.649 32.6249C110.507 32.8338 110.29 33.0426 109.998 33.2514C109.706 33.4522 109.348 33.653 108.922 33.8538C108.505 34.0466 108.021 34.2394 107.47 34.4322V33.9502C108.012 33.7494 108.471 33.5567 108.847 33.3719C109.231 33.1791 109.523 32.9783 109.723 32.7695C109.932 32.5526 110.036 32.3277 110.036 32.0948C110.036 31.9181 109.973 31.7856 109.848 31.6972C109.731 31.6089 109.581 31.5647 109.398 31.5647C109.081 31.5647 108.784 31.6892 108.509 31.9382C108.242 32.1791 108.025 32.5085 107.858 32.9261C107.7 33.3438 107.62 33.8257 107.62 34.3719C107.62 34.8057 107.725 35.147 107.933 35.396C108.142 35.637 108.413 35.7575 108.747 35.7575C108.947 35.7575 109.181 35.6932 109.448 35.5647C109.723 35.4281 109.982 35.1952 110.224 34.8659L110.499 35.2273C110.224 35.5968 109.902 35.89 109.535 36.1069C109.176 36.3157 108.814 36.4201 108.446 36.4201Z" fill="white"/>
<path d="M102.301 31.0828C102.443 31.0828 102.551 31.1269 102.626 31.2153C102.702 31.2956 102.739 31.4081 102.739 31.5526C102.739 31.6571 102.702 31.8418 102.626 32.1069C102.56 32.3639 102.476 32.6611 102.376 32.9984C102.276 33.3358 102.176 33.6771 102.076 34.0225C101.976 34.3599 101.888 34.6651 101.813 34.9382C101.746 35.2032 101.713 35.392 101.713 35.5045C101.713 35.5767 101.734 35.637 101.775 35.6852C101.817 35.7334 101.888 35.7575 101.988 35.7575C102.172 35.7575 102.376 35.6611 102.601 35.4683C102.827 35.2755 103.056 35.0185 103.29 34.6972C103.532 34.3759 103.761 34.0145 103.978 33.6129C104.195 33.2032 104.387 32.7896 104.554 32.3719C104.729 31.9542 104.863 31.5567 104.954 31.1791H105.73C105.589 31.637 105.451 32.1028 105.317 32.5767C105.184 33.0426 105.067 33.4924 104.967 33.9261C104.867 34.3518 104.788 34.7293 104.729 35.0587C104.671 35.388 104.642 35.645 104.642 35.8298C104.833 35.7334 105.009 35.6129 105.167 35.4683C105.334 35.3237 105.501 35.151 105.668 34.9502L105.956 35.2755C105.747 35.5165 105.539 35.7213 105.33 35.89C105.13 36.0587 104.938 36.1912 104.754 36.2876C104.579 36.3759 104.416 36.4201 104.266 36.4201C104.124 36.4201 104.016 36.3759 103.941 36.2876C103.874 36.1992 103.841 36.0868 103.841 35.9502C103.841 35.8057 103.861 35.6129 103.903 35.3719C103.945 35.131 104.012 34.8137 104.103 34.4201C104.204 34.0185 104.341 33.5125 104.516 32.902H104.654C104.504 33.3036 104.32 33.7133 104.103 34.131C103.886 34.5406 103.644 34.9221 103.377 35.2755C103.119 35.6209 102.839 35.898 102.539 36.1069C102.247 36.3157 101.946 36.4201 101.638 36.4201C101.404 36.4201 101.22 36.3559 101.087 36.2273C100.962 36.0988 100.899 35.9221 100.899 35.6972C100.899 35.5687 100.933 35.3719 100.999 35.1069C101.066 34.8338 101.15 34.5285 101.25 34.1912C101.35 33.8458 101.45 33.5045 101.55 33.1671C101.659 32.8298 101.746 32.5285 101.813 32.2635C101.88 31.9904 101.913 31.7896 101.913 31.6611C101.729 31.7575 101.55 31.882 101.375 32.0346C101.208 32.1791 101.041 32.3679 100.874 32.6008L100.611 32.2273C100.82 31.9864 101.024 31.7816 101.225 31.6129C101.425 31.4362 101.617 31.3036 101.8 31.2153C101.992 31.1269 102.159 31.0828 102.301 31.0828Z" fill="white"/>
<path d="M99.86 31.1791C99.7849 31.404 99.7139 31.6129 99.6472 31.8057C99.5888 31.9984 99.5304 32.1952 99.4719 32.396C99.4219 32.5888 99.3676 32.8057 99.3092 33.0466C99.2508 33.2796 99.1924 33.5567 99.134 33.8779L98.5583 36.649C98.4498 37.1711 98.3705 37.5727 98.3204 37.8538C98.2787 38.143 98.2495 38.3398 98.2328 38.4442L98.9713 38.6249L98.8586 38.9743H96.3804L96.4305 38.6249L97.3692 38.4442C97.4109 38.2755 97.4568 38.0627 97.5069 37.8057C97.557 37.5567 97.6112 37.2996 97.6696 37.0346L97.9575 35.7093C98.0326 35.3719 98.1202 34.9904 98.2203 34.5647C98.3204 34.139 98.4665 33.5848 98.6584 32.902H98.7836C98.5082 33.6008 98.1911 34.2153 97.8323 34.7454C97.4735 35.2675 97.1105 35.6771 96.7434 35.9743C96.3846 36.2715 96.0675 36.4201 95.7922 36.4201C95.5085 36.4201 95.2915 36.3117 95.1413 36.0948C94.9995 35.8699 94.9244 35.5808 94.916 35.2273C94.916 34.6731 95.0078 34.147 95.1914 33.649C95.3833 33.151 95.6336 32.7093 95.9424 32.3237C96.2511 31.9382 96.5974 31.637 96.9812 31.4201C97.365 31.1952 97.7572 31.0828 98.1577 31.0828C98.3914 31.0828 98.5833 31.135 98.7335 31.2394C98.892 31.3358 99.0506 31.4723 99.2091 31.649L99.0088 32.0346C98.8753 31.89 98.7126 31.7856 98.5207 31.7213C98.3288 31.649 98.1285 31.6129 97.9199 31.6129C97.6446 31.6129 97.3776 31.7093 97.1189 31.902C96.8686 32.0868 96.6433 32.3398 96.443 32.6611C96.2511 32.9743 96.0967 33.3398 95.9799 33.7575C95.8714 34.1671 95.8172 34.5968 95.8172 35.0466C95.8172 35.2796 95.8422 35.4563 95.8923 35.5767C95.9424 35.6892 96.0174 35.7454 96.1176 35.7454C96.2678 35.7454 96.4597 35.641 96.6933 35.4322C96.927 35.2233 97.1773 34.9422 97.4443 34.5888C97.7113 34.2273 97.97 33.8137 98.2203 33.3478C98.479 32.882 98.7001 32.388 98.8837 31.8659L98.9838 31.6008L99.4719 31.1791H99.86Z" fill="white"/>
<path d="M89.7233 36.4201C89.4813 36.4201 89.2518 36.384 89.0349 36.3117C88.8263 36.2314 88.6552 36.1229 88.5217 35.9864C88.3966 35.8498 88.334 35.7053 88.334 35.5526C88.334 35.4563 88.3507 35.3679 88.384 35.2876C88.4174 35.2073 88.4675 35.131 88.5342 35.0587C88.7595 35.3237 88.9973 35.5285 89.2477 35.6731C89.498 35.8097 89.74 35.8779 89.9736 35.8779C90.2156 35.8779 90.4075 35.8177 90.5494 35.6972C90.6996 35.5767 90.7747 35.4 90.7747 35.1671C90.7747 35.0225 90.7246 34.8699 90.6245 34.7093C90.5327 34.5486 90.3616 34.3559 90.1113 34.131C89.8276 33.8659 89.6106 33.645 89.4605 33.4683C89.3103 33.2916 89.2101 33.135 89.1601 32.9984C89.11 32.8619 89.085 32.7294 89.085 32.6008C89.085 32.3117 89.1642 32.0547 89.3228 31.8298C89.4813 31.6049 89.6983 31.4241 89.9736 31.2876C90.249 31.151 90.5619 31.0828 90.9123 31.0828C91.0959 31.0828 91.2795 31.1109 91.4631 31.1671C91.6466 31.2153 91.7968 31.2876 91.9136 31.384C92.0388 31.4723 92.1014 31.5848 92.1014 31.7213C92.1014 31.8097 92.0847 31.886 92.0513 31.9502C92.0179 32.0145 91.9679 32.0828 91.9011 32.1551C91.7092 31.9703 91.5006 31.8298 91.2753 31.7334C91.05 31.637 90.8206 31.5888 90.5869 31.5888C90.3449 31.5888 90.153 31.6571 90.0112 31.7936C89.8693 31.9302 89.7984 32.1069 89.7984 32.3237C89.7984 32.4201 89.8193 32.5205 89.861 32.6249C89.9027 32.7294 89.9736 32.8458 90.0737 32.9743C90.1822 33.1028 90.3241 33.2514 90.4993 33.4201C90.7747 33.6771 90.9833 33.894 91.1251 34.0707C91.267 34.2394 91.3629 34.388 91.413 34.5165C91.4631 34.645 91.4881 34.7775 91.4881 34.9141C91.4881 35.1872 91.4046 35.4402 91.2378 35.6731C91.0709 35.898 90.8498 36.0787 90.5744 36.2153C90.3074 36.3518 90.0237 36.4201 89.7233 36.4201Z" fill="white"/>
<path d="M85.7296 36.4201C85.2623 36.4201 84.8618 36.2595 84.528 35.9382C84.1942 35.6089 84.0273 35.1631 84.0273 34.6008C84.0273 34.1751 84.1024 33.7534 84.2526 33.3358C84.4028 32.9181 84.6073 32.5406 84.8659 32.2032C85.133 31.8579 85.4459 31.5848 85.8047 31.384C86.1718 31.1832 86.5682 31.0828 86.9937 31.0828C87.3859 31.0828 87.6779 31.1751 87.8698 31.3599C88.0618 31.5366 88.1577 31.7374 88.1577 31.9623C88.1577 32.1952 88.0826 32.4161 87.9324 32.6249C87.7906 32.8338 87.5736 33.0426 87.2816 33.2514C86.9895 33.4522 86.6307 33.653 86.2052 33.8538C85.788 34.0466 85.304 34.2394 84.7533 34.4322V33.9502C85.2957 33.7494 85.7546 33.5567 86.1301 33.3719C86.5139 33.1791 86.806 32.9783 87.0062 32.7695C87.2148 32.5526 87.3191 32.3277 87.3191 32.0948C87.3191 31.9181 87.2565 31.7856 87.1314 31.6972C87.0146 31.6089 86.8644 31.5647 86.6808 31.5647C86.3637 31.5647 86.0675 31.6892 85.7921 31.9382C85.5251 32.1791 85.3082 32.5085 85.1413 32.9261C84.9828 33.3438 84.9035 33.8257 84.9035 34.3719C84.9035 34.8057 85.0078 35.147 85.2164 35.396C85.425 35.637 85.6962 35.7575 86.03 35.7575C86.2302 35.7575 86.4638 35.6932 86.7309 35.5647C87.0062 35.4281 87.2649 35.1952 87.5069 34.8659L87.7822 35.2273C87.5069 35.5968 87.1856 35.89 86.8185 36.1069C86.4597 36.3157 86.0967 36.4201 85.7296 36.4201Z" fill="white"/>
<path d="M81.4744 36.4201C81.3325 36.4201 81.2241 36.38 81.149 36.2997C81.0822 36.2113 81.0488 36.1069 81.0488 35.9864C81.0488 35.9061 81.0613 35.7896 81.0864 35.637C81.1198 35.4764 81.1698 35.2555 81.2366 34.9744C81.3117 34.6852 81.4035 34.3157 81.5119 33.8659L82.701 28.9021L81.7998 28.7816L81.8624 28.4683L83.5145 27.9744L83.6898 28.131C83.6063 28.4523 83.5187 28.7896 83.4269 29.143C83.3351 29.4884 83.2308 29.9101 83.114 30.4081L82.1503 34.3358C82.1085 34.4965 82.0668 34.6772 82.0251 34.878C81.9834 35.0708 81.9458 35.2555 81.9125 35.4322C81.8791 35.6009 81.8582 35.7334 81.8499 35.8298C82.0418 35.7334 82.2212 35.6129 82.3881 35.4683C82.555 35.3238 82.7218 35.1511 82.8887 34.9503L83.1641 35.2756C82.9555 35.5165 82.751 35.7214 82.5508 35.89C82.3505 36.0587 82.1586 36.1912 81.975 36.2876C81.7915 36.376 81.6246 36.4201 81.4744 36.4201Z" fill="white"/>
<path d="M78.4588 36.4201C78.3169 36.4201 78.2084 36.38 78.1333 36.2997C78.0666 36.2113 78.0332 36.1069 78.0332 35.9864C78.0332 35.9061 78.0457 35.7896 78.0708 35.637C78.1041 35.4764 78.1542 35.2555 78.2209 34.9744C78.296 34.6852 78.3878 34.3157 78.4963 33.8659L79.6854 28.9021L78.7842 28.7816L78.8468 28.4683L80.4989 27.9744L80.6741 28.131C80.5907 28.4523 80.5031 28.7896 80.4113 29.143C80.3195 29.4884 80.2152 29.9101 80.0984 30.4081L79.1346 34.3358C79.0929 34.4965 79.0512 34.6772 79.0095 34.878C78.9678 35.0708 78.9302 35.2555 78.8968 35.4322C78.8635 35.6009 78.8426 35.7334 78.8342 35.8298C79.0262 35.7334 79.2056 35.6129 79.3724 35.4683C79.5393 35.3238 79.7062 35.1511 79.8731 34.9503L80.1485 35.2756C79.9399 35.5165 79.7354 35.7214 79.5352 35.89C79.3349 36.0587 79.143 36.1912 78.9594 36.2876C78.7758 36.376 78.609 36.4201 78.4588 36.4201Z" fill="white"/>
<path d="M72.9382 36.4201C72.6712 36.4201 72.4626 36.3117 72.3124 36.0948C72.1705 35.8699 72.0996 35.5808 72.0996 35.2273C72.0996 34.6571 72.1956 34.1229 72.3875 33.6249C72.5794 33.1269 72.8339 32.6892 73.151 32.3117C73.4681 31.9261 73.8143 31.6249 74.1898 31.4081C74.5737 31.1912 74.945 31.0828 75.3038 31.0828C75.5207 31.0828 75.7085 31.135 75.867 31.2394C76.0256 31.3358 76.1883 31.4723 76.3552 31.649L76.1549 32.0346C76.013 31.89 75.8462 31.7856 75.6542 31.7213C75.4623 31.649 75.2662 31.6129 75.066 31.6129C74.799 31.6129 74.5403 31.7093 74.29 31.902C74.0396 32.0868 73.8185 32.3398 73.6266 32.6611C73.4347 32.9743 73.2803 33.3398 73.1635 33.7575C73.055 34.1671 73.0008 34.5968 73.0008 35.0466C73.0008 35.2715 73.0216 35.4442 73.0634 35.5647C73.1134 35.6852 73.1969 35.7454 73.3137 35.7454C73.4555 35.7454 73.6349 35.645 73.8519 35.4442C74.0772 35.2434 74.3192 34.9663 74.5778 34.6129C74.8449 34.2595 75.1035 33.8498 75.3538 33.384C75.6042 32.9181 75.8211 32.4121 76.0047 31.8659L76.1173 31.6008L76.593 31.1791H76.9935C76.8433 31.637 76.7014 32.1028 76.5679 32.5767C76.4344 33.0426 76.3176 33.4924 76.2175 33.9261C76.1257 34.3518 76.0506 34.7293 75.9922 35.0587C75.9338 35.388 75.9046 35.645 75.9046 35.8298C76.0965 35.7334 76.2759 35.6129 76.4428 35.4683C76.6096 35.3237 76.7765 35.151 76.9434 34.9502L77.2188 35.2755C77.0102 35.5165 76.8016 35.7213 76.593 35.89C76.3927 36.0587 76.2008 36.1912 76.0172 36.2876C75.842 36.3759 75.6793 36.4201 75.5291 36.4201C75.3872 36.4201 75.2829 36.38 75.2162 36.2996C75.1494 36.2113 75.116 36.0948 75.116 35.9502C75.116 35.8057 75.1327 35.6129 75.1661 35.3719C75.2078 35.1229 75.2746 34.8016 75.3664 34.4081C75.4665 34.0065 75.6042 33.5045 75.7794 32.902H75.9171C75.6584 33.6008 75.3497 34.2153 74.9909 34.7454C74.6404 35.2675 74.2816 35.6771 73.9145 35.9743C73.5557 36.2715 73.2302 36.4201 72.9382 36.4201Z" fill="white"/>
<path d="M71.436 35.0468C71.0438 35.5929 70.6767 35.9584 70.3346 36.1431C69.9925 36.3279 69.7046 36.4202 69.471 36.4202C69.2206 36.4202 69.0246 36.348 68.8827 36.2034C68.7408 36.0588 68.6699 35.87 68.6699 35.6371C68.6699 35.5488 68.6783 35.4524 68.695 35.348C68.7116 35.2355 68.7408 35.0949 68.7826 34.9263L69.5586 31.7576H68.6824L68.7325 31.5407L70.5349 30.1672H70.7226L70.3847 31.4805L69.5836 34.8419C69.5502 34.9865 69.5252 35.103 69.5085 35.1913C69.4918 35.2717 69.4835 35.352 69.4835 35.4323C69.4835 35.6652 69.592 35.7817 69.8089 35.7817C69.9341 35.7817 70.1093 35.7054 70.3346 35.5528C70.5682 35.3921 70.8478 35.103 71.1732 34.6853L71.436 35.0468ZM69.9466 31.7576L70.0843 31.2034H71.824L71.7114 31.7576H69.9466Z" fill="white"/>
<path d="M65.4542 36.4201C64.9869 36.4201 64.5864 36.2595 64.2526 35.9382C63.9188 35.6089 63.752 35.1631 63.752 34.6008C63.752 34.1751 63.8271 33.7534 63.9772 33.3358C64.1274 32.9181 64.3319 32.5406 64.5905 32.2032C64.8576 31.8579 65.1705 31.5848 65.5293 31.384C65.8964 31.1832 66.2928 31.0828 66.7183 31.0828C67.1105 31.0828 67.4025 31.1751 67.5945 31.3599C67.7864 31.5366 67.8823 31.7374 67.8823 31.9623C67.8823 32.1952 67.8072 32.4161 67.657 32.6249C67.5152 32.8338 67.2982 33.0426 67.0062 33.2514C66.7141 33.4522 66.3553 33.653 65.9298 33.8538C65.5126 34.0466 65.0286 34.2394 64.4779 34.4322V33.9502C65.0203 33.7494 65.4792 33.5567 65.8547 33.3719C66.2385 33.1791 66.5306 32.9783 66.7308 32.7695C66.9394 32.5526 67.0437 32.3277 67.0437 32.0948C67.0437 31.9181 66.9812 31.7856 66.856 31.6972C66.7392 31.6089 66.589 31.5647 66.4054 31.5647C66.0883 31.5647 65.7921 31.6892 65.5168 31.9382C65.2497 32.1791 65.0328 32.5085 64.8659 32.9261C64.7074 33.3438 64.6281 33.8257 64.6281 34.3719C64.6281 34.8057 64.7324 35.147 64.941 35.396C65.1496 35.637 65.4208 35.7575 65.7546 35.7575C65.9548 35.7575 66.1885 35.6932 66.4555 35.5647C66.7308 35.4281 66.9895 35.1952 67.2315 34.8659L67.5068 35.2273C67.2315 35.5968 66.9102 35.89 66.5431 36.1069C66.1843 36.3157 65.8213 36.4201 65.4542 36.4201Z" fill="white"/>
<path d="M56.5169 29.2515H59.2204C60.3719 29.2515 61.2689 29.4844 61.9114 29.9503C62.5539 30.4081 62.8751 31.0908 62.8751 31.9985C62.8751 32.5848 62.7542 33.139 62.5122 33.6611C62.2785 34.1832 61.9489 34.645 61.5234 35.0466C61.1062 35.4483 60.6139 35.7615 60.0465 35.9864C59.4791 36.2113 58.8658 36.3238 58.2066 36.3238H54.9648L55.0399 35.9141L55.8285 35.7454C55.8702 35.625 55.9286 35.4161 56.0037 35.1189C56.0788 34.8137 56.1581 34.4523 56.2415 34.0346L56.7672 31.625C56.8924 31.0627 56.98 30.6491 57.03 30.384C57.0801 30.1189 57.1093 29.9342 57.1176 29.8298L56.3917 29.6611L56.5169 29.2515ZM58.0814 29.8539C58.048 29.9663 57.9938 30.1551 57.9187 30.4201C57.8519 30.6772 57.7602 31.0748 57.6433 31.6129L57.1176 34.0346C57.0592 34.2836 57.0092 34.5045 56.9675 34.6972C56.9341 34.89 56.9049 35.0627 56.8798 35.2153C56.8548 35.3679 56.8298 35.5085 56.8047 35.637C57.0884 35.6691 57.3429 35.6972 57.5682 35.7213C57.8019 35.7374 58.0605 35.7454 58.3442 35.7454C59.0452 35.7454 59.6543 35.5968 60.1716 35.2997C60.689 34.9944 61.0895 34.5647 61.3732 34.0105C61.6652 33.4563 61.8113 32.8137 61.8113 32.0828C61.8113 31.2876 61.5818 30.7053 61.1229 30.3358C60.6723 29.9583 60.0006 29.7695 59.1077 29.7695C58.9492 29.7695 58.7907 29.7776 58.6321 29.7936C58.4736 29.8017 58.29 29.8217 58.0814 29.8539Z" fill="white"/>
</svg>
