<svg width="103" height="81" viewBox="0 0 103 81" fill="none" xmlns="http://www.w3.org/2000/svg">
<path d="M36.0561 78.1738C35.257 78.7324 34.3251 78.9983 33.4003 78.99C32.1116 79.0618 30.8058 78.6002 29.8538 77.621L29.6683 77.4177L11.2842 56.074L14.7536 53.1345L33.1313 74.4707C33.1351 74.4712 33.1403 74.4721 33.1452 74.4718L33.2929 74.4625L33.4398 74.4642L54.5578 56.5716C59.8676 52.0724 60.6402 44.2618 56.4252 38.8349L56.0028 38.3174C51.6553 33.27 44.2354 32.3551 38.8123 35.9709L35.8195 37.966L33.1702 35.5381C28.6183 31.3668 21.6127 31.0183 16.6485 34.839L16.1744 35.2227C10.7954 39.7803 10.1595 47.8 14.7536 53.1345L11.2842 56.074C5.05273 48.8386 5.91563 37.9627 13.2105 31.7817C19.9744 26.051 29.8906 26.3709 36.2669 32.2141C43.5906 27.331 53.6016 28.5622 59.4722 35.3779C65.792 42.7152 64.9193 53.7444 57.5216 60.0126L36.3901 77.9166L36.0561 78.1738Z" fill="#9A9A9A"/>
<path d="M77.5824 77.7009C76.7461 78.7507 75.4923 79.2747 74.2401 79.238C73.3114 79.2597 72.3689 78.9741 71.583 78.3583L51.4558 62.5868L54.2845 59.0358L74.2027 74.6435L89.5442 55.3848C93.315 50.6511 92.645 43.8478 88.1199 39.9171L87.6713 39.5456C83.1081 35.9699 76.6312 36.4199 72.6117 40.3928L70.0553 42.9199L66.9885 41.0357C62.4113 38.2245 56.3772 39.0908 52.7968 43.1741L52.4568 43.5788C48.6584 48.3475 49.4768 55.2685 54.2845 59.0358L51.4558 62.5868C44.6703 57.2698 43.5157 47.5032 48.8765 40.7732C53.8593 34.5181 62.7167 33.0888 69.3901 37.1873C75.027 31.6155 84.1007 30.9801 90.5001 35.9946C97.404 41.405 98.5795 51.3426 93.1246 58.1903L77.5824 77.7009Z" fill="#C3C3C3"/>
<path d="M47.0622 13.6258C47.0622 8.60091 42.9551 4.52608 37.8888 4.52561C32.8221 4.52561 28.7134 8.60063 28.7134 13.6258C28.7139 18.6505 32.8224 22.724 37.8888 22.724V27.2496L37.1803 27.232C30.1564 26.8785 24.5244 21.2928 24.1682 14.3265L24.1504 13.6258C24.1504 6.10094 30.3018 0 37.8888 0L38.5954 0.017617C45.8537 0.382776 51.6253 6.33626 51.6253 13.6258L51.6075 14.3265C51.2393 21.525 45.2382 27.2491 37.8888 27.2496V22.724C42.9548 22.7235 47.0618 18.6502 47.0622 13.6258Z" fill="#9A9A9A"/>
<path d="M75.0758 20.6619C75.0756 16.3562 71.5562 12.8654 67.2149 12.8654C62.8738 12.8656 59.3542 16.3563 59.354 20.6619C59.354 24.9675 62.8737 28.4581 67.2149 28.4583V32.9839C60.3533 32.9837 54.791 27.4672 54.791 20.6619C54.7912 13.8567 60.3535 8.34002 67.2149 8.33984C74.0765 8.33984 79.6386 13.8566 79.6388 20.6619C79.6388 27.4673 74.0766 32.9839 67.2149 32.9839V28.4583C71.5563 28.4583 75.0758 24.9676 75.0758 20.6619Z" fill="#C3C3C3"/>
<rect width="4.53803" height="5.81316" transform="matrix(0.653226 0.757163 -0.762452 0.647045 53.6367 57.325)" fill="#9A9A9A"/>
</svg>
