<svg width="141" height="112" viewBox="0 0 141 112" fill="none" xmlns="http://www.w3.org/2000/svg">
<path d="M49.3566 108.092C48.2626 108.864 46.987 109.232 45.721 109.221C43.9568 109.32 42.1692 108.682 40.866 107.328L40.6121 107.047L15.4455 77.5343L20.1949 73.4698L45.3527 102.972C45.3579 102.972 45.365 102.974 45.3717 102.973L45.5739 102.96L45.775 102.963L74.684 78.2224C81.9529 72.0013 83.0104 61.2014 77.2404 53.6975L76.6622 52.982C70.7107 46.0028 60.5535 44.7378 53.1296 49.7375L49.0327 52.4961L45.4059 49.139C39.1747 43.3713 29.5845 42.8894 22.7889 48.1723L22.1398 48.7029C14.7763 55.0048 13.9058 66.0937 20.1949 73.4698L15.4455 77.5343C6.91502 67.5298 8.09628 52.4915 18.0825 43.945C27.3417 36.021 40.9164 36.4634 49.6451 44.5429C59.6708 37.7909 73.3752 39.4933 81.4116 48.9175C90.0629 59.0629 88.8683 74.3132 78.7413 82.9803L49.8137 107.736L49.3566 108.092Z" fill="#2C2320"/>
<path d="M106.203 107.438C105.059 108.89 103.342 109.614 101.628 109.563C100.357 109.593 99.0665 109.199 97.9907 108.347L70.4379 86.5395L74.3103 81.6295L101.577 103.21L122.578 76.5811C127.74 70.0359 126.823 60.6288 120.629 55.1937L120.015 54.6801C113.768 49.7359 104.901 50.3582 99.3989 55.8515L95.8994 59.3457L91.7012 56.7404C85.4352 52.8534 77.1749 54.0512 72.2737 59.6973L71.8083 60.2568C66.6085 66.8506 67.7288 76.4204 74.3103 81.6295L70.4379 86.5395C61.1491 79.1876 59.5685 65.6831 66.907 56.3776C73.7282 47.7285 85.8533 45.7522 94.9888 51.4193C102.705 43.7151 115.127 42.8364 123.887 49.77C133.338 57.2511 134.947 70.992 127.48 80.4604L106.203 107.438Z" fill="#CFA417"/>
<path d="M64.4253 18.8406C64.4253 11.8926 58.8029 6.25828 51.8675 6.25764C44.9316 6.25764 39.307 11.8922 39.307 18.8406C39.3077 25.7884 44.932 31.4208 51.8675 31.4208V37.6784L50.8976 37.6541C41.2824 37.1653 33.5726 29.442 33.0849 19.8095L33.0605 18.8406C33.0605 8.43587 41.4814 0 51.8675 0L52.8347 0.0243593C62.7708 0.52927 70.6718 8.76124 70.6718 18.8406L70.6475 19.8095C70.1435 29.763 61.9283 37.6778 51.8675 37.6784V31.4208C58.8025 31.4202 64.4247 25.788 64.4253 18.8406Z" fill="#2C2320"/>
<path d="M102.774 28.5693C102.774 22.6159 97.9562 17.7891 92.0133 17.7891C86.0706 17.7893 81.2525 22.616 81.2523 28.5693C81.2523 34.5228 86.0705 39.3493 92.0133 39.3496V45.6072C82.6203 45.6069 75.0059 37.9792 75.0059 28.5693C75.0061 19.1597 82.6205 11.5317 92.0133 11.5315C101.406 11.5315 109.021 19.1596 109.021 28.5693C109.021 37.9793 101.407 45.6072 92.0133 45.6072V39.3496C97.9564 39.3496 102.774 34.523 102.774 28.5693Z" fill="#CFA417"/>
<rect width="6.24819" height="7.99146" transform="matrix(0.649468 0.760388 -0.759242 0.650809 73.4258 79.2642)" fill="#2C2320"/>
</svg>
