<svg width="205" height="28" viewBox="0 0 205 28" fill="none" xmlns="http://www.w3.org/2000/svg">
<path d="M195.121 27.2841L195.039 25.7706L197.779 25.1979C197.807 25.0888 197.82 24.8979 197.82 24.6252C197.848 24.3525 197.875 23.9162 197.902 23.3162C197.929 22.7163 197.943 21.8845 197.943 20.821V18.1212C197.943 17.0031 197.916 15.9805 197.861 15.0533C197.807 14.1261 197.738 13.4034 197.657 12.8853L194.916 12.3126V10.9627L200.725 9.44921L201.338 10.0219C201.256 10.8673 201.188 11.699 201.134 12.5171C201.106 13.3352 201.093 14.2897 201.093 15.3805V20.5346C201.093 21.7891 201.106 22.8254 201.134 23.6435C201.188 24.4616 201.243 24.9797 201.297 25.1979L204.038 25.7706L203.956 27.2841H195.121ZM199.538 4.82687C198.857 4.82687 198.257 4.59507 197.739 4.13147C197.248 3.66787 197.002 3.09519 197.002 2.41343C197.002 1.73167 197.248 1.15899 197.739 0.695396C198.257 0.231799 198.857 0 199.538 0C200.247 0 200.834 0.231799 201.297 0.695396C201.761 1.15899 201.993 1.73167 201.993 2.41343C201.993 3.09519 201.761 3.66787 201.297 4.13147C200.834 4.59507 200.247 4.82687 199.538 4.82687Z" fill="#2C2320"/>
<path d="M182.643 27.6114C181.552 27.6114 180.584 27.3932 179.739 26.9569C178.893 26.5205 178.225 25.9615 177.734 25.2797C177.271 24.598 177.039 23.8889 177.039 23.1526C177.039 22.2254 177.339 21.4619 177.939 20.8619C178.539 20.262 179.521 19.7438 180.884 19.3075L187.102 17.2213V15.1351C187.102 14.4534 186.897 13.8398 186.488 13.2944C186.079 12.7217 185.534 12.2717 184.852 11.9445C184.17 11.6172 183.407 11.4536 182.561 11.4536C181.88 11.4536 181.416 11.6036 181.171 11.9036C180.925 12.1763 180.775 12.7353 180.721 13.5807L180.639 15.2988C179.657 15.5169 178.825 15.4896 178.144 15.2169C177.462 14.917 177.121 14.4397 177.121 13.7852C177.121 13.3216 177.312 12.858 177.694 12.3945C178.103 11.9309 178.634 11.4945 179.289 11.0855C179.943 10.6491 180.652 10.281 181.416 9.98102C182.18 9.68104 182.929 9.47651 183.666 9.36743C185.684 9.36743 187.293 9.89921 188.493 10.9628C189.72 12.0263 190.347 13.4171 190.374 15.1351L190.292 22.0073C190.292 22.5254 190.306 23.0299 190.333 23.5208C190.388 24.0117 190.456 24.3798 190.538 24.6252L193.156 25.1161V26.3842L191.152 27.1205C190.77 27.2568 190.415 27.3659 190.088 27.4477C189.761 27.5568 189.488 27.6114 189.27 27.6114C188.424 27.6114 187.879 27.1341 187.634 26.1797L187.184 24.5843H187.797C186.897 25.5933 186.025 26.3569 185.179 26.875C184.361 27.3659 183.516 27.6114 182.643 27.6114ZM183.748 25.1979C184.375 25.1979 184.961 25.0616 185.507 24.7889C186.052 24.4889 186.584 24.0389 187.102 23.439V19.1439L182.52 20.3711C181.866 20.5347 181.389 20.7937 181.089 21.1483C180.816 21.5028 180.68 21.9527 180.68 22.4981C180.68 23.1799 180.98 23.8071 181.58 24.3798C182.207 24.9252 182.929 25.1979 183.748 25.1979Z" fill="#2C2320"/>
<path d="M153.396 27.2841L153.314 25.8115L155.85 25.1979C155.877 25.007 155.891 24.748 155.891 24.4207C155.918 24.0935 155.946 23.6435 155.973 23.0708C156 22.4981 156.014 21.7482 156.014 20.821L156.055 17.6713C156.055 16.7714 156.014 15.8851 155.932 15.0124C155.877 14.1125 155.809 13.4035 155.727 12.8853L153.109 12.3126V10.9628L158.591 9.44924L159.286 10.1037L159.082 12.2717L159.204 12.3126C160.159 11.2764 161.1 10.5264 162.027 10.0628C162.954 9.59923 163.963 9.36743 165.054 9.36743C166.063 9.36743 167.004 9.6265 167.876 10.1446C168.776 10.6355 169.499 11.3991 170.044 12.4354C170.617 13.4716 170.903 14.7942 170.903 16.4032V20.9437C170.903 21.9255 170.917 22.8118 170.944 23.6026C170.999 24.3934 171.067 24.9252 171.149 25.1979L173.685 25.8115L173.562 27.2841H165.34L165.258 25.8115L167.631 25.1979C167.658 24.9798 167.685 24.707 167.713 24.3798C167.74 24.0526 167.754 23.6435 167.754 23.1526C167.781 22.6345 167.795 21.9936 167.795 21.2301V16.8123C167.795 15.5851 167.576 14.617 167.14 13.908C166.731 13.1717 166.213 12.6535 165.586 12.3535C164.958 12.0263 164.318 11.8627 163.663 11.8627C162.763 11.8627 161.918 12.0945 161.127 12.5581C160.363 12.9944 159.709 13.608 159.163 14.3988V20.5347C159.163 21.7891 159.177 22.8118 159.204 23.6026C159.259 24.3662 159.313 24.8979 159.368 25.1979L161.904 25.8115L161.781 27.2841H153.396Z" fill="#2C2320"/>
<path d="M140.756 27.6114C139.666 27.6114 138.697 27.3932 137.852 26.9569C137.007 26.5205 136.339 25.9615 135.848 25.2797C135.384 24.598 135.152 23.8889 135.152 23.1526C135.152 22.2254 135.452 21.4619 136.052 20.8619C136.652 20.262 137.634 19.7438 138.997 19.3075L145.215 17.2213V15.1351C145.215 14.4534 145.011 13.8398 144.602 13.2944C144.192 12.7217 143.647 12.2717 142.965 11.9445C142.284 11.6172 141.52 11.4536 140.675 11.4536C139.993 11.4536 139.529 11.6036 139.284 11.9036C139.038 12.1763 138.888 12.7353 138.834 13.5807L138.752 15.2988C137.77 15.5169 136.939 15.4896 136.257 15.2169C135.575 14.917 135.234 14.4397 135.234 13.7852C135.234 13.3216 135.425 12.858 135.807 12.3945C136.216 11.9309 136.748 11.4945 137.402 11.0855C138.057 10.6491 138.766 10.281 139.529 9.98102C140.293 9.68104 141.043 9.47651 141.779 9.36743C143.797 9.36743 145.406 9.89921 146.606 10.9628C147.833 12.0263 148.46 13.4171 148.488 15.1351L148.406 22.0073C148.406 22.5254 148.419 23.0299 148.447 23.5208C148.501 24.0117 148.569 24.3798 148.651 24.6252L151.269 25.1161V26.3842L149.265 27.1205C148.883 27.2568 148.528 27.3659 148.201 27.4477C147.874 27.5568 147.601 27.6114 147.383 27.6114C146.538 27.6114 145.992 27.1341 145.747 26.1797L145.297 24.5843H145.911C145.011 25.5933 144.138 26.3569 143.293 26.875C142.474 27.3659 141.629 27.6114 140.756 27.6114ZM141.861 25.1979C142.488 25.1979 143.074 25.0616 143.62 24.7889C144.165 24.4889 144.697 24.0389 145.215 23.439V19.1439L140.634 20.3711C139.979 20.5347 139.502 20.7937 139.202 21.1483C138.929 21.5028 138.793 21.9527 138.793 22.4981C138.793 23.1799 139.093 23.8071 139.693 24.3798C140.32 24.9252 141.043 25.1979 141.861 25.1979Z" fill="#2C2320"/>
<path d="M126.112 21.4346V12.2717C126.112 10.6627 126.098 9.38104 126.071 8.42657C126.044 7.44484 126.016 6.72217 125.989 6.25857C125.962 5.76771 125.934 5.48137 125.907 5.39955L123.126 4.82688L123.248 3.27246H131.02L131.143 4.82688L128.607 5.39955C128.607 5.48137 128.58 5.76771 128.525 6.25857C128.498 6.72217 128.471 7.44484 128.443 8.42657C128.416 9.38104 128.402 10.6627 128.402 12.2717V22.0072C128.402 22.8526 128.402 23.7389 128.402 24.6661C128.402 25.566 128.416 26.4932 128.443 27.4477H126.603L111.549 7.1994H112.449V18.1621C112.449 19.7983 112.463 21.121 112.49 22.13C112.517 23.1117 112.545 23.8344 112.572 24.298C112.627 24.7616 112.667 25.0479 112.695 25.157L115.476 25.7297L115.354 27.2841H107.5L107.377 25.7297L109.872 25.157C109.899 25.0479 109.927 24.7616 109.954 24.298C110.009 23.8344 110.049 23.1117 110.077 22.13C110.104 21.121 110.118 19.7983 110.118 18.1621V11.1673C110.118 9.94008 110.104 8.93108 110.077 8.14023C110.049 7.34939 110.022 6.73581 109.995 6.29948C109.968 5.86315 109.927 5.56318 109.872 5.39955L107.377 4.82688L107.5 3.27246H113.104L126.848 21.4346H126.112Z" fill="#2C2320"/>
<path d="M87.7436 27.2841L87.6618 25.7706L90.4025 25.1979C90.4297 25.0888 90.4434 24.8979 90.4434 24.6252C90.4706 24.3525 90.4979 23.9162 90.5252 23.3162C90.5524 22.7163 90.5661 21.8845 90.5661 20.821V18.1212C90.5661 17.0031 90.5388 15.9805 90.4843 15.0533C90.4297 14.1261 90.3616 13.4034 90.2797 12.8853L87.5391 12.3126V10.9627L93.3477 9.44921L93.9612 10.0219C93.8794 10.8673 93.8113 11.699 93.7567 12.5171C93.7294 13.3352 93.7158 14.2897 93.7158 15.3805V20.5346C93.7158 21.7891 93.7294 22.8254 93.7567 23.6435C93.8113 24.4616 93.8658 24.9797 93.9203 25.1979L96.661 25.7706L96.5792 27.2841H87.7436ZM92.1614 4.82687C91.4796 4.82687 90.8797 4.59507 90.3615 4.13147C89.8707 3.66787 89.6252 3.09519 89.6252 2.41343C89.6252 1.73167 89.8707 1.15899 90.3615 0.695396C90.8797 0.231799 91.4796 0 92.1614 0C92.8704 0 93.4567 0.231799 93.9203 0.695396C94.3839 1.15899 94.6157 1.73167 94.6157 2.41343C94.6157 3.09519 94.3839 3.66787 93.9203 4.13147C93.4567 4.59507 92.8704 4.82687 92.1614 4.82687Z" fill="#2C2320"/>
<path d="M75.2662 27.6114C74.1754 27.6114 73.2073 27.3932 72.3619 26.9569C71.5165 26.5205 70.8484 25.9615 70.3575 25.2797C69.8939 24.598 69.6621 23.8889 69.6621 23.1526C69.6621 22.2254 69.9621 21.4619 70.562 20.8619C71.162 20.262 72.1437 19.7438 73.5072 19.3075L79.7249 17.2213V15.1351C79.7249 14.4534 79.5204 13.8398 79.1113 13.2944C78.7023 12.7217 78.1568 12.2717 77.4751 11.9445C76.7933 11.6172 76.0298 11.4536 75.1844 11.4536C74.5026 11.4536 74.039 11.6036 73.7936 11.9036C73.5481 12.1763 73.3982 12.7353 73.3436 13.5807L73.2618 15.2988C72.2801 15.5169 71.4483 15.4896 70.7666 15.2169C70.0848 14.917 69.7439 14.4397 69.7439 13.7852C69.7439 13.3216 69.9348 12.858 70.3166 12.3945C70.7257 11.9309 71.2574 11.4945 71.9119 11.0855C72.5664 10.6491 73.2754 10.281 74.039 9.98102C74.8026 9.68104 75.5525 9.47651 76.2888 9.36743C78.3068 9.36743 79.9158 9.89921 81.1157 10.9628C82.3429 12.0263 82.9701 13.4171 82.9973 15.1351L82.9155 22.0073C82.9155 22.5254 82.9292 23.0299 82.9564 23.5208C83.011 24.0117 83.0792 24.3798 83.161 24.6252L85.7789 25.1161V26.3842L83.7746 27.1205C83.3928 27.2568 83.0383 27.3659 82.711 27.4477C82.3838 27.5568 82.1111 27.6114 81.8929 27.6114C81.0475 27.6114 80.5021 27.1341 80.2567 26.1797L79.8067 24.5843H80.4203C79.5204 25.5933 78.6477 26.3569 77.8023 26.875C76.9842 27.3659 76.1388 27.6114 75.2662 27.6114ZM76.3706 25.1979C76.9979 25.1979 77.5842 25.0616 78.1296 24.7889C78.675 24.4889 79.2068 24.0389 79.7249 23.439V19.1439L75.1435 20.3711C74.489 20.5347 74.0117 20.7937 73.7118 21.1483C73.4391 21.5028 73.3027 21.9527 73.3027 22.4981C73.3027 23.1799 73.6027 23.8071 74.2026 24.3798C74.8299 24.9252 75.5525 25.1979 76.3706 25.1979Z" fill="#2C2320"/>
<path d="M46.0188 27.2841L45.9369 25.8115L48.4731 25.1979C48.5004 25.007 48.514 24.748 48.514 24.4207C48.5413 24.0935 48.5685 23.6435 48.5958 23.0708C48.6231 22.4981 48.6367 21.7482 48.6367 20.821L48.6776 17.6713C48.6776 16.7714 48.6367 15.8851 48.5549 15.0124C48.5004 14.1125 48.4322 13.4035 48.3504 12.8853L45.7324 12.3126V10.9628L51.2138 9.44924L51.9092 10.1037L51.7046 12.2717L51.8274 12.3126C52.7818 11.2764 53.7227 10.5264 54.6499 10.0628C55.577 9.59923 56.5861 9.36743 57.6769 9.36743C58.6859 9.36743 59.6267 9.6265 60.4994 10.1446C61.3993 10.6355 62.122 11.3991 62.6674 12.4354C63.24 13.4716 63.5264 14.7942 63.5264 16.4032V20.9437C63.5264 21.9255 63.54 22.8118 63.5673 23.6026C63.6218 24.3934 63.69 24.9252 63.7718 25.1979L66.308 25.8115L66.1852 27.2841H57.9632L57.8814 25.8115L60.2539 25.1979C60.2812 24.9798 60.3085 24.707 60.3357 24.3798C60.363 24.0526 60.3766 23.6435 60.3766 23.1526C60.4039 22.6345 60.4175 21.9936 60.4175 21.2301V16.8123C60.4175 15.5851 60.1994 14.617 59.7631 13.908C59.354 13.1717 58.8359 12.6535 58.2086 12.3535C57.5814 12.0263 56.9406 11.8627 56.2861 11.8627C55.3862 11.8627 54.5408 12.0945 53.7499 12.5581C52.9864 12.9944 52.3319 13.608 51.7865 14.3988V20.5347C51.7865 21.7891 51.8001 22.8118 51.8274 23.6026C51.8819 24.3662 51.9364 24.8979 51.991 25.1979L54.5271 25.8115L54.4044 27.2841H46.0188Z" fill="#2C2320"/>
<path d="M33.3795 27.6114C32.2886 27.6114 31.3205 27.3932 30.4752 26.9569C29.6298 26.5205 28.9617 25.9615 28.4708 25.2797C28.0072 24.598 27.7754 23.8889 27.7754 23.1526C27.7754 22.2254 28.0754 21.4619 28.6753 20.8619C29.2753 20.262 30.257 19.7438 31.6205 19.3075L37.8382 17.2213V15.1351C37.8382 14.4534 37.6337 13.8398 37.2246 13.2944C36.8155 12.7217 36.2701 12.2717 35.5884 11.9445C34.9066 11.6172 34.143 11.4536 33.2977 11.4536C32.6159 11.4536 32.1523 11.6036 31.9069 11.9036C31.6614 12.1763 31.5114 12.7353 31.4569 13.5807L31.3751 15.2988C30.3934 15.5169 29.5616 15.4896 28.8798 15.2169C28.1981 14.917 27.8572 14.4397 27.8572 13.7852C27.8572 13.3216 28.0481 12.858 28.4299 12.3945C28.8389 11.9309 29.3707 11.4945 30.0252 11.0855C30.6797 10.6491 31.3887 10.281 32.1523 9.98102C32.9159 9.68104 33.6658 9.47651 34.4021 9.36743C36.4201 9.36743 38.0291 9.89921 39.229 10.9628C40.4561 12.0263 41.0834 13.4171 41.1106 15.1351L41.0288 22.0073C41.0288 22.5254 41.0425 23.0299 41.0697 23.5208C41.1243 24.0117 41.1924 24.3798 41.2743 24.6252L43.8922 25.1161V26.3842L41.8878 27.1205C41.5061 27.2568 41.1515 27.3659 40.8243 27.4477C40.497 27.5568 40.2243 27.6114 40.0062 27.6114C39.1608 27.6114 38.6154 27.1341 38.37 26.1797L37.92 24.5843H38.5336C37.6337 25.5933 36.761 26.3569 35.9156 26.875C35.0975 27.3659 34.2521 27.6114 33.3795 27.6114ZM34.4839 25.1979C35.1111 25.1979 35.6975 25.0616 36.2429 24.7889C36.7883 24.4889 37.32 24.0389 37.8382 23.439V19.1439L33.2567 20.3711C32.6023 20.5347 32.125 20.7937 31.8251 21.1483C31.5523 21.5028 31.416 21.9527 31.416 22.4981C31.416 23.1799 31.716 23.8071 32.3159 24.3798C32.9431 24.9252 33.6658 25.1979 34.4839 25.1979Z" fill="#2C2320"/>
<path d="M18.7348 21.4346V12.2717C18.7348 10.6627 18.7212 9.38104 18.6939 8.42657C18.6666 7.44484 18.6393 6.72217 18.6121 6.25857C18.5848 5.76771 18.5575 5.48137 18.5303 5.39955L15.7487 4.82688L15.8714 3.27246H23.6435L23.7662 4.82688L21.23 5.39955C21.23 5.48137 21.2028 5.76771 21.1482 6.25857C21.121 6.72217 21.0937 7.44484 21.0664 8.42657C21.0391 9.38104 21.0255 10.6627 21.0255 12.2717V22.0072C21.0255 22.8526 21.0255 23.7389 21.0255 24.6661C21.0255 25.566 21.0391 26.4932 21.0664 27.4477H19.2257L4.17238 7.1994H5.0723V18.1621C5.0723 19.7983 5.08594 21.121 5.11321 22.13C5.14048 23.1117 5.16775 23.8344 5.19502 24.298C5.24956 24.7616 5.29046 25.0479 5.31773 25.157L8.09932 25.7297L7.9766 27.2841H0.122717L0 25.7297L2.49524 25.157C2.52252 25.0479 2.54979 24.7616 2.57706 24.298C2.6316 23.8344 2.6725 23.1117 2.69977 22.13C2.72704 21.121 2.74068 19.7983 2.74068 18.1621V11.1673C2.74068 9.94008 2.72704 8.93108 2.69977 8.14023C2.6725 7.34939 2.64523 6.73581 2.61796 6.29948C2.59069 5.86315 2.54979 5.56318 2.49524 5.39955L0 4.82688L0.122717 3.27246H5.72679L19.4711 21.4346H18.7348Z" fill="#2C2320"/>
</svg>
