<svg width="99" height="87" viewBox="0 0 99 87" fill="none" xmlns="http://www.w3.org/2000/svg">
<mask id="path-1-inside-1_241_3577" fill="white">
<path d="M55.1172 26.0266C59.7286 31.4247 59.0916 39.5391 53.6936 44.1505L38.2745 57.3226C37.6515 57.8547 36.8879 58.1136 36.1281 58.1146C35.1144 58.1814 34.083 57.7864 33.3724 56.9546L19.9593 41.2534C15.4119 35.9304 16.0408 27.9282 21.3639 23.3809C26.2989 19.1653 33.5356 19.3987 38.1881 23.6967C43.5316 20.1068 50.8346 21.0136 55.1172 26.0266Z"/>
</mask>
<path d="M55.1172 26.0266L57.649 23.8639L57.6489 23.8638L55.1172 26.0266ZM53.6936 44.1505L55.8564 46.6822L55.8564 46.6822L53.6936 44.1505ZM38.2745 57.3226L40.4372 59.8544L40.4373 59.8543L38.2745 57.3226ZM36.1281 58.1146L36.1238 54.7849L36.0163 54.785L35.909 54.7921L36.1281 58.1146ZM33.3724 56.9546L30.8407 59.1174L30.8408 59.1175L33.3724 56.9546ZM21.3639 23.3809L19.2012 20.8491L19.2011 20.8492L21.3639 23.3809ZM38.1881 23.6967L35.9286 26.1425L37.8611 27.9277L40.045 26.4606L38.1881 23.6967ZM55.1172 26.0266L52.5855 28.1894C56.0026 32.1894 55.5303 38.2021 51.5308 41.6188L53.6936 44.1505L55.8564 46.6822C62.6528 40.8761 63.4546 30.6599 57.649 23.8639L55.1172 26.0266ZM53.6936 44.1505L51.5308 41.6188L36.1118 54.7908L38.2745 57.3226L40.4373 59.8543L55.8564 46.6822L53.6936 44.1505ZM38.2745 57.3226L36.1119 54.7908C36.1105 54.7919 36.1112 54.7911 36.1138 54.7896C36.1164 54.7882 36.1191 54.7869 36.1216 54.786C36.1266 54.7842 36.1274 54.7848 36.1238 54.7849L36.1281 58.1146L36.1324 61.4443C37.6475 61.4424 39.1855 60.9236 40.4372 59.8544L38.2745 57.3226ZM36.1281 58.1146L35.909 54.7921C35.9073 54.7922 35.9052 54.7921 35.9033 54.7918C35.9014 54.7915 35.9007 54.7911 35.9013 54.7914C35.9022 54.7917 35.9038 54.7926 35.9057 54.7939C35.9065 54.7945 35.9069 54.7948 35.9068 54.7948C35.9068 54.7948 35.9058 54.7939 35.904 54.7917L33.3724 56.9546L30.8408 59.1175C32.2638 60.7832 34.3318 61.57 36.3471 61.4371L36.1281 58.1146ZM33.3724 56.9546L35.9041 54.7918L22.491 39.0907L19.9593 41.2534L17.4276 43.4162L30.8407 59.1174L33.3724 56.9546ZM19.9593 41.2534L22.491 39.0907C19.1381 35.1658 19.6018 29.2655 23.5267 25.9126L21.3639 23.3809L19.2011 20.8492C12.4798 26.591 11.6858 36.6949 17.4276 43.4162L19.9593 41.2534ZM21.3639 23.3809L23.5266 25.9127C27.1634 22.8061 32.5008 22.9758 35.9286 26.1425L38.1881 23.6967L40.4476 21.2508C34.5705 15.8216 25.4343 15.5246 19.2012 20.8491L21.3639 23.3809ZM38.1881 23.6967L40.045 26.4606C44.0016 23.8024 49.4139 24.4769 52.5855 28.1895L55.1172 26.0266L57.6489 23.8638C52.2553 17.5503 43.0615 16.4112 36.3312 20.9328L38.1881 23.6967Z" fill="white" mask="url(#path-1-inside-1_241_3577)"/>
<mask id="path-3-inside-2_241_3577" fill="white">
<path d="M77.7596 26.4796C82.7975 30.46 83.6542 37.7708 79.6739 42.8087L68.3335 57.1624C67.6924 57.9738 66.716 58.3633 65.757 58.2905C65.1249 58.2765 64.4916 58.0686 63.9572 57.6464L49.271 46.0433C44.3201 42.1316 43.4776 34.9472 47.3891 29.9961C51.0249 25.3942 57.4875 24.343 62.3568 27.3585C66.4698 23.2592 73.0902 22.7905 77.7596 26.4796Z"/>
</mask>
<path d="M77.7596 26.4796L79.8238 23.8669L79.8238 23.8669L77.7596 26.4796ZM79.6739 42.8087L77.0612 40.7445V40.7445L79.6739 42.8087ZM68.3335 57.1624L70.9462 59.2266V59.2266L68.3335 57.1624ZM65.757 58.2905L66.0091 54.9703L65.9201 54.9636L65.8308 54.9616L65.757 58.2905ZM49.271 46.0433L47.2067 48.6559L47.2068 48.656L49.271 46.0433ZM47.3891 29.9961L44.7764 27.9319L44.7763 27.932L47.3891 29.9961ZM62.3568 27.3585L60.6037 30.1894L62.8424 31.5757L64.7074 29.7169L62.3568 27.3585ZM77.7596 26.4796L75.6954 29.0923C79.29 31.9324 79.9017 37.1493 77.0612 40.7445L79.6739 42.8087L82.2866 44.873C87.4067 38.3924 86.305 28.9875 79.8238 23.8669L77.7596 26.4796ZM79.6739 42.8087L77.0612 40.7445L65.7208 55.0982L68.3335 57.1624L70.9462 59.2266L82.2866 44.873L79.6739 42.8087ZM68.3335 57.1624L65.7208 55.0982C65.7956 55.0035 65.9116 54.963 66.0091 54.9703L65.757 58.2905L65.5049 61.6107C67.5204 61.7637 69.5892 60.9442 70.9462 59.2266L68.3335 57.1624ZM65.757 58.2905L65.8308 54.9616C65.8546 54.9621 65.8854 54.9665 65.9209 54.9789C65.9579 54.9919 65.993 55.0113 66.0214 55.0337L63.9572 57.6464L61.893 60.2591C63.0265 61.1547 64.3681 61.5903 65.6832 61.6195L65.757 58.2905ZM63.9572 57.6464L66.0214 55.0337L51.3352 43.4306L49.271 46.0433L47.2068 48.656L61.893 60.2591L63.9572 57.6464ZM49.271 46.0433L51.3353 43.4306C47.8273 40.659 47.2303 35.5684 50.0018 32.0603L47.3891 29.9961L44.7763 27.932C39.7249 34.326 40.8129 43.6042 47.2067 48.6559L49.271 46.0433ZM47.3891 29.9961L50.0018 32.0604C52.5762 28.8019 57.156 28.0542 60.6037 30.1894L62.3568 27.3585L64.1099 24.5276C57.819 20.6318 49.4737 21.9865 44.7764 27.9319L47.3891 29.9961ZM62.3568 27.3585L64.7074 29.7169C67.6407 26.7934 72.3661 26.462 75.6954 29.0923L77.7596 26.4796L79.8238 23.8669C73.8142 19.1189 65.2989 19.725 60.0062 25.0001L62.3568 27.3585Z" fill="white" mask="url(#path-3-inside-2_241_3577)"/>
<circle cx="39.3693" cy="10.0236" r="8.35871" stroke="white" stroke-width="3.32975"/>
<circle cx="60.7685" cy="15.2006" r="7.40051" stroke="white" stroke-width="3.32975"/>
<rect x="50.9531" y="42.2827" width="3.18257" height="4.25631" transform="rotate(49.4479 50.9531 42.2827)" fill="white"/>
<path d="M94.2942 75.7966L94.2546 75.0651L95.5791 74.7884C95.5923 74.7357 95.5989 74.6434 95.5989 74.5116C95.612 74.3798 95.6252 74.169 95.6384 73.879C95.6516 73.5891 95.6582 73.1871 95.6582 72.6732V71.3684C95.6582 70.8281 95.645 70.3339 95.6186 69.8858C95.5923 69.4377 95.5593 69.0885 95.5198 68.8381L94.1953 68.5613V67.909L97.0024 67.1776L97.2989 67.4543C97.2594 67.8629 97.2265 68.2648 97.2001 68.6602C97.1869 69.0556 97.1803 69.5168 97.1803 70.044V72.5348C97.1803 73.141 97.1869 73.6418 97.2001 74.0372C97.2265 74.4325 97.2528 74.6829 97.2792 74.7884L98.6036 75.0651L98.5641 75.7966H94.2942ZM96.4291 64.9437C96.0997 64.9437 95.8097 64.8317 95.5593 64.6077C95.3221 64.3836 95.2035 64.1069 95.2035 63.7774C95.2035 63.4479 95.3221 63.1712 95.5593 62.9471C95.8097 62.7231 96.0997 62.6111 96.4291 62.6111C96.7718 62.6111 97.0551 62.7231 97.2792 62.9471C97.5032 63.1712 97.6152 63.4479 97.6152 63.7774C97.6152 64.1069 97.5032 64.3836 97.2792 64.6077C97.0551 64.8317 96.7718 64.9437 96.4291 64.9437Z" fill="white"/>
<path d="M88.2669 75.9549C87.7397 75.9549 87.2719 75.8494 86.8633 75.6386C86.4548 75.4277 86.1319 75.1575 85.8947 74.8281C85.6706 74.4986 85.5586 74.1559 85.5586 73.8001C85.5586 73.352 85.7036 72.983 85.9935 72.6931C86.2834 72.4031 86.7579 72.1527 87.4168 71.9419L90.4216 70.9337V69.9255C90.4216 69.596 90.3228 69.2995 90.1251 69.0359C89.9274 68.7592 89.6638 68.5417 89.3343 68.3836C89.0049 68.2254 88.6359 68.1464 88.2273 68.1464C87.8979 68.1464 87.6738 68.2189 87.5552 68.3638C87.4366 68.4956 87.3641 68.7658 87.3377 69.1743L87.2982 70.0046C86.8238 70.11 86.4218 70.0968 86.0923 69.9651C85.7629 69.8201 85.5981 69.5895 85.5981 69.2732C85.5981 69.0491 85.6904 68.8251 85.8749 68.601C86.0726 68.377 86.3296 68.1661 86.6459 67.9685C86.9621 67.7576 87.3048 67.5797 87.6738 67.4347C88.0428 67.2897 88.4052 67.1909 88.7611 67.1382C89.7363 67.1382 90.5139 67.3952 91.0937 67.9091C91.6868 68.4231 91.9899 69.0952 92.0031 69.9255L91.9635 73.2466C91.9635 73.497 91.9701 73.7408 91.9833 73.978C92.0097 74.2152 92.0426 74.3932 92.0821 74.5118L93.3473 74.749V75.3618L92.3787 75.7176C92.1942 75.7835 92.0228 75.8362 91.8647 75.8758C91.7065 75.9285 91.5748 75.9549 91.4693 75.9549C91.0608 75.9549 90.7972 75.7242 90.6786 75.263L90.4611 74.492H90.7577C90.3228 74.9796 89.901 75.3486 89.4925 75.599C89.0971 75.8362 88.6886 75.9549 88.2669 75.9549ZM88.8006 74.7885C89.1037 74.7885 89.3871 74.7226 89.6506 74.5908C89.9142 74.4459 90.1712 74.2284 90.4216 73.9385V71.8628L88.2076 72.4559C87.8913 72.5349 87.6606 72.6601 87.5157 72.8315C87.3839 73.0028 87.318 73.2202 87.318 73.4838C87.318 73.8133 87.4629 74.1164 87.7529 74.3932C88.056 74.6567 88.4052 74.7885 88.8006 74.7885Z" fill="white"/>
<path d="M74.1325 75.7967L74.093 75.085L75.3186 74.7885C75.3318 74.6963 75.3384 74.5711 75.3384 74.4129C75.3516 74.2548 75.3647 74.0373 75.3779 73.7606C75.3911 73.4838 75.3977 73.1214 75.3977 72.6733L75.4175 71.1512C75.4175 70.7162 75.3977 70.2879 75.3582 69.8662C75.3318 69.4313 75.2989 69.0887 75.2593 68.8383L73.9941 68.5615V67.9091L76.6431 67.1777L76.9792 67.494L76.8803 68.5417L76.9396 68.5615C77.4009 68.0607 77.8556 67.6983 78.3036 67.4742C78.7517 67.2502 79.2393 67.1382 79.7665 67.1382C80.2541 67.1382 80.7088 67.2634 81.1305 67.5138C81.5654 67.751 81.9146 68.12 82.1782 68.6208C82.455 69.1216 82.5934 69.7608 82.5934 70.5383V72.7326C82.5934 73.2071 82.5999 73.6354 82.6131 74.0176C82.6395 74.3997 82.6724 74.6567 82.712 74.7885L83.9376 75.085L83.8783 75.7967H79.9049L79.8653 75.085L81.0119 74.7885C81.0251 74.6831 81.0383 74.5513 81.0514 74.3932C81.0646 74.235 81.0712 74.0373 81.0712 73.8001C81.0844 73.5497 81.091 73.24 81.091 72.871V70.736C81.091 70.143 80.9855 69.6751 80.7747 69.3325C80.577 68.9766 80.3266 68.7262 80.0235 68.5813C79.7204 68.4231 79.4107 68.3441 79.0944 68.3441C78.6595 68.3441 78.2509 68.4561 77.8687 68.6801C77.4997 68.891 77.1834 69.1875 76.9199 69.5697V72.5349C76.9199 73.1412 76.9264 73.6354 76.9396 74.0176C76.966 74.3866 76.9923 74.6436 77.0187 74.7885L78.2443 75.085L78.185 75.7967H74.1325Z" fill="white"/>
<path d="M68.0227 75.9549C67.4956 75.9549 67.0277 75.8494 66.6192 75.6386C66.2106 75.4277 65.8877 75.1575 65.6505 74.8281C65.4265 74.4986 65.3145 74.1559 65.3145 73.8001C65.3145 73.352 65.4594 72.983 65.7494 72.6931C66.0393 72.4031 66.5137 72.1527 67.1727 71.9419L70.1775 70.9337V69.9255C70.1775 69.596 70.0786 69.2995 69.8809 69.0359C69.6833 68.7592 69.4197 68.5417 69.0902 68.3836C68.7607 68.2254 68.3917 68.1464 67.9832 68.1464C67.6537 68.1464 67.4297 68.2189 67.3111 68.3638C67.1924 68.4956 67.12 68.7658 67.0936 69.1743L67.0541 70.0046C66.5796 70.11 66.1777 70.0968 65.8482 69.9651C65.5187 69.8201 65.354 69.5895 65.354 69.2732C65.354 69.0491 65.4462 68.8251 65.6307 68.601C65.8284 68.377 66.0854 68.1661 66.4017 67.9685C66.718 67.7576 67.0607 67.5797 67.4297 67.4347C67.7987 67.2897 68.1611 67.1909 68.5169 67.1382C69.4922 67.1382 70.2697 67.3952 70.8496 67.9091C71.4426 68.4231 71.7457 69.0952 71.7589 69.9255L71.7194 73.2466C71.7194 73.497 71.726 73.7408 71.7392 73.978C71.7655 74.2152 71.7985 74.3932 71.838 74.5118L73.1032 74.749V75.3618L72.1345 75.7176C71.95 75.7835 71.7787 75.8362 71.6205 75.8758C71.4624 75.9285 71.3306 75.9549 71.2252 75.9549C70.8166 75.9549 70.5531 75.7242 70.4344 75.263L70.217 74.492H70.5135C70.0786 74.9796 69.6569 75.3486 69.2483 75.599C68.853 75.8362 68.4444 75.9549 68.0227 75.9549ZM68.5565 74.7885C68.8596 74.7885 69.1429 74.7226 69.4065 74.5908C69.6701 74.4459 69.9271 74.2284 70.1775 73.9385V71.8628L67.9634 72.4559C67.6471 72.5349 67.4165 72.6601 67.2715 72.8315C67.1397 73.0028 67.0738 73.2202 67.0738 73.4838C67.0738 73.8133 67.2188 74.1164 67.5087 74.3932C67.8118 74.6567 68.1611 74.7885 68.5565 74.7885Z" fill="white"/>
<path d="M60.9465 72.9698V68.5417C60.9465 67.7641 60.9399 67.1447 60.9267 66.6834C60.9135 66.209 60.9003 65.8598 60.8872 65.6357C60.874 65.3985 60.8608 65.2601 60.8476 65.2206L59.5034 64.9438L59.5627 64.1926H63.3187L63.378 64.9438L62.1523 65.2206C62.1523 65.2601 62.1392 65.3985 62.1128 65.6357C62.0996 65.8598 62.0864 66.209 62.0733 66.6834C62.0601 67.1447 62.0535 67.7641 62.0535 68.5417V73.2465C62.0535 73.6551 62.0535 74.0834 62.0535 74.5315C62.0535 74.9664 62.0601 75.4144 62.0733 75.8757H61.1837L53.9089 66.0904H54.3439V71.3883C54.3439 72.179 54.3504 72.8182 54.3636 73.3058C54.3768 73.7803 54.39 74.1295 54.4032 74.3535C54.4295 74.5776 54.4493 74.716 54.4625 74.7687L55.8067 75.0454L55.7474 75.7966H51.9519L51.8926 75.0454L53.0984 74.7687C53.1116 74.716 53.1248 74.5776 53.138 74.3535C53.1643 74.1295 53.1841 73.7803 53.1973 73.3058C53.2105 72.8182 53.2171 72.179 53.2171 71.3883V68.0079C53.2171 67.4149 53.2105 66.9272 53.1973 66.5451C53.1841 66.1629 53.1709 65.8663 53.1578 65.6555C53.1446 65.4446 53.1248 65.2997 53.0984 65.2206L51.8926 64.9438L51.9519 64.1926H54.6601L61.3023 72.9698H60.9465Z" fill="white"/>
<path d="M42.4035 75.7966L42.364 75.0651L43.6885 74.7884C43.7016 74.7357 43.7082 74.6434 43.7082 74.5116C43.7214 74.3798 43.7346 74.169 43.7478 73.879C43.761 73.5891 43.7675 73.1871 43.7675 72.6732V71.3684C43.7675 70.8281 43.7544 70.3339 43.728 69.8858C43.7016 69.4377 43.6687 69.0885 43.6292 68.8381L42.3047 68.5613V67.909L45.1118 67.1776L45.4083 67.4543C45.3688 67.8629 45.3358 68.2648 45.3095 68.6602C45.2963 69.0556 45.2897 69.5168 45.2897 70.044V72.5348C45.2897 73.141 45.2963 73.6418 45.3095 74.0372C45.3358 74.4325 45.3622 74.6829 45.3885 74.7884L46.713 75.0651L46.6735 75.7966H42.4035ZM44.5385 64.9437C44.209 64.9437 43.9191 64.8317 43.6687 64.6077C43.4315 64.3836 43.3129 64.1069 43.3129 63.7774C43.3129 63.4479 43.4315 63.1712 43.6687 62.9471C43.9191 62.7231 44.209 62.6111 44.5385 62.6111C44.8812 62.6111 45.1645 62.7231 45.3885 62.9471C45.6126 63.1712 45.7246 63.4479 45.7246 63.7774C45.7246 64.1069 45.6126 64.3836 45.3885 64.6077C45.1645 64.8317 44.8812 64.9437 44.5385 64.9437Z" fill="white"/>
<path d="M36.3743 75.9549C35.8471 75.9549 35.3793 75.8494 34.9707 75.6386C34.5622 75.4277 34.2393 75.1575 34.0021 74.8281C33.778 74.4986 33.666 74.1559 33.666 73.8001C33.666 73.352 33.811 72.983 34.1009 72.6931C34.3909 72.4031 34.8653 72.1527 35.5242 71.9419L38.529 70.9337V69.9255C38.529 69.596 38.4302 69.2995 38.2325 69.0359C38.0348 68.7592 37.7712 68.5417 37.4418 68.3836C37.1123 68.2254 36.7433 68.1464 36.3347 68.1464C36.0053 68.1464 35.7812 68.2189 35.6626 68.3638C35.544 68.4956 35.4715 68.7658 35.4452 69.1743L35.4056 70.0046C34.9312 70.11 34.5292 70.0968 34.1998 69.9651C33.8703 69.8201 33.7056 69.5895 33.7056 69.2732C33.7056 69.0491 33.7978 68.8251 33.9823 68.601C34.18 68.377 34.437 68.1661 34.7533 67.9685C35.0696 67.7576 35.4122 67.5797 35.7812 67.4347C36.1502 67.2897 36.5127 67.1909 36.8685 67.1382C37.8437 67.1382 38.6213 67.3952 39.2011 67.9091C39.7942 68.4231 40.0973 69.0952 40.1105 69.9255L40.071 73.2466C40.071 73.497 40.0775 73.7408 40.0907 73.978C40.1171 74.2152 40.15 74.3932 40.1896 74.5118L41.4547 74.749V75.3618L40.4861 75.7176C40.3016 75.7835 40.1303 75.8362 39.9721 75.8758C39.814 75.9285 39.6822 75.9549 39.5767 75.9549C39.1682 75.9549 38.9046 75.7242 38.786 75.263L38.5686 74.492H38.8651C38.4302 74.9796 38.0085 75.3486 37.5999 75.599C37.2045 75.8362 36.796 75.9549 36.3743 75.9549ZM36.908 74.7885C37.2111 74.7885 37.4945 74.7226 37.7581 74.5908C38.0216 74.4459 38.2786 74.2284 38.529 73.9385V71.8628L36.315 72.4559C35.9987 72.5349 35.768 72.6601 35.6231 72.8315C35.4913 73.0028 35.4254 73.2202 35.4254 73.4838C35.4254 73.8133 35.5704 74.1164 35.8603 74.3932C36.1634 74.6567 36.5127 74.7885 36.908 74.7885Z" fill="white"/>
<path d="M22.2399 75.7967L22.2004 75.085L23.426 74.7885C23.4392 74.6963 23.4458 74.5711 23.4458 74.4129C23.459 74.2548 23.4722 74.0373 23.4853 73.7606C23.4985 73.4838 23.5051 73.1214 23.5051 72.6733L23.5249 71.1512C23.5249 70.7162 23.5051 70.2879 23.4656 69.8662C23.4392 69.4313 23.4063 69.0887 23.3667 68.8383L22.1016 68.5615V67.9091L24.7505 67.1777L25.0866 67.494L24.9877 68.5417L25.047 68.5615C25.5083 68.0607 25.963 67.6983 26.4111 67.4742C26.8591 67.2502 27.3468 67.1382 27.8739 67.1382C28.3615 67.1382 28.8162 67.2634 29.2379 67.5138C29.6728 67.751 30.0221 68.12 30.2856 68.6208C30.5624 69.1216 30.7008 69.7608 30.7008 70.5383V72.7326C30.7008 73.2071 30.7074 73.6354 30.7205 74.0176C30.7469 74.3997 30.7799 74.6567 30.8194 74.7885L32.045 75.085L31.9857 75.7967H28.0123L27.9728 75.085L29.1193 74.7885C29.1325 74.6831 29.1457 74.5513 29.1589 74.3932C29.172 74.235 29.1786 74.0373 29.1786 73.8001C29.1918 73.5497 29.1984 73.24 29.1984 72.871V70.736C29.1984 70.143 29.093 69.6751 28.8821 69.3325C28.6844 68.9766 28.434 68.7262 28.1309 68.5813C27.8278 68.4231 27.5181 68.3441 27.2018 68.3441C26.7669 68.3441 26.3583 68.4561 25.9762 68.6801C25.6071 68.891 25.2909 69.1875 25.0273 69.5697V72.5349C25.0273 73.1412 25.0339 73.6354 25.047 74.0176C25.0734 74.3866 25.0998 74.6436 25.1261 74.7885L26.3518 75.085L26.2924 75.7967H22.2399Z" fill="white"/>
<path d="M16.1321 75.9549C15.6049 75.9549 15.1371 75.8494 14.7285 75.6386C14.32 75.4277 13.9971 75.1575 13.7599 74.8281C13.5358 74.4986 13.4238 74.1559 13.4238 73.8001C13.4238 73.352 13.5688 72.983 13.8587 72.6931C14.1487 72.4031 14.6231 72.1527 15.2821 71.9419L18.2868 70.9337V69.9255C18.2868 69.596 18.188 69.2995 17.9903 69.0359C17.7926 68.7592 17.5291 68.5417 17.1996 68.3836C16.8701 68.2254 16.5011 68.1464 16.0926 68.1464C15.7631 68.1464 15.539 68.2189 15.4204 68.3638C15.3018 68.4956 15.2293 68.7658 15.203 69.1743L15.1634 70.0046C14.689 70.11 14.287 70.0968 13.9576 69.9651C13.6281 69.8201 13.4634 69.5895 13.4634 69.2732C13.4634 69.0491 13.5556 68.8251 13.7401 68.601C13.9378 68.377 14.1948 68.1661 14.5111 67.9685C14.8274 67.7576 15.17 67.5797 15.539 67.4347C15.908 67.2897 16.2705 67.1909 16.6263 67.1382C17.6015 67.1382 18.3791 67.3952 18.959 67.9091C19.552 68.4231 19.8551 69.0952 19.8683 69.9255L19.8288 73.2466C19.8288 73.497 19.8354 73.7408 19.8485 73.978C19.8749 74.2152 19.9078 74.3932 19.9474 74.5118L21.2125 74.749V75.3618L20.2439 75.7176C20.0594 75.7835 19.8881 75.8362 19.7299 75.8758C19.5718 75.9285 19.44 75.9549 19.3346 75.9549C18.926 75.9549 18.6624 75.7242 18.5438 75.263L18.3264 74.492H18.6229C18.188 74.9796 17.7663 75.3486 17.3577 75.599C16.9624 75.8362 16.5538 75.9549 16.1321 75.9549ZM16.6658 74.7885C16.9689 74.7885 17.2523 74.7226 17.5159 74.5908C17.7794 74.4459 18.0364 74.2284 18.2868 73.9385V71.8628L16.0728 72.4559C15.7565 72.5349 15.5259 72.6601 15.3809 72.8315C15.2491 73.0028 15.1832 73.2202 15.1832 73.4838C15.1832 73.8133 15.3282 74.1164 15.6181 74.3932C15.9212 74.6567 16.2705 74.7885 16.6658 74.7885Z" fill="white"/>
<path d="M9.05389 72.9698V68.5417C9.05389 67.7641 9.0473 67.1447 9.03412 66.6834C9.02094 66.209 9.00777 65.8598 8.99459 65.6357C8.98141 65.3985 8.96823 65.2601 8.95505 65.2206L7.6108 64.9438L7.67011 64.1926H11.4261L11.4854 64.9438L10.2598 65.2206C10.2598 65.2601 10.2466 65.3985 10.2202 65.6357C10.207 65.8598 10.1939 66.209 10.1807 66.6834C10.1675 67.1447 10.1609 67.7641 10.1609 68.5417V73.2465C10.1609 73.6551 10.1609 74.0834 10.1609 74.5315C10.1609 74.9664 10.1675 75.4144 10.1807 75.8757H9.29111L2.01637 66.0904H2.45127V71.3883C2.45127 72.179 2.45786 72.8182 2.47104 73.3058C2.48422 73.7803 2.4974 74.1295 2.51058 74.3535C2.53693 74.5776 2.5567 74.716 2.56988 74.7687L3.91413 75.0454L3.85482 75.7966H0.059305L0 75.0454L1.20587 74.7687C1.21905 74.716 1.23223 74.5776 1.2454 74.3535C1.27176 74.1295 1.29153 73.7803 1.30471 73.3058C1.31789 72.8182 1.32448 72.179 1.32448 71.3883V68.0079C1.32448 67.4149 1.31789 66.9272 1.30471 66.5451C1.29153 66.1629 1.27835 65.8663 1.26517 65.6555C1.25199 65.4446 1.23223 65.2997 1.20587 65.2206L0 64.9438L0.059305 64.1926H2.76757L9.40972 72.9698H9.05389Z" fill="white"/>
<path d="M78.7481 84.5538C78.6526 84.5538 78.581 84.5246 78.5333 84.4663C78.4856 84.4079 78.4617 84.3337 78.4617 84.2435C78.4617 84.1799 78.4829 84.0605 78.5253 83.8855C78.5731 83.7105 78.6288 83.5116 78.6924 83.2888C78.7561 83.066 78.8171 82.8406 78.8754 82.6125C78.9391 82.3845 78.9921 82.1803 79.0345 81.9999C79.0823 81.8196 79.1061 81.6923 79.1061 81.618C79.1061 81.5067 79.0504 81.451 78.9391 81.451C78.8224 81.451 78.6898 81.5146 78.5413 81.6419C78.3927 81.7692 78.2416 81.9416 78.0878 82.159C77.934 82.3765 77.7854 82.6178 77.6422 82.883C77.499 83.1482 77.3717 83.4214 77.2604 83.7025C77.149 83.9783 77.0668 84.2408 77.0137 84.4901H76.5045C76.5947 84.1878 76.6822 83.8802 76.7671 83.5672C76.8519 83.2543 76.9262 82.9573 76.9898 82.6762C77.0535 82.3951 77.1039 82.1431 77.141 81.9204C77.1781 81.6976 77.1967 81.5279 77.1967 81.4112C77.0747 81.4748 76.9607 81.557 76.8546 81.6578C76.7485 81.7533 76.6424 81.8779 76.5364 82.0317L76.3613 81.7851C76.4939 81.626 76.6239 81.4907 76.7512 81.3794C76.8838 81.2627 77.0084 81.1752 77.1251 81.1168C77.2418 81.0585 77.3452 81.0293 77.4354 81.0293C77.5309 81.0293 77.5972 81.0585 77.6343 81.1168C77.6714 81.1699 77.69 81.2441 77.69 81.3396C77.69 81.4297 77.6794 81.5544 77.6581 81.7135C77.6369 81.8726 77.5945 82.0821 77.5309 82.342C77.4725 82.6019 77.3876 82.9361 77.2763 83.3445H77.1967C77.2922 83.0793 77.4089 82.8114 77.5468 82.5409C77.69 82.2704 77.8464 82.0211 78.0162 81.7931C78.1912 81.565 78.3742 81.382 78.5651 81.2441C78.7561 81.1009 78.9497 81.0293 79.1459 81.0293C79.2997 81.0293 79.4164 81.0717 79.496 81.1566C79.5755 81.2415 79.6153 81.3581 79.6153 81.5067C79.6153 81.5915 79.5941 81.7241 79.5517 81.9045C79.5092 82.0795 79.4562 82.281 79.3925 82.5091C79.3342 82.7319 79.2732 82.9546 79.2096 83.1774C79.1459 83.4002 79.0929 83.6017 79.0504 83.7821C79.008 83.9571 78.9868 84.0844 78.9868 84.1639C79.1035 84.1003 79.2149 84.0207 79.3209 83.9253C79.427 83.8298 79.5331 83.7158 79.6392 83.5832L79.8142 83.798C79.6816 83.9571 79.5517 84.0923 79.4244 84.2037C79.2971 84.3151 79.1751 84.4026 79.0584 84.4663C78.9417 84.5246 78.8383 84.5538 78.7481 84.5538Z" fill="white"/>
<path d="M73.2088 84.5538C73.0391 84.5538 72.9065 84.4822 72.811 84.339C72.7209 84.1905 72.6758 83.9995 72.6758 83.7661C72.6758 83.3896 72.7368 83.0368 72.8588 82.708C72.9808 82.3792 73.1425 82.0901 73.3441 81.8408C73.5456 81.5862 73.7657 81.3873 74.0044 81.2441C74.2484 81.1009 74.4844 81.0293 74.7125 81.0293C74.8504 81.0293 74.9697 81.0638 75.0705 81.1327C75.1713 81.1964 75.2747 81.2865 75.3808 81.4032L75.2535 81.6578C75.1633 81.5623 75.0573 81.4934 74.9353 81.451C74.8133 81.4032 74.6886 81.3794 74.5613 81.3794C74.3916 81.3794 74.2272 81.443 74.0681 81.5703C73.909 81.6923 73.7684 81.8594 73.6464 82.0715C73.5244 82.2784 73.4263 82.5197 73.352 82.7955C73.2831 83.066 73.2486 83.3498 73.2486 83.6468C73.2486 83.7953 73.2619 83.9094 73.2884 83.9889C73.3202 84.0685 73.3733 84.1083 73.4475 84.1083C73.5377 84.1083 73.6517 84.042 73.7896 83.9094C73.9328 83.7768 74.0866 83.5938 74.2511 83.3604C74.4208 83.127 74.5852 82.8565 74.7443 82.5489C74.9034 82.2413 75.0414 81.9071 75.158 81.5464L75.2296 81.3714L75.532 81.0929H75.7866C75.6911 81.3953 75.6009 81.7029 75.5161 82.0158C75.4312 82.3235 75.3569 82.6205 75.2933 82.9069C75.2349 83.188 75.1872 83.4373 75.1501 83.6548C75.113 83.8722 75.0944 84.042 75.0944 84.1639C75.2164 84.1003 75.3304 84.0207 75.4365 83.9253C75.5426 83.8298 75.6487 83.7158 75.7547 83.5832L75.9298 83.798C75.7972 83.9571 75.6646 84.0923 75.532 84.2037C75.4047 84.3151 75.2827 84.4026 75.166 84.4663C75.0546 84.5246 74.9512 84.5538 74.8557 84.5538C74.7655 84.5538 74.6992 84.5273 74.6568 84.4742C74.6144 84.4159 74.5932 84.339 74.5932 84.2435C74.5932 84.148 74.6038 84.0207 74.625 83.8616C74.6515 83.6972 74.6939 83.485 74.7523 83.2251C74.8159 82.9599 74.9034 82.6284 75.0148 82.2306H75.1023C74.9379 82.6921 74.7417 83.0978 74.5136 83.4479C74.2908 83.7927 74.0628 84.0632 73.8294 84.2594C73.6013 84.4557 73.3945 84.5538 73.2088 84.5538Z" fill="white"/>
<path d="M70.0589 84.1081L69.9953 84.0763C70.0695 84.0179 70.1411 83.9782 70.2101 83.9569C70.279 83.9304 70.3453 83.9172 70.409 83.9172C70.4726 83.9172 70.5628 83.9278 70.6795 83.949C70.8015 83.9702 70.9288 83.9967 71.0614 84.0285C71.1993 84.0551 71.3213 84.0789 71.4273 84.1002C71.5334 84.1214 71.605 84.132 71.6422 84.132C71.6899 84.132 71.7297 84.124 71.7615 84.1081C71.7986 84.0869 71.8172 84.0524 71.8172 84.0047C71.8172 83.9622 71.7986 83.9013 71.7615 83.8217C71.7244 83.7368 71.6687 83.644 71.5944 83.5432C71.6422 83.5008 71.6925 83.4716 71.7456 83.4557C71.7986 83.4345 71.8464 83.4239 71.8888 83.4239C71.9471 83.4239 72.0108 83.4478 72.0797 83.4955C72.1487 83.5432 72.1832 83.6308 72.1832 83.758C72.1832 83.8535 72.1593 83.949 72.1116 84.0445C72.0638 84.1399 72.0002 84.2248 71.9206 84.2991C71.8464 84.3733 71.7668 84.4343 71.6819 84.482C71.6024 84.5298 71.5281 84.5536 71.4592 84.5536C71.3743 84.5536 71.2629 84.5404 71.125 84.5139C70.9871 84.4926 70.8439 84.4661 70.6954 84.4343C70.5469 84.4025 70.409 84.376 70.2817 84.3547C70.1544 84.3282 70.0669 84.315 70.0191 84.315C69.9343 84.315 69.8547 84.3335 69.7805 84.3707C69.7062 84.4078 69.632 84.4688 69.5577 84.5536L69.3906 84.4104L71.7695 81.4906L71.857 81.5224C71.8145 81.5596 71.7535 81.5887 71.674 81.6099C71.5997 81.6258 71.5096 81.6338 71.4035 81.6338C71.3451 81.6338 71.2603 81.6258 71.1489 81.6099C71.0428 81.5887 70.9314 81.5675 70.8147 81.5463C70.7034 81.5198 70.5999 81.4986 70.5045 81.4826C70.409 81.4667 70.34 81.4588 70.2976 81.4588C70.2446 81.4588 70.2021 81.4773 70.1703 81.5145C70.1438 81.5463 70.1305 81.5808 70.1305 81.6179C70.1305 81.6603 70.1438 81.716 70.1703 81.785C70.2021 81.8486 70.2605 81.9467 70.3453 82.0793C70.2976 82.1218 70.2472 82.1536 70.1942 82.1748C70.1464 82.1907 70.0987 82.1987 70.051 82.1987C69.9979 82.1987 69.9369 82.1748 69.868 82.1271C69.799 82.074 69.7646 81.9865 69.7646 81.8645C69.7646 81.7691 69.7884 81.6736 69.8362 81.5781C69.8839 81.4826 69.9449 81.3951 70.0191 81.3156C70.0934 81.2307 70.173 81.1644 70.2578 81.1167C70.3427 81.0636 70.4196 81.0371 70.4885 81.0371C70.5681 81.0371 70.6715 81.0477 70.7988 81.0689C70.9261 81.0901 71.0587 81.114 71.1966 81.1405C71.3398 81.1618 71.4698 81.183 71.5865 81.2042C71.7085 81.2254 71.8013 81.236 71.8649 81.236C71.9498 81.236 72.0214 81.2227 72.0797 81.1962C72.1381 81.1644 72.2017 81.1114 72.2707 81.0371L72.4378 81.1883L70.0589 84.1081Z" fill="white"/>
<path d="M66.5174 84.5538C66.3477 84.5538 66.2151 84.4822 66.1196 84.339C66.0295 84.1905 65.9844 83.9995 65.9844 83.7661C65.9844 83.3896 66.0454 83.0368 66.1674 82.708C66.2894 82.3792 66.4511 82.0901 66.6527 81.8408C66.8542 81.5862 67.0743 81.3873 67.313 81.2441C67.557 81.1009 67.793 81.0293 68.0211 81.0293C68.159 81.0293 68.2783 81.0638 68.3791 81.1327C68.4799 81.1964 68.5833 81.2865 68.6894 81.4032L68.5621 81.6578C68.4719 81.5623 68.3659 81.4934 68.2439 81.451C68.1219 81.4032 67.9972 81.3794 67.8699 81.3794C67.7002 81.3794 67.5358 81.443 67.3767 81.5703C67.2175 81.6923 67.077 81.8594 66.955 82.0715C66.833 82.2784 66.7349 82.5197 66.6606 82.7955C66.5917 83.066 66.5572 83.3498 66.5572 83.6468C66.5572 83.7953 66.5705 83.9094 66.597 83.9889C66.6288 84.0685 66.6818 84.1083 66.7561 84.1083C66.8463 84.1083 66.9603 84.042 67.0982 83.9094C67.2414 83.7768 67.3952 83.5938 67.5597 83.3604C67.7294 83.127 67.8938 82.8565 68.0529 82.5489C68.212 82.2413 68.3499 81.9071 68.4666 81.5464L68.5382 81.3714L68.8406 81.0929H69.0952C68.9997 81.3953 68.9095 81.7029 68.8246 82.0158C68.7398 82.3235 68.6655 82.6205 68.6019 82.9069C68.5435 83.188 68.4958 83.4373 68.4587 83.6548C68.4215 83.8722 68.403 84.042 68.403 84.1639C68.525 84.1003 68.639 84.0207 68.7451 83.9253C68.8512 83.8298 68.9572 83.7158 69.0633 83.5832L69.2384 83.798C69.1058 83.9571 68.9732 84.0923 68.8406 84.2037C68.7133 84.3151 68.5913 84.4026 68.4746 84.4663C68.3632 84.5246 68.2598 84.5538 68.1643 84.5538C68.0741 84.5538 68.0078 84.5273 67.9654 84.4742C67.923 84.4159 67.9018 84.339 67.9018 84.2435C67.9018 84.148 67.9124 84.0207 67.9336 83.8616C67.9601 83.6972 68.0025 83.485 68.0609 83.2251C68.1245 82.9599 68.212 82.6284 68.3234 82.2306H68.4109C68.2465 82.6921 68.0503 83.0978 67.8222 83.4479C67.5994 83.7927 67.3714 84.0632 67.138 84.2594C66.9099 84.4557 66.7031 84.5538 66.5174 84.5538Z" fill="white"/>
<path d="M65.6201 81.5703C65.5034 81.5703 65.3894 81.6313 65.278 81.7533C65.1666 81.8753 65.0579 82.0344 64.9518 82.2306C64.851 82.4216 64.7503 82.6284 64.6495 82.8512C64.5063 83.1588 64.3843 83.4665 64.2835 83.7741C64.1827 84.0764 64.1138 84.3151 64.0766 84.4901H63.5516C63.6417 84.1878 63.7266 83.8802 63.8061 83.5672C63.891 83.2543 63.9653 82.9573 64.0289 82.6762C64.0926 82.3951 64.1429 82.1431 64.1801 81.9204C64.2172 81.6976 64.2358 81.5279 64.2358 81.4112C64.1138 81.4748 63.9997 81.557 63.8937 81.6578C63.7876 81.7533 63.6815 81.8779 63.5754 82.0317L63.4004 81.7851C63.533 81.626 63.6629 81.4907 63.7902 81.3794C63.9228 81.2627 64.0448 81.1752 64.1562 81.1168C64.2729 81.0585 64.3763 81.0293 64.4665 81.0293C64.546 81.0293 64.6044 81.0558 64.6415 81.1089C64.684 81.1619 64.7052 81.2388 64.7052 81.3396C64.7052 81.4297 64.6919 81.565 64.6654 81.7453C64.6442 81.9257 64.5911 82.1776 64.5063 82.5011C64.4267 82.8247 64.2994 83.2464 64.1244 83.7661H64.0846C64.2755 83.2357 64.4453 82.7955 64.5938 82.4455C64.7476 82.0901 64.8855 81.809 65.0075 81.6021C65.1348 81.3953 65.2594 81.2494 65.3814 81.1645C65.5034 81.0744 65.6334 81.0293 65.7713 81.0293C65.8773 81.0293 65.9596 81.0585 66.0179 81.1168C66.0815 81.1699 66.1134 81.2441 66.1134 81.3396C66.1134 81.3979 66.1028 81.4589 66.0815 81.5226C66.0603 81.5862 66.0232 81.6499 65.9702 81.7135C65.9171 81.6605 65.8588 81.6233 65.7951 81.6021C65.7315 81.5809 65.6731 81.5703 65.6201 81.5703Z" fill="white"/>
<path d="M60.6076 83.6467C60.6076 83.8111 60.6421 83.9384 60.7111 84.0286C60.7853 84.1188 60.8914 84.1638 61.0293 84.1638C61.2627 84.1638 61.4801 84.0684 61.6817 83.8774C61.8832 83.6812 62.0477 83.416 62.175 83.0818C62.3076 82.7477 62.3739 82.3658 62.3739 81.9362C62.3739 81.7877 62.3553 81.671 62.3182 81.5861C62.281 81.5013 62.2333 81.4588 62.175 81.4588C62.106 81.4588 62.0079 81.5066 61.8806 81.602C61.7533 81.6922 61.6154 81.8168 61.4669 81.976C61.3237 82.1351 61.1858 82.3128 61.0532 82.509C60.9259 82.6999 60.8198 82.8962 60.7349 83.0977C60.6501 83.294 60.6076 83.477 60.6076 83.6467ZM60.1541 83.0261L60.9656 79.5892L60.3928 79.5096L60.4326 79.3028L61.4748 78.9766L61.5862 79.08C61.5544 79.2179 61.5199 79.3558 61.4828 79.4937C61.451 79.6316 61.4191 79.7615 61.3873 79.8835C61.3608 80.0002 61.3343 80.1063 61.3078 80.2018L61.0452 81.2758C60.9656 81.6047 60.8834 81.9176 60.7986 82.2146C60.719 82.5117 60.6129 82.8538 60.4803 83.241H60.4246C60.605 82.7636 60.8171 82.3605 61.0611 82.0316C61.3051 81.7028 61.5464 81.4535 61.7851 81.2838C62.0291 81.1141 62.2359 81.0292 62.4057 81.0292C62.5754 81.0292 62.708 81.1035 62.8035 81.252C62.8989 81.3952 62.9467 81.5835 62.9467 81.8168C62.9467 82.1828 62.8804 82.5302 62.7478 82.8591C62.6152 83.1879 62.4455 83.4796 62.2386 83.7342C62.037 83.9888 61.8222 84.1904 61.5942 84.3389C61.3661 84.4821 61.1513 84.5537 60.9497 84.5537C60.6951 84.5537 60.4962 84.4927 60.353 84.3707C60.2098 84.2434 60.1223 84.0657 60.0905 83.8376C60.0587 83.6043 60.0799 83.3338 60.1541 83.0261Z" fill="white"/>
<path d="M56.7479 84.5538C56.5782 84.5538 56.4456 84.4822 56.3501 84.339C56.2599 84.1905 56.2148 83.9995 56.2148 83.7661C56.2148 83.3896 56.2758 83.0368 56.3978 82.708C56.5198 82.3792 56.6816 82.0901 56.8831 81.8408C57.0847 81.5862 57.3048 81.3873 57.5435 81.2441C57.7875 81.1009 58.0235 81.0293 58.2516 81.0293C58.3895 81.0293 58.5088 81.0638 58.6096 81.1327C58.7104 81.1964 58.8138 81.2865 58.9199 81.4032L58.7926 81.6578C58.7024 81.5623 58.5963 81.4934 58.4743 81.451C58.3523 81.4032 58.2277 81.3794 58.1004 81.3794C57.9307 81.3794 57.7663 81.443 57.6071 81.5703C57.448 81.6923 57.3075 81.8594 57.1855 82.0715C57.0635 82.2784 56.9654 82.5197 56.8911 82.7955C56.8221 83.066 56.7877 83.3498 56.7877 83.6468C56.7877 83.7953 56.8009 83.9094 56.8275 83.9889C56.8593 84.0685 56.9123 84.1083 56.9866 84.1083C57.0767 84.1083 57.1908 84.042 57.3287 83.9094C57.4719 83.7768 57.6257 83.5938 57.7901 83.3604C57.9598 83.127 58.1243 82.8565 58.2834 82.5489C58.4425 82.2413 58.5804 81.9071 58.6971 81.5464L58.7687 81.3714L59.071 81.0929H59.3256C59.2301 81.3953 59.14 81.7029 59.0551 82.0158C58.9703 82.3235 58.896 82.6205 58.8324 82.9069C58.774 83.188 58.7263 83.4373 58.6891 83.6548C58.652 83.8722 58.6335 84.042 58.6335 84.1639C58.7554 84.1003 58.8695 84.0207 58.9756 83.9253C59.0816 83.8298 59.1877 83.7158 59.2938 83.5832L59.4688 83.798C59.3362 83.9571 59.2036 84.0923 59.071 84.2037C58.9437 84.3151 58.8217 84.4026 58.7051 84.4663C58.5937 84.5246 58.4902 84.5538 58.3948 84.5538C58.3046 84.5538 58.2383 84.5273 58.1959 84.4742C58.1534 84.4159 58.1322 84.339 58.1322 84.2435C58.1322 84.148 58.1428 84.0207 58.1641 83.8616C58.1906 83.6972 58.233 83.485 58.2913 83.2251C58.355 82.9599 58.4425 82.6284 58.5539 82.2306H58.6414C58.477 82.6921 58.2807 83.0978 58.0527 83.4479C57.8299 83.7927 57.6018 84.0632 57.3685 84.2594C57.1404 84.4557 56.9335 84.5538 56.7479 84.5538Z" fill="white"/>
<path d="M52.7871 84.5538C52.4901 84.5538 52.2355 84.4477 52.0233 84.2355C51.8112 84.0181 51.7051 83.7237 51.7051 83.3524C51.7051 83.0713 51.7528 82.7929 51.8483 82.5171C51.9438 82.2413 52.0737 81.992 52.2381 81.7692C52.4079 81.5411 52.6068 81.3608 52.8348 81.2282C53.0682 81.0956 53.3201 81.0293 53.5906 81.0293C53.8399 81.0293 54.0256 81.0903 54.1476 81.2123C54.2695 81.329 54.3305 81.4616 54.3305 81.6101C54.3305 81.7639 54.2828 81.9098 54.1873 82.0477C54.0972 82.1856 53.9593 82.3235 53.7736 82.4614C53.588 82.594 53.3599 82.7266 53.0894 82.8592C52.8242 82.9865 52.5166 83.1138 52.1665 83.2411V82.9228C52.5113 82.7902 52.803 82.6629 53.0417 82.5409C53.2857 82.4136 53.4713 82.281 53.5986 82.1431C53.7312 81.9999 53.7975 81.8514 53.7975 81.6976C53.7975 81.5809 53.7577 81.4934 53.6782 81.4351C53.6039 81.3767 53.5084 81.3475 53.3917 81.3475C53.1902 81.3475 53.0019 81.4297 52.8269 81.5942C52.6571 81.7533 52.5192 81.9708 52.4132 82.2466C52.3124 82.5224 52.262 82.8406 52.262 83.2013C52.262 83.4877 52.3283 83.7131 52.4609 83.8775C52.5935 84.0366 52.7659 84.1162 52.978 84.1162C53.1053 84.1162 53.2538 84.0738 53.4236 83.9889C53.5986 83.8987 53.763 83.7449 53.9168 83.5275L54.0919 83.7661C53.9168 84.0101 53.7126 84.2037 53.4793 84.3469C53.2512 84.4848 53.0205 84.5538 52.7871 84.5538Z" fill="white"/>
<path d="M48.8807 81.0293C48.9709 81.0293 49.0398 81.0585 49.0875 81.1168C49.1353 81.1699 49.1592 81.2441 49.1592 81.3396C49.1592 81.4085 49.1353 81.5305 49.0875 81.7056C49.0451 81.8753 48.9921 82.0715 48.9284 82.2943C48.8648 82.5171 48.8011 82.7425 48.7375 82.9705C48.6738 83.1933 48.6181 83.3949 48.5704 83.5752C48.528 83.7502 48.5068 83.8749 48.5068 83.9491C48.5068 83.9969 48.52 84.0366 48.5465 84.0685C48.5731 84.1003 48.6181 84.1162 48.6818 84.1162C48.7985 84.1162 48.9284 84.0526 49.0716 83.9253C49.2148 83.798 49.3607 83.6282 49.5092 83.4161C49.663 83.2039 49.8089 82.9652 49.9468 82.7C50.0847 82.4295 50.2067 82.1564 50.3128 81.8806C50.4241 81.6048 50.509 81.3422 50.5674 81.0929H51.0606C50.9705 81.3953 50.8829 81.7029 50.7981 82.0158C50.7132 82.3235 50.639 82.6205 50.5753 82.9069C50.5117 83.188 50.4613 83.4373 50.4241 83.6548C50.387 83.8722 50.3685 84.042 50.3685 84.1639C50.4904 84.1003 50.6018 84.0207 50.7026 83.9253C50.8087 83.8298 50.9148 83.7158 51.0208 83.5832L51.2038 83.798C51.0712 83.9571 50.9386 84.0923 50.806 84.2037C50.6787 84.3151 50.5567 84.4026 50.4401 84.4663C50.3287 84.5246 50.2253 84.5538 50.1298 84.5538C50.0396 84.5538 49.9707 84.5246 49.9229 84.4663C49.8805 84.4079 49.8593 84.3337 49.8593 84.2435C49.8593 84.148 49.8725 84.0207 49.8991 83.8616C49.9256 83.7025 49.968 83.493 50.0264 83.2331C50.09 82.9679 50.1775 82.6337 50.2889 82.2306H50.3764C50.2809 82.4958 50.1643 82.7663 50.0264 83.0422C49.8884 83.3127 49.7346 83.5646 49.5649 83.798C49.4005 84.026 49.2228 84.209 49.0319 84.3469C48.8462 84.4848 48.6553 84.5538 48.459 84.5538C48.3105 84.5538 48.1938 84.5114 48.109 84.4265C48.0294 84.3416 47.9896 84.2249 47.9896 84.0764C47.9896 83.9916 48.0108 83.8616 48.0533 83.6866C48.0957 83.5063 48.1487 83.3047 48.2124 83.0819C48.276 82.8539 48.3397 82.6284 48.4033 82.4057C48.4723 82.1829 48.528 81.984 48.5704 81.809C48.6128 81.6286 48.6341 81.496 48.6341 81.4112C48.5174 81.4748 48.4033 81.557 48.292 81.6578C48.1859 81.7533 48.0798 81.8779 47.9737 82.0317L47.8066 81.7851C47.9392 81.626 48.0692 81.4907 48.1965 81.3794C48.3238 81.2627 48.4458 81.1752 48.5625 81.1168C48.6844 81.0585 48.7905 81.0293 48.8807 81.0293Z" fill="white"/>
<path d="M47.3281 81.0929C47.2804 81.2415 47.2353 81.3794 47.1929 81.5067C47.1558 81.6339 47.1186 81.7639 47.0815 81.8965C47.0497 82.0238 47.0152 82.167 46.9781 82.3261C46.941 82.4799 46.9038 82.6629 46.8667 82.8751L46.5007 84.7049C46.4318 85.0497 46.3814 85.3149 46.3496 85.5005C46.323 85.6915 46.3045 85.8214 46.2939 85.8904L46.7633 86.0097L46.6917 86.2404H45.1164L45.1482 86.0097L45.7449 85.8904C45.7714 85.779 45.8006 85.6384 45.8324 85.4687C45.8643 85.3043 45.8987 85.1346 45.9359 84.9595L46.1188 84.0844C46.1666 83.8616 46.2223 83.6097 46.2859 83.3286C46.3496 83.0475 46.4424 82.6815 46.5644 82.2306H46.6439C46.4689 82.6921 46.2674 83.0978 46.0393 83.4479C45.8112 83.7927 45.5805 84.0632 45.3471 84.2594C45.119 84.4557 44.9175 84.5538 44.7425 84.5538C44.5621 84.5538 44.4242 84.4822 44.3288 84.339C44.2386 84.1905 44.1909 83.9995 44.1855 83.7661C44.1855 83.4002 44.2439 83.0528 44.3606 82.7239C44.4826 82.3951 44.6417 82.1034 44.8379 81.8488C45.0342 81.5942 45.2543 81.3953 45.4983 81.2521C45.7423 81.1036 45.9915 81.0293 46.2461 81.0293C46.3946 81.0293 46.5166 81.0638 46.6121 81.1327C46.7129 81.1964 46.8137 81.2865 46.9144 81.4032L46.7871 81.6578C46.7023 81.5623 46.5989 81.4934 46.4769 81.451C46.3549 81.4032 46.2276 81.3794 46.095 81.3794C45.9199 81.3794 45.7502 81.443 45.5858 81.5703C45.4267 81.6923 45.2835 81.8594 45.1562 82.0715C45.0342 82.2784 44.9361 82.5197 44.8618 82.7955C44.7929 83.066 44.7584 83.3498 44.7584 83.6468C44.7584 83.8006 44.7743 83.9173 44.8061 83.9969C44.8379 84.0711 44.8857 84.1083 44.9493 84.1083C45.0448 84.1083 45.1668 84.0393 45.3153 83.9014C45.4638 83.7635 45.6229 83.5779 45.7926 83.3445C45.9624 83.1058 46.1268 82.8326 46.2859 82.525C46.4503 82.2174 46.5909 81.8912 46.7076 81.5464L46.7712 81.3714L47.0815 81.0929H47.3281Z" fill="white"/>
<path d="M40.8851 84.5538C40.7312 84.5538 40.5854 84.5299 40.4475 84.4822C40.3149 84.4291 40.2062 84.3575 40.1213 84.2674C40.0417 84.1772 40.002 84.0817 40.002 83.981C40.002 83.9173 40.0126 83.859 40.0338 83.8059C40.055 83.7529 40.0868 83.7025 40.1292 83.6548C40.2725 83.8298 40.4236 83.965 40.5827 84.0605C40.7419 84.1507 40.8957 84.1958 41.0442 84.1958C41.198 84.1958 41.32 84.156 41.4102 84.0764C41.5056 83.9969 41.5534 83.8802 41.5534 83.7264C41.5534 83.6309 41.5215 83.5301 41.4579 83.424C41.3995 83.318 41.2908 83.1907 41.1317 83.0422C40.9514 82.8671 40.8135 82.7213 40.718 82.6046C40.6225 82.4879 40.5589 82.3845 40.527 82.2943C40.4952 82.2041 40.4793 82.1166 40.4793 82.0317C40.4793 81.8408 40.5297 81.6711 40.6305 81.5226C40.7312 81.3741 40.8692 81.2547 41.0442 81.1645C41.2192 81.0744 41.4181 81.0293 41.6409 81.0293C41.7576 81.0293 41.8743 81.0479 41.9909 81.085C42.1076 81.1168 42.2031 81.1645 42.2774 81.2282C42.3569 81.2865 42.3967 81.3608 42.3967 81.451C42.3967 81.5093 42.3861 81.5597 42.3649 81.6021C42.3437 81.6446 42.3118 81.6896 42.2694 81.7374C42.1474 81.6154 42.0148 81.5226 41.8716 81.4589C41.7284 81.3953 41.5825 81.3634 41.434 81.3634C41.2802 81.3634 41.1582 81.4085 41.0681 81.4987C40.9779 81.5889 40.9328 81.7056 40.9328 81.8488C40.9328 81.9124 40.9461 81.9787 40.9726 82.0477C40.9991 82.1166 41.0442 82.1935 41.1078 82.2784C41.1768 82.3632 41.2669 82.4614 41.3783 82.5728C41.5534 82.7425 41.686 82.8857 41.7761 83.0024C41.8663 83.1138 41.9273 83.2119 41.9591 83.2967C41.9909 83.3816 42.0069 83.4691 42.0069 83.5593C42.0069 83.7396 41.9538 83.9067 41.8477 84.0605C41.7417 84.209 41.6011 84.3284 41.4261 84.4185C41.2563 84.5087 41.076 84.5538 40.8851 84.5538Z" fill="white"/>
<path d="M38.3457 84.5538C38.0487 84.5538 37.7941 84.4477 37.5819 84.2355C37.3698 84.0181 37.2637 83.7237 37.2637 83.3524C37.2637 83.0713 37.3114 82.7929 37.4069 82.5171C37.5024 82.2413 37.6323 81.992 37.7967 81.7692C37.9664 81.5411 38.1653 81.3608 38.3934 81.2282C38.6268 81.0956 38.8787 81.0293 39.1492 81.0293C39.3985 81.0293 39.5842 81.0903 39.7061 81.2123C39.8281 81.329 39.8891 81.4616 39.8891 81.6101C39.8891 81.7639 39.8414 81.9098 39.7459 82.0477C39.6558 82.1856 39.5179 82.3235 39.3322 82.4614C39.1466 82.594 38.9185 82.7266 38.648 82.8592C38.3828 82.9865 38.0752 83.1138 37.7251 83.2411V82.9228C38.0699 82.7902 38.3616 82.6629 38.6003 82.5409C38.8443 82.4136 39.0299 82.281 39.1572 82.1431C39.2898 81.9999 39.3561 81.8514 39.3561 81.6976C39.3561 81.5809 39.3163 81.4934 39.2367 81.4351C39.1625 81.3767 39.067 81.3475 38.9503 81.3475C38.7488 81.3475 38.5605 81.4297 38.3855 81.5942C38.2157 81.7533 38.0778 81.9708 37.9718 82.2466C37.871 82.5224 37.8206 82.8406 37.8206 83.2013C37.8206 83.4877 37.8869 83.7131 38.0195 83.8775C38.1521 84.0366 38.3245 84.1162 38.5366 84.1162C38.6639 84.1162 38.8124 84.0738 38.9822 83.9889C39.1572 83.8987 39.3216 83.7449 39.4754 83.5275L39.6505 83.7661C39.4754 84.0101 39.2712 84.2037 39.0378 84.3469C38.8098 84.4848 38.5791 84.5538 38.3457 84.5538Z" fill="white"/>
<path d="M35.6416 84.5537C35.5514 84.5537 35.4825 84.5272 35.4347 84.4741C35.3923 84.4158 35.3711 84.3468 35.3711 84.2673C35.3711 84.2142 35.379 84.1373 35.395 84.0365C35.4162 83.9305 35.448 83.7846 35.4904 83.599C35.5382 83.408 35.5965 83.164 35.6655 82.867L36.4213 79.5892L35.8485 79.5096L35.8882 79.3028L36.9384 78.9766L37.0498 79.08C36.9968 79.2921 36.9411 79.5149 36.8827 79.7483C36.8244 79.9764 36.7581 80.2548 36.6838 80.5837L36.0712 83.1773C36.0447 83.2834 36.0182 83.4027 35.9917 83.5353C35.9651 83.6626 35.9413 83.7846 35.9201 83.9013C35.8988 84.0127 35.8856 84.1002 35.8803 84.1638C36.0023 84.1002 36.1163 84.0206 36.2224 83.9252C36.3285 83.8297 36.4345 83.7157 36.5406 83.5831L36.7156 83.7979C36.5831 83.957 36.4531 84.0922 36.3258 84.2036C36.1985 84.315 36.0765 84.4025 35.9598 84.4662C35.8431 84.5245 35.7371 84.5537 35.6416 84.5537Z" fill="white"/>
<path d="M33.7236 84.5537C33.6335 84.5537 33.5645 84.5272 33.5168 84.4741C33.4743 84.4158 33.4531 84.3468 33.4531 84.2673C33.4531 84.2142 33.4611 84.1373 33.477 84.0365C33.4982 83.9305 33.53 83.7846 33.5725 83.599C33.6202 83.408 33.6785 83.164 33.7475 82.867L34.5033 79.5892L33.9305 79.5096L33.9703 79.3028L35.0204 78.9766L35.1318 79.08C35.0788 79.2921 35.0231 79.5149 34.9648 79.7483C34.9064 79.9764 34.8401 80.2548 34.7659 80.5837L34.1532 83.1773C34.1267 83.2834 34.1002 83.4027 34.0737 83.5353C34.0472 83.6626 34.0233 83.7846 34.0021 83.9013C33.9809 84.0127 33.9676 84.1002 33.9623 84.1638C34.0843 84.1002 34.1983 84.0206 34.3044 83.9252C34.4105 83.8297 34.5166 83.7157 34.6227 83.5831L34.7977 83.7979C34.6651 83.957 34.5351 84.0922 34.4078 84.2036C34.2805 84.315 34.1586 84.4025 34.0419 84.4662C33.9252 84.5245 33.8191 84.5537 33.7236 84.5537Z" fill="white"/>
<path d="M30.2166 84.5538C30.0469 84.5538 29.9143 84.4822 29.8188 84.339C29.7287 84.1905 29.6836 83.9995 29.6836 83.7661C29.6836 83.3896 29.7446 83.0368 29.8666 82.708C29.9886 82.3792 30.1503 82.0901 30.3519 81.8408C30.5534 81.5862 30.7736 81.3873 31.0122 81.2441C31.2562 81.1009 31.4922 81.0293 31.7203 81.0293C31.8582 81.0293 31.9776 81.0638 32.0783 81.1327C32.1791 81.1964 32.2825 81.2865 32.3886 81.4032L32.2613 81.6578C32.1712 81.5623 32.0651 81.4934 31.9431 81.451C31.8211 81.4032 31.6964 81.3794 31.5692 81.3794C31.3994 81.3794 31.235 81.443 31.0759 81.5703C30.9168 81.6923 30.7762 81.8594 30.6542 82.0715C30.5322 82.2784 30.4341 82.5197 30.3598 82.7955C30.2909 83.066 30.2564 83.3498 30.2564 83.6468C30.2564 83.7953 30.2697 83.9094 30.2962 83.9889C30.328 84.0685 30.3811 84.1083 30.4553 84.1083C30.5455 84.1083 30.6595 84.042 30.7974 83.9094C30.9406 83.7768 31.0944 83.5938 31.2589 83.3604C31.4286 83.127 31.593 82.8565 31.7521 82.5489C31.9113 82.2413 32.0492 81.9071 32.1659 81.5464L32.2375 81.3714L32.5398 81.0929H32.7944C32.6989 81.3953 32.6087 81.7029 32.5239 82.0158C32.439 82.3235 32.3647 82.6205 32.3011 82.9069C32.2428 83.188 32.195 83.4373 32.1579 83.6548C32.1208 83.8722 32.1022 84.042 32.1022 84.1639C32.2242 84.1003 32.3382 84.0207 32.4443 83.9253C32.5504 83.8298 32.6565 83.7158 32.7625 83.5832L32.9376 83.798C32.805 83.9571 32.6724 84.0923 32.5398 84.2037C32.4125 84.3151 32.2905 84.4026 32.1738 84.4663C32.0624 84.5246 31.959 84.5538 31.8635 84.5538C31.7734 84.5538 31.7071 84.5273 31.6646 84.4742C31.6222 84.4159 31.601 84.339 31.601 84.2435C31.601 84.148 31.6116 84.0207 31.6328 83.8616C31.6593 83.6972 31.7018 83.485 31.7601 83.2251C31.8237 82.9599 31.9113 82.6284 32.0226 82.2306H32.1102C31.9457 82.6921 31.7495 83.0978 31.5214 83.4479C31.2987 83.7927 31.0706 84.0632 30.8372 84.2594C30.6091 84.4557 30.4023 84.5538 30.2166 84.5538Z" fill="white"/>
<path d="M29.2602 83.6467C29.0109 84.0074 28.7776 84.2487 28.5601 84.3707C28.3426 84.4927 28.1596 84.5537 28.0111 84.5537C27.852 84.5537 27.7274 84.506 27.6372 84.4105C27.547 84.315 27.502 84.1904 27.502 84.0366C27.502 83.9782 27.5073 83.9146 27.5179 83.8456C27.5285 83.7714 27.547 83.6785 27.5736 83.5672L28.0668 81.4747H27.5099L27.5417 81.3315L28.6874 80.4246H28.8067L28.5919 81.2918L28.0827 83.5115C28.0615 83.6069 28.0456 83.6838 28.035 83.7422C28.0244 83.7952 28.0191 83.8483 28.0191 83.9013C28.0191 84.0551 28.088 84.132 28.2259 84.132C28.3055 84.132 28.4169 84.0816 28.5601 83.9809C28.7086 83.8748 28.8863 83.6838 29.0931 83.408L29.2602 83.6467ZM28.3135 81.4747L28.401 81.1088H29.5069L29.4352 81.4747H28.3135Z" fill="white"/>
<path d="M25.457 84.5538C25.16 84.5538 24.9054 84.4477 24.6932 84.2355C24.4811 84.0181 24.375 83.7237 24.375 83.3524C24.375 83.0713 24.4227 82.7929 24.5182 82.5171C24.6137 82.2413 24.7436 81.992 24.908 81.7692C25.0778 81.5411 25.2767 81.3608 25.5047 81.2282C25.7381 81.0956 25.9901 81.0293 26.2606 81.0293C26.5098 81.0293 26.6955 81.0903 26.8175 81.2123C26.9395 81.329 27.0005 81.4616 27.0005 81.6101C27.0005 81.7639 26.9527 81.9098 26.8573 82.0477C26.7671 82.1856 26.6292 82.3235 26.4435 82.4614C26.2579 82.594 26.0298 82.7266 25.7593 82.8592C25.4941 82.9865 25.1865 83.1138 24.8364 83.2411V82.9228C25.1812 82.7902 25.4729 82.6629 25.7116 82.5409C25.9556 82.4136 26.1412 82.281 26.2685 82.1431C26.4011 81.9999 26.4674 81.8514 26.4674 81.6976C26.4674 81.5809 26.4276 81.4934 26.3481 81.4351C26.2738 81.3767 26.1783 81.3475 26.0617 81.3475C25.8601 81.3475 25.6718 81.4297 25.4968 81.5942C25.3271 81.7533 25.1892 81.9708 25.0831 82.2466C24.9823 82.5224 24.9319 82.8406 24.9319 83.2013C24.9319 83.4877 24.9982 83.7131 25.1308 83.8775C25.2634 84.0366 25.4358 84.1162 25.648 84.1162C25.7752 84.1162 25.9238 84.0738 26.0935 83.9889C26.2685 83.8987 26.4329 83.7449 26.5868 83.5275L26.7618 83.7661C26.5868 84.0101 26.3826 84.2037 26.1492 84.3469C25.9211 84.4848 25.6904 84.5538 25.457 84.5538Z" fill="white"/>
<path d="M19.7776 79.8198H21.496C22.228 79.8198 22.7982 79.9736 23.2066 80.2813C23.615 80.5836 23.8192 81.0344 23.8192 81.6338C23.8192 82.021 23.7423 82.3869 23.5885 82.7317C23.4399 83.0765 23.2304 83.3814 22.9599 83.6466C22.6947 83.9118 22.3818 84.1187 22.0211 84.2672C21.6605 84.4157 21.2706 84.49 20.8516 84.49H18.791L18.8388 84.2195L19.34 84.1081C19.3665 84.0285 19.4036 83.8906 19.4514 83.6944C19.4991 83.4928 19.5495 83.2541 19.6025 82.9783L19.9367 81.3871C20.0162 81.0159 20.0719 80.7427 20.1037 80.5677C20.1356 80.3927 20.1541 80.2707 20.1594 80.2017L19.698 80.0903L19.7776 79.8198ZM20.772 80.2176C20.7508 80.2919 20.7164 80.4165 20.6686 80.5916C20.6262 80.7613 20.5678 81.0238 20.4936 81.3792L20.1594 82.9783C20.1223 83.1428 20.0905 83.2886 20.064 83.4159C20.0428 83.5432 20.0242 83.6572 20.0083 83.758C19.9924 83.8588 19.9765 83.9516 19.9605 84.0365C20.1409 84.0577 20.3026 84.0763 20.4459 84.0922C20.5944 84.1028 20.7588 84.1081 20.9391 84.1081C21.3847 84.1081 21.7718 84.01 22.1007 83.8137C22.4295 83.6122 22.6841 83.3284 22.8645 82.9624C23.0501 82.5965 23.1429 82.1721 23.1429 81.6895C23.1429 81.1644 22.9971 80.7798 22.7053 80.5359C22.4189 80.2866 21.992 80.1619 21.4244 80.1619C21.3237 80.1619 21.2229 80.1672 21.1221 80.1778C21.0213 80.1831 20.9046 80.1964 20.772 80.2176Z" fill="white"/>
</svg>
