<svg width="205" height="97" viewBox="0 0 205 97" fill="none" xmlns="http://www.w3.org/2000/svg">
<path d="M94.3769 39.0011C93.9815 39.2798 93.5204 39.4124 93.0628 39.4083C92.4251 39.4441 91.779 39.2138 91.3079 38.7253L91.2161 38.6238L82.1195 27.9755L83.8362 26.5089L92.9297 37.1536C92.9315 37.1538 92.9341 37.1543 92.9365 37.1542L93.0096 37.1495L93.0823 37.1504L103.532 28.2237C106.159 25.9791 106.541 22.0823 104.456 19.3748L104.247 19.1167C102.096 16.5985 98.4241 16.1421 95.7407 17.946L94.2598 18.9414L92.9489 17.7301C90.6966 15.649 87.2301 15.4752 84.7738 17.3813L84.5392 17.5727C81.8776 19.8465 81.563 23.8475 83.8362 26.5089L82.1195 27.9755C79.0361 24.3657 79.4631 18.9397 83.0727 15.856C86.4195 12.9969 91.3261 13.1566 94.4812 16.0717C98.105 13.6356 103.059 14.2498 105.963 17.6502C109.09 21.3107 108.659 26.8132 104.998 29.9404L94.5421 38.8728L94.3769 39.0011Z" fill="#9A9A9A"/>
<path d="M114.926 38.765C114.512 39.2888 113.892 39.5502 113.272 39.5319C112.813 39.5427 112.346 39.4002 111.957 39.093L101.998 31.2246L103.398 29.453L113.254 37.2397L120.845 27.6315C122.711 25.2699 122.379 21.8757 120.14 19.9146L119.918 19.7293C117.66 17.9454 114.455 18.1699 112.466 20.152L111.201 21.4127L109.684 20.4727C107.419 19.0702 104.433 19.5024 102.662 21.5396L102.493 21.7415C100.614 24.1206 101.019 27.5735 103.398 29.453L101.998 31.2246C98.6407 28.5719 98.0693 23.6993 100.722 20.3418C103.187 17.2211 107.57 16.508 110.872 18.5528C113.661 15.773 118.151 15.456 121.318 17.9577C124.734 20.657 125.315 25.6148 122.616 29.0312L114.926 38.765Z" fill="#C3C3C3"/>
<path d="M99.8233 6.79791C99.8233 4.291 97.7911 2.25806 95.2842 2.25783C92.7772 2.25783 90.7442 4.29086 90.7442 6.79791C90.7444 9.30477 92.7773 11.337 95.2842 11.337V13.5948L94.9337 13.5861C91.4582 13.4097 88.6714 10.623 88.4951 7.14752L88.4863 6.79791C88.4863 3.04377 91.5301 0 95.2842 0L95.6339 0.00878914C99.2253 0.190967 102.081 3.16116 102.081 6.79791L102.072 7.14752C101.89 10.7389 98.9208 13.5946 95.2842 13.5948V11.337C97.791 11.3368 99.8231 9.30462 99.8233 6.79791Z" fill="#9A9A9A"/>
<path d="M113.686 10.3081C113.685 8.16003 111.944 6.41846 109.796 6.41846C107.648 6.41855 105.906 8.16008 105.906 10.3081C105.906 12.4562 107.648 14.1977 109.796 14.1978V16.4556C106.401 16.4555 103.648 13.7033 103.648 10.3081C103.649 6.913 106.401 4.16073 109.796 4.16064C113.191 4.16064 115.943 6.91294 115.943 10.3081C115.943 13.7033 113.191 16.4556 109.796 16.4556V14.1978C111.944 14.1978 113.686 12.4563 113.686 10.3081Z" fill="#C3C3C3"/>
<rect x="103.078" y="28.5994" width="2.25612" height="2.88639" transform="rotate(49.4479 103.078 28.5994)" fill="#9A9A9A"/>
<path d="M195.121 73.695L195.039 72.1814L197.779 71.6088C197.807 71.4997 197.82 71.3088 197.82 71.0361C197.848 70.7634 197.875 70.3271 197.902 69.7271C197.929 69.1272 197.943 68.2954 197.943 67.2319V64.5321C197.943 63.414 197.916 62.3914 197.861 61.4642C197.807 60.537 197.738 59.8143 197.657 59.2962L194.916 58.7235V57.3736L200.725 55.8601L201.338 56.4328C201.256 57.2782 201.188 58.1099 201.134 58.928C201.106 59.7461 201.093 60.7006 201.093 61.7914V66.9455C201.093 68.2 201.106 69.2362 201.134 70.0544C201.188 70.8725 201.243 71.3906 201.297 71.6088L204.038 72.1814L203.956 73.695H195.121ZM199.538 51.2378C198.857 51.2378 198.257 51.006 197.739 50.5424C197.248 50.0788 197.002 49.5061 197.002 48.8243C197.002 48.1426 197.248 47.5699 197.739 47.1063C198.257 46.6427 198.857 46.4109 199.538 46.4109C200.247 46.4109 200.834 46.6427 201.297 47.1063C201.761 47.5699 201.993 48.1426 201.993 48.8243C201.993 49.5061 201.761 50.0788 201.297 50.5424C200.834 51.006 200.247 51.2378 199.538 51.2378Z" fill="#9A9A9A"/>
<path d="M182.643 74.0222C181.552 74.0222 180.584 73.8041 179.739 73.3678C178.893 72.9314 178.225 72.3724 177.734 71.6906C177.271 71.0089 177.039 70.2998 177.039 69.5635C177.039 68.6363 177.339 67.8728 177.939 67.2728C178.539 66.6729 179.521 66.1547 180.884 65.7184L187.102 63.6322V61.546C187.102 60.8643 186.897 60.2507 186.488 59.7053C186.079 59.1326 185.534 58.6826 184.852 58.3554C184.17 58.0281 183.407 57.8645 182.561 57.8645C181.88 57.8645 181.416 58.0145 181.171 58.3145C180.925 58.5872 180.775 59.1462 180.721 59.9916L180.639 61.7096C179.657 61.9278 178.825 61.9005 178.144 61.6278C177.462 61.3279 177.121 60.8506 177.121 60.1961C177.121 59.7325 177.312 59.2689 177.694 58.8053C178.103 58.3417 178.634 57.9054 179.289 57.4964C179.943 57.06 180.652 56.6919 181.416 56.3919C182.18 56.0919 182.929 55.8874 183.666 55.7783C185.684 55.7783 187.293 56.3101 188.493 57.3736C189.72 58.4372 190.347 59.828 190.374 61.546L190.292 68.4182C190.292 68.9363 190.306 69.4408 190.333 69.9317C190.388 70.4225 190.456 70.7907 190.538 71.0361L193.156 71.527V72.7951L191.152 73.5314C190.77 73.6677 190.415 73.7768 190.088 73.8586C189.761 73.9677 189.488 74.0222 189.27 74.0222C188.424 74.0222 187.879 73.545 187.634 72.5905L187.184 70.9952H187.797C186.897 72.0042 186.025 72.7678 185.179 73.2859C184.361 73.7768 183.516 74.0222 182.643 74.0222ZM183.748 71.6088C184.375 71.6088 184.961 71.4725 185.507 71.1997C186.052 70.8998 186.584 70.4498 187.102 69.8499V65.5548L182.52 66.7819C181.866 66.9456 181.389 67.2046 181.089 67.5591C180.816 67.9137 180.68 68.3636 180.68 68.909C180.68 69.5908 180.98 70.218 181.58 70.7907C182.207 71.3361 182.929 71.6088 183.748 71.6088Z" fill="#9A9A9A"/>
<path d="M153.396 73.695L153.314 72.2224L155.85 71.6088C155.877 71.4179 155.891 71.1588 155.891 70.8316C155.918 70.5044 155.946 70.0544 155.973 69.4817C156 68.909 156.014 68.1591 156.014 67.2319L156.055 64.0822C156.055 63.1822 156.014 62.296 155.932 61.4233C155.877 60.5234 155.809 59.8143 155.727 59.2962L153.109 58.7235V57.3736L158.591 55.8601L159.286 56.5146L159.082 58.6826L159.204 58.7235C160.159 57.6873 161.1 56.9373 162.027 56.4737C162.954 56.0101 163.963 55.7783 165.054 55.7783C166.063 55.7783 167.004 56.0374 167.876 56.5555C168.776 57.0464 169.499 57.81 170.044 58.8462C170.617 59.8825 170.903 61.2051 170.903 62.8141V67.3546C170.903 68.3364 170.917 69.2226 170.944 70.0135C170.999 70.8043 171.067 71.3361 171.149 71.6088L173.685 72.2224L173.562 73.695H165.34L165.258 72.2224L167.631 71.6088C167.658 71.3906 167.685 71.1179 167.713 70.7907C167.74 70.4634 167.754 70.0544 167.754 69.5635C167.781 69.0454 167.795 68.4045 167.795 67.641V63.2231C167.795 61.996 167.576 61.0279 167.14 60.3188C166.731 59.5825 166.213 59.0644 165.586 58.7644C164.958 58.4372 164.318 58.2736 163.663 58.2736C162.763 58.2736 161.918 58.5054 161.127 58.969C160.363 59.4053 159.709 60.0189 159.163 60.8097V66.9456C159.163 68.2 159.177 69.2226 159.204 70.0135C159.259 70.7771 159.313 71.3088 159.368 71.6088L161.904 72.2224L161.781 73.695H153.396Z" fill="#9A9A9A"/>
<path d="M140.756 74.0222C139.666 74.0222 138.697 73.8041 137.852 73.3678C137.007 72.9314 136.339 72.3724 135.848 71.6906C135.384 71.0089 135.152 70.2998 135.152 69.5635C135.152 68.6363 135.452 67.8728 136.052 67.2728C136.652 66.6729 137.634 66.1547 138.997 65.7184L145.215 63.6322V61.546C145.215 60.8643 145.011 60.2507 144.602 59.7053C144.192 59.1326 143.647 58.6826 142.965 58.3554C142.284 58.0281 141.52 57.8645 140.675 57.8645C139.993 57.8645 139.529 58.0145 139.284 58.3145C139.038 58.5872 138.888 59.1462 138.834 59.9916L138.752 61.7096C137.77 61.9278 136.939 61.9005 136.257 61.6278C135.575 61.3279 135.234 60.8506 135.234 60.1961C135.234 59.7325 135.425 59.2689 135.807 58.8053C136.216 58.3417 136.748 57.9054 137.402 57.4964C138.057 57.06 138.766 56.6919 139.529 56.3919C140.293 56.0919 141.043 55.8874 141.779 55.7783C143.797 55.7783 145.406 56.3101 146.606 57.3736C147.833 58.4372 148.46 59.828 148.488 61.546L148.406 68.4182C148.406 68.9363 148.419 69.4408 148.447 69.9317C148.501 70.4225 148.569 70.7907 148.651 71.0361L151.269 71.527V72.7951L149.265 73.5314C148.883 73.6677 148.528 73.7768 148.201 73.8586C147.874 73.9677 147.601 74.0222 147.383 74.0222C146.538 74.0222 145.992 73.545 145.747 72.5905L145.297 70.9952H145.911C145.011 72.0042 144.138 72.7678 143.293 73.2859C142.474 73.7768 141.629 74.0222 140.756 74.0222ZM141.861 71.6088C142.488 71.6088 143.074 71.4725 143.62 71.1997C144.165 70.8998 144.697 70.4498 145.215 69.8499V65.5548L140.634 66.7819C139.979 66.9456 139.502 67.2046 139.202 67.5591C138.929 67.9137 138.793 68.3636 138.793 68.909C138.793 69.5908 139.093 70.218 139.693 70.7907C140.32 71.3361 141.043 71.6088 141.861 71.6088Z" fill="#9A9A9A"/>
<path d="M126.112 67.8455V58.6826C126.112 57.0736 126.098 55.7919 126.071 54.8375C126.044 53.8557 126.016 53.1331 125.989 52.6695C125.962 52.1786 125.934 51.8923 125.907 51.8104L123.126 51.2378L123.248 49.6833H131.02L131.143 51.2378L128.607 51.8104C128.607 51.8923 128.58 52.1786 128.525 52.6695C128.498 53.1331 128.471 53.8557 128.443 54.8375C128.416 55.7919 128.402 57.0736 128.402 58.6826V68.4181C128.402 69.2635 128.402 70.1498 128.402 71.077C128.402 71.9769 128.416 72.9041 128.443 73.8586H126.603L111.549 53.6103H112.449V64.573C112.449 66.2092 112.463 67.5318 112.49 68.5409C112.517 69.5226 112.545 70.2453 112.572 70.7089C112.627 71.1724 112.667 71.4588 112.695 71.5679L115.476 72.1406L115.354 73.695H107.5L107.377 72.1406L109.872 71.5679C109.899 71.4588 109.927 71.1724 109.954 70.7089C110.009 70.2453 110.049 69.5226 110.077 68.5409C110.104 67.5318 110.118 66.2092 110.118 64.573V57.5781C110.118 56.351 110.104 55.342 110.077 54.5511C110.049 53.7603 110.022 53.1467 109.995 52.7104C109.968 52.274 109.927 51.9741 109.872 51.8104L107.377 51.2378L107.5 49.6833H113.104L126.848 67.8455H126.112Z" fill="#9A9A9A"/>
<path d="M87.7436 73.695L87.6618 72.1814L90.4025 71.6088C90.4297 71.4997 90.4434 71.3088 90.4434 71.0361C90.4706 70.7634 90.4979 70.3271 90.5252 69.7271C90.5524 69.1272 90.5661 68.2954 90.5661 67.2319V64.5321C90.5661 63.414 90.5388 62.3914 90.4843 61.4642C90.4297 60.537 90.3616 59.8143 90.2797 59.2962L87.5391 58.7235V57.3736L93.3477 55.8601L93.9612 56.4328C93.8794 57.2782 93.8113 58.1099 93.7567 58.928C93.7294 59.7461 93.7158 60.7006 93.7158 61.7914V66.9455C93.7158 68.2 93.7294 69.2362 93.7567 70.0544C93.8113 70.8725 93.8658 71.3906 93.9203 71.6088L96.661 72.1814L96.5792 73.695H87.7436ZM92.1614 51.2378C91.4796 51.2378 90.8797 51.006 90.3615 50.5424C89.8707 50.0788 89.6252 49.5061 89.6252 48.8243C89.6252 48.1426 89.8707 47.5699 90.3615 47.1063C90.8797 46.6427 91.4796 46.4109 92.1614 46.4109C92.8704 46.4109 93.4567 46.6427 93.9203 47.1063C94.3839 47.5699 94.6157 48.1426 94.6157 48.8243C94.6157 49.5061 94.3839 50.0788 93.9203 50.5424C93.4567 51.006 92.8704 51.2378 92.1614 51.2378Z" fill="#9A9A9A"/>
<path d="M75.2662 74.0222C74.1754 74.0222 73.2073 73.8041 72.3619 73.3678C71.5165 72.9314 70.8484 72.3724 70.3575 71.6906C69.8939 71.0089 69.6621 70.2998 69.6621 69.5635C69.6621 68.6363 69.9621 67.8728 70.562 67.2728C71.162 66.6729 72.1437 66.1547 73.5072 65.7184L79.7249 63.6322V61.546C79.7249 60.8643 79.5204 60.2507 79.1113 59.7053C78.7023 59.1326 78.1568 58.6826 77.4751 58.3554C76.7933 58.0281 76.0298 57.8645 75.1844 57.8645C74.5026 57.8645 74.039 58.0145 73.7936 58.3145C73.5481 58.5872 73.3982 59.1462 73.3436 59.9916L73.2618 61.7096C72.2801 61.9278 71.4483 61.9005 70.7666 61.6278C70.0848 61.3279 69.7439 60.8506 69.7439 60.1961C69.7439 59.7325 69.9348 59.2689 70.3166 58.8053C70.7257 58.3417 71.2574 57.9054 71.9119 57.4964C72.5664 57.06 73.2754 56.6919 74.039 56.3919C74.8026 56.0919 75.5525 55.8874 76.2888 55.7783C78.3068 55.7783 79.9158 56.3101 81.1157 57.3736C82.3429 58.4372 82.9701 59.828 82.9973 61.546L82.9155 68.4182C82.9155 68.9363 82.9292 69.4408 82.9564 69.9317C83.011 70.4225 83.0792 70.7907 83.161 71.0361L85.7789 71.527V72.7951L83.7746 73.5314C83.3928 73.6677 83.0383 73.7768 82.711 73.8586C82.3838 73.9677 82.1111 74.0222 81.8929 74.0222C81.0475 74.0222 80.5021 73.545 80.2567 72.5905L79.8067 70.9952H80.4203C79.5204 72.0042 78.6477 72.7678 77.8023 73.2859C76.9842 73.7768 76.1388 74.0222 75.2662 74.0222ZM76.3706 71.6088C76.9979 71.6088 77.5842 71.4725 78.1296 71.1997C78.675 70.8998 79.2068 70.4498 79.7249 69.8499V65.5548L75.1435 66.7819C74.489 66.9456 74.0117 67.2046 73.7118 67.5591C73.4391 67.9137 73.3027 68.3636 73.3027 68.909C73.3027 69.5908 73.6027 70.218 74.2026 70.7907C74.8299 71.3361 75.5525 71.6088 76.3706 71.6088Z" fill="#9A9A9A"/>
<path d="M46.0188 73.695L45.9369 72.2224L48.4731 71.6088C48.5004 71.4179 48.514 71.1588 48.514 70.8316C48.5413 70.5044 48.5685 70.0544 48.5958 69.4817C48.6231 68.909 48.6367 68.1591 48.6367 67.2319L48.6776 64.0822C48.6776 63.1822 48.6367 62.296 48.5549 61.4233C48.5004 60.5234 48.4322 59.8143 48.3504 59.2962L45.7324 58.7235V57.3736L51.2138 55.8601L51.9092 56.5146L51.7046 58.6826L51.8274 58.7235C52.7818 57.6873 53.7227 56.9373 54.6499 56.4737C55.577 56.0101 56.5861 55.7783 57.6769 55.7783C58.6859 55.7783 59.6267 56.0374 60.4994 56.5555C61.3993 57.0464 62.122 57.81 62.6674 58.8462C63.24 59.8825 63.5264 61.2051 63.5264 62.8141V67.3546C63.5264 68.3364 63.54 69.2226 63.5673 70.0135C63.6218 70.8043 63.69 71.3361 63.7718 71.6088L66.308 72.2224L66.1852 73.695H57.9632L57.8814 72.2224L60.2539 71.6088C60.2812 71.3906 60.3085 71.1179 60.3357 70.7907C60.363 70.4634 60.3766 70.0544 60.3766 69.5635C60.4039 69.0454 60.4175 68.4045 60.4175 67.641V63.2231C60.4175 61.996 60.1994 61.0279 59.7631 60.3188C59.354 59.5825 58.8359 59.0644 58.2086 58.7644C57.5814 58.4372 56.9406 58.2736 56.2861 58.2736C55.3862 58.2736 54.5408 58.5054 53.7499 58.969C52.9864 59.4053 52.3319 60.0189 51.7865 60.8097V66.9456C51.7865 68.2 51.8001 69.2226 51.8274 70.0135C51.8819 70.7771 51.9364 71.3088 51.991 71.6088L54.5271 72.2224L54.4044 73.695H46.0188Z" fill="#9A9A9A"/>
<path d="M33.3795 74.0222C32.2886 74.0222 31.3205 73.8041 30.4752 73.3678C29.6298 72.9314 28.9617 72.3724 28.4708 71.6906C28.0072 71.0089 27.7754 70.2998 27.7754 69.5635C27.7754 68.6363 28.0754 67.8728 28.6753 67.2728C29.2753 66.6729 30.257 66.1547 31.6205 65.7184L37.8382 63.6322V61.546C37.8382 60.8643 37.6337 60.2507 37.2246 59.7053C36.8155 59.1326 36.2701 58.6826 35.5884 58.3554C34.9066 58.0281 34.143 57.8645 33.2977 57.8645C32.6159 57.8645 32.1523 58.0145 31.9069 58.3145C31.6614 58.5872 31.5114 59.1462 31.4569 59.9916L31.3751 61.7096C30.3934 61.9278 29.5616 61.9005 28.8798 61.6278C28.1981 61.3279 27.8572 60.8506 27.8572 60.1961C27.8572 59.7325 28.0481 59.2689 28.4299 58.8053C28.8389 58.3417 29.3707 57.9054 30.0252 57.4964C30.6797 57.06 31.3887 56.6919 32.1523 56.3919C32.9159 56.0919 33.6658 55.8874 34.4021 55.7783C36.4201 55.7783 38.0291 56.3101 39.229 57.3736C40.4561 58.4372 41.0834 59.828 41.1106 61.546L41.0288 68.4182C41.0288 68.9363 41.0425 69.4408 41.0697 69.9317C41.1243 70.4225 41.1924 70.7907 41.2743 71.0361L43.8922 71.527V72.7951L41.8878 73.5314C41.5061 73.6677 41.1515 73.7768 40.8243 73.8586C40.497 73.9677 40.2243 74.0222 40.0062 74.0222C39.1608 74.0222 38.6154 73.545 38.37 72.5905L37.92 70.9952H38.5336C37.6337 72.0042 36.761 72.7678 35.9156 73.2859C35.0975 73.7768 34.2521 74.0222 33.3795 74.0222ZM34.4839 71.6088C35.1111 71.6088 35.6975 71.4725 36.2429 71.1997C36.7883 70.8998 37.32 70.4498 37.8382 69.8499V65.5548L33.2567 66.7819C32.6023 66.9456 32.125 67.2046 31.8251 67.5591C31.5523 67.9137 31.416 68.3636 31.416 68.909C31.416 69.5908 31.716 70.218 32.3159 70.7907C32.9431 71.3361 33.6658 71.6088 34.4839 71.6088Z" fill="#9A9A9A"/>
<path d="M18.7348 67.8455V58.6826C18.7348 57.0736 18.7212 55.7919 18.6939 54.8375C18.6666 53.8557 18.6393 53.1331 18.6121 52.6695C18.5848 52.1786 18.5575 51.8923 18.5303 51.8104L15.7487 51.2378L15.8714 49.6833H23.6435L23.7662 51.2378L21.23 51.8104C21.23 51.8923 21.2028 52.1786 21.1482 52.6695C21.121 53.1331 21.0937 53.8557 21.0664 54.8375C21.0391 55.7919 21.0255 57.0736 21.0255 58.6826V68.4181C21.0255 69.2635 21.0255 70.1498 21.0255 71.077C21.0255 71.9769 21.0391 72.9041 21.0664 73.8586H19.2257L4.17238 53.6103H5.0723V64.573C5.0723 66.2092 5.08594 67.5318 5.11321 68.5409C5.14048 69.5226 5.16775 70.2453 5.19502 70.7089C5.24956 71.1724 5.29046 71.4588 5.31773 71.5679L8.09932 72.1406L7.9766 73.695H0.122717L0 72.1406L2.49524 71.5679C2.52252 71.4588 2.54979 71.1724 2.57706 70.7089C2.6316 70.2453 2.6725 69.5226 2.69977 68.5409C2.72704 67.5318 2.74068 66.2092 2.74068 64.573V57.5781C2.74068 56.351 2.72704 55.342 2.69977 54.5511C2.6725 53.7603 2.64523 53.1467 2.61796 52.7104C2.59069 52.274 2.54979 51.9741 2.49524 51.8104L0 51.2378L0.122717 49.6833H5.72679L19.4711 67.8455H18.7348Z" fill="#9A9A9A"/>
<path d="M167.076 92.3445C166.865 92.3445 166.707 92.28 166.602 92.1511C166.496 92.0222 166.443 91.8582 166.443 91.6589C166.443 91.5183 166.49 91.2546 166.584 90.8679C166.689 90.4812 166.812 90.0417 166.953 89.5496C167.094 89.0574 167.229 88.5593 167.357 88.0554C167.498 87.5515 167.615 87.1003 167.709 86.7019C167.814 86.3035 167.867 86.0222 167.867 85.8582C167.867 85.6121 167.744 85.489 167.498 85.489C167.24 85.489 166.947 85.6296 166.619 85.9109C166.291 86.1921 165.957 86.573 165.617 87.0535C165.277 87.5339 164.949 88.0671 164.633 88.6531C164.316 89.239 164.035 89.8425 163.789 90.4636C163.543 91.073 163.361 91.6531 163.244 92.2039H162.119C162.318 91.5359 162.512 90.8562 162.699 90.1648C162.887 89.4734 163.051 88.8171 163.191 88.196C163.332 87.575 163.443 87.0183 163.525 86.5261C163.607 86.0339 163.648 85.6589 163.648 85.4011C163.379 85.5417 163.127 85.7234 162.893 85.946C162.658 86.157 162.424 86.4324 162.189 86.7722L161.803 86.2273C162.096 85.8757 162.383 85.5769 162.664 85.3308C162.957 85.073 163.232 84.8796 163.49 84.7507C163.748 84.6218 163.977 84.5574 164.176 84.5574C164.387 84.5574 164.533 84.6218 164.615 84.7507C164.697 84.8679 164.738 85.032 164.738 85.2429C164.738 85.4421 164.715 85.7175 164.668 86.0691C164.621 86.4207 164.527 86.8835 164.387 87.4578C164.258 88.032 164.07 88.7703 163.824 89.6726H163.648C163.859 89.0867 164.117 88.4949 164.422 87.8972C164.738 87.2996 165.084 86.7488 165.459 86.2449C165.846 85.741 166.25 85.3367 166.672 85.032C167.094 84.7156 167.521 84.5574 167.955 84.5574C168.295 84.5574 168.553 84.6511 168.729 84.8386C168.904 85.0261 168.992 85.2839 168.992 85.6121C168.992 85.7996 168.945 86.0925 168.852 86.491C168.758 86.8777 168.641 87.323 168.5 87.8269C168.371 88.3191 168.236 88.8113 168.096 89.3035C167.955 89.7957 167.838 90.241 167.744 90.6394C167.65 91.0261 167.604 91.3074 167.604 91.4832C167.861 91.3425 168.107 91.1667 168.342 90.9558C168.576 90.7449 168.811 90.4929 169.045 90.2L169.432 90.6746C169.139 91.0261 168.852 91.325 168.57 91.571C168.289 91.8171 168.02 92.0105 167.762 92.1511C167.504 92.28 167.275 92.3445 167.076 92.3445Z" fill="#9A9A9A"/>
<path d="M154.842 92.3445C154.467 92.3445 154.174 92.1863 153.963 91.8699C153.764 91.5417 153.664 91.1199 153.664 90.6042C153.664 89.7722 153.799 88.9929 154.068 88.2664C154.338 87.5398 154.695 86.9011 155.141 86.3503C155.586 85.7878 156.072 85.3484 156.6 85.032C157.139 84.7156 157.66 84.5574 158.164 84.5574C158.469 84.5574 158.732 84.6335 158.955 84.7859C159.178 84.9265 159.406 85.1257 159.641 85.3835L159.359 85.946C159.16 85.7351 158.926 85.5828 158.656 85.489C158.387 85.3835 158.111 85.3308 157.83 85.3308C157.455 85.3308 157.092 85.4714 156.74 85.7527C156.389 86.0222 156.078 86.3914 155.809 86.8601C155.539 87.3171 155.322 87.8503 155.158 88.4597C155.006 89.0574 154.93 89.6843 154.93 90.3406C154.93 90.6687 154.959 90.9207 155.018 91.0964C155.088 91.2722 155.205 91.3601 155.369 91.3601C155.568 91.3601 155.82 91.2136 156.125 90.9207C156.441 90.6277 156.781 90.2234 157.145 89.7078C157.52 89.1921 157.883 88.5945 158.234 87.9148C158.586 87.2351 158.891 86.4968 159.148 85.7L159.307 85.3132L159.975 84.698H160.537C160.326 85.366 160.127 86.0457 159.939 86.7371C159.752 87.4167 159.588 88.073 159.447 88.7058C159.318 89.3269 159.213 89.8777 159.131 90.3582C159.049 90.8386 159.008 91.2136 159.008 91.4832C159.277 91.3425 159.529 91.1667 159.764 90.9558C159.998 90.7449 160.232 90.4929 160.467 90.2L160.854 90.6746C160.561 91.0261 160.268 91.325 159.975 91.571C159.693 91.8171 159.424 92.0105 159.166 92.1511C158.92 92.28 158.691 92.3445 158.48 92.3445C158.281 92.3445 158.135 92.2859 158.041 92.1687C157.947 92.0398 157.9 91.8699 157.9 91.6589C157.9 91.448 157.924 91.1667 157.971 90.8152C158.029 90.4519 158.123 89.9832 158.252 89.4089C158.393 88.823 158.586 88.0906 158.832 87.2117H159.025C158.662 88.2312 158.229 89.1277 157.725 89.9011C157.232 90.6628 156.729 91.2605 156.213 91.6941C155.709 92.1277 155.252 92.3445 154.842 92.3445Z" fill="#9A9A9A"/>
<path d="M147.881 91.3601L147.74 91.2898C147.904 91.1609 148.062 91.073 148.215 91.0261C148.367 90.9675 148.514 90.9382 148.654 90.9382C148.795 90.9382 148.994 90.9617 149.252 91.0085C149.521 91.0554 149.803 91.114 150.096 91.1843C150.4 91.2429 150.67 91.2957 150.904 91.3425C151.139 91.3894 151.297 91.4128 151.379 91.4128C151.484 91.4128 151.572 91.3953 151.643 91.3601C151.725 91.3132 151.766 91.2371 151.766 91.1316C151.766 91.0378 151.725 90.9031 151.643 90.7273C151.561 90.5398 151.438 90.3347 151.273 90.1121C151.379 90.0183 151.49 89.9539 151.607 89.9187C151.725 89.8718 151.83 89.8484 151.924 89.8484C152.053 89.8484 152.193 89.9011 152.346 90.0066C152.498 90.1121 152.574 90.3054 152.574 90.5867C152.574 90.7976 152.521 91.0085 152.416 91.2195C152.311 91.4304 152.17 91.6179 151.994 91.782C151.83 91.946 151.654 92.0808 151.467 92.1863C151.291 92.2917 151.127 92.3445 150.975 92.3445C150.787 92.3445 150.541 92.3152 150.236 92.2566C149.932 92.2097 149.615 92.1511 149.287 92.0808C148.959 92.0105 148.654 91.9519 148.373 91.905C148.092 91.8464 147.898 91.8171 147.793 91.8171C147.605 91.8171 147.43 91.8582 147.266 91.9402C147.102 92.0222 146.938 92.157 146.773 92.3445L146.404 92.0281L151.66 85.5769L151.854 85.6472C151.76 85.7292 151.625 85.7937 151.449 85.8406C151.285 85.8757 151.086 85.8933 150.852 85.8933C150.723 85.8933 150.535 85.8757 150.289 85.8406C150.055 85.7937 149.809 85.7468 149.551 85.7C149.305 85.6414 149.076 85.5945 148.865 85.5593C148.654 85.5242 148.502 85.5066 148.408 85.5066C148.291 85.5066 148.197 85.5476 148.127 85.6296C148.068 85.7 148.039 85.7761 148.039 85.8582C148.039 85.9519 148.068 86.075 148.127 86.2273C148.197 86.3679 148.326 86.5847 148.514 86.8777C148.408 86.9714 148.297 87.0417 148.18 87.0886C148.074 87.1238 147.969 87.1414 147.863 87.1414C147.746 87.1414 147.611 87.0886 147.459 86.9832C147.307 86.866 147.23 86.6726 147.23 86.4031C147.23 86.1921 147.283 85.9812 147.389 85.7703C147.494 85.5593 147.629 85.366 147.793 85.1902C147.957 85.0027 148.133 84.8562 148.32 84.7507C148.508 84.6335 148.678 84.575 148.83 84.575C149.006 84.575 149.234 84.5984 149.516 84.6453C149.797 84.6921 150.09 84.7449 150.395 84.8035C150.711 84.8503 150.998 84.8972 151.256 84.9441C151.525 84.991 151.73 85.0144 151.871 85.0144C152.059 85.0144 152.217 84.9851 152.346 84.9265C152.475 84.8562 152.615 84.739 152.768 84.575L153.137 84.9089L147.881 91.3601Z" fill="#9A9A9A"/>
<path d="M140.059 92.3445C139.684 92.3445 139.391 92.1863 139.18 91.8699C138.98 91.5417 138.881 91.1199 138.881 90.6042C138.881 89.7722 139.016 88.9929 139.285 88.2664C139.555 87.5398 139.912 86.9011 140.357 86.3503C140.803 85.7878 141.289 85.3484 141.816 85.032C142.355 84.7156 142.877 84.5574 143.381 84.5574C143.686 84.5574 143.949 84.6335 144.172 84.7859C144.395 84.9265 144.623 85.1257 144.857 85.3835L144.576 85.946C144.377 85.7351 144.143 85.5828 143.873 85.489C143.604 85.3835 143.328 85.3308 143.047 85.3308C142.672 85.3308 142.309 85.4714 141.957 85.7527C141.605 86.0222 141.295 86.3914 141.025 86.8601C140.756 87.3171 140.539 87.8503 140.375 88.4597C140.223 89.0574 140.146 89.6843 140.146 90.3406C140.146 90.6687 140.176 90.9207 140.234 91.0964C140.305 91.2722 140.422 91.3601 140.586 91.3601C140.785 91.3601 141.037 91.2136 141.342 90.9207C141.658 90.6277 141.998 90.2234 142.361 89.7078C142.736 89.1921 143.1 88.5945 143.451 87.9148C143.803 87.2351 144.107 86.4968 144.365 85.7L144.523 85.3132L145.191 84.698H145.754C145.543 85.366 145.344 86.0457 145.156 86.7371C144.969 87.4167 144.805 88.073 144.664 88.7058C144.535 89.3269 144.43 89.8777 144.348 90.3582C144.266 90.8386 144.225 91.2136 144.225 91.4832C144.494 91.3425 144.746 91.1667 144.98 90.9558C145.215 90.7449 145.449 90.4929 145.684 90.2L146.07 90.6746C145.777 91.0261 145.484 91.325 145.191 91.571C144.91 91.8171 144.641 92.0105 144.383 92.1511C144.137 92.28 143.908 92.3445 143.697 92.3445C143.498 92.3445 143.352 92.2859 143.258 92.1687C143.164 92.0398 143.117 91.8699 143.117 91.6589C143.117 91.448 143.141 91.1667 143.188 90.8152C143.246 90.4519 143.34 89.9832 143.469 89.4089C143.609 88.823 143.803 88.0906 144.049 87.2117H144.242C143.879 88.2312 143.445 89.1277 142.941 89.9011C142.449 90.6628 141.945 91.2605 141.43 91.6941C140.926 92.1277 140.469 92.3445 140.059 92.3445Z" fill="#9A9A9A"/>
<path d="M138.072 85.7527C137.814 85.7527 137.562 85.8875 137.316 86.157C137.07 86.4265 136.83 86.7781 136.596 87.2117C136.373 87.6335 136.15 88.0906 135.928 88.5828C135.611 89.2625 135.342 89.9421 135.119 90.6218C134.896 91.2898 134.744 91.8171 134.662 92.2039H133.502C133.701 91.5359 133.889 90.8562 134.064 90.1648C134.252 89.4734 134.416 88.8171 134.557 88.196C134.697 87.575 134.809 87.0183 134.891 86.5261C134.973 86.0339 135.014 85.6589 135.014 85.4011C134.744 85.5417 134.492 85.7234 134.258 85.946C134.023 86.157 133.789 86.4324 133.555 86.7722L133.168 86.2273C133.461 85.8757 133.748 85.5769 134.029 85.3308C134.322 85.073 134.592 84.8796 134.838 84.7507C135.096 84.6218 135.324 84.5574 135.523 84.5574C135.699 84.5574 135.828 84.616 135.91 84.7332C136.004 84.8503 136.051 85.0203 136.051 85.2429C136.051 85.4421 136.021 85.741 135.963 86.1394C135.916 86.5378 135.799 87.0945 135.611 87.8093C135.436 88.5242 135.154 89.4558 134.768 90.6042H134.68C135.102 89.4324 135.477 88.4597 135.805 87.6863C136.145 86.9011 136.449 86.28 136.719 85.823C137 85.366 137.275 85.0437 137.545 84.8562C137.814 84.657 138.102 84.5574 138.406 84.5574C138.641 84.5574 138.822 84.6218 138.951 84.7507C139.092 84.8679 139.162 85.032 139.162 85.2429C139.162 85.3718 139.139 85.5066 139.092 85.6472C139.045 85.7878 138.963 85.9285 138.846 86.0691C138.729 85.9519 138.6 85.8699 138.459 85.823C138.318 85.7761 138.189 85.7527 138.072 85.7527Z" fill="#9A9A9A"/>
<path d="M126.998 90.3406C126.998 90.7039 127.075 90.9851 127.227 91.1843C127.391 91.3835 127.625 91.4832 127.93 91.4832C128.446 91.4832 128.926 91.2722 129.371 90.8503C129.817 90.4167 130.18 89.8308 130.461 89.0925C130.754 88.3542 130.901 87.5105 130.901 86.5613C130.901 86.2332 130.86 85.9753 130.778 85.7878C130.696 85.6003 130.59 85.5066 130.461 85.5066C130.309 85.5066 130.092 85.6121 129.811 85.823C129.53 86.0222 129.225 86.2976 128.897 86.6492C128.58 87.0007 128.276 87.3933 127.983 87.8269C127.702 88.2488 127.467 88.6824 127.28 89.1277C127.092 89.5613 126.998 89.9656 126.998 90.3406ZM125.996 88.9695L127.789 81.3757L126.524 81.2L126.612 80.7429L128.914 80.0222L129.161 80.2507C129.09 80.5554 129.014 80.8601 128.932 81.1648C128.862 81.4695 128.791 81.7566 128.721 82.0261C128.662 82.2839 128.604 82.5183 128.545 82.7292L127.965 85.1023C127.789 85.8289 127.608 86.5203 127.42 87.1765C127.245 87.8328 127.01 88.5886 126.717 89.4441H126.594C126.993 88.3894 127.461 87.4988 128 86.7722C128.539 86.0457 129.073 85.4949 129.6 85.1199C130.139 84.7449 130.596 84.5574 130.971 84.5574C131.346 84.5574 131.639 84.7214 131.85 85.0496C132.061 85.366 132.166 85.782 132.166 86.2976C132.166 87.1062 132.02 87.8738 131.727 88.6003C131.434 89.3269 131.059 89.9714 130.602 90.5339C130.157 91.0964 129.682 91.5417 129.178 91.8699C128.674 92.1863 128.2 92.3445 127.754 92.3445C127.192 92.3445 126.752 92.2097 126.436 91.9402C126.12 91.6589 125.926 91.2664 125.856 90.7625C125.786 90.2468 125.832 89.6492 125.996 88.9695Z" fill="#9A9A9A"/>
<path d="M118.473 92.3445C118.098 92.3445 117.805 92.1863 117.594 91.8699C117.395 91.5417 117.295 91.1199 117.295 90.6042C117.295 89.7722 117.43 88.9929 117.699 88.2664C117.969 87.5398 118.326 86.9011 118.771 86.3503C119.217 85.7878 119.703 85.3484 120.23 85.032C120.77 84.7156 121.291 84.5574 121.795 84.5574C122.1 84.5574 122.363 84.6335 122.586 84.7859C122.809 84.9265 123.037 85.1257 123.271 85.3835L122.99 85.946C122.791 85.7351 122.557 85.5828 122.287 85.489C122.018 85.3835 121.742 85.3308 121.461 85.3308C121.086 85.3308 120.723 85.4714 120.371 85.7527C120.02 86.0222 119.709 86.3914 119.439 86.8601C119.17 87.3171 118.953 87.8503 118.789 88.4597C118.637 89.0574 118.561 89.6843 118.561 90.3406C118.561 90.6687 118.59 90.9207 118.648 91.0964C118.719 91.2722 118.836 91.3601 119 91.3601C119.199 91.3601 119.451 91.2136 119.756 90.9207C120.072 90.6277 120.412 90.2234 120.775 89.7078C121.15 89.1921 121.514 88.5945 121.865 87.9148C122.217 87.2351 122.521 86.4968 122.779 85.7L122.938 85.3132L123.605 84.698H124.168C123.957 85.366 123.758 86.0457 123.57 86.7371C123.383 87.4167 123.219 88.073 123.078 88.7058C122.949 89.3269 122.844 89.8777 122.762 90.3582C122.68 90.8386 122.639 91.2136 122.639 91.4832C122.908 91.3425 123.16 91.1667 123.395 90.9558C123.629 90.7449 123.863 90.4929 124.098 90.2L124.484 90.6746C124.191 91.0261 123.898 91.325 123.605 91.571C123.324 91.8171 123.055 92.0105 122.797 92.1511C122.551 92.28 122.322 92.3445 122.111 92.3445C121.912 92.3445 121.766 92.2859 121.672 92.1687C121.578 92.0398 121.531 91.8699 121.531 91.6589C121.531 91.448 121.555 91.1667 121.602 90.8152C121.66 90.4519 121.754 89.9832 121.883 89.4089C122.023 88.823 122.217 88.0906 122.463 87.2117H122.656C122.293 88.2312 121.859 89.1277 121.355 89.9011C120.863 90.6628 120.359 91.2605 119.844 91.6941C119.34 92.1277 118.883 92.3445 118.473 92.3445Z" fill="#9A9A9A"/>
<path d="M109.719 92.3445C109.062 92.3445 108.5 92.1101 108.031 91.6414C107.562 91.1609 107.328 90.5105 107.328 89.6902C107.328 89.0691 107.434 88.4539 107.645 87.8445C107.855 87.2351 108.143 86.6843 108.506 86.1921C108.881 85.6882 109.32 85.2898 109.824 84.9968C110.34 84.7039 110.896 84.5574 111.494 84.5574C112.045 84.5574 112.455 84.6921 112.725 84.9617C112.994 85.2195 113.129 85.5125 113.129 85.8406C113.129 86.1804 113.023 86.5027 112.812 86.8074C112.613 87.1121 112.309 87.4167 111.898 87.7214C111.488 88.0144 110.984 88.3074 110.387 88.6003C109.801 88.8816 109.121 89.1628 108.348 89.4441V88.741C109.109 88.448 109.754 88.1667 110.281 87.8972C110.82 87.616 111.23 87.323 111.512 87.0183C111.805 86.7019 111.951 86.3738 111.951 86.0339C111.951 85.7761 111.863 85.5828 111.688 85.4539C111.523 85.325 111.312 85.2605 111.055 85.2605C110.609 85.2605 110.193 85.4421 109.807 85.8054C109.432 86.157 109.127 86.6375 108.893 87.2468C108.67 87.8562 108.559 88.5593 108.559 89.3562C108.559 89.989 108.705 90.4871 108.998 90.8503C109.291 91.2019 109.672 91.3777 110.141 91.3777C110.422 91.3777 110.75 91.2839 111.125 91.0964C111.512 90.8972 111.875 90.5574 112.215 90.0769L112.602 90.6042C112.215 91.1433 111.764 91.571 111.248 91.8875C110.744 92.1921 110.234 92.3445 109.719 92.3445Z" fill="#9A9A9A"/>
<path d="M101.088 84.5574C101.287 84.5574 101.439 84.6218 101.545 84.7507C101.65 84.8679 101.703 85.032 101.703 85.2429C101.703 85.3953 101.65 85.6648 101.545 86.0515C101.451 86.4265 101.334 86.8601 101.193 87.3523C101.053 87.8445 100.912 88.3425 100.771 88.8464C100.631 89.3386 100.508 89.7839 100.402 90.1824C100.309 90.5691 100.262 90.8445 100.262 91.0085C100.262 91.114 100.291 91.2019 100.35 91.2722C100.408 91.3425 100.508 91.3777 100.648 91.3777C100.906 91.3777 101.193 91.2371 101.51 90.9558C101.826 90.6746 102.148 90.2996 102.477 89.8308C102.816 89.3621 103.139 88.8347 103.443 88.2488C103.748 87.6511 104.018 87.0476 104.252 86.4382C104.498 85.8289 104.686 85.2488 104.814 84.698H105.904C105.705 85.366 105.512 86.0457 105.324 86.7371C105.137 87.4167 104.973 88.073 104.832 88.7058C104.691 89.3269 104.58 89.8777 104.498 90.3582C104.416 90.8386 104.375 91.2136 104.375 91.4832C104.645 91.3425 104.891 91.1667 105.113 90.9558C105.348 90.7449 105.582 90.4929 105.816 90.2L106.221 90.6746C105.928 91.0261 105.635 91.325 105.342 91.571C105.061 91.8171 104.791 92.0105 104.533 92.1511C104.287 92.28 104.059 92.3445 103.848 92.3445C103.648 92.3445 103.496 92.28 103.391 92.1511C103.297 92.0222 103.25 91.8582 103.25 91.6589C103.25 91.448 103.279 91.1667 103.338 90.8152C103.396 90.4636 103.49 90.0007 103.619 89.4265C103.76 88.8406 103.953 88.1023 104.199 87.2117H104.393C104.182 87.7976 103.924 88.3953 103.619 89.0046C103.314 89.6023 102.975 90.1589 102.6 90.6746C102.236 91.1785 101.844 91.5828 101.422 91.8875C101.012 92.1921 100.59 92.3445 100.156 92.3445C99.8281 92.3445 99.5703 92.2507 99.3828 92.0632C99.207 91.8757 99.1191 91.6179 99.1191 91.2898C99.1191 91.1023 99.166 90.8152 99.2598 90.4285C99.3535 90.03 99.4707 89.5847 99.6113 89.0925C99.752 88.5886 99.8926 88.0906 100.033 87.5984C100.186 87.1062 100.309 86.6667 100.402 86.28C100.496 85.8816 100.543 85.5886 100.543 85.4011C100.285 85.5417 100.033 85.7234 99.7871 85.946C99.5527 86.157 99.3184 86.4324 99.084 86.7722L98.7148 86.2273C99.0078 85.8757 99.2949 85.5769 99.5762 85.3308C99.8574 85.073 100.127 84.8796 100.385 84.7507C100.654 84.6218 100.889 84.5574 101.088 84.5574Z" fill="#9A9A9A"/>
<path d="M97.6602 84.698C97.5547 85.0261 97.4551 85.3308 97.3613 85.6121C97.2793 85.8933 97.1973 86.1804 97.1152 86.4734C97.0449 86.7546 96.9688 87.071 96.8867 87.4226C96.8047 87.7625 96.7227 88.1667 96.6406 88.6355L95.832 92.6785C95.6797 93.4402 95.5684 94.0261 95.498 94.4363C95.4395 94.8582 95.3984 95.1453 95.375 95.2976L96.4121 95.5613L96.2539 96.071H92.7734L92.8438 95.5613L94.1621 95.2976C94.2207 95.0515 94.2852 94.741 94.3555 94.366C94.4258 94.0027 94.502 93.6277 94.584 93.241L94.9883 91.3074C95.0938 90.8152 95.2168 90.2585 95.3574 89.6375C95.498 89.0164 95.7031 88.2078 95.9727 87.2117H96.1484C95.7617 88.2312 95.3164 89.1277 94.8125 89.9011C94.3086 90.6628 93.7988 91.2605 93.2832 91.6941C92.7793 92.1277 92.334 92.3445 91.9473 92.3445C91.5488 92.3445 91.2441 92.1863 91.0332 91.8699C90.834 91.5417 90.7285 91.1199 90.7168 90.6042C90.7168 89.7957 90.8457 89.0281 91.1035 88.3015C91.373 87.575 91.7246 86.9304 92.1582 86.3679C92.5918 85.8054 93.0781 85.366 93.6172 85.0496C94.1562 84.7214 94.707 84.5574 95.2695 84.5574C95.5977 84.5574 95.8672 84.6335 96.0781 84.7859C96.3008 84.9265 96.5234 85.1257 96.7461 85.3835L96.4648 85.946C96.2773 85.7351 96.0488 85.5828 95.7793 85.489C95.5098 85.3835 95.2285 85.3308 94.9355 85.3308C94.5488 85.3308 94.1738 85.4714 93.8105 85.7527C93.459 86.0222 93.1426 86.3914 92.8613 86.8601C92.5918 87.3171 92.375 87.8503 92.2109 88.4597C92.0586 89.0574 91.9824 89.6843 91.9824 90.3406C91.9824 90.6804 92.0176 90.9382 92.0879 91.114C92.1582 91.2781 92.2637 91.3601 92.4043 91.3601C92.6152 91.3601 92.8848 91.2078 93.2129 90.9031C93.541 90.5984 93.8926 90.1882 94.2676 89.6726C94.6426 89.1453 95.0059 88.5417 95.3574 87.8621C95.7207 87.1824 96.0312 86.4617 96.2891 85.7L96.4297 85.3132L97.1152 84.698H97.6602Z" fill="#9A9A9A"/>
<path d="M83.4219 92.3445C83.082 92.3445 82.7598 92.2917 82.4551 92.1863C82.1621 92.0691 81.9219 91.9109 81.7344 91.7117C81.5586 91.5125 81.4707 91.3015 81.4707 91.0789C81.4707 90.9382 81.4941 90.8093 81.541 90.6921C81.5879 90.575 81.6582 90.4636 81.752 90.3582C82.0684 90.7449 82.4023 91.0437 82.7539 91.2546C83.1055 91.4539 83.4453 91.5535 83.7734 91.5535C84.1133 91.5535 84.3828 91.4656 84.582 91.2898C84.793 91.114 84.8984 90.8562 84.8984 90.5164C84.8984 90.3054 84.8281 90.0828 84.6875 89.8484C84.5586 89.614 84.3184 89.3328 83.9668 89.0046C83.5684 88.6179 83.2637 88.2957 83.0527 88.0378C82.8418 87.78 82.7012 87.5515 82.6309 87.3523C82.5605 87.1531 82.5254 86.9597 82.5254 86.7722C82.5254 86.3503 82.6367 85.9753 82.8594 85.6472C83.082 85.3191 83.3867 85.0554 83.7734 84.8562C84.1602 84.657 84.5996 84.5574 85.0918 84.5574C85.3496 84.5574 85.6074 84.5984 85.8652 84.6804C86.123 84.7507 86.334 84.8562 86.498 84.9968C86.6738 85.1257 86.7617 85.2898 86.7617 85.489C86.7617 85.6179 86.7383 85.7292 86.6914 85.823C86.6445 85.9167 86.5742 86.0164 86.4805 86.1218C86.2109 85.8523 85.918 85.6472 85.6016 85.5066C85.2852 85.366 84.9629 85.2957 84.6348 85.2957C84.2949 85.2957 84.0254 85.3953 83.8262 85.5945C83.627 85.7937 83.5273 86.0515 83.5273 86.3679C83.5273 86.5085 83.5566 86.655 83.6152 86.8074C83.6738 86.9597 83.7734 87.1296 83.9141 87.3171C84.0664 87.5046 84.2656 87.7214 84.5117 87.9675C84.8984 88.3425 85.1914 88.6589 85.3906 88.9167C85.5898 89.1628 85.7246 89.3796 85.7949 89.5671C85.8652 89.7546 85.9004 89.948 85.9004 90.1472C85.9004 90.5457 85.7832 90.9148 85.5488 91.2546C85.3145 91.5828 85.0039 91.8464 84.6172 92.0457C84.2422 92.2449 83.8438 92.3445 83.4219 92.3445Z" fill="#9A9A9A"/>
<path d="M77.8145 92.3445C77.1582 92.3445 76.5957 92.1101 76.127 91.6414C75.6582 91.1609 75.4238 90.5105 75.4238 89.6902C75.4238 89.0691 75.5293 88.4539 75.7402 87.8445C75.9512 87.2351 76.2383 86.6843 76.6016 86.1921C76.9766 85.6882 77.416 85.2898 77.9199 84.9968C78.4355 84.7039 78.9922 84.5574 79.5898 84.5574C80.1406 84.5574 80.5508 84.6921 80.8203 84.9617C81.0898 85.2195 81.2246 85.5125 81.2246 85.8406C81.2246 86.1804 81.1191 86.5027 80.9082 86.8074C80.709 87.1121 80.4043 87.4167 79.9941 87.7214C79.584 88.0144 79.0801 88.3074 78.4824 88.6003C77.8965 88.8816 77.2168 89.1628 76.4434 89.4441V88.741C77.2051 88.448 77.8496 88.1667 78.377 87.8972C78.916 87.616 79.3262 87.323 79.6074 87.0183C79.9004 86.7019 80.0469 86.3738 80.0469 86.0339C80.0469 85.7761 79.959 85.5828 79.7832 85.4539C79.6191 85.325 79.4082 85.2605 79.1504 85.2605C78.7051 85.2605 78.2891 85.4421 77.9023 85.8054C77.5273 86.157 77.2227 86.6375 76.9883 87.2468C76.7656 87.8562 76.6543 88.5593 76.6543 89.3562C76.6543 89.989 76.8008 90.4871 77.0938 90.8503C77.3867 91.2019 77.7676 91.3777 78.2363 91.3777C78.5176 91.3777 78.8457 91.2839 79.2207 91.0964C79.6074 90.8972 79.9707 90.5574 80.3105 90.0769L80.6973 90.6042C80.3105 91.1433 79.8594 91.571 79.3438 91.8875C78.8398 92.1921 78.3301 92.3445 77.8145 92.3445Z" fill="#9A9A9A"/>
<path d="M71.8379 92.3445C71.6387 92.3445 71.4863 92.2859 71.3809 92.1687C71.2871 92.0398 71.2402 91.8875 71.2402 91.7117C71.2402 91.5945 71.2578 91.4246 71.293 91.2019C71.3398 90.9675 71.4102 90.6453 71.5039 90.2351C71.6094 89.8132 71.7383 89.2742 71.8906 88.6179L73.5605 81.3757L72.2949 81.2L72.3828 80.7429L74.7031 80.0222L74.9492 80.2507C74.832 80.7195 74.709 81.2117 74.5801 81.7273C74.4512 82.2312 74.3047 82.8464 74.1406 83.573L72.7871 89.3035C72.7285 89.5378 72.6699 89.8015 72.6113 90.0945C72.5527 90.3757 72.5 90.6453 72.4531 90.9031C72.4062 91.1492 72.377 91.3425 72.3652 91.4832C72.6348 91.3425 72.8867 91.1667 73.1211 90.9558C73.3555 90.7449 73.5898 90.4929 73.8242 90.2L74.2109 90.6746C73.918 91.0261 73.6309 91.325 73.3496 91.571C73.0684 91.8171 72.7988 92.0105 72.541 92.1511C72.2832 92.28 72.0488 92.3445 71.8379 92.3445Z" fill="#9A9A9A"/>
<path d="M67.6016 92.3445C67.4023 92.3445 67.25 92.2859 67.1445 92.1687C67.0508 92.0398 67.0039 91.8875 67.0039 91.7117C67.0039 91.5945 67.0215 91.4246 67.0566 91.2019C67.1035 90.9675 67.1738 90.6453 67.2676 90.2351C67.373 89.8132 67.502 89.2742 67.6543 88.6179L69.3242 81.3757L68.0586 81.2L68.1465 80.7429L70.4668 80.0222L70.7129 80.2507C70.5957 80.7195 70.4727 81.2117 70.3438 81.7273C70.2148 82.2312 70.0684 82.8464 69.9043 83.573L68.5508 89.3035C68.4922 89.5378 68.4336 89.8015 68.375 90.0945C68.3164 90.3757 68.2637 90.6453 68.2168 90.9031C68.1699 91.1492 68.1406 91.3425 68.1289 91.4832C68.3984 91.3425 68.6504 91.1667 68.8848 90.9558C69.1191 90.7449 69.3535 90.4929 69.5879 90.2L69.9746 90.6746C69.6816 91.0261 69.3945 91.325 69.1133 91.571C68.832 91.8171 68.5625 92.0105 68.3047 92.1511C68.0469 92.28 67.8125 92.3445 67.6016 92.3445Z" fill="#9A9A9A"/>
<path d="M59.8496 92.3445C59.4746 92.3445 59.1816 92.1863 58.9707 91.8699C58.7715 91.5417 58.6719 91.1199 58.6719 90.6042C58.6719 89.7722 58.8066 88.9929 59.0762 88.2664C59.3457 87.5398 59.7031 86.9011 60.1484 86.3503C60.5938 85.7878 61.0801 85.3484 61.6074 85.032C62.1465 84.7156 62.668 84.5574 63.1719 84.5574C63.4766 84.5574 63.7402 84.6335 63.9629 84.7859C64.1855 84.9265 64.4141 85.1257 64.6484 85.3835L64.3672 85.946C64.168 85.7351 63.9336 85.5828 63.6641 85.489C63.3945 85.3835 63.1191 85.3308 62.8379 85.3308C62.4629 85.3308 62.0996 85.4714 61.748 85.7527C61.3965 86.0222 61.0859 86.3914 60.8164 86.8601C60.5469 87.3171 60.3301 87.8503 60.166 88.4597C60.0137 89.0574 59.9375 89.6843 59.9375 90.3406C59.9375 90.6687 59.9668 90.9207 60.0254 91.0964C60.0957 91.2722 60.2129 91.3601 60.377 91.3601C60.5762 91.3601 60.8281 91.2136 61.1328 90.9207C61.4492 90.6277 61.7891 90.2234 62.1523 89.7078C62.5273 89.1921 62.8906 88.5945 63.2422 87.9148C63.5938 87.2351 63.8984 86.4968 64.1562 85.7L64.3145 85.3132L64.9824 84.698H65.5449C65.334 85.366 65.1348 86.0457 64.9473 86.7371C64.7598 87.4167 64.5957 88.073 64.4551 88.7058C64.3262 89.3269 64.2207 89.8777 64.1387 90.3582C64.0566 90.8386 64.0156 91.2136 64.0156 91.4832C64.2852 91.3425 64.5371 91.1667 64.7715 90.9558C65.0059 90.7449 65.2402 90.4929 65.4746 90.2L65.8613 90.6746C65.5684 91.0261 65.2754 91.325 64.9824 91.571C64.7012 91.8171 64.4316 92.0105 64.1738 92.1511C63.9277 92.28 63.6992 92.3445 63.4883 92.3445C63.2891 92.3445 63.1426 92.2859 63.0488 92.1687C62.9551 92.0398 62.9082 91.8699 62.9082 91.6589C62.9082 91.448 62.9316 91.1667 62.9785 90.8152C63.0371 90.4519 63.1309 89.9832 63.2598 89.4089C63.4004 88.823 63.5938 88.0906 63.8398 87.2117H64.0332C63.6699 88.2312 63.2363 89.1277 62.7324 89.9011C62.2402 90.6628 61.7363 91.2605 61.2207 91.6941C60.7168 92.1277 60.2598 92.3445 59.8496 92.3445Z" fill="#9A9A9A"/>
<path d="M57.7402 90.3406C57.1895 91.1375 56.6738 91.6707 56.1934 91.9402C55.7129 92.2097 55.3086 92.3445 54.9805 92.3445C54.6289 92.3445 54.3535 92.239 54.1543 92.0281C53.9551 91.8171 53.8555 91.5417 53.8555 91.2019C53.8555 91.073 53.8672 90.9324 53.8906 90.78C53.9141 90.616 53.9551 90.4109 54.0137 90.1648L55.1035 85.5417H53.873L53.9434 85.2253L56.4746 83.2214H56.7383L56.2637 85.1375L55.1387 90.0417C55.0918 90.2527 55.0566 90.4226 55.0332 90.5515C55.0098 90.6687 54.998 90.7859 54.998 90.9031C54.998 91.2429 55.1504 91.4128 55.4551 91.4128C55.6309 91.4128 55.877 91.3015 56.1934 91.0789C56.5215 90.8445 56.9141 90.4226 57.3711 89.8132L57.7402 90.3406ZM55.6484 85.5417L55.8418 84.7332H58.2852L58.127 85.5417H55.6484Z" fill="#9A9A9A"/>
<path d="M49.3379 92.3445C48.6816 92.3445 48.1191 92.1101 47.6504 91.6414C47.1816 91.1609 46.9473 90.5105 46.9473 89.6902C46.9473 89.0691 47.0527 88.4539 47.2637 87.8445C47.4746 87.2351 47.7617 86.6843 48.125 86.1921C48.5 85.6882 48.9395 85.2898 49.4434 84.9968C49.959 84.7039 50.5156 84.5574 51.1133 84.5574C51.6641 84.5574 52.0742 84.6921 52.3438 84.9617C52.6133 85.2195 52.748 85.5125 52.748 85.8406C52.748 86.1804 52.6426 86.5027 52.4316 86.8074C52.2324 87.1121 51.9277 87.4167 51.5176 87.7214C51.1074 88.0144 50.6035 88.3074 50.0059 88.6003C49.4199 88.8816 48.7402 89.1628 47.9668 89.4441V88.741C48.7285 88.448 49.373 88.1667 49.9004 87.8972C50.4395 87.616 50.8496 87.323 51.1309 87.0183C51.4238 86.7019 51.5703 86.3738 51.5703 86.0339C51.5703 85.7761 51.4824 85.5828 51.3066 85.4539C51.1426 85.325 50.9316 85.2605 50.6738 85.2605C50.2285 85.2605 49.8125 85.4421 49.4258 85.8054C49.0508 86.157 48.7461 86.6375 48.5117 87.2468C48.2891 87.8562 48.1777 88.5593 48.1777 89.3562C48.1777 89.989 48.3242 90.4871 48.6172 90.8503C48.9102 91.2019 49.291 91.3777 49.7598 91.3777C50.041 91.3777 50.3691 91.2839 50.7441 91.0964C51.1309 90.8972 51.4941 90.5574 51.834 90.0769L52.2207 90.6042C51.834 91.1433 51.3828 91.571 50.8672 91.8875C50.3633 92.1921 49.8535 92.3445 49.3379 92.3445Z" fill="#9A9A9A"/>
<path d="M36.7871 81.8855H40.584C42.2012 81.8855 43.4609 82.2253 44.3633 82.905C45.2656 83.573 45.7168 84.5691 45.7168 85.8933C45.7168 86.7488 45.5469 87.5574 45.207 88.3191C44.8789 89.0808 44.416 89.7546 43.8184 90.3406C43.2324 90.9265 42.541 91.3835 41.7441 91.7117C40.9473 92.0398 40.0859 92.2039 39.1602 92.2039H34.6074L34.7129 91.6062L35.8203 91.3601C35.8789 91.1843 35.9609 90.8796 36.0664 90.446C36.1719 90.0007 36.2832 89.4734 36.4004 88.864L37.1387 85.3484C37.3145 84.5281 37.4375 83.9246 37.5078 83.5378C37.5781 83.1511 37.6191 82.8816 37.6309 82.7292L36.6113 82.4832L36.7871 81.8855ZM38.9844 82.7644C38.9375 82.9285 38.8613 83.2039 38.7559 83.5906C38.6621 83.9656 38.5332 84.5457 38.3691 85.3308L37.6309 88.864C37.5488 89.2273 37.4785 89.5496 37.4199 89.8308C37.373 90.1121 37.332 90.364 37.2969 90.5867C37.2617 90.8093 37.2266 91.0144 37.1914 91.2019C37.5898 91.2488 37.9473 91.2898 38.2637 91.325C38.5918 91.3484 38.9551 91.3601 39.3535 91.3601C40.3379 91.3601 41.1934 91.1433 41.9199 90.7097C42.6465 90.2644 43.209 89.6375 43.6074 88.8289C44.0176 88.0203 44.2227 87.0828 44.2227 86.0164C44.2227 84.8562 43.9004 84.0066 43.2559 83.4675C42.623 82.9167 41.6797 82.6414 40.4258 82.6414C40.2031 82.6414 39.9805 82.6531 39.7578 82.6765C39.5352 82.6882 39.2773 82.7175 38.9844 82.7644Z" fill="#9A9A9A"/>
</svg>
