<svg width="205" height="75" viewBox="0 0 205 75" fill="none" xmlns="http://www.w3.org/2000/svg">
<path d="M94.3769 39.0011C93.9815 39.2798 93.5204 39.4124 93.0628 39.4083C92.4251 39.4441 91.779 39.2138 91.3079 38.7253L91.2161 38.6238L82.1195 27.9755L83.8362 26.5089L92.9297 37.1536C92.9315 37.1538 92.9341 37.1543 92.9365 37.1542L93.0096 37.1495L93.0823 37.1504L103.532 28.2237C106.159 25.9791 106.541 22.0823 104.456 19.3748L104.247 19.1167C102.096 16.5985 98.4241 16.1421 95.7407 17.946L94.2598 18.9414L92.9489 17.7301C90.6966 15.649 87.2301 15.4752 84.7738 17.3813L84.5392 17.5727C81.8776 19.8465 81.563 23.8475 83.8362 26.5089L82.1195 27.9755C79.0361 24.3657 79.4631 18.9397 83.0727 15.856C86.4195 12.9969 91.3261 13.1566 94.4812 16.0717C98.105 13.6356 103.059 14.2498 105.963 17.6502C109.09 21.3107 108.659 26.8132 104.998 29.9404L94.5421 38.8728L94.3769 39.0011Z" fill="#2C2320"/>
<path d="M114.926 38.765C114.512 39.2888 113.892 39.5502 113.272 39.5319C112.813 39.5427 112.346 39.4002 111.957 39.093L101.998 31.2246L103.398 29.453L113.254 37.2397L120.845 27.6315C122.711 25.2699 122.379 21.8757 120.14 19.9146L119.918 19.7293C117.66 17.9454 114.455 18.1699 112.466 20.152L111.201 21.4127L109.684 20.4727C107.419 19.0702 104.433 19.5024 102.662 21.5396L102.493 21.7415C100.614 24.1206 101.019 27.5735 103.398 29.453L101.998 31.2246C98.6407 28.5719 98.0693 23.6993 100.722 20.3418C103.187 17.2211 107.57 16.508 110.872 18.5528C113.661 15.773 118.151 15.456 121.318 17.9577C124.734 20.657 125.315 25.6148 122.616 29.0312L114.926 38.765Z" fill="#CFA417"/>
<path d="M99.8233 6.79791C99.8233 4.291 97.7911 2.25806 95.2842 2.25783C92.7772 2.25783 90.7442 4.29086 90.7442 6.79791C90.7444 9.30477 92.7773 11.337 95.2842 11.337V13.5948L94.9337 13.5861C91.4582 13.4097 88.6714 10.623 88.4951 7.14752L88.4863 6.79791C88.4863 3.04377 91.5301 0 95.2842 0L95.6339 0.00878914C99.2253 0.190967 102.081 3.16116 102.081 6.79791L102.072 7.14752C101.89 10.7389 98.9208 13.5946 95.2842 13.5948V11.337C97.791 11.3368 99.8231 9.30462 99.8233 6.79791Z" fill="#2C2320"/>
<path d="M113.686 10.3081C113.685 8.16003 111.944 6.41846 109.796 6.41846C107.648 6.41855 105.906 8.16008 105.906 10.3081C105.906 12.4562 107.648 14.1977 109.796 14.1978V16.4556C106.401 16.4555 103.648 13.7033 103.648 10.3081C103.649 6.913 106.401 4.16073 109.796 4.16064C113.191 4.16064 115.943 6.91294 115.943 10.3081C115.943 13.7033 113.191 16.4556 109.796 16.4556V14.1978C111.944 14.1978 113.686 12.4563 113.686 10.3081Z" fill="#CFA417"/>
<rect x="103.078" y="28.5994" width="2.25612" height="2.88639" transform="rotate(49.4479 103.078 28.5994)" fill="#2C2320"/>
<path d="M195.121 73.695L195.039 72.1814L197.779 71.6088C197.807 71.4997 197.82 71.3088 197.82 71.0361C197.848 70.7634 197.875 70.3271 197.902 69.7271C197.929 69.1272 197.943 68.2954 197.943 67.2319V64.5321C197.943 63.414 197.916 62.3914 197.861 61.4642C197.807 60.537 197.738 59.8143 197.657 59.2962L194.916 58.7235V57.3736L200.725 55.8601L201.338 56.4328C201.256 57.2782 201.188 58.1099 201.134 58.928C201.106 59.7461 201.093 60.7006 201.093 61.7914V66.9455C201.093 68.2 201.106 69.2362 201.134 70.0544C201.188 70.8725 201.243 71.3906 201.297 71.6088L204.038 72.1814L203.956 73.695H195.121ZM199.538 51.2378C198.857 51.2378 198.257 51.006 197.739 50.5424C197.248 50.0788 197.002 49.5061 197.002 48.8243C197.002 48.1426 197.248 47.5699 197.739 47.1063C198.257 46.6427 198.857 46.4109 199.538 46.4109C200.247 46.4109 200.834 46.6427 201.297 47.1063C201.761 47.5699 201.993 48.1426 201.993 48.8243C201.993 49.5061 201.761 50.0788 201.297 50.5424C200.834 51.006 200.247 51.2378 199.538 51.2378Z" fill="#2C2320"/>
<path d="M182.643 74.0222C181.552 74.0222 180.584 73.8041 179.739 73.3678C178.893 72.9314 178.225 72.3724 177.734 71.6906C177.271 71.0089 177.039 70.2998 177.039 69.5635C177.039 68.6363 177.339 67.8728 177.939 67.2728C178.539 66.6729 179.521 66.1547 180.884 65.7184L187.102 63.6322V61.546C187.102 60.8643 186.897 60.2507 186.488 59.7053C186.079 59.1326 185.534 58.6826 184.852 58.3554C184.17 58.0281 183.407 57.8645 182.561 57.8645C181.88 57.8645 181.416 58.0145 181.171 58.3145C180.925 58.5872 180.775 59.1462 180.721 59.9916L180.639 61.7096C179.657 61.9278 178.825 61.9005 178.144 61.6278C177.462 61.3279 177.121 60.8506 177.121 60.1961C177.121 59.7325 177.312 59.2689 177.694 58.8053C178.103 58.3417 178.634 57.9054 179.289 57.4964C179.943 57.06 180.652 56.6919 181.416 56.3919C182.18 56.0919 182.929 55.8874 183.666 55.7783C185.684 55.7783 187.293 56.3101 188.493 57.3736C189.72 58.4372 190.347 59.828 190.374 61.546L190.292 68.4182C190.292 68.9363 190.306 69.4408 190.333 69.9317C190.388 70.4225 190.456 70.7907 190.538 71.0361L193.156 71.527V72.7951L191.152 73.5314C190.77 73.6677 190.415 73.7768 190.088 73.8586C189.761 73.9677 189.488 74.0222 189.27 74.0222C188.424 74.0222 187.879 73.545 187.634 72.5905L187.184 70.9952H187.797C186.897 72.0042 186.025 72.7678 185.179 73.2859C184.361 73.7768 183.516 74.0222 182.643 74.0222ZM183.748 71.6088C184.375 71.6088 184.961 71.4725 185.507 71.1997C186.052 70.8998 186.584 70.4498 187.102 69.8499V65.5548L182.52 66.7819C181.866 66.9456 181.389 67.2046 181.089 67.5591C180.816 67.9137 180.68 68.3636 180.68 68.909C180.68 69.5908 180.98 70.218 181.58 70.7907C182.207 71.3361 182.929 71.6088 183.748 71.6088Z" fill="#2C2320"/>
<path d="M153.396 73.695L153.314 72.2224L155.85 71.6088C155.877 71.4179 155.891 71.1588 155.891 70.8316C155.918 70.5044 155.946 70.0544 155.973 69.4817C156 68.909 156.014 68.1591 156.014 67.2319L156.055 64.0822C156.055 63.1822 156.014 62.296 155.932 61.4233C155.877 60.5234 155.809 59.8143 155.727 59.2962L153.109 58.7235V57.3736L158.591 55.8601L159.286 56.5146L159.082 58.6826L159.204 58.7235C160.159 57.6873 161.1 56.9373 162.027 56.4737C162.954 56.0101 163.963 55.7783 165.054 55.7783C166.063 55.7783 167.004 56.0374 167.876 56.5555C168.776 57.0464 169.499 57.81 170.044 58.8462C170.617 59.8825 170.903 61.2051 170.903 62.8141V67.3546C170.903 68.3364 170.917 69.2226 170.944 70.0135C170.999 70.8043 171.067 71.3361 171.149 71.6088L173.685 72.2224L173.562 73.695H165.34L165.258 72.2224L167.631 71.6088C167.658 71.3906 167.685 71.1179 167.713 70.7907C167.74 70.4634 167.754 70.0544 167.754 69.5635C167.781 69.0454 167.795 68.4045 167.795 67.641V63.2231C167.795 61.996 167.576 61.0279 167.14 60.3188C166.731 59.5825 166.213 59.0644 165.586 58.7644C164.958 58.4372 164.318 58.2736 163.663 58.2736C162.763 58.2736 161.918 58.5054 161.127 58.969C160.363 59.4053 159.709 60.0189 159.163 60.8097V66.9456C159.163 68.2 159.177 69.2226 159.204 70.0135C159.259 70.7771 159.313 71.3088 159.368 71.6088L161.904 72.2224L161.781 73.695H153.396Z" fill="#2C2320"/>
<path d="M140.756 74.0222C139.666 74.0222 138.697 73.8041 137.852 73.3678C137.007 72.9314 136.339 72.3724 135.848 71.6906C135.384 71.0089 135.152 70.2998 135.152 69.5635C135.152 68.6363 135.452 67.8728 136.052 67.2728C136.652 66.6729 137.634 66.1547 138.997 65.7184L145.215 63.6322V61.546C145.215 60.8643 145.011 60.2507 144.602 59.7053C144.192 59.1326 143.647 58.6826 142.965 58.3554C142.284 58.0281 141.52 57.8645 140.675 57.8645C139.993 57.8645 139.529 58.0145 139.284 58.3145C139.038 58.5872 138.888 59.1462 138.834 59.9916L138.752 61.7096C137.77 61.9278 136.939 61.9005 136.257 61.6278C135.575 61.3279 135.234 60.8506 135.234 60.1961C135.234 59.7325 135.425 59.2689 135.807 58.8053C136.216 58.3417 136.748 57.9054 137.402 57.4964C138.057 57.06 138.766 56.6919 139.529 56.3919C140.293 56.0919 141.043 55.8874 141.779 55.7783C143.797 55.7783 145.406 56.3101 146.606 57.3736C147.833 58.4372 148.46 59.828 148.488 61.546L148.406 68.4182C148.406 68.9363 148.419 69.4408 148.447 69.9317C148.501 70.4225 148.569 70.7907 148.651 71.0361L151.269 71.527V72.7951L149.265 73.5314C148.883 73.6677 148.528 73.7768 148.201 73.8586C147.874 73.9677 147.601 74.0222 147.383 74.0222C146.538 74.0222 145.992 73.545 145.747 72.5905L145.297 70.9952H145.911C145.011 72.0042 144.138 72.7678 143.293 73.2859C142.474 73.7768 141.629 74.0222 140.756 74.0222ZM141.861 71.6088C142.488 71.6088 143.074 71.4725 143.62 71.1997C144.165 70.8998 144.697 70.4498 145.215 69.8499V65.5548L140.634 66.7819C139.979 66.9456 139.502 67.2046 139.202 67.5591C138.929 67.9137 138.793 68.3636 138.793 68.909C138.793 69.5908 139.093 70.218 139.693 70.7907C140.32 71.3361 141.043 71.6088 141.861 71.6088Z" fill="#2C2320"/>
<path d="M126.112 67.8455V58.6826C126.112 57.0736 126.098 55.7919 126.071 54.8375C126.044 53.8557 126.016 53.1331 125.989 52.6695C125.962 52.1786 125.934 51.8923 125.907 51.8104L123.126 51.2378L123.248 49.6833H131.02L131.143 51.2378L128.607 51.8104C128.607 51.8923 128.58 52.1786 128.525 52.6695C128.498 53.1331 128.471 53.8557 128.443 54.8375C128.416 55.7919 128.402 57.0736 128.402 58.6826V68.4181C128.402 69.2635 128.402 70.1498 128.402 71.077C128.402 71.9769 128.416 72.9041 128.443 73.8586H126.603L111.549 53.6103H112.449V64.573C112.449 66.2092 112.463 67.5318 112.49 68.5409C112.517 69.5226 112.545 70.2453 112.572 70.7089C112.627 71.1724 112.667 71.4588 112.695 71.5679L115.476 72.1406L115.354 73.695H107.5L107.377 72.1406L109.872 71.5679C109.899 71.4588 109.927 71.1724 109.954 70.7089C110.009 70.2453 110.049 69.5226 110.077 68.5409C110.104 67.5318 110.118 66.2092 110.118 64.573V57.5781C110.118 56.351 110.104 55.342 110.077 54.5511C110.049 53.7603 110.022 53.1467 109.995 52.7104C109.968 52.274 109.927 51.9741 109.872 51.8104L107.377 51.2378L107.5 49.6833H113.104L126.848 67.8455H126.112Z" fill="#2C2320"/>
<path d="M87.7436 73.695L87.6618 72.1814L90.4025 71.6088C90.4297 71.4997 90.4434 71.3088 90.4434 71.0361C90.4706 70.7634 90.4979 70.3271 90.5252 69.7271C90.5524 69.1272 90.5661 68.2954 90.5661 67.2319V64.5321C90.5661 63.414 90.5388 62.3914 90.4843 61.4642C90.4297 60.537 90.3616 59.8143 90.2797 59.2962L87.5391 58.7235V57.3736L93.3477 55.8601L93.9612 56.4328C93.8794 57.2782 93.8113 58.1099 93.7567 58.928C93.7294 59.7461 93.7158 60.7006 93.7158 61.7914V66.9455C93.7158 68.2 93.7294 69.2362 93.7567 70.0544C93.8113 70.8725 93.8658 71.3906 93.9203 71.6088L96.661 72.1814L96.5792 73.695H87.7436ZM92.1614 51.2378C91.4796 51.2378 90.8797 51.006 90.3615 50.5424C89.8707 50.0788 89.6252 49.5061 89.6252 48.8243C89.6252 48.1426 89.8707 47.5699 90.3615 47.1063C90.8797 46.6427 91.4796 46.4109 92.1614 46.4109C92.8704 46.4109 93.4567 46.6427 93.9203 47.1063C94.3839 47.5699 94.6157 48.1426 94.6157 48.8243C94.6157 49.5061 94.3839 50.0788 93.9203 50.5424C93.4567 51.006 92.8704 51.2378 92.1614 51.2378Z" fill="#2C2320"/>
<path d="M75.2662 74.0222C74.1754 74.0222 73.2073 73.8041 72.3619 73.3678C71.5165 72.9314 70.8484 72.3724 70.3575 71.6906C69.8939 71.0089 69.6621 70.2998 69.6621 69.5635C69.6621 68.6363 69.9621 67.8728 70.562 67.2728C71.162 66.6729 72.1437 66.1547 73.5072 65.7184L79.7249 63.6322V61.546C79.7249 60.8643 79.5204 60.2507 79.1113 59.7053C78.7023 59.1326 78.1568 58.6826 77.4751 58.3554C76.7933 58.0281 76.0298 57.8645 75.1844 57.8645C74.5026 57.8645 74.039 58.0145 73.7936 58.3145C73.5481 58.5872 73.3982 59.1462 73.3436 59.9916L73.2618 61.7096C72.2801 61.9278 71.4483 61.9005 70.7666 61.6278C70.0848 61.3279 69.7439 60.8506 69.7439 60.1961C69.7439 59.7325 69.9348 59.2689 70.3166 58.8053C70.7257 58.3417 71.2574 57.9054 71.9119 57.4964C72.5664 57.06 73.2754 56.6919 74.039 56.3919C74.8026 56.0919 75.5525 55.8874 76.2888 55.7783C78.3068 55.7783 79.9158 56.3101 81.1157 57.3736C82.3429 58.4372 82.9701 59.828 82.9973 61.546L82.9155 68.4182C82.9155 68.9363 82.9292 69.4408 82.9564 69.9317C83.011 70.4225 83.0792 70.7907 83.161 71.0361L85.7789 71.527V72.7951L83.7746 73.5314C83.3928 73.6677 83.0383 73.7768 82.711 73.8586C82.3838 73.9677 82.1111 74.0222 81.8929 74.0222C81.0475 74.0222 80.5021 73.545 80.2567 72.5905L79.8067 70.9952H80.4203C79.5204 72.0042 78.6477 72.7678 77.8023 73.2859C76.9842 73.7768 76.1388 74.0222 75.2662 74.0222ZM76.3706 71.6088C76.9979 71.6088 77.5842 71.4725 78.1296 71.1997C78.675 70.8998 79.2068 70.4498 79.7249 69.8499V65.5548L75.1435 66.7819C74.489 66.9456 74.0117 67.2046 73.7118 67.5591C73.4391 67.9137 73.3027 68.3636 73.3027 68.909C73.3027 69.5908 73.6027 70.218 74.2026 70.7907C74.8299 71.3361 75.5525 71.6088 76.3706 71.6088Z" fill="#2C2320"/>
<path d="M46.0188 73.695L45.9369 72.2224L48.4731 71.6088C48.5004 71.4179 48.514 71.1588 48.514 70.8316C48.5413 70.5044 48.5685 70.0544 48.5958 69.4817C48.6231 68.909 48.6367 68.1591 48.6367 67.2319L48.6776 64.0822C48.6776 63.1822 48.6367 62.296 48.5549 61.4233C48.5004 60.5234 48.4322 59.8143 48.3504 59.2962L45.7324 58.7235V57.3736L51.2138 55.8601L51.9092 56.5146L51.7046 58.6826L51.8274 58.7235C52.7818 57.6873 53.7227 56.9373 54.6499 56.4737C55.577 56.0101 56.5861 55.7783 57.6769 55.7783C58.6859 55.7783 59.6267 56.0374 60.4994 56.5555C61.3993 57.0464 62.122 57.81 62.6674 58.8462C63.24 59.8825 63.5264 61.2051 63.5264 62.8141V67.3546C63.5264 68.3364 63.54 69.2226 63.5673 70.0135C63.6218 70.8043 63.69 71.3361 63.7718 71.6088L66.308 72.2224L66.1852 73.695H57.9632L57.8814 72.2224L60.2539 71.6088C60.2812 71.3906 60.3085 71.1179 60.3357 70.7907C60.363 70.4634 60.3766 70.0544 60.3766 69.5635C60.4039 69.0454 60.4175 68.4045 60.4175 67.641V63.2231C60.4175 61.996 60.1994 61.0279 59.7631 60.3188C59.354 59.5825 58.8359 59.0644 58.2086 58.7644C57.5814 58.4372 56.9406 58.2736 56.2861 58.2736C55.3862 58.2736 54.5408 58.5054 53.7499 58.969C52.9864 59.4053 52.3319 60.0189 51.7865 60.8097V66.9456C51.7865 68.2 51.8001 69.2226 51.8274 70.0135C51.8819 70.7771 51.9364 71.3088 51.991 71.6088L54.5271 72.2224L54.4044 73.695H46.0188Z" fill="#2C2320"/>
<path d="M33.3795 74.0222C32.2886 74.0222 31.3205 73.8041 30.4752 73.3678C29.6298 72.9314 28.9617 72.3724 28.4708 71.6906C28.0072 71.0089 27.7754 70.2998 27.7754 69.5635C27.7754 68.6363 28.0754 67.8728 28.6753 67.2728C29.2753 66.6729 30.257 66.1547 31.6205 65.7184L37.8382 63.6322V61.546C37.8382 60.8643 37.6337 60.2507 37.2246 59.7053C36.8155 59.1326 36.2701 58.6826 35.5884 58.3554C34.9066 58.0281 34.143 57.8645 33.2977 57.8645C32.6159 57.8645 32.1523 58.0145 31.9069 58.3145C31.6614 58.5872 31.5114 59.1462 31.4569 59.9916L31.3751 61.7096C30.3934 61.9278 29.5616 61.9005 28.8798 61.6278C28.1981 61.3279 27.8572 60.8506 27.8572 60.1961C27.8572 59.7325 28.0481 59.2689 28.4299 58.8053C28.8389 58.3417 29.3707 57.9054 30.0252 57.4964C30.6797 57.06 31.3887 56.6919 32.1523 56.3919C32.9159 56.0919 33.6658 55.8874 34.4021 55.7783C36.4201 55.7783 38.0291 56.3101 39.229 57.3736C40.4561 58.4372 41.0834 59.828 41.1106 61.546L41.0288 68.4182C41.0288 68.9363 41.0425 69.4408 41.0697 69.9317C41.1243 70.4225 41.1924 70.7907 41.2743 71.0361L43.8922 71.527V72.7951L41.8878 73.5314C41.5061 73.6677 41.1515 73.7768 40.8243 73.8586C40.497 73.9677 40.2243 74.0222 40.0062 74.0222C39.1608 74.0222 38.6154 73.545 38.37 72.5905L37.92 70.9952H38.5336C37.6337 72.0042 36.761 72.7678 35.9156 73.2859C35.0975 73.7768 34.2521 74.0222 33.3795 74.0222ZM34.4839 71.6088C35.1111 71.6088 35.6975 71.4725 36.2429 71.1997C36.7883 70.8998 37.32 70.4498 37.8382 69.8499V65.5548L33.2567 66.7819C32.6023 66.9456 32.125 67.2046 31.8251 67.5591C31.5523 67.9137 31.416 68.3636 31.416 68.909C31.416 69.5908 31.716 70.218 32.3159 70.7907C32.9431 71.3361 33.6658 71.6088 34.4839 71.6088Z" fill="#2C2320"/>
<path d="M18.7348 67.8455V58.6826C18.7348 57.0736 18.7212 55.7919 18.6939 54.8375C18.6666 53.8557 18.6393 53.1331 18.6121 52.6695C18.5848 52.1786 18.5575 51.8923 18.5303 51.8104L15.7487 51.2378L15.8714 49.6833H23.6435L23.7662 51.2378L21.23 51.8104C21.23 51.8923 21.2028 52.1786 21.1482 52.6695C21.121 53.1331 21.0937 53.8557 21.0664 54.8375C21.0391 55.7919 21.0255 57.0736 21.0255 58.6826V68.4181C21.0255 69.2635 21.0255 70.1498 21.0255 71.077C21.0255 71.9769 21.0391 72.9041 21.0664 73.8586H19.2257L4.17238 53.6103H5.0723V64.573C5.0723 66.2092 5.08594 67.5318 5.11321 68.5409C5.14048 69.5226 5.16775 70.2453 5.19502 70.7089C5.24956 71.1724 5.29046 71.4588 5.31773 71.5679L8.09932 72.1406L7.9766 73.695H0.122717L0 72.1406L2.49524 71.5679C2.52252 71.4588 2.54979 71.1724 2.57706 70.7089C2.6316 70.2453 2.6725 69.5226 2.69977 68.5409C2.72704 67.5318 2.74068 66.2092 2.74068 64.573V57.5781C2.74068 56.351 2.72704 55.342 2.69977 54.5511C2.6725 53.7603 2.64523 53.1467 2.61796 52.7104C2.59069 52.274 2.54979 51.9741 2.49524 51.8104L0 51.2378L0.122717 49.6833H5.72679L19.4711 67.8455H18.7348Z" fill="#2C2320"/>
</svg>
