<svg width="32" height="32" viewBox="0 0 32 32" fill="none" xmlns="http://www.w3.org/2000/svg">
<rect width="32" height="32" rx="4" fill="#F9F4EF"/>
<path d="M18.1398 14.6138C19.8359 16.5993 19.6012 19.5842 17.6159 21.2804L11.9438 26.1259C11.7099 26.3256 11.4221 26.4194 11.137 26.4157C10.7696 26.4349 10.3978 26.2916 10.1404 25.9904L5.20612 20.2144C3.53379 18.2564 3.76555 15.3133 5.72343 13.6408C7.53881 12.0901 10.2002 12.1766 11.9115 13.7579C13.8771 12.4367 16.5643 12.7695 18.1398 14.6138Z" fill="#2C2320"/>
<path d="M26.4657 14.7811C28.3187 16.2451 28.6345 18.9337 27.1707 20.7868L22.9989 26.0672C22.7745 26.351 22.4386 26.4928 22.1028 26.483C21.8535 26.489 21.601 26.4113 21.39 26.2447L15.9878 21.9766C14.1666 20.5377 13.856 17.8949 15.2949 16.0737C16.6322 14.3811 19.0098 13.9943 20.8009 15.1033C22.3138 13.596 24.7483 13.4244 26.4657 14.7811Z" fill="#CFA417"/>
<circle cx="12.3462" cy="8.72729" r="3.68701" fill="#2C2320"/>
<circle cx="20.2183" cy="10.6318" r="3.33455" fill="#CFA417"/>
<path d="M18.1332 14.6105C19.8292 16.5959 19.595 19.5812 17.6098 21.2775L16.4047 22.3058L15.9838 21.9738C14.1626 20.5349 13.8517 17.8916 15.2904 16.0704C15.997 15.1762 16.9941 14.6472 18.0414 14.5099C18.0718 14.5434 18.1036 14.5758 18.1332 14.6105Z" fill="#E5BD37"/>
</svg>
