<svg width="238" height="91" viewBox="0 0 238 91" fill="none" xmlns="http://www.w3.org/2000/svg">
<path d="M136.66 41.8637L135.644 41.3222C135.469 41.2289 131.3 38.9942 126.698 35.4594C123.973 33.3664 121.665 31.2502 119.836 29.1693C117.479 26.4876 115.902 23.8369 115.148 21.2906L114.591 19.4109L114.707 19.3973C114.683 19.2441 114.661 19.0907 114.643 18.9368C114.457 17.3553 114.586 15.7837 115.027 14.2656C115.453 12.8003 116.151 11.4476 117.1 10.245C118.049 9.04243 119.203 8.04983 120.529 7.29515C121.903 6.51317 123.402 6.02208 124.983 5.83583C125.445 5.78153 125.914 5.7539 126.376 5.7539C128.572 5.7539 130.725 6.37563 132.583 7.52703C133.302 6.7995 134.113 6.17058 135.003 5.6486C136.411 4.82377 137.953 4.30833 139.585 4.11602C140.047 4.06156 140.516 4.03394 140.978 4.03394C143.802 4.03394 146.538 5.05435 148.683 6.90743C150.842 8.77262 152.251 11.3552 152.65 14.1793C152.663 14.2701 152.675 14.3628 152.686 14.4553C152.836 15.7297 152.78 17.0068 152.52 18.2523C152.097 21.1807 150.794 24.4326 148.648 27.9185C147.054 30.5066 145.01 33.2088 142.573 35.9496C139.836 39.0261 137.613 41.0149 137.52 41.0978L136.66 41.8637ZM118.729 21.5187C120.184 25.0272 123.592 28.9037 128.67 32.8109C131.75 35.1804 134.686 36.9702 136.178 37.8346C137.047 37.0034 138.491 35.5698 140.105 33.7558C143.844 29.5513 148.467 23.359 149.258 17.7349L149.267 17.6765L149.279 17.6189C149.474 16.7097 149.517 15.7757 149.407 14.8422C149.399 14.7747 149.39 14.707 149.381 14.6414C148.792 10.4767 145.18 7.33587 140.978 7.33587C140.644 7.33587 140.306 7.35581 139.971 7.39522C137.638 7.66994 135.577 8.8565 134.166 10.7361L133.126 12.1226L131.792 11.0155C130.268 9.75165 128.345 9.05568 126.376 9.05568C126.043 9.05568 125.704 9.0758 125.369 9.11505C123.115 9.38078 121.098 10.5084 119.692 12.2906C118.285 14.0725 117.657 16.2958 117.922 18.5507C117.992 19.1438 118.124 19.7292 118.314 20.2906L118.729 21.5187Z" fill="#CFA417"/>
<path d="M125.181 6.26967C125.062 6.12904 124.941 5.99135 124.817 5.85645C123.377 6.04581 122.007 6.48979 120.74 7.1771C121.669 7.87339 122.466 8.73289 123.09 9.70751C123.809 9.40907 124.574 9.20875 125.368 9.11489C125.702 9.07564 126.041 9.05552 126.375 9.05552C126.585 9.05552 126.795 9.06353 127.004 9.07939C126.521 8.07338 125.91 7.13277 125.181 6.26967ZM120.406 24.5486C119.717 25.4285 118.969 26.288 118.182 27.1207C118.681 27.8006 119.232 28.4838 119.835 29.1692C120.072 29.4393 120.318 29.7104 120.571 29.9816C120.592 29.9606 120.612 29.9399 120.632 29.9188C121.406 29.1105 122.123 28.3056 122.78 27.5051C121.863 26.5048 121.07 25.5173 120.406 24.5486Z" fill="#CFA417"/>
<path d="M104.165 42.4014L103.178 41.5666C103.007 41.4223 98.9561 37.9811 94.7366 33.0092C92.2384 30.0657 90.2026 27.1947 88.6861 24.4759C86.7318 20.9723 85.6259 17.6872 85.3994 14.7115L85.2324 12.5155L85.3631 12.5279C85.3727 12.354 85.3858 12.18 85.4023 12.0065C85.7168 8.70094 87.2454 5.6546 89.7063 3.42883C92.1512 1.21779 95.3065 0 98.5909 0C99.012 0 99.4391 0.0204439 99.8604 0.0603444C101.699 0.235155 103.444 0.77577 105.046 1.66683C106.06 2.23083 106.986 2.91699 107.812 3.71598C109.954 2.3193 112.463 1.56496 115.039 1.56496C115.46 1.56496 115.887 1.58522 116.309 1.62529C118.065 1.79225 119.739 2.29444 121.284 3.11747C122.776 3.91205 124.088 4.9722 125.183 6.26848C126.276 7.56328 127.102 9.03192 127.637 10.634C128.19 12.2909 128.406 14.0193 128.281 15.7714C128.274 15.8745 128.265 15.9792 128.255 16.0834C128.118 17.5188 127.755 18.9083 127.174 20.215C126.017 23.3322 123.816 26.596 120.634 29.9177C118.271 32.384 115.386 34.8688 112.06 37.3033C108.326 40.0358 105.413 41.6943 105.29 41.7634L104.165 42.4014ZM89.28 15.8094C90.0488 20.0075 92.8752 25.0729 97.5298 30.5664C100.353 33.898 103.155 36.5585 104.589 37.861C105.74 37.1535 107.666 35.9206 109.868 34.3091C114.97 30.5748 121.514 24.8659 123.714 18.8746L123.736 18.8125L123.764 18.7521C124.193 17.7997 124.461 16.7834 124.561 15.7319C124.568 15.6561 124.575 15.5799 124.58 15.5053C124.948 10.3761 121.08 5.80618 115.957 5.31887C115.652 5.28977 115.343 5.27506 115.039 5.27506C112.748 5.27506 110.528 6.10626 108.79 7.61562L107.318 8.89291L106.115 7.36116C104.483 5.28519 102.137 4.00413 99.5091 3.75393C99.2041 3.72482 98.8952 3.7101 98.5911 3.7101C93.6472 3.7101 89.5652 7.42773 89.0962 12.3577C89.0324 13.0257 89.0387 13.6999 89.1144 14.3617L89.28 15.8094Z" fill="#2C2420"/>
<path d="M125.183 6.26967C125.065 6.12904 124.943 5.99135 124.819 5.85645C123.379 6.04581 122.009 6.48979 120.742 7.1771C121.671 7.87339 122.468 8.73289 123.093 9.70751C123.811 9.40907 124.576 9.20875 125.37 9.11489C125.704 9.07564 126.043 9.05552 126.377 9.05552C126.587 9.05552 126.797 9.06353 127.006 9.07939C126.523 8.07338 125.912 7.13277 125.183 6.26967Z" fill="#CFA417"/>
<path d="M4.31613 75.9767V58.2446L5.14339 58.3165V75.9767C5.14339 77.2236 5.3592 78.1228 5.79081 78.6743C6.22243 79.2018 6.94178 79.4656 7.94888 79.4656C8.02082 79.4656 8.05678 79.5375 8.05678 79.6814C8.05678 79.8253 8.02082 79.8972 7.94888 79.8972C7.46931 79.8972 6.97775 79.8852 6.4742 79.8612C5.97065 79.8373 5.40716 79.8253 4.78371 79.8253C4.18425 79.8253 3.60877 79.8373 3.05726 79.8612C2.50576 79.8852 1.97823 79.8972 1.47468 79.8972C1.42672 79.8972 1.40274 79.8253 1.40274 79.6814C1.40274 79.5375 1.42672 79.4656 1.47468 79.4656C2.52973 79.4656 3.26108 79.2018 3.66871 78.6743C4.10033 78.1228 4.31613 77.2236 4.31613 75.9767ZM22.4439 80.3288C22.4439 80.3768 22.3839 80.4008 22.2641 80.4008C22.1442 80.4247 22.0602 80.4247 22.0123 80.4008L5.4671 60.3667C4.65183 59.3836 3.92049 58.7242 3.27307 58.3885C2.64963 58.0288 2.05016 57.849 1.47468 57.849C1.40274 57.849 1.36678 57.777 1.36678 57.6332C1.36678 57.4893 1.40274 57.4174 1.47468 57.4174C1.90629 57.4174 2.33791 57.4293 2.76952 57.4533C3.22511 57.4773 3.63275 57.4893 3.99242 57.4893C4.42404 57.4893 4.83167 57.4773 5.21533 57.4533C5.59899 57.4293 5.88673 57.4174 6.07856 57.4174C6.39028 57.4174 6.60608 57.5612 6.72598 57.849C6.84587 58.1127 7.19356 58.5923 7.76904 59.2877L22.1562 76.9479L22.4439 80.3288ZM22.4439 61.3738V80.3288L21.6166 79.2138V61.3738C21.6166 60.1269 21.4008 59.2277 20.9692 58.6762C20.5616 58.1247 19.8662 57.849 18.8831 57.849C18.8351 57.849 18.8111 57.777 18.8111 57.6332C18.8111 57.4893 18.8351 57.4174 18.8831 57.4174C19.3627 57.4174 19.8542 57.4413 20.3578 57.4893C20.8853 57.5133 21.4488 57.5253 22.0483 57.5253C22.6237 57.5253 23.1872 57.5133 23.7387 57.4893C24.3142 57.4413 24.8417 57.4174 25.3213 57.4174C25.3933 57.4174 25.4292 57.4893 25.4292 57.6332C25.4292 57.777 25.3933 57.849 25.3213 57.849C24.2902 57.849 23.5469 58.1247 23.0913 58.6762C22.6597 59.2277 22.4439 60.1269 22.4439 61.3738ZM33.1106 70.0061L33.4703 69.2867H43.0017L43.2535 70.0061H33.1106ZM51.2743 79.4656C51.3702 79.4656 51.4182 79.5375 51.4182 79.6814C51.4182 79.8253 51.3702 79.8972 51.2743 79.8972C50.5789 79.8972 49.8716 79.8732 49.1522 79.8253C48.4329 79.7773 47.7375 79.7533 47.0661 79.7533C46.3228 79.7533 45.6753 79.7773 45.1238 79.8253C44.5723 79.8732 43.9609 79.8972 43.2895 79.8972C43.1936 79.8972 43.1456 79.8253 43.1456 79.6814C43.1456 79.5375 43.1936 79.4656 43.2895 79.4656C44.5603 79.4656 45.3516 79.2858 45.6633 78.9261C45.9751 78.5424 45.8911 77.8351 45.4116 76.804L37.4267 59.9351L38.3259 58.8201L31.3482 75.3293C30.7487 76.792 30.7127 77.8471 31.2403 78.4945C31.7678 79.1419 32.8109 79.4656 34.3695 79.4656C34.4894 79.4656 34.5493 79.5375 34.5493 79.6814C34.5493 79.8253 34.4894 79.8972 34.3695 79.8972C33.6501 79.8972 32.9907 79.8732 32.3912 79.8253C31.7918 79.7773 31.0364 79.7533 30.1253 79.7533C29.262 79.7533 28.5667 79.7773 28.0391 79.8253C27.5356 79.8732 26.9121 79.8972 26.1688 79.8972C26.0729 79.8972 26.0249 79.8253 26.0249 79.6814C26.0249 79.5375 26.0729 79.4656 26.1688 79.4656C26.8162 79.4656 27.3797 79.3457 27.8593 79.1059C28.3389 78.8422 28.7825 78.3986 29.1901 77.7751C29.6217 77.1277 30.0893 76.2045 30.5928 75.0056L38.182 57.0936C38.23 57.0217 38.3139 56.9857 38.4338 56.9857C38.5537 56.9857 38.6257 57.0217 38.6496 57.0936L47.138 74.9696C47.6895 76.1446 48.1811 77.0678 48.6127 77.7391C49.0443 78.3866 49.4639 78.8422 49.8716 79.1059C50.3032 79.3457 50.7708 79.4656 51.2743 79.4656ZM55.7037 75.9767V58.2446L56.531 58.3165V75.9767C56.531 77.2236 56.7468 78.1228 57.1784 78.6743C57.61 79.2018 58.3293 79.4656 59.3364 79.4656C59.4084 79.4656 59.4443 79.5375 59.4443 79.6814C59.4443 79.8253 59.4084 79.8972 59.3364 79.8972C58.8569 79.8972 58.3653 79.8852 57.8618 79.8612C57.3582 79.8373 56.7947 79.8253 56.1713 79.8253C55.5718 79.8253 54.9963 79.8373 54.4448 79.8612C53.8933 79.8852 53.3658 79.8972 52.8622 79.8972C52.8143 79.8972 52.7903 79.8253 52.7903 79.6814C52.7903 79.5375 52.8143 79.4656 52.8622 79.4656C53.9173 79.4656 54.6486 79.2018 55.0563 78.6743C55.4879 78.1228 55.7037 77.2236 55.7037 75.9767ZM73.8315 80.3288C73.8315 80.3768 73.7715 80.4008 73.6516 80.4008C73.5317 80.4247 73.4478 80.4247 73.3998 80.4008L56.8547 60.3667C56.0394 59.3836 55.3081 58.7242 54.6606 58.3885C54.0372 58.0288 53.4377 57.849 52.8622 57.849C52.7903 57.849 52.7543 57.777 52.7543 57.6332C52.7543 57.4893 52.7903 57.4174 52.8622 57.4174C53.2939 57.4174 53.7255 57.4293 54.1571 57.4533C54.6127 57.4773 55.0203 57.4893 55.38 57.4893C55.8116 57.4893 56.2192 57.4773 56.6029 57.4533C56.9865 57.4293 57.2743 57.4174 57.4661 57.4174C57.7778 57.4174 57.9936 57.5612 58.1135 57.849C58.2334 58.1127 58.5811 58.5923 59.1566 59.2877L73.5437 76.9479L73.8315 80.3288ZM73.8315 61.3738V80.3288L73.0042 79.2138V61.3738C73.0042 60.1269 72.7884 59.2277 72.3568 58.6762C71.9491 58.1247 71.2538 57.849 70.2706 57.849C70.2227 57.849 70.1987 57.777 70.1987 57.6332C70.1987 57.4893 70.2227 57.4174 70.2706 57.4174C70.7502 57.4174 71.2418 57.4413 71.7453 57.4893C72.2729 57.5133 72.8363 57.5253 73.4358 57.5253C74.0113 57.5253 74.5748 57.5133 75.1263 57.4893C75.7018 57.4413 76.2293 57.4174 76.7089 57.4174C76.7808 57.4174 76.8168 57.4893 76.8168 57.6332C76.8168 57.777 76.7808 57.849 76.7089 57.849C75.6778 57.849 74.9345 58.1247 74.4789 58.6762C74.0473 59.2277 73.8315 60.1269 73.8315 61.3738ZM84.4982 70.0061L84.8578 69.2867H94.3893L94.6411 70.0061H84.4982ZM102.662 79.4656C102.758 79.4656 102.806 79.5375 102.806 79.6814C102.806 79.8253 102.758 79.8972 102.662 79.8972C101.967 79.8972 101.259 79.8732 100.54 79.8253C99.8204 79.7773 99.125 79.7533 98.4537 79.7533C97.7103 79.7533 97.0629 79.7773 96.5114 79.8253C95.9599 79.8732 95.3484 79.8972 94.677 79.8972C94.5811 79.8972 94.5332 79.8253 94.5332 79.6814C94.5332 79.5375 94.5811 79.4656 94.677 79.4656C95.9479 79.4656 96.7392 79.2858 97.0509 78.9261C97.3626 78.5424 97.2787 77.8351 96.7991 76.804L88.8143 59.9351L89.7135 58.8201L82.7357 75.3293C82.1363 76.792 82.1003 77.8471 82.6278 78.4945C83.1554 79.1419 84.1984 79.4656 85.757 79.4656C85.8769 79.4656 85.9369 79.5375 85.9369 79.6814C85.9369 79.8253 85.8769 79.8972 85.757 79.8972C85.0377 79.8972 84.3783 79.8732 83.7788 79.8253C83.1793 79.7773 82.424 79.7533 81.5128 79.7533C80.6496 79.7533 79.9542 79.7773 79.4267 79.8253C78.9231 79.8732 78.2997 79.8972 77.5564 79.8972C77.4605 79.8972 77.4125 79.8253 77.4125 79.6814C77.4125 79.5375 77.4605 79.4656 77.5564 79.4656C78.2038 79.4656 78.7673 79.3457 79.2469 79.1059C79.7264 78.8422 80.17 78.3986 80.5777 77.7751C81.0093 77.1277 81.4769 76.2045 81.9804 75.0056L89.5696 57.0936C89.6176 57.0217 89.7015 56.9857 89.8214 56.9857C89.9413 56.9857 90.0132 57.0217 90.0372 57.0936L98.5256 74.9696C99.0771 76.1446 99.5687 77.0678 100 77.7391C100.432 78.3866 100.852 78.8422 101.259 79.1059C101.691 79.3457 102.158 79.4656 102.662 79.4656ZM109.933 76.9838C109.933 77.6792 110.005 78.2067 110.149 78.5664C110.292 78.9261 110.58 79.1659 111.012 79.2858C111.467 79.4057 112.127 79.4656 112.99 79.4656C113.062 79.4656 113.098 79.5375 113.098 79.6814C113.098 79.8253 113.062 79.8972 112.99 79.8972C112.414 79.8972 111.767 79.8852 111.048 79.8612C110.352 79.8373 109.573 79.8253 108.71 79.8253C107.919 79.8253 107.151 79.8373 106.408 79.8612C105.689 79.8852 105.041 79.8972 104.466 79.8972C104.394 79.8972 104.358 79.8253 104.358 79.6814C104.358 79.5375 104.394 79.4656 104.466 79.4656C105.329 79.4656 105.988 79.4057 106.444 79.2858C106.899 79.1659 107.199 78.9261 107.343 78.5664C107.487 78.2067 107.559 77.6792 107.559 76.9838V60.3307C107.559 59.6354 107.487 59.1198 107.343 58.7841C107.199 58.4244 106.899 58.1847 106.444 58.0648C105.988 57.9209 105.329 57.849 104.466 57.849C104.394 57.849 104.358 57.777 104.358 57.6332C104.358 57.4893 104.394 57.4174 104.466 57.4174C105.041 57.4174 105.689 57.4413 106.408 57.4893C107.151 57.5133 107.919 57.5253 108.71 57.5253C109.573 57.5253 110.364 57.5133 111.084 57.4893C111.803 57.4413 112.438 57.4174 112.99 57.4174C113.062 57.4174 113.098 57.4893 113.098 57.6332C113.098 57.777 113.062 57.849 112.99 57.849C112.127 57.849 111.467 57.9209 111.012 58.0648C110.58 58.2086 110.292 58.4604 110.149 58.8201C110.005 59.1798 109.933 59.7073 109.933 60.4027V76.9838ZM127.464 75.9767V58.2446L128.291 58.3165V75.9767C128.291 77.2236 128.507 78.1228 128.938 78.6743C129.37 79.2018 130.089 79.4656 131.096 79.4656C131.168 79.4656 131.204 79.5375 131.204 79.6814C131.204 79.8253 131.168 79.8972 131.096 79.8972C130.617 79.8972 130.125 79.8852 129.622 79.8612C129.118 79.8373 128.555 79.8253 127.931 79.8253C127.332 79.8253 126.756 79.8373 126.205 79.8612C125.653 79.8852 125.126 79.8972 124.622 79.8972C124.574 79.8972 124.55 79.8253 124.55 79.6814C124.55 79.5375 124.574 79.4656 124.622 79.4656C125.677 79.4656 126.409 79.2018 126.816 78.6743C127.248 78.1228 127.464 77.2236 127.464 75.9767ZM145.591 80.3288C145.591 80.3768 145.531 80.4008 145.412 80.4008C145.292 80.4247 145.208 80.4247 145.16 80.4008L128.615 60.3667C127.799 59.3836 127.068 58.7242 126.421 58.3885C125.797 58.0288 125.198 57.849 124.622 57.849C124.55 57.849 124.514 57.777 124.514 57.6332C124.514 57.4893 124.55 57.4174 124.622 57.4174C125.054 57.4174 125.485 57.4293 125.917 57.4533C126.373 57.4773 126.78 57.4893 127.14 57.4893C127.572 57.4893 127.979 57.4773 128.363 57.4533C128.746 57.4293 129.034 57.4174 129.226 57.4174C129.538 57.4174 129.754 57.5612 129.873 57.849C129.993 58.1127 130.341 58.5923 130.917 59.2877L145.304 76.9479L145.591 80.3288ZM145.591 61.3738V80.3288L144.764 79.2138V61.3738C144.764 60.1269 144.548 59.2277 144.117 58.6762C143.709 58.1247 143.014 57.849 142.031 57.849C141.983 57.849 141.959 57.777 141.959 57.6332C141.959 57.4893 141.983 57.4174 142.031 57.4174C142.51 57.4174 143.002 57.4413 143.505 57.4893C144.033 57.5133 144.596 57.5253 145.196 57.5253C145.771 57.5253 146.335 57.5133 146.886 57.4893C147.462 57.4413 147.989 57.4174 148.469 57.4174C148.541 57.4174 148.577 57.4893 148.577 57.6332C148.577 57.777 148.541 57.849 148.469 57.849C147.438 57.849 146.694 58.1247 146.239 58.6762C145.807 59.2277 145.591 60.1269 145.591 61.3738ZM156.258 70.0061L156.618 69.2867H166.149L166.401 70.0061H156.258ZM174.422 79.4656C174.518 79.4656 174.566 79.5375 174.566 79.6814C174.566 79.8253 174.518 79.8972 174.422 79.8972C173.726 79.8972 173.019 79.8732 172.3 79.8253C171.58 79.7773 170.885 79.7533 170.214 79.7533C169.47 79.7533 168.823 79.7773 168.271 79.8253C167.72 79.8732 167.108 79.8972 166.437 79.8972C166.341 79.8972 166.293 79.8253 166.293 79.6814C166.293 79.5375 166.341 79.4656 166.437 79.4656C167.708 79.4656 168.499 79.2858 168.811 78.9261C169.123 78.5424 169.039 77.8351 168.559 76.804L160.574 59.9351L161.473 58.8201L154.496 75.3293C153.896 76.792 153.86 77.8471 154.388 78.4945C154.915 79.1419 155.958 79.4656 157.517 79.4656C157.637 79.4656 157.697 79.5375 157.697 79.6814C157.697 79.8253 157.637 79.8972 157.517 79.8972C156.798 79.8972 156.138 79.8732 155.539 79.8253C154.939 79.7773 154.184 79.7533 153.273 79.7533C152.41 79.7533 151.714 79.7773 151.187 79.8253C150.683 79.8732 150.06 79.8972 149.316 79.8972C149.22 79.8972 149.172 79.8253 149.172 79.6814C149.172 79.5375 149.22 79.4656 149.316 79.4656C149.964 79.4656 150.527 79.3457 151.007 79.1059C151.486 78.8422 151.93 78.3986 152.338 77.7751C152.769 77.1277 153.237 76.2045 153.74 75.0056L161.33 57.0936C161.377 57.0217 161.461 56.9857 161.581 56.9857C161.701 56.9857 161.773 57.0217 161.797 57.0936L170.286 74.9696C170.837 76.1446 171.329 77.0678 171.76 77.7391C172.192 78.3866 172.611 78.8422 173.019 79.1059C173.451 79.3457 173.918 79.4656 174.422 79.4656ZM178.851 75.9767V58.2446L179.678 58.3165V75.9767C179.678 77.2236 179.894 78.1228 180.326 78.6743C180.757 79.2018 181.477 79.4656 182.484 79.4656C182.556 79.4656 182.592 79.5375 182.592 79.6814C182.592 79.8253 182.556 79.8972 182.484 79.8972C182.004 79.8972 181.513 79.8852 181.009 79.8612C180.506 79.8373 179.942 79.8253 179.319 79.8253C178.719 79.8253 178.144 79.8373 177.592 79.8612C177.041 79.8852 176.513 79.8972 176.01 79.8972C175.962 79.8972 175.938 79.8253 175.938 79.6814C175.938 79.5375 175.962 79.4656 176.01 79.4656C177.065 79.4656 177.796 79.2018 178.204 78.6743C178.635 78.1228 178.851 77.2236 178.851 75.9767ZM196.979 80.3288C196.979 80.3768 196.919 80.4008 196.799 80.4008C196.679 80.4247 196.595 80.4247 196.547 80.4008L180.002 60.3667C179.187 59.3836 178.456 58.7242 177.808 58.3885C177.185 58.0288 176.585 57.849 176.01 57.849C175.938 57.849 175.902 57.777 175.902 57.6332C175.902 57.4893 175.938 57.4174 176.01 57.4174C176.441 57.4174 176.873 57.4293 177.305 57.4533C177.76 57.4773 178.168 57.4893 178.527 57.4893C178.959 57.4893 179.367 57.4773 179.75 57.4533C180.134 57.4293 180.422 57.4174 180.614 57.4174C180.925 57.4174 181.141 57.5612 181.261 57.849C181.381 58.1127 181.729 58.5923 182.304 59.2877L196.691 76.9479L196.979 80.3288ZM196.979 61.3738V80.3288L196.152 79.2138V61.3738C196.152 60.1269 195.936 59.2277 195.504 58.6762C195.097 58.1247 194.401 57.849 193.418 57.849C193.37 57.849 193.346 57.777 193.346 57.6332C193.346 57.4893 193.37 57.4174 193.418 57.4174C193.898 57.4174 194.389 57.4413 194.893 57.4893C195.42 57.5133 195.984 57.5253 196.583 57.5253C197.159 57.5253 197.722 57.5133 198.274 57.4893C198.849 57.4413 199.377 57.4174 199.856 57.4174C199.928 57.4174 199.964 57.4893 199.964 57.6332C199.964 57.777 199.928 57.849 199.856 57.849C198.825 57.849 198.082 58.1247 197.626 58.6762C197.195 59.2277 196.979 60.1269 196.979 61.3738ZM207.646 70.0061L208.005 69.2867H217.537L217.789 70.0061H207.646ZM225.809 79.4656C225.905 79.4656 225.953 79.5375 225.953 79.6814C225.953 79.8253 225.905 79.8972 225.809 79.8972C225.114 79.8972 224.407 79.8732 223.687 79.8253C222.968 79.7773 222.273 79.7533 221.601 79.7533C220.858 79.7533 220.21 79.7773 219.659 79.8253C219.107 79.8732 218.496 79.8972 217.825 79.8972C217.729 79.8972 217.681 79.8253 217.681 79.6814C217.681 79.5375 217.729 79.4656 217.825 79.4656C219.095 79.4656 219.887 79.2858 220.198 78.9261C220.51 78.5424 220.426 77.8351 219.947 76.804L211.962 59.9351L212.861 58.8201L205.883 75.3293C205.284 76.792 205.248 77.8471 205.775 78.4945C206.303 79.1419 207.346 79.4656 208.905 79.4656C209.024 79.4656 209.084 79.5375 209.084 79.6814C209.084 79.8253 209.024 79.8972 208.905 79.8972C208.185 79.8972 207.526 79.8732 206.926 79.8253C206.327 79.7773 205.572 79.7533 204.66 79.7533C203.797 79.7533 203.102 79.7773 202.574 79.8253C202.071 79.8732 201.447 79.8972 200.704 79.8972C200.608 79.8972 200.56 79.8253 200.56 79.6814C200.56 79.5375 200.608 79.4656 200.704 79.4656C201.351 79.4656 201.915 79.3457 202.394 79.1059C202.874 78.8422 203.318 78.3986 203.725 77.7751C204.157 77.1277 204.624 76.2045 205.128 75.0056L212.717 57.0936C212.765 57.0217 212.849 56.9857 212.969 56.9857C213.089 56.9857 213.161 57.0217 213.185 57.0936L221.673 74.9696C222.225 76.1446 222.716 77.0678 223.148 77.7391C223.579 78.3866 223.999 78.8422 224.407 79.1059C224.838 79.3457 225.306 79.4656 225.809 79.4656ZM233.08 76.9838C233.08 77.6792 233.152 78.2067 233.296 78.5664C233.44 78.9261 233.728 79.1659 234.159 79.2858C234.615 79.4057 235.274 79.4656 236.137 79.4656C236.209 79.4656 236.245 79.5375 236.245 79.6814C236.245 79.8253 236.209 79.8972 236.137 79.8972C235.562 79.8972 234.915 79.8852 234.195 79.8612C233.5 79.8373 232.721 79.8253 231.857 79.8253C231.066 79.8253 230.299 79.8373 229.555 79.8612C228.836 79.8852 228.189 79.8972 227.613 79.8972C227.541 79.8972 227.505 79.8253 227.505 79.6814C227.505 79.5375 227.541 79.4656 227.613 79.4656C228.476 79.4656 229.136 79.4057 229.591 79.2858C230.047 79.1659 230.347 78.9261 230.491 78.5664C230.634 78.2067 230.706 77.6792 230.706 76.9838V60.3307C230.706 59.6354 230.634 59.1198 230.491 58.7841C230.347 58.4244 230.047 58.1847 229.591 58.0648C229.136 57.9209 228.476 57.849 227.613 57.849C227.541 57.849 227.505 57.777 227.505 57.6332C227.505 57.4893 227.541 57.4174 227.613 57.4174C228.189 57.4174 228.836 57.4413 229.555 57.4893C230.299 57.5133 231.066 57.5253 231.857 57.5253C232.721 57.5253 233.512 57.5133 234.231 57.4893C234.951 57.4413 235.586 57.4174 236.137 57.4174C236.209 57.4174 236.245 57.4893 236.245 57.6332C236.245 57.777 236.209 57.849 236.137 57.849C235.274 57.849 234.615 57.9209 234.159 58.0648C233.728 58.2086 233.44 58.4604 233.296 58.8201C233.152 59.1798 233.08 59.7073 233.08 60.4027V76.9838Z" fill="#2C2420"/>
</svg>
