<svg width="293" height="114" viewBox="0 0 293 114" fill="none" xmlns="http://www.w3.org/2000/svg">
<path d="M168.771 52.792L167.491 52.109C167.27 51.9915 162.012 49.1733 156.209 44.7157C152.772 42.0763 149.861 39.4076 147.555 36.7835C144.583 33.4017 142.594 30.0588 141.643 26.8478L140.94 24.4773L141.086 24.4602C141.056 24.267 141.029 24.0736 141.007 23.8795C140.772 21.8852 140.934 19.9032 141.491 17.9889C142.028 16.1409 142.908 14.4351 144.104 12.9185C145.301 11.402 146.756 10.1503 148.429 9.19856C150.162 8.21242 152.051 7.59313 154.046 7.35825C154.628 7.28978 155.219 7.25494 155.803 7.25494C158.572 7.25494 161.287 8.03899 163.63 9.49097C164.537 8.57351 165.559 7.7804 166.682 7.12215C168.458 6.08198 170.402 5.43196 172.46 5.18945C173.043 5.12078 173.634 5.08594 174.217 5.08594C177.777 5.08594 181.228 6.37275 183.933 8.70962C186.656 11.0618 188.432 14.3186 188.936 17.88C188.953 17.9944 188.968 18.1114 188.981 18.2281C189.171 19.8351 189.1 21.4457 188.772 23.0163C188.238 26.7092 186.596 30.8101 183.889 35.2061C181.879 38.4699 179.301 41.8775 176.228 45.3339C172.777 49.2135 169.973 51.7215 169.855 51.8261L168.771 52.792ZM146.159 27.1355C147.994 31.5599 152.291 36.4485 158.696 41.3757C162.58 44.3638 166.282 46.6209 168.164 47.711C169.26 46.6628 171.081 44.8549 173.116 42.5673C177.831 37.2652 183.661 29.4563 184.659 22.3638L184.669 22.2902L184.685 22.2176C184.93 21.071 184.985 19.8931 184.846 18.716C184.836 18.6308 184.825 18.5454 184.813 18.4627C184.07 13.2107 179.515 9.24992 174.217 9.24992C173.796 9.24992 173.369 9.27506 172.947 9.32476C170.005 9.6712 167.405 11.1675 165.626 13.5378L164.314 15.2864L162.632 13.8902C160.711 12.2964 158.286 11.4187 155.803 11.4187C155.382 11.4187 154.955 11.4441 154.533 11.4936C151.69 11.8287 149.147 13.2508 147.373 15.4981C145.599 17.7453 144.807 20.5491 145.142 23.3926C145.23 24.1406 145.396 24.8788 145.636 25.5868L146.159 27.1355Z" fill="white"/>
<path d="M154.294 7.90905C154.145 7.7317 153.992 7.55807 153.835 7.38794C152.019 7.62674 150.292 8.18664 148.694 9.05337C149.865 9.93145 150.87 11.0153 151.658 12.2444C152.564 11.8681 153.529 11.6154 154.53 11.4971C154.952 11.4476 155.379 11.4222 155.8 11.4222C156.065 11.4222 156.33 11.4323 156.594 11.4523C155.984 10.1836 155.214 8.99747 154.294 7.90905ZM148.273 30.96C147.405 32.0697 146.461 33.1536 145.468 34.2036C146.098 35.0611 146.793 35.9227 147.552 36.7869C147.852 37.1276 148.162 37.4695 148.481 37.8114C148.507 37.785 148.532 37.7588 148.557 37.7322C149.534 36.7129 150.438 35.6979 151.267 34.6884C150.11 33.427 149.11 32.1817 148.273 30.96Z" fill="white"/>
<path d="M127.792 53.4711L126.546 52.4184C126.331 52.2365 121.223 47.8968 115.901 41.627C112.751 37.915 110.184 34.2944 108.271 30.8658C105.807 26.4476 104.412 22.3049 104.127 18.5523L103.916 15.783L104.081 15.7986C104.093 15.5792 104.109 15.3598 104.13 15.141C104.527 10.9725 106.455 7.13085 109.558 4.324C112.641 1.53572 116.62 0 120.762 0C121.293 0 121.832 0.0257812 122.363 0.0760986C124.681 0.296547 126.882 0.978302 128.902 2.10199C130.181 2.81324 131.348 3.67853 132.391 4.68612C135.092 2.9248 138.256 1.97353 141.504 1.97353C142.035 1.97353 142.574 1.99908 143.105 2.0496C145.32 2.26015 147.431 2.89345 149.38 3.93135C151.261 4.93337 152.915 6.2703 154.296 7.905C155.675 9.53784 156.717 11.3899 157.391 13.4102C158.089 15.4996 158.362 17.6794 158.203 19.8888C158.194 20.0189 158.183 20.1509 158.17 20.2823C157.998 22.0925 157.54 23.8447 156.807 25.4926C155.348 29.4235 152.573 33.5395 148.56 37.7284C145.579 40.8386 141.942 43.9721 137.747 47.0421C133.039 50.488 129.365 52.5794 129.211 52.6667L127.792 53.4711ZM109.02 19.9368C109.99 25.2309 113.554 31.6187 119.424 38.5465C122.984 42.7478 126.517 46.1029 128.326 47.7455C129.778 46.8532 132.207 45.2985 134.983 43.2662C141.417 38.557 149.669 31.3577 152.443 23.8022L152.472 23.7238L152.507 23.6477C153.048 22.4467 153.386 21.1651 153.512 19.8391C153.521 19.7434 153.529 19.6473 153.536 19.5533C154 13.085 149.122 7.32201 142.662 6.70748C142.277 6.67077 141.888 6.65222 141.504 6.65222C138.615 6.65222 135.816 7.70043 133.623 9.60384L131.768 11.2146L130.25 9.28295C128.193 6.665 125.234 5.04949 121.92 4.73397C121.535 4.69727 121.146 4.67869 120.762 4.67869C114.528 4.67869 109.38 9.36689 108.789 15.584C108.708 16.4264 108.716 17.2766 108.811 18.1112L109.02 19.9368Z" fill="white"/>
<path d="M154.297 7.90905C154.147 7.7317 153.994 7.55807 153.838 7.38794C152.021 7.62674 150.294 8.18664 148.696 9.05337C149.867 9.93145 150.873 11.0153 151.66 12.2444C152.567 11.8681 153.531 11.6154 154.532 11.4971C154.954 11.4476 155.381 11.4222 155.802 11.4222C156.068 11.4222 156.332 11.4323 156.596 11.4523C155.986 10.1836 155.216 8.99747 154.297 7.90905Z" fill="white"/>
<path d="M5.30058 96.282V74.5054L6.31652 74.5938V96.282C6.31652 97.8133 6.58155 98.9176 7.11161 99.5948C7.64167 100.243 8.5251 100.567 9.7619 100.567C9.85024 100.567 9.89441 100.655 9.89441 100.832C9.89441 101.008 9.85024 101.097 9.7619 101.097C9.17294 101.097 8.56927 101.082 7.95087 101.053C7.33247 101.023 6.64045 101.008 5.87481 101.008C5.13862 101.008 4.43187 101.023 3.75458 101.053C3.07728 101.082 2.42943 101.097 1.81103 101.097C1.75214 101.097 1.72269 101.008 1.72269 100.832C1.72269 100.655 1.75214 100.567 1.81103 100.567C3.10673 100.567 4.00488 100.243 4.50549 99.5948C5.03555 98.9176 5.30058 97.8133 5.30058 96.282ZM27.563 101.627C27.563 101.686 27.4894 101.715 27.3421 101.715C27.1949 101.745 27.0918 101.745 27.0329 101.715L6.71407 77.1116C5.71284 75.9042 4.81469 75.0944 4.0196 74.6821C3.25397 74.2404 2.51777 74.0196 1.81103 74.0196C1.72269 74.0196 1.67852 73.9312 1.67852 73.7545C1.67852 73.5778 1.72269 73.4895 1.81103 73.4895C2.34109 73.4895 2.87115 73.5042 3.4012 73.5337C3.96071 73.5631 4.46132 73.5778 4.90303 73.5778C5.43309 73.5778 5.9337 73.5631 6.40486 73.5337C6.87603 73.5042 7.2294 73.4895 7.46498 73.4895C7.8478 73.4895 8.11283 73.6662 8.26007 74.0196C8.4073 74.3435 8.8343 74.9324 9.54104 75.7864L27.2096 97.4746L27.563 101.627ZM27.563 78.3484V101.627L26.5471 100.257V78.3484C26.5471 76.8171 26.282 75.7128 25.752 75.0355C25.2514 74.3582 24.3974 74.0196 23.19 74.0196C23.1311 74.0196 23.1017 73.9312 23.1017 73.7545C23.1017 73.5778 23.1311 73.4895 23.19 73.4895C23.779 73.4895 24.3827 73.519 25.0011 73.5778C25.6489 73.6073 26.3409 73.622 27.0771 73.622C27.7839 73.622 28.4759 73.6073 29.1532 73.5778C29.8599 73.519 30.5078 73.4895 31.0967 73.4895C31.1851 73.4895 31.2292 73.5778 31.2292 73.7545C31.2292 73.9312 31.1851 74.0196 31.0967 74.0196C29.8305 74.0196 28.9176 74.3582 28.3581 75.0355C27.828 75.7128 27.563 76.8171 27.563 78.3484ZM40.6626 88.9495L41.1043 88.0661H52.8098L53.119 88.9495H40.6626ZM62.9692 100.567C63.087 100.567 63.1459 100.655 63.1459 100.832C63.1459 101.008 63.087 101.097 62.9692 101.097C62.1152 101.097 61.2465 101.067 60.3631 101.008C59.4797 100.949 58.6257 100.92 57.8011 100.92C56.8883 100.92 56.0932 100.949 55.4159 101.008C54.7386 101.067 53.9877 101.097 53.1631 101.097C53.0453 101.097 52.9864 101.008 52.9864 100.832C52.9864 100.655 53.0453 100.567 53.1631 100.567C54.7239 100.567 55.6956 100.346 56.0785 99.904C56.4613 99.4329 56.3582 98.5642 55.7693 97.2979L45.9632 76.5815L47.0675 75.2122L38.4982 95.4869C37.762 97.2832 37.7178 98.5789 38.3657 99.374C39.0135 100.169 40.2945 100.567 42.2086 100.567C42.3558 100.567 42.4295 100.655 42.4295 100.832C42.4295 101.008 42.3558 101.097 42.2086 101.097C41.3252 101.097 40.5154 101.067 39.7792 101.008C39.043 100.949 38.1154 100.92 36.9964 100.92C35.9363 100.92 35.0823 100.949 34.4344 101.008C33.816 101.067 33.0504 101.097 32.1375 101.097C32.0197 101.097 31.9608 101.008 31.9608 100.832C31.9608 100.655 32.0197 100.567 32.1375 100.567C32.9326 100.567 33.6246 100.419 34.2136 100.125C34.8025 99.801 35.3473 99.2562 35.8479 98.4906C36.378 97.6955 36.9522 96.5617 37.5706 95.0894L46.8908 73.092C46.9497 73.0036 47.0527 72.9594 47.2 72.9594C47.3472 72.9594 47.4356 73.0036 47.465 73.092L57.8895 95.0452C58.5668 96.4881 59.1705 97.6219 59.7005 98.4464C60.2306 99.2415 60.7459 99.801 61.2465 100.125C61.7766 100.419 62.3508 100.567 62.9692 100.567ZM68.4089 96.282V74.5054L69.4248 74.5938V96.282C69.4248 97.8133 69.6898 98.9176 70.2199 99.5948C70.7499 100.243 71.6334 100.567 72.8702 100.567C72.9585 100.567 73.0027 100.655 73.0027 100.832C73.0027 101.008 72.9585 101.097 72.8702 101.097C72.2812 101.097 71.6775 101.082 71.0591 101.053C70.4407 101.023 69.7487 101.008 68.9831 101.008C68.2469 101.008 67.5401 101.023 66.8628 101.053C66.1856 101.082 65.5377 101.097 64.9193 101.097C64.8604 101.097 64.831 101.008 64.831 100.832C64.831 100.655 64.8604 100.567 64.9193 100.567C66.215 100.567 67.1132 100.243 67.6138 99.5948C68.1438 98.9176 68.4089 97.8133 68.4089 96.282ZM90.6713 101.627C90.6713 101.686 90.5977 101.715 90.4504 101.715C90.3032 101.745 90.2001 101.745 90.1412 101.715L69.8223 77.1116C68.8211 75.9042 67.923 75.0944 67.1279 74.6821C66.3622 74.2404 65.626 74.0196 64.9193 74.0196C64.831 74.0196 64.7868 73.9312 64.7868 73.7545C64.7868 73.5778 64.831 73.4895 64.9193 73.4895C65.4494 73.4895 65.9794 73.5042 66.5095 73.5337C67.069 73.5631 67.5696 73.5778 68.0113 73.5778C68.5414 73.5778 69.042 73.5631 69.5131 73.5337C69.9843 73.5042 70.3377 73.4895 70.5733 73.4895C70.9561 73.4895 71.2211 73.6662 71.3683 74.0196C71.5156 74.3435 71.9426 74.9324 72.6493 75.7864L90.3179 97.4746L90.6713 101.627ZM90.6713 78.3484V101.627L89.6553 100.257V78.3484C89.6553 76.8171 89.3903 75.7128 88.8602 75.0355C88.3596 74.3582 87.5057 74.0196 86.2983 74.0196C86.2394 74.0196 86.21 73.9312 86.21 73.7545C86.21 73.5778 86.2394 73.4895 86.2983 73.4895C86.8873 73.4895 87.4909 73.519 88.1093 73.5778C88.7572 73.6073 89.4492 73.622 90.1854 73.622C90.8921 73.622 91.5842 73.6073 92.2614 73.5778C92.9682 73.519 93.616 73.4895 94.205 73.4895C94.2933 73.4895 94.3375 73.5778 94.3375 73.7545C94.3375 73.9312 94.2933 74.0196 94.205 74.0196C92.9387 74.0196 92.0259 74.3582 91.4664 75.0355C90.9363 75.7128 90.6713 76.8171 90.6713 78.3484ZM103.771 88.9495L104.213 88.0661H115.918L116.227 88.9495H103.771ZM126.077 100.567C126.195 100.567 126.254 100.655 126.254 100.832C126.254 101.008 126.195 101.097 126.077 101.097C125.223 101.097 124.355 101.067 123.471 101.008C122.588 100.949 121.734 100.92 120.909 100.92C119.997 100.92 119.201 100.949 118.524 101.008C117.847 101.067 117.096 101.097 116.271 101.097C116.154 101.097 116.095 101.008 116.095 100.832C116.095 100.655 116.154 100.567 116.271 100.567C117.832 100.567 118.804 100.346 119.187 99.904C119.57 99.4329 119.466 98.5642 118.878 97.2979L109.071 76.5815L110.176 75.2122L101.606 95.4869C100.87 97.2832 100.826 98.5789 101.474 99.374C102.122 100.169 103.403 100.567 105.317 100.567C105.464 100.567 105.538 100.655 105.538 100.832C105.538 101.008 105.464 101.097 105.317 101.097C104.433 101.097 103.624 101.067 102.887 101.008C102.151 100.949 101.224 100.92 100.105 100.92C99.0445 100.92 98.1906 100.949 97.5427 101.008C96.9243 101.067 96.1587 101.097 95.2458 101.097C95.128 101.097 95.0691 101.008 95.0691 100.832C95.0691 100.655 95.128 100.567 95.2458 100.567C96.0409 100.567 96.7329 100.419 97.3218 100.125C97.9108 99.801 98.4556 99.2562 98.9562 98.4906C99.4862 97.6955 100.06 96.5617 100.679 95.0894L109.999 73.092C110.058 73.0036 110.161 72.9594 110.308 72.9594C110.455 72.9594 110.544 73.0036 110.573 73.092L120.998 95.0452C121.675 96.4881 122.279 97.6219 122.809 98.4464C123.339 99.2415 123.854 99.801 124.355 100.125C124.885 100.419 125.459 100.567 126.077 100.567ZM135.007 97.5188C135.007 98.3728 135.095 99.0206 135.272 99.4623C135.448 99.904 135.802 100.199 136.332 100.346C136.891 100.493 137.701 100.567 138.761 100.567C138.85 100.567 138.894 100.655 138.894 100.832C138.894 101.008 138.85 101.097 138.761 101.097C138.055 101.097 137.259 101.082 136.376 101.053C135.522 101.023 134.565 101.008 133.505 101.008C132.533 101.008 131.591 101.023 130.678 101.053C129.794 101.082 128.999 101.097 128.293 101.097C128.204 101.097 128.16 101.008 128.16 100.832C128.16 100.655 128.204 100.567 128.293 100.567C129.353 100.567 130.163 100.493 130.722 100.346C131.282 100.199 131.65 99.904 131.826 99.4623C132.003 99.0206 132.091 98.3728 132.091 97.5188V77.0674C132.091 76.2134 132.003 75.5803 131.826 75.168C131.65 74.7263 131.282 74.4318 130.722 74.2846C130.163 74.1079 129.353 74.0196 128.293 74.0196C128.204 74.0196 128.16 73.9312 128.16 73.7545C128.16 73.5778 128.204 73.4895 128.293 73.4895C128.999 73.4895 129.794 73.519 130.678 73.5778C131.591 73.6073 132.533 73.622 133.505 73.622C134.565 73.622 135.537 73.6073 136.42 73.5778C137.304 73.519 138.084 73.4895 138.761 73.4895C138.85 73.4895 138.894 73.5778 138.894 73.7545C138.894 73.9312 138.85 74.0196 138.761 74.0196C137.701 74.0196 136.891 74.1079 136.332 74.2846C135.802 74.4613 135.448 74.7705 135.272 75.2122C135.095 75.6539 135.007 76.3018 135.007 77.1557V97.5188ZM156.536 96.282V74.5054L157.552 74.5938V96.282C157.552 97.8133 157.817 98.9176 158.347 99.5948C158.877 100.243 159.761 100.567 160.997 100.567C161.086 100.567 161.13 100.655 161.13 100.832C161.13 101.008 161.086 101.097 160.997 101.097C160.408 101.097 159.805 101.082 159.186 101.053C158.568 101.023 157.876 101.008 157.11 101.008C156.374 101.008 155.667 101.023 154.99 101.053C154.313 101.082 153.665 101.097 153.047 101.097C152.988 101.097 152.958 101.008 152.958 100.832C152.958 100.655 152.988 100.567 153.047 100.567C154.342 100.567 155.24 100.243 155.741 99.5948C156.271 98.9176 156.536 97.8133 156.536 96.282ZM178.799 101.627C178.799 101.686 178.725 101.715 178.578 101.715C178.43 101.745 178.327 101.745 178.268 101.715L157.95 77.1116C156.948 75.9042 156.05 75.0944 155.255 74.6821C154.49 74.2404 153.753 74.0196 153.047 74.0196C152.958 74.0196 152.914 73.9312 152.914 73.7545C152.914 73.5778 152.958 73.4895 153.047 73.4895C153.577 73.4895 154.107 73.5042 154.637 73.5337C155.196 73.5631 155.697 73.5778 156.139 73.5778C156.669 73.5778 157.169 73.5631 157.64 73.5337C158.112 73.5042 158.465 73.4895 158.701 73.4895C159.083 73.4895 159.348 73.6662 159.496 74.0196C159.643 74.3435 160.07 74.9324 160.777 75.7864L178.445 97.4746L178.799 101.627ZM178.799 78.3484V101.627L177.783 100.257V78.3484C177.783 76.8171 177.518 75.7128 176.988 75.0355C176.487 74.3582 175.633 74.0196 174.426 74.0196C174.367 74.0196 174.337 73.9312 174.337 73.7545C174.337 73.5778 174.367 73.4895 174.426 73.4895C175.015 73.4895 175.618 73.519 176.237 73.5778C176.884 73.6073 177.576 73.622 178.313 73.622C179.019 73.622 179.711 73.6073 180.389 73.5778C181.095 73.519 181.743 73.4895 182.332 73.4895C182.421 73.4895 182.465 73.5778 182.465 73.7545C182.465 73.9312 182.421 74.0196 182.332 74.0196C181.066 74.0196 180.153 74.3582 179.594 75.0355C179.064 75.7128 178.799 76.8171 178.799 78.3484ZM191.898 88.9495L192.34 88.0661H204.045L204.355 88.9495H191.898ZM214.205 100.567C214.323 100.567 214.381 100.655 214.381 100.832C214.381 101.008 214.323 101.097 214.205 101.097C213.351 101.097 212.482 101.067 211.599 101.008C210.715 100.949 209.861 100.92 209.037 100.92C208.124 100.92 207.329 100.949 206.651 101.008C205.974 101.067 205.223 101.097 204.399 101.097C204.281 101.097 204.222 101.008 204.222 100.832C204.222 100.655 204.281 100.567 204.399 100.567C205.959 100.567 206.931 100.346 207.314 99.904C207.697 99.4329 207.594 98.5642 207.005 97.2979L197.199 76.5815L198.303 75.2122L189.734 95.4869C188.998 97.2832 188.953 98.5789 189.601 99.374C190.249 100.169 191.53 100.567 193.444 100.567C193.591 100.567 193.665 100.655 193.665 100.832C193.665 101.008 193.591 101.097 193.444 101.097C192.561 101.097 191.751 101.067 191.015 101.008C190.279 100.949 189.351 100.92 188.232 100.92C187.172 100.92 186.318 100.949 185.67 101.008C185.052 101.067 184.286 101.097 183.373 101.097C183.255 101.097 183.196 101.008 183.196 100.832C183.196 100.655 183.255 100.567 183.373 100.567C184.168 100.567 184.86 100.419 185.449 100.125C186.038 99.801 186.583 99.2562 187.083 98.4906C187.614 97.6955 188.188 96.5617 188.806 95.0894L198.126 73.092C198.185 73.0036 198.288 72.9594 198.436 72.9594C198.583 72.9594 198.671 73.0036 198.701 73.092L209.125 95.0452C209.802 96.4881 210.406 97.6219 210.936 98.4464C211.466 99.2415 211.981 99.801 212.482 100.125C213.012 100.419 213.586 100.567 214.205 100.567ZM219.644 96.282V74.5054L220.66 74.5938V96.282C220.66 97.8133 220.925 98.9176 221.455 99.5948C221.985 100.243 222.869 100.567 224.106 100.567C224.194 100.567 224.238 100.655 224.238 100.832C224.238 101.008 224.194 101.097 224.106 101.097C223.517 101.097 222.913 101.082 222.295 101.053C221.676 101.023 220.984 101.008 220.219 101.008C219.482 101.008 218.776 101.023 218.098 101.053C217.421 101.082 216.773 101.097 216.155 101.097C216.096 101.097 216.066 101.008 216.066 100.832C216.066 100.655 216.096 100.567 216.155 100.567C217.451 100.567 218.349 100.243 218.849 99.5948C219.379 98.9176 219.644 97.8133 219.644 96.282ZM241.907 101.627C241.907 101.686 241.833 101.715 241.686 101.715C241.539 101.745 241.436 101.745 241.377 101.715L221.058 77.1116C220.057 75.9042 219.159 75.0944 218.363 74.6821C217.598 74.2404 216.862 74.0196 216.155 74.0196C216.066 74.0196 216.022 73.9312 216.022 73.7545C216.022 73.5778 216.066 73.4895 216.155 73.4895C216.685 73.4895 217.215 73.5042 217.745 73.5337C218.305 73.5631 218.805 73.5778 219.247 73.5778C219.777 73.5778 220.278 73.5631 220.749 73.5337C221.22 73.5042 221.573 73.4895 221.809 73.4895C222.192 73.4895 222.457 73.6662 222.604 74.0196C222.751 74.3435 223.178 74.9324 223.885 75.7864L241.553 97.4746L241.907 101.627ZM241.907 78.3484V101.627L240.891 100.257V78.3484C240.891 76.8171 240.626 75.7128 240.096 75.0355C239.595 74.3582 238.741 74.0196 237.534 74.0196C237.475 74.0196 237.445 73.9312 237.445 73.7545C237.445 73.5778 237.475 73.4895 237.534 73.4895C238.123 73.4895 238.726 73.519 239.345 73.5778C239.993 73.6073 240.685 73.622 241.421 73.622C242.128 73.622 242.82 73.6073 243.497 73.5778C244.204 73.519 244.852 73.4895 245.441 73.4895C245.529 73.4895 245.573 73.5778 245.573 73.7545C245.573 73.9312 245.529 74.0196 245.441 74.0196C244.174 74.0196 243.261 74.3582 242.702 75.0355C242.172 75.7128 241.907 76.8171 241.907 78.3484ZM255.006 88.9495L255.448 88.0661H267.154L267.463 88.9495H255.006ZM277.313 100.567C277.431 100.567 277.49 100.655 277.49 100.832C277.49 101.008 277.431 101.097 277.313 101.097C276.459 101.097 275.59 101.067 274.707 101.008C273.823 100.949 272.969 100.92 272.145 100.92C271.232 100.92 270.437 100.949 269.76 101.008C269.082 101.067 268.331 101.097 267.507 101.097C267.389 101.097 267.33 101.008 267.33 100.832C267.33 100.655 267.389 100.567 267.507 100.567C269.068 100.567 270.039 100.346 270.422 99.904C270.805 99.4329 270.702 98.5642 270.113 97.2979L260.307 76.5815L261.411 75.2122L252.842 95.4869C252.106 97.2832 252.062 98.5789 252.71 99.374C253.357 100.169 254.638 100.567 256.552 100.567C256.7 100.567 256.773 100.655 256.773 100.832C256.773 101.008 256.7 101.097 256.552 101.097C255.669 101.097 254.859 101.067 254.123 101.008C253.387 100.949 252.459 100.92 251.34 100.92C250.28 100.92 249.426 100.949 248.778 101.008C248.16 101.067 247.394 101.097 246.481 101.097C246.364 101.097 246.305 101.008 246.305 100.832C246.305 100.655 246.364 100.567 246.481 100.567C247.276 100.567 247.968 100.419 248.557 100.125C249.146 99.801 249.691 99.2562 250.192 98.4906C250.722 97.6955 251.296 96.5617 251.914 95.0894L261.235 73.092C261.294 73.0036 261.397 72.9594 261.544 72.9594C261.691 72.9594 261.779 73.0036 261.809 73.092L272.233 95.0452C272.911 96.4881 273.514 97.6219 274.044 98.4464C274.574 99.2415 275.09 99.801 275.59 100.125C276.12 100.419 276.695 100.567 277.313 100.567ZM286.242 97.5188C286.242 98.3728 286.331 99.0206 286.507 99.4623C286.684 99.904 287.037 100.199 287.567 100.346C288.127 100.493 288.937 100.567 289.997 100.567C290.085 100.567 290.129 100.655 290.129 100.832C290.129 101.008 290.085 101.097 289.997 101.097C289.29 101.097 288.495 101.082 287.612 101.053C286.758 101.023 285.8 101.008 284.74 101.008C283.769 101.008 282.826 101.023 281.913 101.053C281.03 101.082 280.235 101.097 279.528 101.097C279.44 101.097 279.396 101.008 279.396 100.832C279.396 100.655 279.44 100.567 279.528 100.567C280.588 100.567 281.398 100.493 281.958 100.346C282.517 100.199 282.885 99.904 283.062 99.4623C283.239 99.0206 283.327 98.3728 283.327 97.5188V77.0674C283.327 76.2134 283.239 75.5803 283.062 75.168C282.885 74.7263 282.517 74.4318 281.958 74.2846C281.398 74.1079 280.588 74.0196 279.528 74.0196C279.44 74.0196 279.396 73.9312 279.396 73.7545C279.396 73.5778 279.44 73.4895 279.528 73.4895C280.235 73.4895 281.03 73.519 281.913 73.5778C282.826 73.6073 283.769 73.622 284.74 73.622C285.8 73.622 286.772 73.6073 287.656 73.5778C288.539 73.519 289.319 73.4895 289.997 73.4895C290.085 73.4895 290.129 73.5778 290.129 73.7545C290.129 73.9312 290.085 74.0196 289.997 74.0196C288.937 74.0196 288.127 74.1079 287.567 74.2846C287.037 74.4613 286.684 74.7705 286.507 75.2122C286.331 75.6539 286.242 76.3018 286.242 77.1557V97.5188Z" fill="white"/>
</svg>
