<svg width="238" height="110" viewBox="0 0 238 110" fill="none" xmlns="http://www.w3.org/2000/svg">
<path d="M136.66 41.8637L135.644 41.3222C135.469 41.2289 131.3 38.9942 126.698 35.4594C123.973 33.3664 121.665 31.2502 119.836 29.1693C117.479 26.4876 115.902 23.8369 115.148 21.2906L114.591 19.4109L114.707 19.3973C114.683 19.2441 114.661 19.0907 114.643 18.9368C114.457 17.3553 114.586 15.7837 115.027 14.2656C115.453 12.8003 116.151 11.4476 117.1 10.245C118.049 9.04243 119.203 8.04983 120.529 7.29515C121.903 6.51317 123.402 6.02208 124.983 5.83583C125.445 5.78153 125.914 5.7539 126.376 5.7539C128.572 5.7539 130.725 6.37563 132.583 7.52703C133.302 6.7995 134.113 6.17058 135.003 5.6486C136.411 4.82377 137.953 4.30833 139.585 4.11602C140.047 4.06156 140.516 4.03394 140.978 4.03394C143.802 4.03394 146.538 5.05435 148.683 6.90743C150.842 8.77262 152.251 11.3552 152.65 14.1793C152.663 14.2701 152.675 14.3628 152.686 14.4553C152.836 15.7297 152.78 17.0068 152.52 18.2523C152.097 21.1807 150.794 24.4326 148.648 27.9185C147.054 30.5066 145.01 33.2088 142.573 35.9496C139.836 39.0261 137.613 41.0149 137.52 41.0978L136.66 41.8637ZM118.729 21.5187C120.184 25.0272 123.592 28.9037 128.67 32.8109C131.75 35.1804 134.686 36.9702 136.178 37.8346C137.047 37.0034 138.491 35.5698 140.105 33.7558C143.844 29.5513 148.467 23.359 149.258 17.7349L149.267 17.6765L149.279 17.6189C149.474 16.7097 149.517 15.7757 149.407 14.8422C149.399 14.7747 149.39 14.707 149.381 14.6414C148.792 10.4767 145.18 7.33587 140.978 7.33587C140.644 7.33587 140.306 7.35581 139.971 7.39522C137.638 7.66994 135.577 8.8565 134.166 10.7361L133.126 12.1226L131.792 11.0155C130.268 9.75165 128.345 9.05568 126.376 9.05568C126.043 9.05568 125.704 9.0758 125.369 9.11505C123.115 9.38078 121.098 10.5085 119.692 12.2906C118.285 14.0725 117.657 16.2958 117.922 18.5507C117.992 19.1438 118.124 19.7292 118.314 20.2906L118.729 21.5187Z" fill="#CFA417"/>
<path d="M125.181 6.26967C125.062 6.12904 124.941 5.99135 124.817 5.85645C123.377 6.04581 122.007 6.48979 120.74 7.1771C121.669 7.87339 122.466 8.73289 123.09 9.70751C123.809 9.40907 124.574 9.20875 125.368 9.11489C125.702 9.07564 126.041 9.05552 126.375 9.05552C126.585 9.05552 126.795 9.06353 127.004 9.07939C126.521 8.07338 125.91 7.13277 125.181 6.26967ZM120.406 24.5486C119.717 25.4285 118.969 26.288 118.182 27.1207C118.681 27.8006 119.232 28.4838 119.835 29.1692C120.072 29.4393 120.318 29.7104 120.571 29.9816C120.592 29.9606 120.612 29.9399 120.632 29.9188C121.406 29.1105 122.123 28.3056 122.78 27.5051C121.863 26.5048 121.07 25.5173 120.406 24.5486Z" fill="#CFA417"/>
<path d="M104.165 42.4014L103.177 41.5666C103.007 41.4223 98.9561 37.9811 94.7366 33.0092C92.2384 30.0657 90.2026 27.1947 88.6861 24.4759C86.7318 20.9723 85.6259 17.6872 85.3994 14.7115L85.2324 12.5155L85.3631 12.5279C85.3727 12.354 85.3858 12.18 85.4023 12.0065C85.7168 8.70094 87.2454 5.6546 89.7063 3.42883C92.1512 1.21779 95.3065 0 98.5909 0C99.012 0 99.4391 0.0204439 99.8604 0.0603444C101.699 0.235155 103.444 0.77577 105.046 1.66683C106.06 2.23083 106.986 2.91699 107.812 3.71598C109.954 2.3193 112.463 1.56496 115.039 1.56496C115.46 1.56496 115.887 1.58522 116.309 1.62529C118.065 1.79225 119.739 2.29444 121.284 3.11747C122.776 3.91205 124.088 4.9722 125.183 6.26848C126.276 7.56328 127.102 9.03192 127.637 10.634C128.19 12.2908 128.406 14.0193 128.281 15.7714C128.274 15.8745 128.265 15.9792 128.255 16.0834C128.118 17.5188 127.755 18.9083 127.174 20.215C126.017 23.3322 123.816 26.596 120.634 29.9177C118.271 32.384 115.386 34.8688 112.06 37.3033C108.326 40.0358 105.413 41.6943 105.29 41.7634L104.165 42.4014ZM89.28 15.8094C90.0488 20.0075 92.8752 25.0729 97.5298 30.5664C100.353 33.898 103.155 36.5585 104.589 37.861C105.74 37.1535 107.666 35.9206 109.868 34.3091C114.97 30.5748 121.514 24.8659 123.714 18.8746L123.736 18.8125L123.764 18.7521C124.193 17.7997 124.461 16.7834 124.561 15.7319C124.568 15.6561 124.575 15.5799 124.58 15.5053C124.948 10.3761 121.08 5.80618 115.957 5.31887C115.652 5.28977 115.343 5.27506 115.039 5.27506C112.748 5.27506 110.528 6.10626 108.79 7.61562L107.318 8.89291L106.115 7.36116C104.483 5.28519 102.137 4.00413 99.5091 3.75393C99.2041 3.72482 98.8952 3.7101 98.5911 3.7101C93.6472 3.7101 89.5652 7.42773 89.0962 12.3577C89.0324 13.0257 89.0387 13.6999 89.1144 14.3617L89.28 15.8094Z" fill="#2C2420"/>
<path d="M125.183 6.26967C125.065 6.12904 124.943 5.99135 124.819 5.85645C123.379 6.04581 122.009 6.48979 120.742 7.1771C121.671 7.87339 122.468 8.73289 123.093 9.70751C123.811 9.40907 124.576 9.20875 125.37 9.11489C125.704 9.07564 126.043 9.05552 126.377 9.05552C126.587 9.05552 126.797 9.06353 127.006 9.07939C126.523 8.07338 125.912 7.13277 125.183 6.26967Z" fill="#CFA417"/>
<path d="M4.31613 75.9767V58.2446L5.14339 58.3165V75.9767C5.14339 77.2236 5.3592 78.1228 5.79081 78.6743C6.22243 79.2018 6.94178 79.4656 7.94888 79.4656C8.02082 79.4656 8.05678 79.5375 8.05678 79.6814C8.05678 79.8253 8.02082 79.8972 7.94888 79.8972C7.46931 79.8972 6.97775 79.8852 6.4742 79.8612C5.97065 79.8373 5.40716 79.8253 4.78371 79.8253C4.18425 79.8253 3.60877 79.8373 3.05726 79.8612C2.50576 79.8852 1.97823 79.8972 1.47468 79.8972C1.42672 79.8972 1.40274 79.8253 1.40274 79.6814C1.40274 79.5375 1.42672 79.4656 1.47468 79.4656C2.52973 79.4656 3.26108 79.2018 3.66871 78.6743C4.10033 78.1228 4.31613 77.2236 4.31613 75.9767ZM22.4439 80.3288C22.4439 80.3768 22.3839 80.4008 22.2641 80.4008C22.1442 80.4247 22.0602 80.4247 22.0123 80.4008L5.4671 60.3667C4.65183 59.3836 3.92049 58.7242 3.27307 58.3885C2.64963 58.0288 2.05016 57.849 1.47468 57.849C1.40274 57.849 1.36678 57.777 1.36678 57.6332C1.36678 57.4893 1.40274 57.4174 1.47468 57.4174C1.90629 57.4174 2.33791 57.4293 2.76952 57.4533C3.22511 57.4773 3.63275 57.4893 3.99242 57.4893C4.42404 57.4893 4.83167 57.4773 5.21533 57.4533C5.59899 57.4293 5.88673 57.4174 6.07856 57.4174C6.39028 57.4174 6.60608 57.5612 6.72598 57.849C6.84587 58.1127 7.19356 58.5923 7.76904 59.2877L22.1562 76.9479L22.4439 80.3288ZM22.4439 61.3738V80.3288L21.6166 79.2138V61.3738C21.6166 60.1269 21.4008 59.2277 20.9692 58.6762C20.5616 58.1247 19.8662 57.849 18.8831 57.849C18.8351 57.849 18.8111 57.777 18.8111 57.6332C18.8111 57.4893 18.8351 57.4174 18.8831 57.4174C19.3627 57.4174 19.8542 57.4413 20.3578 57.4893C20.8853 57.5133 21.4488 57.5253 22.0483 57.5253C22.6237 57.5253 23.1872 57.5133 23.7387 57.4893C24.3142 57.4413 24.8417 57.4174 25.3213 57.4174C25.3933 57.4174 25.4292 57.4893 25.4292 57.6332C25.4292 57.777 25.3933 57.849 25.3213 57.849C24.2902 57.849 23.5469 58.1247 23.0913 58.6762C22.6597 59.2277 22.4439 60.1269 22.4439 61.3738ZM33.1106 70.0061L33.4703 69.2867H43.0017L43.2535 70.0061H33.1106ZM51.2743 79.4656C51.3702 79.4656 51.4182 79.5375 51.4182 79.6814C51.4182 79.8253 51.3702 79.8972 51.2743 79.8972C50.5789 79.8972 49.8716 79.8732 49.1522 79.8253C48.4329 79.7773 47.7375 79.7533 47.0661 79.7533C46.3228 79.7533 45.6753 79.7773 45.1238 79.8253C44.5723 79.8732 43.9609 79.8972 43.2895 79.8972C43.1936 79.8972 43.1456 79.8253 43.1456 79.6814C43.1456 79.5375 43.1936 79.4656 43.2895 79.4656C44.5603 79.4656 45.3516 79.2858 45.6633 78.9261C45.9751 78.5424 45.8911 77.8351 45.4116 76.804L37.4267 59.9351L38.3259 58.8201L31.3482 75.3293C30.7487 76.792 30.7127 77.8471 31.2403 78.4945C31.7678 79.1419 32.8109 79.4656 34.3695 79.4656C34.4894 79.4656 34.5493 79.5375 34.5493 79.6814C34.5493 79.8253 34.4894 79.8972 34.3695 79.8972C33.6501 79.8972 32.9907 79.8732 32.3912 79.8253C31.7918 79.7773 31.0364 79.7533 30.1253 79.7533C29.262 79.7533 28.5667 79.7773 28.0391 79.8253C27.5356 79.8732 26.9121 79.8972 26.1688 79.8972C26.0729 79.8972 26.0249 79.8253 26.0249 79.6814C26.0249 79.5375 26.0729 79.4656 26.1688 79.4656C26.8162 79.4656 27.3797 79.3457 27.8593 79.1059C28.3389 78.8422 28.7825 78.3986 29.1901 77.7751C29.6217 77.1277 30.0893 76.2045 30.5928 75.0056L38.182 57.0936C38.23 57.0217 38.3139 56.9857 38.4338 56.9857C38.5537 56.9857 38.6257 57.0217 38.6496 57.0936L47.138 74.9696C47.6895 76.1446 48.1811 77.0678 48.6127 77.7391C49.0443 78.3866 49.4639 78.8422 49.8716 79.1059C50.3032 79.3457 50.7708 79.4656 51.2743 79.4656ZM55.7037 75.9767V58.2446L56.531 58.3165V75.9767C56.531 77.2236 56.7468 78.1228 57.1784 78.6743C57.61 79.2018 58.3293 79.4656 59.3364 79.4656C59.4084 79.4656 59.4443 79.5375 59.4443 79.6814C59.4443 79.8253 59.4084 79.8972 59.3364 79.8972C58.8569 79.8972 58.3653 79.8852 57.8618 79.8612C57.3582 79.8373 56.7947 79.8253 56.1713 79.8253C55.5718 79.8253 54.9963 79.8373 54.4448 79.8612C53.8933 79.8852 53.3658 79.8972 52.8622 79.8972C52.8143 79.8972 52.7903 79.8253 52.7903 79.6814C52.7903 79.5375 52.8143 79.4656 52.8622 79.4656C53.9173 79.4656 54.6486 79.2018 55.0563 78.6743C55.4879 78.1228 55.7037 77.2236 55.7037 75.9767ZM73.8315 80.3288C73.8315 80.3768 73.7715 80.4008 73.6516 80.4008C73.5317 80.4247 73.4478 80.4247 73.3998 80.4008L56.8547 60.3667C56.0394 59.3836 55.3081 58.7242 54.6606 58.3885C54.0372 58.0288 53.4377 57.849 52.8622 57.849C52.7903 57.849 52.7543 57.777 52.7543 57.6332C52.7543 57.4893 52.7903 57.4174 52.8622 57.4174C53.2939 57.4174 53.7255 57.4293 54.1571 57.4533C54.6127 57.4773 55.0203 57.4893 55.38 57.4893C55.8116 57.4893 56.2192 57.4773 56.6029 57.4533C56.9865 57.4293 57.2743 57.4174 57.4661 57.4174C57.7778 57.4174 57.9936 57.5612 58.1135 57.849C58.2334 58.1127 58.5811 58.5923 59.1566 59.2877L73.5437 76.9479L73.8315 80.3288ZM73.8315 61.3738V80.3288L73.0042 79.2138V61.3738C73.0042 60.1269 72.7884 59.2277 72.3568 58.6762C71.9491 58.1247 71.2538 57.849 70.2706 57.849C70.2227 57.849 70.1987 57.777 70.1987 57.6332C70.1987 57.4893 70.2227 57.4174 70.2706 57.4174C70.7502 57.4174 71.2418 57.4413 71.7453 57.4893C72.2729 57.5133 72.8363 57.5253 73.4358 57.5253C74.0113 57.5253 74.5748 57.5133 75.1263 57.4893C75.7018 57.4413 76.2293 57.4174 76.7089 57.4174C76.7808 57.4174 76.8168 57.4893 76.8168 57.6332C76.8168 57.777 76.7808 57.849 76.7089 57.849C75.6778 57.849 74.9345 58.1247 74.4789 58.6762C74.0473 59.2277 73.8315 60.1269 73.8315 61.3738ZM84.4982 70.0061L84.8578 69.2867H94.3893L94.6411 70.0061H84.4982ZM102.662 79.4656C102.758 79.4656 102.806 79.5375 102.806 79.6814C102.806 79.8253 102.758 79.8972 102.662 79.8972C101.967 79.8972 101.259 79.8732 100.54 79.8253C99.8204 79.7773 99.125 79.7533 98.4537 79.7533C97.7103 79.7533 97.0629 79.7773 96.5114 79.8253C95.9599 79.8732 95.3484 79.8972 94.677 79.8972C94.5811 79.8972 94.5332 79.8253 94.5332 79.6814C94.5332 79.5375 94.5811 79.4656 94.677 79.4656C95.9479 79.4656 96.7392 79.2858 97.0509 78.9261C97.3626 78.5424 97.2787 77.8351 96.7991 76.804L88.8143 59.9351L89.7135 58.8201L82.7357 75.3293C82.1363 76.792 82.1003 77.8471 82.6278 78.4945C83.1554 79.1419 84.1984 79.4656 85.757 79.4656C85.8769 79.4656 85.9369 79.5375 85.9369 79.6814C85.9369 79.8253 85.8769 79.8972 85.757 79.8972C85.0377 79.8972 84.3783 79.8732 83.7788 79.8253C83.1793 79.7773 82.424 79.7533 81.5128 79.7533C80.6496 79.7533 79.9542 79.7773 79.4267 79.8253C78.9231 79.8732 78.2997 79.8972 77.5564 79.8972C77.4605 79.8972 77.4125 79.8253 77.4125 79.6814C77.4125 79.5375 77.4605 79.4656 77.5564 79.4656C78.2038 79.4656 78.7673 79.3457 79.2469 79.1059C79.7264 78.8422 80.17 78.3986 80.5777 77.7751C81.0093 77.1277 81.4769 76.2045 81.9804 75.0056L89.5696 57.0936C89.6176 57.0217 89.7015 56.9857 89.8214 56.9857C89.9413 56.9857 90.0132 57.0217 90.0372 57.0936L98.5256 74.9696C99.0771 76.1446 99.5687 77.0678 100 77.7391C100.432 78.3866 100.852 78.8422 101.259 79.1059C101.691 79.3457 102.158 79.4656 102.662 79.4656ZM109.933 76.9838C109.933 77.6792 110.005 78.2067 110.149 78.5664C110.292 78.9261 110.58 79.1659 111.012 79.2858C111.467 79.4057 112.127 79.4656 112.99 79.4656C113.062 79.4656 113.098 79.5375 113.098 79.6814C113.098 79.8253 113.062 79.8972 112.99 79.8972C112.414 79.8972 111.767 79.8852 111.048 79.8612C110.352 79.8373 109.573 79.8253 108.71 79.8253C107.919 79.8253 107.151 79.8373 106.408 79.8612C105.689 79.8852 105.041 79.8972 104.466 79.8972C104.394 79.8972 104.358 79.8253 104.358 79.6814C104.358 79.5375 104.394 79.4656 104.466 79.4656C105.329 79.4656 105.988 79.4057 106.444 79.2858C106.899 79.1659 107.199 78.9261 107.343 78.5664C107.487 78.2067 107.559 77.6792 107.559 76.9838V60.3307C107.559 59.6354 107.487 59.1198 107.343 58.7841C107.199 58.4244 106.899 58.1847 106.444 58.0648C105.988 57.9209 105.329 57.849 104.466 57.849C104.394 57.849 104.358 57.777 104.358 57.6332C104.358 57.4893 104.394 57.4174 104.466 57.4174C105.041 57.4174 105.689 57.4413 106.408 57.4893C107.151 57.5133 107.919 57.5253 108.71 57.5253C109.573 57.5253 110.364 57.5133 111.084 57.4893C111.803 57.4413 112.438 57.4174 112.99 57.4174C113.062 57.4174 113.098 57.4893 113.098 57.6332C113.098 57.777 113.062 57.849 112.99 57.849C112.127 57.849 111.467 57.9209 111.012 58.0648C110.58 58.2086 110.292 58.4604 110.149 58.8201C110.005 59.1798 109.933 59.7073 109.933 60.4027V76.9838ZM127.464 75.9767V58.2446L128.291 58.3165V75.9767C128.291 77.2236 128.507 78.1228 128.938 78.6743C129.37 79.2018 130.089 79.4656 131.096 79.4656C131.168 79.4656 131.204 79.5375 131.204 79.6814C131.204 79.8253 131.168 79.8972 131.096 79.8972C130.617 79.8972 130.125 79.8852 129.622 79.8612C129.118 79.8373 128.555 79.8253 127.931 79.8253C127.332 79.8253 126.756 79.8373 126.205 79.8612C125.653 79.8852 125.126 79.8972 124.622 79.8972C124.574 79.8972 124.55 79.8253 124.55 79.6814C124.55 79.5375 124.574 79.4656 124.622 79.4656C125.677 79.4656 126.409 79.2018 126.816 78.6743C127.248 78.1228 127.464 77.2236 127.464 75.9767ZM145.591 80.3288C145.591 80.3768 145.531 80.4008 145.412 80.4008C145.292 80.4247 145.208 80.4247 145.16 80.4008L128.615 60.3667C127.799 59.3836 127.068 58.7242 126.421 58.3885C125.797 58.0288 125.198 57.849 124.622 57.849C124.55 57.849 124.514 57.777 124.514 57.6332C124.514 57.4893 124.55 57.4174 124.622 57.4174C125.054 57.4174 125.485 57.4293 125.917 57.4533C126.373 57.4773 126.78 57.4893 127.14 57.4893C127.572 57.4893 127.979 57.4773 128.363 57.4533C128.746 57.4293 129.034 57.4174 129.226 57.4174C129.538 57.4174 129.754 57.5612 129.873 57.849C129.993 58.1127 130.341 58.5923 130.917 59.2877L145.304 76.9479L145.591 80.3288ZM145.591 61.3738V80.3288L144.764 79.2138V61.3738C144.764 60.1269 144.548 59.2277 144.117 58.6762C143.709 58.1247 143.014 57.849 142.031 57.849C141.983 57.849 141.959 57.777 141.959 57.6332C141.959 57.4893 141.983 57.4174 142.031 57.4174C142.51 57.4174 143.002 57.4413 143.505 57.4893C144.033 57.5133 144.596 57.5253 145.196 57.5253C145.771 57.5253 146.335 57.5133 146.886 57.4893C147.462 57.4413 147.989 57.4174 148.469 57.4174C148.541 57.4174 148.577 57.4893 148.577 57.6332C148.577 57.777 148.541 57.849 148.469 57.849C147.438 57.849 146.694 58.1247 146.239 58.6762C145.807 59.2277 145.591 60.1269 145.591 61.3738ZM156.258 70.0061L156.618 69.2867H166.149L166.401 70.0061H156.258ZM174.422 79.4656C174.518 79.4656 174.566 79.5375 174.566 79.6814C174.566 79.8253 174.518 79.8972 174.422 79.8972C173.726 79.8972 173.019 79.8732 172.3 79.8253C171.58 79.7773 170.885 79.7533 170.214 79.7533C169.47 79.7533 168.823 79.7773 168.271 79.8253C167.72 79.8732 167.108 79.8972 166.437 79.8972C166.341 79.8972 166.293 79.8253 166.293 79.6814C166.293 79.5375 166.341 79.4656 166.437 79.4656C167.708 79.4656 168.499 79.2858 168.811 78.9261C169.123 78.5424 169.039 77.8351 168.559 76.804L160.574 59.9351L161.473 58.8201L154.496 75.3293C153.896 76.792 153.86 77.8471 154.388 78.4945C154.915 79.1419 155.958 79.4656 157.517 79.4656C157.637 79.4656 157.697 79.5375 157.697 79.6814C157.697 79.8253 157.637 79.8972 157.517 79.8972C156.798 79.8972 156.138 79.8732 155.539 79.8253C154.939 79.7773 154.184 79.7533 153.273 79.7533C152.41 79.7533 151.714 79.7773 151.187 79.8253C150.683 79.8732 150.06 79.8972 149.316 79.8972C149.22 79.8972 149.172 79.8253 149.172 79.6814C149.172 79.5375 149.22 79.4656 149.316 79.4656C149.964 79.4656 150.527 79.3457 151.007 79.1059C151.486 78.8422 151.93 78.3986 152.338 77.7751C152.769 77.1277 153.237 76.2045 153.74 75.0056L161.33 57.0936C161.377 57.0217 161.461 56.9857 161.581 56.9857C161.701 56.9857 161.773 57.0217 161.797 57.0936L170.286 74.9696C170.837 76.1446 171.329 77.0678 171.76 77.7391C172.192 78.3866 172.611 78.8422 173.019 79.1059C173.451 79.3457 173.918 79.4656 174.422 79.4656ZM178.851 75.9767V58.2446L179.678 58.3165V75.9767C179.678 77.2236 179.894 78.1228 180.326 78.6743C180.757 79.2018 181.477 79.4656 182.484 79.4656C182.556 79.4656 182.592 79.5375 182.592 79.6814C182.592 79.8253 182.556 79.8972 182.484 79.8972C182.004 79.8972 181.513 79.8852 181.009 79.8612C180.506 79.8373 179.942 79.8253 179.319 79.8253C178.719 79.8253 178.144 79.8373 177.592 79.8612C177.041 79.8852 176.513 79.8972 176.01 79.8972C175.962 79.8972 175.938 79.8253 175.938 79.6814C175.938 79.5375 175.962 79.4656 176.01 79.4656C177.065 79.4656 177.796 79.2018 178.204 78.6743C178.635 78.1228 178.851 77.2236 178.851 75.9767ZM196.979 80.3288C196.979 80.3768 196.919 80.4008 196.799 80.4008C196.679 80.4247 196.595 80.4247 196.547 80.4008L180.002 60.3667C179.187 59.3836 178.456 58.7242 177.808 58.3885C177.185 58.0288 176.585 57.849 176.01 57.849C175.938 57.849 175.902 57.777 175.902 57.6332C175.902 57.4893 175.938 57.4174 176.01 57.4174C176.441 57.4174 176.873 57.4293 177.305 57.4533C177.76 57.4773 178.168 57.4893 178.527 57.4893C178.959 57.4893 179.367 57.4773 179.75 57.4533C180.134 57.4293 180.422 57.4174 180.614 57.4174C180.925 57.4174 181.141 57.5612 181.261 57.849C181.381 58.1127 181.729 58.5923 182.304 59.2877L196.691 76.9479L196.979 80.3288ZM196.979 61.3738V80.3288L196.152 79.2138V61.3738C196.152 60.1269 195.936 59.2277 195.504 58.6762C195.097 58.1247 194.401 57.849 193.418 57.849C193.37 57.849 193.346 57.777 193.346 57.6332C193.346 57.4893 193.37 57.4174 193.418 57.4174C193.898 57.4174 194.389 57.4413 194.893 57.4893C195.42 57.5133 195.984 57.5253 196.583 57.5253C197.159 57.5253 197.722 57.5133 198.274 57.4893C198.849 57.4413 199.377 57.4174 199.856 57.4174C199.928 57.4174 199.964 57.4893 199.964 57.6332C199.964 57.777 199.928 57.849 199.856 57.849C198.825 57.849 198.082 58.1247 197.626 58.6762C197.195 59.2277 196.979 60.1269 196.979 61.3738ZM207.646 70.0061L208.005 69.2867H217.537L217.789 70.0061H207.646ZM225.809 79.4656C225.905 79.4656 225.953 79.5375 225.953 79.6814C225.953 79.8253 225.905 79.8972 225.809 79.8972C225.114 79.8972 224.407 79.8732 223.687 79.8253C222.968 79.7773 222.273 79.7533 221.601 79.7533C220.858 79.7533 220.21 79.7773 219.659 79.8253C219.107 79.8732 218.496 79.8972 217.825 79.8972C217.729 79.8972 217.681 79.8253 217.681 79.6814C217.681 79.5375 217.729 79.4656 217.825 79.4656C219.095 79.4656 219.887 79.2858 220.198 78.9261C220.51 78.5424 220.426 77.8351 219.947 76.804L211.962 59.9351L212.861 58.8201L205.883 75.3293C205.284 76.792 205.248 77.8471 205.775 78.4945C206.303 79.1419 207.346 79.4656 208.905 79.4656C209.024 79.4656 209.084 79.5375 209.084 79.6814C209.084 79.8253 209.024 79.8972 208.905 79.8972C208.185 79.8972 207.526 79.8732 206.926 79.8253C206.327 79.7773 205.572 79.7533 204.66 79.7533C203.797 79.7533 203.102 79.7773 202.574 79.8253C202.071 79.8732 201.447 79.8972 200.704 79.8972C200.608 79.8972 200.56 79.8253 200.56 79.6814C200.56 79.5375 200.608 79.4656 200.704 79.4656C201.351 79.4656 201.915 79.3457 202.394 79.1059C202.874 78.8422 203.318 78.3986 203.725 77.7751C204.157 77.1277 204.624 76.2045 205.128 75.0056L212.717 57.0936C212.765 57.0217 212.849 56.9857 212.969 56.9857C213.089 56.9857 213.161 57.0217 213.185 57.0936L221.673 74.9696C222.225 76.1446 222.716 77.0678 223.148 77.7391C223.579 78.3866 223.999 78.8422 224.407 79.1059C224.838 79.3457 225.306 79.4656 225.809 79.4656ZM233.08 76.9838C233.08 77.6792 233.152 78.2067 233.296 78.5664C233.44 78.9261 233.728 79.1659 234.159 79.2858C234.615 79.4057 235.274 79.4656 236.137 79.4656C236.209 79.4656 236.245 79.5375 236.245 79.6814C236.245 79.8253 236.209 79.8972 236.137 79.8972C235.562 79.8972 234.915 79.8852 234.195 79.8612C233.5 79.8373 232.721 79.8253 231.857 79.8253C231.066 79.8253 230.299 79.8373 229.555 79.8612C228.836 79.8852 228.189 79.8972 227.613 79.8972C227.541 79.8972 227.505 79.8253 227.505 79.6814C227.505 79.5375 227.541 79.4656 227.613 79.4656C228.476 79.4656 229.136 79.4057 229.591 79.2858C230.047 79.1659 230.347 78.9261 230.491 78.5664C230.634 78.2067 230.706 77.6792 230.706 76.9838V60.3307C230.706 59.6354 230.634 59.1198 230.491 58.7841C230.347 58.4244 230.047 58.1847 229.591 58.0648C229.136 57.9209 228.476 57.849 227.613 57.849C227.541 57.849 227.505 57.777 227.505 57.6332C227.505 57.4893 227.541 57.4174 227.613 57.4174C228.189 57.4174 228.836 57.4413 229.555 57.4893C230.299 57.5133 231.066 57.5253 231.857 57.5253C232.721 57.5253 233.512 57.5133 234.231 57.4893C234.951 57.4413 235.586 57.4174 236.137 57.4174C236.209 57.4174 236.245 57.4893 236.245 57.6332C236.245 57.777 236.209 57.849 236.137 57.849C235.274 57.849 234.615 57.9209 234.159 58.0648C233.728 58.2086 233.44 58.4604 233.296 58.8201C233.152 59.1798 233.08 59.7073 233.08 60.4027V76.9838Z" fill="#2C2420"/>
<path d="M66.0335 106.393H63.479L64.8361 98.2188H67.4385C68.2315 98.2188 68.8847 98.3851 69.3983 98.7177C69.9145 99.0504 70.2738 99.5254 70.476 100.143C70.6809 100.76 70.7115 101.497 70.5678 102.354C70.4294 103.195 70.1607 103.917 69.7615 104.521C69.365 105.123 68.8515 105.586 68.2208 105.91C67.5928 106.232 66.8637 106.393 66.0335 106.393ZM64.6165 105.515H66.0654C66.7413 105.515 67.3241 105.382 67.8137 105.116C68.306 104.85 68.7025 104.471 69.0031 103.978C69.3065 103.486 69.5141 102.902 69.6258 102.226C69.7376 101.577 69.7269 101.019 69.5939 100.554C69.4635 100.085 69.2067 99.7263 68.8235 99.4761C68.443 99.2233 67.9334 99.0969 67.2948 99.0969H65.6783L64.6165 105.515ZM73.9845 106.521C73.3964 106.521 72.9108 106.391 72.5276 106.13C72.1444 105.866 71.877 105.499 71.7253 105.028C71.5736 104.555 71.5497 104.004 71.6535 103.376C71.7572 102.748 71.9635 102.194 72.2721 101.715C72.5808 101.234 72.9653 100.858 73.4257 100.59C73.886 100.318 74.3916 100.183 74.9424 100.183C75.2617 100.183 75.5691 100.236 75.8645 100.342C76.1598 100.449 76.4153 100.622 76.6308 100.861C76.8463 101.098 76.9967 101.412 77.0818 101.803C77.167 102.194 77.1617 102.676 77.0659 103.248L77.002 103.647H72.2761L72.4039 102.833H76.1718C76.233 102.487 76.217 102.178 76.1239 101.907C76.0334 101.635 75.8751 101.421 75.6489 101.264C75.4254 101.107 75.142 101.029 74.7987 101.029C74.4448 101.029 74.1149 101.125 73.8089 101.316C73.5028 101.505 73.2474 101.745 73.0425 102.035C72.8376 102.322 72.7099 102.615 72.6593 102.913L72.5476 103.615C72.4677 104.124 72.4797 104.528 72.5835 104.829C72.6899 105.129 72.8749 105.346 73.1383 105.479C73.4017 105.61 73.7317 105.675 74.1282 105.675C74.381 105.675 74.6138 105.64 74.8267 105.571C75.0396 105.499 75.2298 105.393 75.3975 105.252C75.5651 105.108 75.7061 104.93 75.8205 104.717L76.6827 104.972C76.5363 105.281 76.3301 105.552 76.064 105.787C75.8006 106.018 75.4919 106.199 75.138 106.329C74.7868 106.457 74.4022 106.521 73.9845 106.521ZM81.682 100.262L81.5543 101.061H78.3771L78.5048 100.262H81.682ZM79.6703 98.7936H80.6123L79.6384 104.637C79.5958 104.903 79.6024 105.103 79.6583 105.236C79.7169 105.366 79.8047 105.454 79.9218 105.499C80.0415 105.542 80.1706 105.563 80.3089 105.563C80.4127 105.563 80.4979 105.558 80.5644 105.547C80.6309 105.534 80.6841 105.523 80.724 105.515L80.7879 106.361C80.7161 106.385 80.6189 106.409 80.4965 106.433C80.3768 106.46 80.2291 106.473 80.0535 106.473C79.7874 106.473 79.5373 106.416 79.3031 106.302C79.0689 106.187 78.8893 106.013 78.7642 105.779C78.6392 105.544 78.6059 105.249 78.6645 104.893L79.6703 98.7936ZM83.8653 106.537C83.4768 106.537 83.1362 106.464 82.8435 106.317C82.5508 106.168 82.3339 105.954 82.1929 105.675C82.0519 105.393 82.0133 105.052 82.0771 104.653C82.1384 104.302 82.2568 104.017 82.4324 103.799C82.608 103.578 82.8209 103.405 83.071 103.28C83.3238 103.152 83.5952 103.058 83.8853 102.997C84.178 102.933 84.4694 102.883 84.7594 102.849C85.1373 102.801 85.4446 102.764 85.6814 102.737C85.9183 102.711 86.0965 102.667 86.2163 102.605C86.336 102.544 86.4092 102.439 86.4358 102.29V102.258C86.4997 101.867 86.4478 101.562 86.2801 101.344C86.1125 101.123 85.8131 101.013 85.3821 101.013C84.935 101.013 84.5612 101.111 84.2605 101.308C83.9598 101.505 83.7376 101.715 83.5939 101.939L82.7637 101.62C82.9819 101.247 83.2427 100.957 83.546 100.749C83.8494 100.539 84.1673 100.393 84.5 100.31C84.8326 100.225 85.1532 100.183 85.4619 100.183C85.6588 100.183 85.881 100.207 86.1285 100.254C86.3759 100.3 86.6074 100.394 86.823 100.538C87.0412 100.682 87.2048 100.898 87.3139 101.188C87.4257 101.479 87.4417 101.867 87.3618 102.354L86.6913 106.393H85.7493L85.893 105.563H85.8451C85.7599 105.696 85.6295 105.838 85.4539 105.99C85.281 106.142 85.0614 106.271 84.7953 106.377C84.5319 106.484 84.2219 106.537 83.8653 106.537ZM84.1367 105.691C84.5093 105.691 84.8352 105.618 85.1146 105.471C85.3967 105.325 85.6229 105.136 85.7932 104.904C85.9662 104.673 86.0739 104.43 86.1165 104.174L86.2602 103.312C86.2123 103.36 86.1178 103.404 85.9768 103.444C85.8358 103.481 85.6761 103.514 85.4978 103.543C85.3222 103.57 85.1506 103.594 84.9829 103.615C84.8179 103.634 84.6849 103.65 84.5838 103.663C84.3336 103.695 84.0955 103.747 83.8693 103.819C83.6458 103.888 83.4569 103.993 83.3025 104.134C83.1508 104.273 83.0564 104.461 83.0191 104.701C82.9633 105.028 83.0417 105.276 83.2546 105.443C83.4675 105.608 83.7615 105.691 84.1367 105.691ZM90.7097 98.2188L89.3526 106.393H88.4106L89.7677 98.2188H90.7097ZM93.377 98.2188L92.0199 106.393H91.0779L92.435 98.2188H93.377ZM96.2997 106.521C95.7116 106.521 95.226 106.391 94.8428 106.13C94.4596 105.866 94.1922 105.499 94.0405 105.028C93.8889 104.555 93.8649 104.004 93.9687 103.376C94.0725 102.748 94.2787 102.194 94.5874 101.715C94.896 101.234 95.2805 100.858 95.7409 100.59C96.2012 100.318 96.7068 100.183 97.2576 100.183C97.577 100.183 97.8843 100.236 98.1797 100.342C98.475 100.449 98.7305 100.622 98.946 100.861C99.1616 101.098 99.3119 101.412 99.3971 101.803C99.4822 102.194 99.4769 102.676 99.3811 103.248L99.3172 103.647H94.5914L94.7191 102.833H98.487C98.5482 102.487 98.5322 102.178 98.4391 101.907C98.3486 101.635 98.1903 101.421 97.9641 101.264C97.7406 101.107 97.4572 101.029 97.1139 101.029C96.76 101.029 96.4301 101.125 96.1241 101.316C95.8181 101.505 95.5626 101.745 95.3577 102.035C95.1528 102.322 95.0251 102.615 94.9745 102.913L94.8628 103.615C94.7829 104.124 94.7949 104.528 94.8987 104.829C95.0051 105.129 95.1901 105.346 95.4535 105.479C95.7169 105.61 96.0469 105.675 96.4434 105.675C96.6962 105.675 96.929 105.64 97.1419 105.571C97.3548 105.499 97.545 105.393 97.7127 105.252C97.8803 105.108 98.0213 104.93 98.1358 104.717L98.9979 104.972C98.8516 105.281 98.6453 105.552 98.3792 105.787C98.1158 106.018 97.8071 106.199 97.4532 106.329C97.102 106.457 96.7175 106.521 96.2997 106.521ZM105.45 101.635L104.556 101.875C104.524 101.731 104.468 101.593 104.388 101.46C104.311 101.324 104.191 101.214 104.029 101.129C103.869 101.041 103.651 100.997 103.375 100.997C102.999 100.997 102.673 101.083 102.397 101.256C102.12 101.427 101.962 101.643 101.922 101.907C101.882 102.138 101.935 102.323 102.081 102.462C102.228 102.6 102.472 102.713 102.816 102.801L103.694 103.025C104.221 103.16 104.596 103.364 104.819 103.635C105.046 103.904 105.123 104.254 105.051 104.685C104.992 105.036 104.839 105.35 104.592 105.627C104.344 105.904 104.028 106.122 103.642 106.282C103.256 106.441 102.826 106.521 102.353 106.521C101.722 106.521 101.224 106.385 100.86 106.114C100.495 105.84 100.301 105.443 100.277 104.924L101.219 104.701C101.243 105.028 101.36 105.276 101.57 105.443C101.783 105.608 102.081 105.691 102.464 105.691C102.904 105.691 103.269 105.598 103.562 105.411C103.855 105.222 104.021 104.996 104.061 104.733C104.101 104.517 104.058 104.338 103.933 104.194C103.811 104.05 103.598 103.943 103.295 103.871L102.321 103.631C101.778 103.496 101.397 103.288 101.179 103.009C100.964 102.729 100.892 102.378 100.964 101.955C101.022 101.609 101.171 101.303 101.411 101.037C101.653 100.771 101.956 100.562 102.321 100.41C102.688 100.258 103.087 100.183 103.518 100.183C104.125 100.183 104.579 100.316 104.879 100.582C105.18 100.845 105.37 101.196 105.45 101.635ZM113.143 108.692L113.677 105.451H113.598C113.51 105.563 113.387 105.704 113.23 105.874C113.076 106.042 112.87 106.192 112.612 106.325C112.354 106.456 112.028 106.521 111.634 106.521C111.123 106.521 110.693 106.392 110.345 106.134C109.996 105.873 109.751 105.506 109.61 105.032C109.469 104.556 109.452 103.993 109.558 103.344C109.665 102.7 109.867 102.141 110.165 101.667C110.463 101.194 110.83 100.828 111.267 100.57C111.703 100.312 112.179 100.183 112.696 100.183C113.095 100.183 113.399 100.249 113.61 100.382C113.823 100.513 113.977 100.662 114.073 100.829C114.168 100.994 114.242 101.13 114.292 101.236H114.404L114.572 100.262H115.482L114.085 108.692H113.143ZM111.897 105.675C112.278 105.675 112.614 105.576 112.907 105.379C113.202 105.18 113.446 104.904 113.638 104.553C113.832 104.199 113.968 103.791 114.045 103.328C114.122 102.87 114.122 102.47 114.045 102.126C113.968 101.781 113.815 101.512 113.586 101.32C113.359 101.126 113.055 101.029 112.672 101.029C112.272 101.029 111.923 101.131 111.622 101.336C111.324 101.538 111.08 101.814 110.891 102.162C110.703 102.508 110.572 102.897 110.5 103.328C110.428 103.764 110.43 104.161 110.504 104.517C110.581 104.871 110.734 105.153 110.963 105.364C111.195 105.571 111.506 105.675 111.897 105.675ZM120.46 103.887L121.067 100.262H122.009L120.987 106.393H120.045L120.22 105.356H120.157C119.965 105.667 119.698 105.932 119.354 106.15C119.011 106.365 118.608 106.473 118.145 106.473C117.762 106.473 117.434 106.389 117.163 106.222C116.894 106.051 116.703 105.796 116.588 105.455C116.476 105.112 116.463 104.68 116.548 104.158L117.203 100.262H118.145L117.506 104.094C117.434 104.541 117.502 104.898 117.71 105.164C117.917 105.43 118.217 105.563 118.608 105.563C118.842 105.563 119.09 105.503 119.35 105.383C119.614 105.264 119.848 105.08 120.053 104.833C120.26 104.585 120.396 104.27 120.46 103.887ZM125.267 106.521C124.679 106.521 124.193 106.391 123.81 106.13C123.427 105.866 123.159 105.499 123.008 105.028C122.856 104.555 122.832 104.004 122.936 103.376C123.039 102.748 123.246 102.194 123.554 101.715C123.863 101.234 124.248 100.858 124.708 100.59C125.168 100.318 125.674 100.183 126.225 100.183C126.544 100.183 126.851 100.236 127.147 100.342C127.442 100.449 127.697 100.622 127.913 100.861C128.129 101.098 128.279 101.412 128.364 101.803C128.449 102.194 128.444 102.676 128.348 103.248L128.284 103.647H123.558L123.686 102.833H127.454C127.515 102.487 127.499 102.178 127.406 101.907C127.316 101.635 127.157 101.421 126.931 101.264C126.708 101.107 126.424 101.029 126.081 101.029C125.727 101.029 125.397 101.125 125.091 101.316C124.785 101.505 124.53 101.745 124.325 102.035C124.12 102.322 123.992 102.615 123.942 102.913L123.83 103.615C123.75 104.124 123.762 104.528 123.866 104.829C123.972 105.129 124.157 105.346 124.42 105.479C124.684 105.61 125.014 105.675 125.41 105.675C125.663 105.675 125.896 105.64 126.109 105.571C126.322 105.499 126.512 105.393 126.68 105.252C126.847 105.108 126.988 104.93 127.103 104.717L127.965 104.972C127.819 105.281 127.612 105.552 127.346 105.787C127.083 106.018 126.774 106.199 126.42 106.329C126.069 106.457 125.684 106.521 125.267 106.521ZM134.225 106.537C133.837 106.537 133.496 106.464 133.204 106.317C132.911 106.168 132.694 105.954 132.553 105.675C132.412 105.393 132.373 105.052 132.437 104.653C132.499 104.302 132.617 104.017 132.793 103.799C132.968 103.578 133.181 103.405 133.431 103.28C133.684 103.152 133.955 103.058 134.245 102.997C134.538 102.933 134.83 102.883 135.12 102.849C135.497 102.801 135.805 102.764 136.042 102.737C136.278 102.711 136.457 102.667 136.576 102.605C136.696 102.544 136.769 102.439 136.796 102.29V102.258C136.86 101.867 136.808 101.562 136.64 101.344C136.473 101.123 136.173 101.013 135.742 101.013C135.295 101.013 134.921 101.111 134.621 101.308C134.32 101.505 134.098 101.715 133.954 101.939L133.124 101.62C133.342 101.247 133.603 100.957 133.906 100.749C134.21 100.539 134.527 100.393 134.86 100.31C135.193 100.225 135.513 100.183 135.822 100.183C136.019 100.183 136.241 100.207 136.489 100.254C136.736 100.3 136.968 100.394 137.183 100.538C137.401 100.682 137.565 100.898 137.674 101.188C137.786 101.479 137.802 101.867 137.722 102.354L137.051 106.393H136.109L136.253 105.563H136.205C136.12 105.696 135.99 105.838 135.814 105.99C135.641 106.142 135.422 106.271 135.155 106.377C134.892 106.484 134.582 106.537 134.225 106.537ZM134.497 105.691C134.869 105.691 135.195 105.618 135.475 105.471C135.757 105.325 135.983 105.136 136.153 104.904C136.326 104.673 136.434 104.43 136.477 104.174L136.62 103.312C136.572 103.36 136.478 103.404 136.337 103.444C136.196 103.481 136.036 103.514 135.858 103.543C135.682 103.57 135.511 103.594 135.343 103.615C135.178 103.634 135.045 103.65 134.944 103.663C134.694 103.695 134.456 103.747 134.229 103.819C134.006 103.888 133.817 103.993 133.663 104.134C133.511 104.273 133.417 104.461 133.379 104.701C133.323 105.028 133.402 105.276 133.615 105.443C133.828 105.608 134.122 105.691 134.497 105.691ZM138.898 106.393L140.256 98.2188H141.198L140.703 101.236H140.782C140.868 101.13 140.986 100.994 141.138 100.829C141.289 100.662 141.493 100.513 141.748 100.382C142.004 100.249 142.331 100.183 142.73 100.183C143.246 100.183 143.679 100.312 144.027 100.57C144.379 100.828 144.625 101.194 144.766 101.667C144.91 102.141 144.928 102.7 144.822 103.344C144.715 103.993 144.512 104.556 144.211 105.032C143.913 105.506 143.546 105.873 143.109 106.134C142.676 106.392 142.203 106.521 141.692 106.521C141.299 106.521 140.994 106.456 140.778 106.325C140.566 106.192 140.409 106.042 140.307 105.874C140.209 105.704 140.133 105.563 140.08 105.451H139.968L139.809 106.393H138.898ZM140.335 103.328C140.261 103.791 140.262 104.199 140.339 104.553C140.417 104.904 140.57 105.18 140.798 105.379C141.027 105.576 141.331 105.675 141.708 105.675C142.102 105.675 142.448 105.571 142.746 105.364C143.044 105.153 143.289 104.871 143.481 104.517C143.672 104.161 143.805 103.764 143.88 103.328C143.949 102.897 143.946 102.508 143.872 102.162C143.8 101.814 143.648 101.538 143.417 101.336C143.188 101.131 142.874 101.029 142.475 101.029C142.092 101.029 141.752 101.126 141.457 101.32C141.164 101.512 140.922 101.781 140.731 102.126C140.542 102.47 140.41 102.87 140.335 103.328ZM145.752 106.393L146.774 100.262H147.684L147.524 101.188H147.588C147.748 100.885 147.991 100.639 148.318 100.45C148.646 100.261 148.993 100.167 149.36 100.167C149.432 100.167 149.518 100.168 149.62 100.171C149.721 100.171 149.799 100.175 149.855 100.183L149.695 101.141C149.663 101.133 149.592 101.121 149.48 101.105C149.368 101.086 149.248 101.077 149.121 101.077C148.823 101.077 148.547 101.139 148.294 101.264C148.042 101.387 147.83 101.557 147.66 101.775C147.489 101.991 147.38 102.237 147.332 102.514L146.694 106.393H145.752ZM151.744 106.537C151.355 106.537 151.015 106.464 150.722 106.317C150.429 106.168 150.213 105.954 150.072 105.675C149.931 105.393 149.892 105.052 149.956 104.653C150.017 104.302 150.135 104.017 150.311 103.799C150.487 103.578 150.7 103.405 150.95 103.28C151.202 103.152 151.474 103.058 151.764 102.997C152.057 102.933 152.348 102.883 152.638 102.849C153.016 102.801 153.323 102.764 153.56 102.737C153.797 102.711 153.975 102.667 154.095 102.605C154.215 102.544 154.288 102.439 154.314 102.29V102.258C154.378 101.867 154.326 101.562 154.159 101.344C153.991 101.123 153.692 101.013 153.261 101.013C152.814 101.013 152.44 101.111 152.139 101.308C151.838 101.505 151.616 101.715 151.473 101.939L150.642 101.62C150.861 101.247 151.121 100.957 151.425 100.749C151.728 100.539 152.046 100.393 152.379 100.31C152.711 100.225 153.032 100.183 153.341 100.183C153.537 100.183 153.76 100.207 154.007 100.254C154.255 100.3 154.486 100.394 154.702 100.538C154.92 100.682 155.083 100.898 155.193 101.188C155.304 101.479 155.32 101.867 155.24 102.354L154.57 106.393H153.628L153.772 105.563H153.724C153.639 105.696 153.508 105.838 153.333 105.99C153.16 106.142 152.94 106.271 152.674 106.377C152.411 106.484 152.101 106.537 151.744 106.537ZM152.015 105.691C152.388 105.691 152.714 105.618 152.993 105.471C153.275 105.325 153.502 105.136 153.672 104.904C153.845 104.673 153.953 104.43 153.995 104.174L154.139 103.312C154.091 103.36 153.996 103.404 153.855 103.444C153.714 103.481 153.555 103.514 153.376 103.543C153.201 103.57 153.029 103.594 152.862 103.615C152.697 103.634 152.564 103.65 152.462 103.663C152.212 103.695 151.974 103.747 151.748 103.819C151.524 103.888 151.336 103.993 151.181 104.134C151.029 104.273 150.935 104.461 150.898 104.701C150.842 105.028 150.92 105.276 151.133 105.443C151.346 105.608 151.64 105.691 152.015 105.691ZM156.114 106.393L156.241 105.675L160.456 101.204L160.472 101.141H157.103L157.247 100.262H161.829L161.702 101.013L157.582 105.451L157.567 105.515H161.063L160.919 106.393H156.114ZM164.158 106.537C163.77 106.537 163.429 106.464 163.137 106.317C162.844 106.168 162.627 105.954 162.486 105.675C162.345 105.393 162.306 105.052 162.37 104.653C162.431 104.302 162.55 104.017 162.725 103.799C162.901 103.578 163.114 103.405 163.364 103.28C163.617 103.152 163.888 103.058 164.178 102.997C164.471 102.933 164.762 102.883 165.052 102.849C165.43 102.801 165.738 102.764 165.974 102.737C166.211 102.711 166.39 102.667 166.509 102.605C166.629 102.544 166.702 102.439 166.729 102.29V102.258C166.793 101.867 166.741 101.562 166.573 101.344C166.406 101.123 166.106 101.013 165.675 101.013C165.228 101.013 164.854 101.111 164.554 101.308C164.253 101.505 164.031 101.715 163.887 101.939L163.057 101.62C163.275 101.247 163.536 100.957 163.839 100.749C164.142 100.539 164.46 100.393 164.793 100.31C165.126 100.225 165.446 100.183 165.755 100.183C165.952 100.183 166.174 100.207 166.422 100.254C166.669 100.3 166.901 100.394 167.116 100.538C167.334 100.682 167.498 100.898 167.607 101.188C167.719 101.479 167.735 101.867 167.655 102.354L166.984 106.393H166.042L166.186 105.563H166.138C166.053 105.696 165.923 105.838 165.747 105.99C165.574 106.142 165.354 106.271 165.088 106.377C164.825 106.484 164.515 106.537 164.158 106.537ZM164.43 105.691C164.802 105.691 165.128 105.618 165.408 105.471C165.69 105.325 165.916 105.136 166.086 104.904C166.259 104.673 166.367 104.43 166.41 104.174L166.553 103.312C166.505 103.36 166.411 103.404 166.27 103.444C166.129 103.481 165.969 103.514 165.791 103.543C165.615 103.57 165.444 103.594 165.276 103.615C165.111 103.634 164.978 103.65 164.877 103.663C164.627 103.695 164.389 103.747 164.162 103.819C163.939 103.888 163.75 103.993 163.596 104.134C163.444 104.273 163.349 104.461 163.312 104.701C163.256 105.028 163.335 105.276 163.548 105.443C163.761 105.608 164.055 105.691 164.43 105.691ZM170.252 102.705L169.646 106.393H168.704L169.725 100.262H170.636L170.476 101.22H170.556C170.747 100.909 171.007 100.659 171.334 100.47C171.661 100.278 172.056 100.183 172.519 100.183C172.929 100.183 173.275 100.268 173.557 100.438C173.842 100.606 174.043 100.861 174.16 101.204C174.28 101.545 174.297 101.976 174.212 102.498L173.557 106.393H172.615L173.254 102.562C173.334 102.083 173.271 101.707 173.066 101.436C172.864 101.165 172.543 101.029 172.104 101.029C171.801 101.029 171.52 101.094 171.262 101.224C171.007 101.355 170.79 101.545 170.612 101.795C170.436 102.045 170.316 102.349 170.252 102.705Z" fill="#8B7367"/>
</svg>
