<svg width="177" height="18" viewBox="0 0 177 18" fill="none" xmlns="http://www.w3.org/2000/svg">
<path d="M2.21171 14.2432V0.944139L2.83215 0.998092V14.2432C2.83215 15.1784 2.99401 15.8528 3.31772 16.2664C3.64143 16.6621 4.18095 16.8599 4.93627 16.8599C4.99022 16.8599 5.0172 16.9138 5.0172 17.0217C5.0172 17.1296 4.99022 17.1836 4.93627 17.1836C4.57659 17.1836 4.20792 17.1746 3.83026 17.1566C3.4526 17.1386 3.02998 17.1296 2.5624 17.1296C2.1128 17.1296 1.68118 17.1386 1.26756 17.1566C0.853926 17.1746 0.45828 17.1836 0.0806187 17.1836C0.0446509 17.1836 0.026667 17.1296 0.026667 17.0217C0.026667 16.9138 0.0446509 16.8599 0.0806187 16.8599C0.87191 16.8599 1.42042 16.6621 1.72614 16.2664C2.04985 15.8528 2.21171 15.1784 2.21171 14.2432ZM15.8075 17.5073C15.8075 17.5433 15.7626 17.5613 15.6727 17.5613C15.5827 17.5792 15.5198 17.5792 15.4838 17.5613L3.07494 2.53571C2.46348 1.79837 1.91498 1.30382 1.42941 1.05204C0.961829 0.782285 0.512232 0.647405 0.0806187 0.647405C0.026667 0.647405 -0.000308797 0.593454 -0.000308797 0.485551C-0.000308797 0.377648 0.026667 0.323696 0.0806187 0.323696C0.404329 0.323696 0.728039 0.332688 1.05175 0.350672C1.39344 0.368656 1.69917 0.377647 1.96893 0.377647C2.29264 0.377647 2.59836 0.368656 2.88611 0.350672C3.17385 0.332688 3.38965 0.323696 3.53353 0.323696C3.76732 0.323696 3.92917 0.431599 4.01909 0.647405C4.10901 0.845228 4.36978 1.20491 4.80139 1.72644L15.5917 14.9716L15.8075 17.5073ZM15.8075 3.29104V17.5073L15.1871 16.6711V3.29104C15.1871 2.35588 15.0252 1.68148 14.7015 1.26785C14.3958 0.85422 13.8743 0.647405 13.1369 0.647405C13.101 0.647405 13.083 0.593454 13.083 0.485551C13.083 0.377648 13.101 0.323696 13.1369 0.323696C13.4966 0.323696 13.8653 0.34168 14.2429 0.377647C14.6386 0.395631 15.0612 0.404623 15.5108 0.404623C15.9424 0.404623 16.365 0.395631 16.7787 0.377647C17.2103 0.34168 17.6059 0.323696 17.9656 0.323696C18.0196 0.323696 18.0465 0.377648 18.0465 0.485551C18.0465 0.593454 18.0196 0.647405 17.9656 0.647405C17.1923 0.647405 16.6348 0.85422 16.2931 1.26785C15.9694 1.68148 15.8075 2.35588 15.8075 3.29104ZM23.8076 9.76524L24.0773 9.22572H31.2259L31.4147 9.76524H23.8076ZM37.4304 16.8599C37.5023 16.8599 37.5383 16.9138 37.5383 17.0217C37.5383 17.1296 37.5023 17.1836 37.4304 17.1836C36.9088 17.1836 36.3783 17.1656 35.8388 17.1296C35.2993 17.0937 34.7777 17.0757 34.2742 17.0757C33.7167 17.0757 33.2311 17.0937 32.8175 17.1296C32.4039 17.1656 31.9453 17.1836 31.4417 17.1836C31.3698 17.1836 31.3338 17.1296 31.3338 17.0217C31.3338 16.9138 31.3698 16.8599 31.4417 16.8599C32.3949 16.8599 32.9883 16.725 33.2221 16.4552C33.4559 16.1675 33.393 15.637 33.0333 14.8637L27.0447 2.212L27.719 1.37575L22.4857 13.7577C22.0361 14.8547 22.0092 15.646 22.4048 16.1315C22.8005 16.6171 23.5828 16.8599 24.7517 16.8599C24.8416 16.8599 24.8866 16.9138 24.8866 17.0217C24.8866 17.1296 24.8416 17.1836 24.7517 17.1836C24.2122 17.1836 23.7176 17.1656 23.268 17.1296C22.8184 17.0937 22.2519 17.0757 21.5686 17.0757C20.9211 17.0757 20.3996 17.0937 20.004 17.1296C19.6263 17.1656 19.1587 17.1836 18.6012 17.1836C18.5293 17.1836 18.4933 17.1296 18.4933 17.0217C18.4933 16.9138 18.5293 16.8599 18.6012 16.8599C19.0868 16.8599 19.5094 16.77 19.8691 16.5901C20.2288 16.3923 20.5615 16.0596 20.8672 15.592C21.1909 15.1065 21.5416 14.4141 21.9192 13.5149L27.6111 0.0809138C27.6471 0.0269617 27.7101 -1.43107e-05 27.8 -1.43107e-05C27.8899 -1.43107e-05 27.9438 0.0269617 27.9618 0.0809138L34.3281 13.4879C34.7418 14.3691 35.1104 15.0615 35.4341 15.565C35.7578 16.0506 36.0726 16.3923 36.3783 16.5901C36.702 16.77 37.0527 16.8599 37.4304 16.8599ZM40.7524 14.2432V0.944139L41.3728 0.998092V14.2432C41.3728 15.1784 41.5347 15.8528 41.8584 16.2664C42.1821 16.6621 42.7216 16.8599 43.4769 16.8599C43.5309 16.8599 43.5579 16.9138 43.5579 17.0217C43.5579 17.1296 43.5309 17.1836 43.4769 17.1836C43.1173 17.1836 42.7486 17.1746 42.3709 17.1566C41.9933 17.1386 41.5706 17.1296 41.1031 17.1296C40.6535 17.1296 40.2219 17.1386 39.8082 17.1566C39.3946 17.1746 38.999 17.1836 38.6213 17.1836C38.5853 17.1836 38.5673 17.1296 38.5673 17.0217C38.5673 16.9138 38.5853 16.8599 38.6213 16.8599C39.4126 16.8599 39.9611 16.6621 40.2668 16.2664C40.5905 15.8528 40.7524 15.1784 40.7524 14.2432ZM54.3482 17.5073C54.3482 17.5433 54.3032 17.5613 54.2133 17.5613C54.1234 17.5792 54.0605 17.5792 54.0245 17.5613L41.6156 2.53571C41.0042 1.79837 40.4556 1.30382 39.9701 1.05204C39.5025 0.782285 39.0529 0.647405 38.6213 0.647405C38.5673 0.647405 38.5404 0.593454 38.5404 0.485551C38.5404 0.377648 38.5673 0.323696 38.6213 0.323696C38.945 0.323696 39.2687 0.332688 39.5924 0.350672C39.9341 0.368656 40.2398 0.377647 40.5096 0.377647C40.8333 0.377647 41.139 0.368656 41.4268 0.350672C41.7145 0.332688 41.9303 0.323696 42.0742 0.323696C42.308 0.323696 42.4698 0.431599 42.5598 0.647405C42.6497 0.845228 42.9104 1.20491 43.3421 1.72644L54.1324 14.9716L54.3482 17.5073ZM54.3482 3.29104V17.5073L53.7278 16.6711V3.29104C53.7278 2.35588 53.5659 1.68148 53.2422 1.26785C52.9365 0.85422 52.4149 0.647405 51.6776 0.647405C51.6416 0.647405 51.6236 0.593454 51.6236 0.485551C51.6236 0.377648 51.6416 0.323696 51.6776 0.323696C52.0373 0.323696 52.4059 0.34168 52.7836 0.377647C53.1793 0.395631 53.6019 0.404623 54.0515 0.404623C54.4831 0.404623 54.9057 0.395631 55.3193 0.377647C55.7509 0.34168 56.1466 0.323696 56.5063 0.323696C56.5602 0.323696 56.5872 0.377648 56.5872 0.485551C56.5872 0.593454 56.5602 0.647405 56.5063 0.647405C55.733 0.647405 55.1755 0.85422 54.8338 1.26785C54.5101 1.68148 54.3482 2.35588 54.3482 3.29104ZM62.3482 9.76524L62.618 9.22572H69.7666L69.9554 9.76524H62.3482ZM75.971 16.8599C76.043 16.8599 76.0789 16.9138 76.0789 17.0217C76.0789 17.1296 76.043 17.1836 75.971 17.1836C75.4495 17.1836 74.919 17.1656 74.3794 17.1296C73.8399 17.0937 73.3184 17.0757 72.8148 17.0757C72.2573 17.0757 71.7718 17.0937 71.3582 17.1296C70.9445 17.1656 70.4859 17.1836 69.9824 17.1836C69.9104 17.1836 69.8745 17.1296 69.8745 17.0217C69.8745 16.9138 69.9104 16.8599 69.9824 16.8599C70.9355 16.8599 71.529 16.725 71.7628 16.4552C71.9966 16.1675 71.9336 15.637 71.574 14.8637L65.5853 2.212L66.2597 1.37575L61.0264 13.7577C60.5768 14.8547 60.5498 15.646 60.9455 16.1315C61.3411 16.6171 62.1234 16.8599 63.2924 16.8599C63.3823 16.8599 63.4273 16.9138 63.4273 17.0217C63.4273 17.1296 63.3823 17.1836 63.2924 17.1836C62.7529 17.1836 62.2583 17.1656 61.8087 17.1296C61.3591 17.0937 60.7926 17.0757 60.1092 17.0757C59.4618 17.0757 58.9403 17.0937 58.5446 17.1296C58.167 17.1656 57.6994 17.1836 57.1419 17.1836C57.07 17.1836 57.034 17.1296 57.034 17.0217C57.034 16.9138 57.07 16.8599 57.1419 16.8599C57.6275 16.8599 58.0501 16.77 58.4098 16.5901C58.7694 16.3923 59.1021 16.0596 59.4079 15.592C59.7316 15.1065 60.0823 14.4141 60.4599 13.5149L66.1518 0.0809138C66.1878 0.0269617 66.2507 -1.43107e-05 66.3406 -1.43107e-05C66.4306 -1.43107e-05 66.4845 0.0269617 66.5025 0.0809138L72.8688 13.4879C73.2824 14.3691 73.6511 15.0615 73.9748 15.565C74.2985 16.0506 74.6132 16.3923 74.919 16.5901C75.2427 16.77 75.5934 16.8599 75.971 16.8599ZM81.4241 14.9986C81.4241 15.5201 81.4781 15.9157 81.586 16.1855C81.6939 16.4552 81.9097 16.6351 82.2334 16.725C82.5751 16.8149 83.0697 16.8599 83.7171 16.8599C83.771 16.8599 83.798 16.9138 83.798 17.0217C83.798 17.1296 83.771 17.1836 83.7171 17.1836C83.2855 17.1836 82.7999 17.1746 82.2604 17.1566C81.7389 17.1386 81.1544 17.1296 80.507 17.1296C79.9135 17.1296 79.338 17.1386 78.7805 17.1566C78.241 17.1746 77.7554 17.1836 77.3238 17.1836C77.2699 17.1836 77.2429 17.1296 77.2429 17.0217C77.2429 16.9138 77.2699 16.8599 77.3238 16.8599C77.9712 16.8599 78.4658 16.8149 78.8075 16.725C79.1492 16.6351 79.374 16.4552 79.4819 16.1855C79.5898 15.9157 79.6437 15.5201 79.6437 14.9986V2.50874C79.6437 1.98721 79.5898 1.60055 79.4819 1.34878C79.374 1.07902 79.1492 0.899179 78.8075 0.80926C78.4658 0.701357 77.9712 0.647405 77.3238 0.647405C77.2699 0.647405 77.2429 0.593454 77.2429 0.485551C77.2429 0.377648 77.2699 0.323696 77.3238 0.323696C77.7554 0.323696 78.241 0.34168 78.7805 0.377647C79.338 0.395631 79.9135 0.404623 80.507 0.404623C81.1544 0.404623 81.7479 0.395631 82.2874 0.377647C82.8269 0.34168 83.3035 0.323696 83.7171 0.323696C83.771 0.323696 83.798 0.377648 83.798 0.485551C83.798 0.593454 83.771 0.647405 83.7171 0.647405C83.0697 0.647405 82.5751 0.701357 82.2334 0.80926C81.9097 0.917164 81.6939 1.106 81.586 1.37575C81.4781 1.64551 81.4241 2.04116 81.4241 2.56269V14.9986ZM94.5723 14.2432V0.944139L95.1928 0.998092V14.2432C95.1928 15.1784 95.3546 15.8528 95.6783 16.2664C96.0021 16.6621 96.5416 16.8599 97.2969 16.8599C97.3508 16.8599 97.3778 16.9138 97.3778 17.0217C97.3778 17.1296 97.3508 17.1836 97.2969 17.1836C96.9372 17.1836 96.5685 17.1746 96.1909 17.1566C95.8132 17.1386 95.3906 17.1296 94.923 17.1296C94.4734 17.1296 94.0418 17.1386 93.6282 17.1566C93.2146 17.1746 92.8189 17.1836 92.4412 17.1836C92.4053 17.1836 92.3873 17.1296 92.3873 17.0217C92.3873 16.9138 92.4053 16.8599 92.4412 16.8599C93.2325 16.8599 93.781 16.6621 94.0868 16.2664C94.4105 15.8528 94.5723 15.1784 94.5723 14.2432ZM108.168 17.5073C108.168 17.5433 108.123 17.5613 108.033 17.5613C107.943 17.5792 107.88 17.5792 107.844 17.5613L95.4356 2.53571C94.8241 1.79837 94.2756 1.30382 93.79 1.05204C93.3225 0.782285 92.8729 0.647405 92.4412 0.647405C92.3873 0.647405 92.3603 0.593454 92.3603 0.485551C92.3603 0.377648 92.3873 0.323696 92.4412 0.323696C92.765 0.323696 93.0887 0.332688 93.4124 0.350672C93.7541 0.368656 94.0598 0.377647 94.3296 0.377647C94.6533 0.377647 94.959 0.368656 95.2467 0.350672C95.5345 0.332688 95.7503 0.323696 95.8942 0.323696C96.1279 0.323696 96.2898 0.431599 96.3797 0.647405C96.4696 0.845228 96.7304 1.20491 97.162 1.72644L107.952 14.9716L108.168 17.5073ZM108.168 3.29104V17.5073L107.548 16.6711V3.29104C107.548 2.35588 107.386 1.68148 107.062 1.26785C106.756 0.85422 106.235 0.647405 105.498 0.647405C105.462 0.647405 105.444 0.593454 105.444 0.485551C105.444 0.377648 105.462 0.323696 105.498 0.323696C105.857 0.323696 106.226 0.34168 106.604 0.377647C106.999 0.395631 107.422 0.404623 107.871 0.404623C108.303 0.404623 108.726 0.395631 109.139 0.377647C109.571 0.34168 109.967 0.323696 110.326 0.323696C110.38 0.323696 110.407 0.377648 110.407 0.485551C110.407 0.593454 110.38 0.647405 110.326 0.647405C109.553 0.647405 108.995 0.85422 108.654 1.26785C108.33 1.68148 108.168 2.35588 108.168 3.29104ZM116.168 9.76524L116.438 9.22572H123.587L123.775 9.76524H116.168ZM129.791 16.8599C129.863 16.8599 129.899 16.9138 129.899 17.0217C129.899 17.1296 129.863 17.1836 129.791 17.1836C129.269 17.1836 128.739 17.1656 128.199 17.1296C127.66 17.0937 127.138 17.0757 126.635 17.0757C126.077 17.0757 125.592 17.0937 125.178 17.1296C124.764 17.1656 124.306 17.1836 123.802 17.1836C123.73 17.1836 123.694 17.1296 123.694 17.0217C123.694 16.9138 123.73 16.8599 123.802 16.8599C124.755 16.8599 125.349 16.725 125.583 16.4552C125.817 16.1675 125.754 15.637 125.394 14.8637L119.405 2.212L120.08 1.37575L114.846 13.7577C114.397 14.8547 114.37 15.646 114.765 16.1315C115.161 16.6171 115.943 16.8599 117.112 16.8599C117.202 16.8599 117.247 16.9138 117.247 17.0217C117.247 17.1296 117.202 17.1836 117.112 17.1836C116.573 17.1836 116.078 17.1656 115.629 17.1296C115.179 17.0937 114.613 17.0757 113.929 17.0757C113.282 17.0757 112.76 17.0937 112.365 17.1296C111.987 17.1656 111.519 17.1836 110.962 17.1836C110.89 17.1836 110.854 17.1296 110.854 17.0217C110.854 16.9138 110.89 16.8599 110.962 16.8599C111.447 16.8599 111.87 16.77 112.23 16.5901C112.589 16.3923 112.922 16.0596 113.228 15.592C113.552 15.1065 113.902 14.4141 114.28 13.5149L119.972 0.0809138C120.008 0.0269617 120.071 -1.43107e-05 120.161 -1.43107e-05C120.251 -1.43107e-05 120.304 0.0269617 120.322 0.0809138L126.689 13.4879C127.102 14.3691 127.471 15.0615 127.795 15.565C128.118 16.0506 128.433 16.3923 128.739 16.5901C129.063 16.77 129.413 16.8599 129.791 16.8599ZM133.113 14.2432V0.944139L133.733 0.998092V14.2432C133.733 15.1784 133.895 15.8528 134.219 16.2664C134.543 16.6621 135.082 16.8599 135.838 16.8599C135.892 16.8599 135.918 16.9138 135.918 17.0217C135.918 17.1296 135.892 17.1836 135.838 17.1836C135.478 17.1836 135.109 17.1746 134.732 17.1566C134.354 17.1386 133.931 17.1296 133.464 17.1296C133.014 17.1296 132.582 17.1386 132.169 17.1566C131.755 17.1746 131.36 17.1836 130.982 17.1836C130.946 17.1836 130.928 17.1296 130.928 17.0217C130.928 16.9138 130.946 16.8599 130.982 16.8599C131.773 16.8599 132.322 16.6621 132.627 16.2664C132.951 15.8528 133.113 15.1784 133.113 14.2432ZM146.709 17.5073C146.709 17.5433 146.664 17.5613 146.574 17.5613C146.484 17.5792 146.421 17.5792 146.385 17.5613L133.976 2.53571C133.365 1.79837 132.816 1.30382 132.331 1.05204C131.863 0.782285 131.414 0.647405 130.982 0.647405C130.928 0.647405 130.901 0.593454 130.901 0.485551C130.901 0.377648 130.928 0.323696 130.982 0.323696C131.306 0.323696 131.629 0.332688 131.953 0.350672C132.295 0.368656 132.6 0.377647 132.87 0.377647C133.194 0.377647 133.5 0.368656 133.787 0.350672C134.075 0.332688 134.291 0.323696 134.435 0.323696C134.669 0.323696 134.83 0.431599 134.92 0.647405C135.01 0.845228 135.271 1.20491 135.703 1.72644L146.493 14.9716L146.709 17.5073ZM146.709 3.29104V17.5073L146.088 16.6711V3.29104C146.088 2.35588 145.927 1.68148 145.603 1.26785C145.297 0.85422 144.776 0.647405 144.038 0.647405C144.002 0.647405 143.984 0.593454 143.984 0.485551C143.984 0.377648 144.002 0.323696 144.038 0.323696C144.398 0.323696 144.767 0.34168 145.144 0.377647C145.54 0.395631 145.962 0.404623 146.412 0.404623C146.844 0.404623 147.266 0.395631 147.68 0.377647C148.112 0.34168 148.507 0.323696 148.867 0.323696C148.921 0.323696 148.948 0.377648 148.948 0.485551C148.948 0.593454 148.921 0.647405 148.867 0.647405C148.094 0.647405 147.536 0.85422 147.194 1.26785C146.871 1.68148 146.709 2.35588 146.709 3.29104ZM154.709 9.76524L154.979 9.22572H162.127L162.316 9.76524H154.709ZM168.332 16.8599C168.404 16.8599 168.44 16.9138 168.44 17.0217C168.44 17.1296 168.404 17.1836 168.332 17.1836C167.81 17.1836 167.28 17.1656 166.74 17.1296C166.201 17.0937 165.679 17.0757 165.175 17.0757C164.618 17.0757 164.132 17.0937 163.719 17.1296C163.305 17.1656 162.847 17.1836 162.343 17.1836C162.271 17.1836 162.235 17.1296 162.235 17.0217C162.235 16.9138 162.271 16.8599 162.343 16.8599C163.296 16.8599 163.89 16.725 164.123 16.4552C164.357 16.1675 164.294 15.637 163.935 14.8637L157.946 2.212L158.62 1.37575L153.387 13.7577C152.937 14.8547 152.91 15.646 153.306 16.1315C153.702 16.6171 154.484 16.8599 155.653 16.8599C155.743 16.8599 155.788 16.9138 155.788 17.0217C155.788 17.1296 155.743 17.1836 155.653 17.1836C155.113 17.1836 154.619 17.1656 154.169 17.1296C153.72 17.0937 153.153 17.0757 152.47 17.0757C151.822 17.0757 151.301 17.0937 150.905 17.1296C150.528 17.1656 150.06 17.1836 149.503 17.1836C149.431 17.1836 149.395 17.1296 149.395 17.0217C149.395 16.9138 149.431 16.8599 149.503 16.8599C149.988 16.8599 150.411 16.77 150.77 16.5901C151.13 16.3923 151.463 16.0596 151.768 15.592C152.092 15.1065 152.443 14.4141 152.821 13.5149L158.512 0.0809138C158.548 0.0269617 158.611 -1.43107e-05 158.701 -1.43107e-05C158.791 -1.43107e-05 158.845 0.0269617 158.863 0.0809138L165.229 13.4879C165.643 14.3691 166.012 15.0615 166.335 15.565C166.659 16.0506 166.974 16.3923 167.28 16.5901C167.603 16.77 167.954 16.8599 168.332 16.8599ZM173.785 14.9986C173.785 15.5201 173.839 15.9157 173.947 16.1855C174.055 16.4552 174.27 16.6351 174.594 16.725C174.936 16.8149 175.43 16.8599 176.078 16.8599C176.132 16.8599 176.159 16.9138 176.159 17.0217C176.159 17.1296 176.132 17.1836 176.078 17.1836C175.646 17.1836 175.161 17.1746 174.621 17.1566C174.099 17.1386 173.515 17.1296 172.868 17.1296C172.274 17.1296 171.699 17.1386 171.141 17.1566C170.602 17.1746 170.116 17.1836 169.684 17.1836C169.63 17.1836 169.604 17.1296 169.604 17.0217C169.604 16.9138 169.63 16.8599 169.684 16.8599C170.332 16.8599 170.826 16.8149 171.168 16.725C171.51 16.6351 171.735 16.4552 171.843 16.1855C171.95 15.9157 172.004 15.5201 172.004 14.9986V2.50874C172.004 1.98721 171.95 1.60055 171.843 1.34878C171.735 1.07902 171.51 0.899179 171.168 0.80926C170.826 0.701357 170.332 0.647405 169.684 0.647405C169.63 0.647405 169.604 0.593454 169.604 0.485551C169.604 0.377648 169.63 0.323696 169.684 0.323696C170.116 0.323696 170.602 0.34168 171.141 0.377647C171.699 0.395631 172.274 0.404623 172.868 0.404623C173.515 0.404623 174.108 0.395631 174.648 0.377647C175.188 0.34168 175.664 0.323696 176.078 0.323696C176.132 0.323696 176.159 0.377648 176.159 0.485551C176.159 0.593454 176.132 0.647405 176.078 0.647405C175.43 0.647405 174.936 0.701357 174.594 0.80926C174.27 0.917164 174.055 1.106 173.947 1.37575C173.839 1.64551 173.785 2.04116 173.785 2.56269V14.9986Z" fill="#2C2420"/>
</svg>
