<svg width="61" height="38" viewBox="0 0 61 38" fill="none" xmlns="http://www.w3.org/2000/svg">
<path d="M45.8717 37.3408L44.9659 36.8577C44.8097 36.7746 41.0912 34.7813 36.9864 31.6285C34.5558 29.7616 32.4966 27.8741 30.8654 26.0181C28.7636 23.6262 27.3566 21.2618 26.6837 18.9907L26.1869 17.314L26.2903 17.3019C26.269 17.1653 26.2501 17.0285 26.2339 16.8912C26.0676 15.4806 26.1828 14.0788 26.5766 12.7248C26.9565 11.4177 27.5784 10.2112 28.425 9.13858C29.2715 8.06594 30.3005 7.1806 31.4837 6.50746C32.7092 5.80997 34.0459 5.37195 35.4563 5.20582C35.8685 5.1574 36.2865 5.13275 36.6992 5.13275C38.6574 5.13275 40.5784 5.6873 42.2351 6.71429C42.8769 6.06537 43.5995 5.50441 44.3941 5.03883C45.65 4.30313 47.0248 3.84337 48.4806 3.67185C48.8928 3.62328 49.3108 3.59863 49.7235 3.59863C52.2417 3.59863 54.682 4.50879 56.5953 6.16164C58.5212 7.82529 59.7778 10.1288 60.1343 12.6478C60.1458 12.7287 60.1563 12.8114 60.1661 12.894C60.3 14.0306 60.2502 15.1698 60.0179 16.2806C59.6406 18.8926 58.4787 21.7932 56.5642 24.9024C55.1426 27.2109 53.3196 29.621 51.1456 32.0658C48.705 34.8098 46.7216 36.5837 46.6384 36.6576L45.8717 37.3408ZM29.878 19.1941C31.1758 22.3235 34.2155 25.7812 38.7454 29.2662C41.4924 31.3796 44.1113 32.976 45.442 33.747C46.2171 33.0057 47.5053 31.7269 48.9447 30.1089C52.2795 26.3588 56.403 20.8356 57.1088 15.8191L57.1163 15.7671L57.1272 15.7157C57.3009 14.9048 57.3394 14.0716 57.2412 13.2391C57.2341 13.1788 57.2262 13.1184 57.2182 13.06C56.6925 9.34526 53.4707 6.54379 49.7233 6.54379C49.4255 6.54379 49.1234 6.56157 48.8253 6.59672C46.7442 6.84176 44.9054 7.90011 43.6474 9.57659L42.7193 10.8133L41.5294 9.82586C40.1707 8.69853 38.4553 8.07776 36.6993 8.07776C36.4015 8.07776 36.0992 8.09571 35.8011 8.13071C33.7899 8.36773 31.9914 9.37356 30.7368 10.9631C29.4823 12.5525 28.9219 14.5356 29.1588 16.5468C29.2212 17.0758 29.3385 17.598 29.508 18.0987L29.878 19.1941Z" fill="#CFA417"/>
<path d="M35.6336 5.59123C35.5279 5.4658 35.4196 5.34299 35.3089 5.22266C34.0244 5.39156 32.8028 5.78757 31.6725 6.40061C32.5009 7.02167 33.2118 7.78829 33.7689 8.6576C34.41 8.39141 35.0922 8.21273 35.8003 8.12901C36.0986 8.09401 36.4008 8.07606 36.6987 8.07606C36.8862 8.07606 37.0734 8.08321 37.2599 8.09736C36.8285 7.20004 36.284 6.36107 35.6336 5.59123ZM31.3744 21.895C30.7605 22.6799 30.0929 23.4465 29.3906 24.1892C29.8362 24.7957 30.3279 25.4051 30.8649 26.0164C31.0769 26.2573 31.2959 26.4992 31.522 26.741C31.5401 26.7223 31.5581 26.7038 31.5758 26.685C32.2669 25.964 32.9058 25.2461 33.4921 24.5321C32.674 23.6399 31.9667 22.7591 31.3744 21.895Z" fill="#CFA417"/>
<path d="M16.887 37.8208L16.0061 37.0762C15.8542 36.9475 12.2408 33.8781 8.47721 29.4434C6.24895 26.818 4.43317 24.2572 3.08049 21.8322C1.33735 18.7072 0.350932 15.777 0.14892 13.1229L0 11.1642L0.116515 11.1752C0.125121 11.0201 0.136788 10.8649 0.151519 10.7101C0.432003 7.76175 1.79549 5.04458 3.99049 3.05931C6.17121 1.08718 8.98553 0.000976562 11.9151 0.000976562C12.2907 0.000976562 12.6716 0.0192114 13.0474 0.0548006C14.6871 0.210722 16.2434 0.692923 17.6726 1.4877C18.5771 1.99076 19.4026 2.60278 20.14 3.31544C22.0507 2.06967 24.2883 1.39684 26.5857 1.39684C26.9613 1.39684 27.3424 1.41491 27.7183 1.45065C29.2845 1.59957 30.7776 2.0475 32.1561 2.78159C33.4866 3.49032 34.6569 4.43591 35.6335 5.59213C36.609 6.74702 37.3457 8.05698 37.8227 9.48594C38.3158 10.9638 38.509 12.5055 38.3971 14.0682C38.3904 14.1602 38.3825 14.2536 38.3737 14.3465C38.2519 15.6268 37.9276 16.8662 37.4098 18.0317C36.3774 20.812 34.4149 23.7232 31.576 26.686C29.4683 28.8858 26.8952 31.1021 23.9286 33.2735C20.5983 35.7108 17.9998 37.1901 17.8907 37.2518L16.887 37.8208ZM3.61025 14.1022C4.29593 17.8466 6.81692 22.3647 10.9686 27.2646C13.4867 30.2362 15.9858 32.6093 17.2653 33.771C18.2921 33.1399 20.01 32.0403 21.9737 30.6029C26.5244 27.2721 32.361 22.18 34.3231 16.8361L34.3436 16.7807L34.3678 16.7269C34.7505 15.8774 34.9899 14.9709 35.079 14.033C35.0855 13.9654 35.0912 13.8974 35.0959 13.8309C35.4241 9.25591 31.9738 5.17979 27.4048 4.74513C27.1328 4.71917 26.8571 4.70605 26.5858 4.70605C24.5421 4.70605 22.5625 5.44744 21.0118 6.7937L19.6996 7.93298L18.626 6.56675C17.1706 4.71509 15.0781 3.57245 12.7341 3.34928C12.462 3.32332 12.1865 3.31019 11.9152 3.31019C7.50551 3.31019 3.86463 6.62612 3.44631 11.0234C3.38942 11.6193 3.39498 12.2206 3.46251 12.8109L3.61025 14.1022Z" fill="#2C2420"/>
<path d="M35.633 5.59123C35.5272 5.4658 35.419 5.34299 35.3083 5.22266C34.0237 5.39156 32.8021 5.78757 31.6719 6.40061C32.5002 7.02167 33.2111 7.78829 33.7683 8.6576C34.4093 8.39141 35.0915 8.21273 35.7996 8.12901C36.0979 8.09401 36.4002 8.07606 36.698 8.07606C36.8856 8.07606 37.0727 8.08321 37.2592 8.09736C36.8278 7.20004 36.2833 6.36107 35.633 5.59123Z" fill="#CFA417"/>
</svg>
